<?xml version="1.0" encoding="UTF-8"?>
<svg id="Layer_1" data-name="Layer 1" xmlns="http://www.w3.org/2000/svg" xmlns:xlink="http://www.w3.org/1999/xlink" viewBox="0 0 838.47 294.5">
  <defs>
    <style>
      .cls-1 {
        fill: url(#linear-gradient-15);
      }

      .cls-2 {
        fill: url(#linear-gradient-13);
      }

      .cls-3 {
        fill: url(#linear-gradient-2);
      }

      .cls-4 {
        fill: url(#linear-gradient-10);
      }

      .cls-5 {
        fill: url(#linear-gradient-12);
      }

      .cls-6 {
        fill: url(#linear-gradient-4);
      }

      .cls-7 {
        fill: url(#linear-gradient-3);
      }

      .cls-8 {
        fill: url(#linear-gradient-5);
      }

      .cls-9 {
        fill: #231f20;
      }

      .cls-10 {
        fill: url(#linear-gradient-8);
      }

      .cls-11 {
        fill: url(#linear-gradient-14);
      }

      .cls-12 {
        fill: url(#linear-gradient-20);
      }

      .cls-13 {
        fill: url(#linear-gradient-17);
      }

      .cls-14 {
        fill: url(#linear-gradient-7);
      }

      .cls-15 {
        fill: url(#linear-gradient-9);
      }

      .cls-16 {
        fill: url(#linear-gradient-11);
      }

      .cls-17 {
        fill: #444751;
      }

      .cls-18 {
        fill: url(#linear-gradient-19);
      }

      .cls-19 {
        fill: url(#linear-gradient-6);
      }

      .cls-20 {
        fill: url(#linear-gradient-21);
      }

      .cls-21 {
        fill: url(#linear-gradient-16);
      }

      .cls-22 {
        fill: url(#linear-gradient);
      }

      .cls-23 {
        fill: url(#linear-gradient-18);
      }
    </style>
    <linearGradient id="linear-gradient" x1="76.51" y1="207.16" x2="76.51" y2="17.64" gradientTransform="translate(0 296) scale(1 -1)" gradientUnits="userSpaceOnUse">
      <stop offset="0" stop-color="#f26836"/>
      <stop offset="1" stop-color="#a51212"/>
    </linearGradient>
    <linearGradient id="linear-gradient-2" x1="17.64" y1="207.16" x2="17.64" y2="17.64" xlink:href="#linear-gradient"/>
    <linearGradient id="linear-gradient-3" x1="9.71" x2="9.71" y2="17.64" xlink:href="#linear-gradient"/>
    <linearGradient id="linear-gradient-4" x1="27.85" y1="207.16" x2="27.85" y2="17.64" xlink:href="#linear-gradient"/>
    <linearGradient id="linear-gradient-5" x1="38.14" y1="206.71" x2="38.14" y2="17.19" xlink:href="#linear-gradient"/>
    <linearGradient id="linear-gradient-6" x1="63.87" x2="63.87" y2="17.64" xlink:href="#linear-gradient"/>
    <linearGradient id="linear-gradient-7" x1="54.29" y1="207.16" x2="54.29" y2="17.64" xlink:href="#linear-gradient"/>
    <linearGradient id="linear-gradient-8" x1="69.36" y1="207.16" x2="69.36" y2="17.64" xlink:href="#linear-gradient"/>
    <linearGradient id="linear-gradient-9" x1="87.94" y1="207.16" x2="87.94" y2="17.64" xlink:href="#linear-gradient"/>
    <linearGradient id="linear-gradient-10" x1="150.12" y1="207.16" x2="150.12" y2="17.64" xlink:href="#linear-gradient"/>
    <linearGradient id="linear-gradient-11" x1="178.77" y1="207.64" x2="178.77" y2="18.11" xlink:href="#linear-gradient"/>
    <linearGradient id="linear-gradient-12" x1="278.19" y1="207.16" x2="278.19" y2="17.64" xlink:href="#linear-gradient"/>
    <linearGradient id="linear-gradient-13" x1="236.83" y1="207.16" x2="236.83" y2="17.64" xlink:href="#linear-gradient"/>
    <linearGradient id="linear-gradient-14" x1="227.69" y1="207.16" x2="227.69" y2="17.64" gradientTransform="translate(-.84 289.46) rotate(1.64) scale(1 -1)" xlink:href="#linear-gradient"/>
    <linearGradient id="linear-gradient-15" x1="280.99" y1="209.56" x2="280.99" y2="20.03" xlink:href="#linear-gradient"/>
    <linearGradient id="linear-gradient-16" x1="257.29" y1="207.16" x2="257.29" y2="17.64" xlink:href="#linear-gradient"/>
    <linearGradient id="linear-gradient-17" x1="302.78" y1="207.16" x2="302.78" y2="17.64" xlink:href="#linear-gradient"/>
    <linearGradient id="linear-gradient-18" x1="271.98" y1="211.4" x2="271.98" y2="21.87" xlink:href="#linear-gradient"/>
    <linearGradient id="linear-gradient-19" x1="221.24" y1="207.16" x2="221.24" y2="17.64" xlink:href="#linear-gradient"/>
    <linearGradient id="linear-gradient-20" x1="117.82" x2="117.82" y2="17.64" xlink:href="#linear-gradient"/>
    <linearGradient id="linear-gradient-21" x1="289.67" y1="207.64" x2="289.67" y2="18.11" xlink:href="#linear-gradient"/>
  </defs>
  <g id="Type">
    <g>
      <path class="cls-9" d="M336.83,150.97c2.15-.36,4.96-.67,8.54-.67,4.4,0,7.62,1.02,9.67,2.87,1.89,1.63,3.02,4.14,3.02,7.21s-.92,5.57-2.66,7.37c-2.35,2.51-6.19,3.79-10.53,3.79-1.32,0-2.56-.05-3.58-.31v13.8h-4.44v-34.06h-.01ZM341.29,167.59c.97.25,2.2.36,3.68.36,5.36,0,8.64-2.61,8.64-7.37s-3.22-6.75-8.13-6.75c-1.94,0-3.43.15-4.19.36v13.4h.01Z"/>
      <path class="cls-9" d="M365.63,167.99c0-2.91-.05-5.42-.21-7.72h3.94l.15,4.86h.21c1.13-3.33,3.83-5.42,6.85-5.42.51,0,.86.05,1.28.15v4.25c-.46-.1-.92-.15-1.53-.15-3.17,0-5.42,2.41-6.03,5.78-.1.61-.21,1.32-.21,2.09v13.19h-4.44v-17.02h-.01Z"/>
      <path class="cls-9" d="M406.79,172.45c0,9.15-6.34,13.14-12.33,13.14-6.7,0-11.87-4.9-11.87-12.73,0-8.29,5.42-13.14,12.27-13.14s11.91,5.17,11.91,12.73h.01ZM387.15,172.7c0,5.42,3.12,9.51,7.52,9.51s7.52-4.04,7.52-9.61c0-4.19-2.09-9.51-7.41-9.51s-7.62,4.9-7.62,9.61h-.01Z"/>
      <path class="cls-9" d="M426.21,169.53v3.33h-12.63v-3.33h12.63Z"/>
      <path class="cls-9" d="M434.04,168.35c0-3.17-.1-5.73-.21-8.08h4.04l.21,4.25h.1c1.84-3.01,4.75-4.81,8.79-4.81,5.99,0,10.49,5.06,10.49,12.58,0,8.9-5.42,13.29-11.25,13.29-3.27,0-6.13-1.43-7.62-3.89h-.1v13.44h-4.44v-26.8h0ZM438.48,174.95c0,.67.1,1.28.21,1.84.82,3.12,3.53,5.27,6.75,5.27,4.75,0,7.52-3.89,7.52-9.56,0-4.96-2.61-9.21-7.37-9.21-3.07,0-5.93,2.2-6.8,5.57-.15.56-.31,1.23-.31,1.84v4.25h-.01Z"/>
      <path class="cls-9" d="M488.08,172.45c0,9.15-6.34,13.14-12.33,13.14-6.7,0-11.87-4.9-11.87-12.73,0-8.29,5.42-13.14,12.27-13.14s11.91,5.17,11.91,12.73h.01ZM468.44,172.7c0,5.42,3.12,9.51,7.52,9.51s7.52-4.04,7.52-9.61c0-4.19-2.09-9.51-7.41-9.51s-7.62,4.9-7.62,9.61h-.01Z"/>
      <path class="cls-9" d="M518.72,172.45c0,9.15-6.34,13.14-12.33,13.14-6.7,0-11.87-4.9-11.87-12.73,0-8.29,5.42-13.14,12.27-13.14s11.91,5.17,11.91,12.73h.01ZM499.08,172.7c0,5.42,3.12,9.51,7.52,9.51s7.52-4.04,7.52-9.61c0-4.19-2.09-9.51-7.41-9.51s-7.62,4.9-7.62,9.61h-.01Z"/>
      <path class="cls-9" d="M526.94,167.99c0-2.91-.05-5.42-.21-7.72h3.94l.15,4.86h.21c1.13-3.33,3.83-5.42,6.85-5.42.51,0,.86.05,1.28.15v4.25c-.46-.1-.92-.15-1.53-.15-3.17,0-5.42,2.41-6.03,5.78-.1.61-.21,1.32-.21,2.09v13.19h-4.44v-17.02h-.01Z"/>
      <path class="cls-9" d="M542.43,182.36c0-1.89,1.28-3.22,3.07-3.22s3.02,1.32,3.02,3.22-1.17,3.22-3.07,3.22c-1.78,0-3.01-1.38-3.01-3.22h-.01Z"/>
      <path class="cls-9" d="M570.19,150.97c2.15-.36,4.96-.67,8.54-.67,4.4,0,7.62,1.02,9.67,2.87,1.89,1.63,3.02,4.14,3.02,7.21s-.92,5.57-2.66,7.37c-2.35,2.51-6.19,3.79-10.53,3.79-1.32,0-2.55-.05-3.58-.31v13.8h-4.44v-34.06h-.01ZM574.65,167.59c.97.25,2.2.36,3.68.36,5.38,0,8.64-2.61,8.64-7.37s-3.22-6.75-8.13-6.75c-1.95,0-3.43.15-4.19.36v13.4h.01Z"/>
      <path class="cls-9" d="M598.98,167.99c0-2.91-.05-5.42-.21-7.72h3.94l.15,4.86h.21c1.13-3.33,3.83-5.42,6.85-5.42.51,0,.86.05,1.28.15v4.25c-.46-.1-.92-.15-1.53-.15-3.17,0-5.42,2.41-6.03,5.78-.1.61-.21,1.32-.21,2.09v13.19h-4.44v-17.02h-.01Z"/>
      <path class="cls-9" d="M640.14,172.45c0,9.15-6.34,13.14-12.33,13.14-6.7,0-11.87-4.9-11.87-12.73,0-8.29,5.42-13.14,12.27-13.14s11.91,5.17,11.91,12.73h.01ZM620.5,172.7c0,5.42,3.12,9.51,7.52,9.51s7.52-4.04,7.52-9.61c0-4.19-2.09-9.51-7.41-9.51s-7.62,4.9-7.62,9.61h-.01Z"/>
      <path class="cls-9" d="M659.58,169.53v3.33h-12.63v-3.33h12.63Z"/>
      <path class="cls-9" d="M667.39,166.97c0-2.56-.05-4.65-.21-6.7h3.94l.21,3.98h.15c1.38-2.35,3.68-4.55,7.77-4.55,3.37,0,5.93,2.05,7.01,4.96h.1c.77-1.38,1.74-2.45,2.76-3.22,1.48-1.13,3.12-1.74,5.47-1.74,3.27,0,8.13,2.15,8.13,10.74v14.57h-4.4v-14.01c0-4.75-1.74-7.62-5.36-7.62-2.56,0-4.55,1.89-5.32,4.09-.21.61-.36,1.43-.36,2.26v15.29h-4.4v-14.83c0-3.94-1.74-6.8-5.17-6.8-2.81,0-4.86,2.24-5.57,4.5-.25.67-.36,1.43-.36,2.2v14.93h-4.4v-18.05h.01Z"/>
      <path class="cls-9" d="M726.3,185.02l-.36-3.12h-.15c-1.38,1.94-4.04,3.68-7.56,3.68-5.01,0-7.56-3.53-7.56-7.1,0-5.99,5.32-9.25,14.88-9.21v-.51c0-2.05-.56-5.73-5.63-5.73-2.3,0-4.71.71-6.45,1.84l-1.02-2.97c2.05-1.32,5.01-2.2,8.13-2.2,7.56,0,9.4,5.17,9.4,10.13v9.25c0,2.15.1,4.25.41,5.93h-4.09.01ZM725.63,172.39c-4.9-.1-10.49.77-10.49,5.57,0,2.91,1.94,4.29,4.25,4.29,3.22,0,5.27-2.05,5.99-4.14.15-.46.25-.97.25-1.43v-4.29h0Z"/>
      <path class="cls-9" d="M739.79,167.99c0-2.91-.05-5.42-.21-7.72h3.94l.15,4.86h.21c1.13-3.33,3.83-5.42,6.85-5.42.51,0,.86.05,1.28.15v4.25c-.46-.1-.92-.15-1.53-.15-3.17,0-5.42,2.41-6.03,5.78-.1.61-.21,1.32-.21,2.09v13.19h-4.44v-17.02h-.01Z"/>
      <path class="cls-9" d="M763.72,171.63h.1c.61-.86,1.48-1.94,2.2-2.81l7.26-8.54h5.42l-9.56,10.17,10.89,14.57h-5.47l-8.54-11.87-2.3,2.55v9.31h-4.44v-36.3h4.44v22.91h0Z"/>
      <path class="cls-9" d="M788.32,173.46c.1,6.09,3.98,8.59,8.48,8.59,3.22,0,5.17-.56,6.85-1.28l.77,3.22c-1.59.71-4.29,1.53-8.23,1.53-7.62,0-12.17-5.01-12.17-12.48s4.4-13.35,11.6-13.35c8.08,0,10.23,7.1,10.23,11.66,0,.92-.1,1.63-.15,2.09h-17.38.01ZM801.51,170.25c.05-2.87-1.17-7.31-6.24-7.31-4.55,0-6.55,4.19-6.91,7.31h13.15Z"/>
      <path class="cls-9" d="M819.41,153.17v7.1h6.45v3.43h-6.45v13.35c0,3.07.86,4.81,3.37,4.81,1.17,0,2.05-.15,2.61-.31l.21,3.37c-.86.36-2.24.61-3.98.61-2.09,0-3.79-.67-4.86-1.89-1.28-1.32-1.74-3.53-1.74-6.45v-13.5h-3.83v-3.43h3.83v-5.93l4.4-1.17h0Z"/>
      <path class="cls-9" d="M832.24,182.36c0-1.89,1.28-3.22,3.07-3.22s3.01,1.32,3.01,3.22-1.17,3.22-3.07,3.22c-1.78,0-3.01-1.38-3.01-3.22Z"/>
    </g>
    <g>
      <path class="cls-9" d="M378.46,121.54v13.48h-42.95v-63.29h16.09v49.82h26.85Z"/>
      <path class="cls-9" d="M392.92,135.02v-63.29h16.09v63.29h-16.09Z"/>
      <path class="cls-9" d="M457.2,117.2h-12.66v17.81h-16.09v-63.29h28.3c16.73,0,26.31,7.96,26.31,22.06,0,9.68-4.07,16.64-11.48,20.34l13.29,20.89h-18.26l-9.4-17.81h0ZM456.75,104.55c6.96,0,11.04-3.53,11.04-10.21s-4.07-9.94-11.04-9.94h-12.21v20.17h12.21Z"/>
      <path class="cls-9" d="M544.9,135.02l-29.11-38.97v38.97h-15.1v-63.29h14.2l29.21,39.06v-39.06h15.01v63.29h-14.21Z"/>
      <path class="cls-9" d="M594.64,84.38v12.57h30.19v12.66h-30.19v12.75h34.45v12.66h-50.54v-63.29h49.55v12.66h-33.46Z"/>
      <path class="cls-9" d="M689.3,103.19v31.82h-15.28v-3.88c-5.13,3.59-9.45,4.6-14.92,4.6-10.4,0-16.73-6.33-16.73-15.28s6.6-14.65,18.72-14.74h12.84v-.72c0-4.8-3.57-8.65-9.9-8.65-4.07,0-8.88.3-14.72,2.13l-4.16-10.12c7.75-1.8,13.04-2.81,22.9-2.81,13.38,0,21.16,6.6,21.25,17.63h0ZM673.93,118.46v-4.34h-9.85c-4.7,0-7.05,1.63-7.05,5.24s2.53,5.79,6.88,5.79c4.88,0,9.04-2.71,10.04-6.69h-.01Z"/>
      <path class="cls-9" d="M744.72,91.07l-5.33,10.13c-5.88-3.16-11.3-4.88-15.37-4.88-2.8,0-4.8,1.08-4.8,3.35,0,6.69,25.68,3.44,25.58,20.43,0,10.04-8.77,15.55-20.53,15.55-8.13,0-16.01-2.35-21.88-6.88l4.97-9.94c5.52,3.89,11.85,6.05,17.26,6.05,3.08,0,5.33-1.08,5.33-3.35,0-7.14-25.22-3.44-25.14-20.53,0-10.04,8.5-15.46,19.8-15.46,7.05,0,14.1,1.99,20.07,5.52h.02Z"/>
      <path class="cls-9" d="M776.45,72.27c0,4.88-3.44,8.32-8.23,8.32s-8.23-3.44-8.23-8.32,3.44-8.23,8.23-8.23,8.23,3.44,8.23,8.23ZM760.36,135.02v-48.73h15.56v48.73h-15.56Z"/>
      <path class="cls-9" d="M838.47,103.19v31.82h-15.28v-3.88c-5.13,3.59-9.45,4.6-14.92,4.6-10.4,0-16.73-6.33-16.73-15.28s6.6-14.65,18.72-14.74h12.84v-.72c0-4.8-3.57-8.65-9.9-8.65-4.07,0-8.88.3-14.72,2.13l-4.16-10.12c7.75-1.8,13.04-2.81,22.9-2.81,13.38,0,21.16,6.6,21.25,17.63h0ZM823.1,118.46v-4.34h-9.85c-4.7,0-7.05,1.63-7.05,5.24s2.53,5.79,6.88,5.79c4.88,0,9.04-2.71,10.04-6.69h-.01Z"/>
    </g>
  </g>
  <g id="Mark">
    <g>
      <path class="cls-17" d="M295.04,202.92c.57-.74,1.24-1.4,1.98-1.96-3.09-3.61-6.08-7.29-9-11.02-.63.68-1.38,1.26-2.18,1.72,2.98,3.81,6.04,7.56,9.2,11.25h0Z"/>
      <path class="cls-17" d="M276.71,174.55c-7.81-11.31-14.9-23.1-21.22-35.31l-2.47,1.27c6.36,12.32,13.52,24.22,21.39,35.61.68-.62,1.46-1.16,2.3-1.58Z"/>
      <path class="cls-17" d="M230.96,164.1c.73-.56,1.53-.99,2.35-1.3-4.63-8.34-8.93-16.88-12.89-25.61l-2.54,1.14c3.98,8.8,8.33,17.41,13.01,25.83.02-.02.04-.04.07-.05Z"/>
      <path class="cls-17" d="M272.47,219.53c-3.11-3.68-6.14-7.41-9.09-11.2-.72.58-1.53,1.07-2.41,1.42,3.08,3.97,6.25,7.88,9.5,11.72.57-.74,1.24-1.4,1.99-1.95Z"/>
      <path class="cls-17" d="M282.71,126.08c-1.92-3.23-3.74-6.54-5.43-9.91-.74.48-1.54.88-2.41,1.14,1.8,3.37,3.68,6.77,5.64,10.1l2.19-1.34h.01Z"/>
      <path class="cls-17" d="M183.74,128.86c-.79.47-1.65.83-2.57,1.06,1.47,3.82,3,7.61,4.58,11.37l2.55-1.12c-1.58-3.74-3.1-7.52-4.55-11.33h0Z"/>
      <path class="cls-17" d="M249.82,194.56c.6-.72,1.3-1.35,2.08-1.87-3.05-4.4-6.01-8.87-8.86-13.4-.12.1-.24.21-.36.31-.63.48-1.3.85-2,1.16,2.93,4.67,5.98,9.27,9.13,13.8h.01Z"/>
      <path class="cls-17" d="M220.22,257.34c.59-.73,1.27-1.37,2.04-1.9-55.61-72.17-87.39-151.06-94.47-234.76l-2.77.23c3.39,40.17,12.46,79.52,26.93,117,15.94,41.25,38.89,81.37,68.27,119.45h0Z"/>
      <path class="cls-17" d="M146.44,195.5c-1.93-3.74-3.79-7.51-5.61-11.31l-2.51,1.2c1.85,3.86,3.75,7.71,5.71,11.53.72-.58,1.53-1.06,2.4-1.42h0Z"/>
      <path class="cls-17" d="M22.91,128.5l-2.69.7c1.18,4.5,2.42,8.99,3.71,13.47.84-.37,1.74-.62,2.68-.74-1.29-4.46-2.53-8.93-3.7-13.42h0Z"/>
      <path class="cls-17" d="M13.37,84.73c-.85.35-1.76.58-2.7.67.82,4.69,1.71,9.37,2.65,14.03l2.73-.58c-.95-4.7-1.84-9.4-2.67-14.12Z"/>
      <path class="cls-17" d="M29.63,161.09c1.25,3.81,2.54,7.61,3.88,11.39.81-.44,1.69-.77,2.62-.96-1.32-3.75-2.62-7.53-3.85-11.32-.82.42-1.7.72-2.63.9h-.01Z"/>
      <path class="cls-17" d="M86.67,128.94c-1.42-4.74-2.77-9.51-4.04-14.31l-2.68.72c1.28,4.81,2.63,9.59,4.05,14.34.83-.37,1.74-.62,2.68-.76h-.01Z"/>
      <path class="cls-17" d="M59.01,152.32c.8-.46,1.66-.81,2.59-1.03-1.29-3.9-2.53-7.82-3.72-11.75-.85.34-1.76.56-2.71.65,1.24,4.06,2.52,8.11,3.85,12.13h-.01Z"/>
      <path class="cls-17" d="M52.6,120.96c-4.87-18.52-8.69-37.33-11.44-56.28l-2.75.39c2.77,19.1,6.62,38.08,11.54,56.76.82-.42,1.71-.71,2.65-.88Z"/>
      <path class="cls-17" d="M71.73,78.84l2.74-.51c-.83-4.53-1.6-9.06-2.3-13.62-.88.26-1.8.41-2.75.41.71,4.59,1.48,9.16,2.32,13.72h-.01Z"/>
    </g>
    <g>
      <path class="cls-22" d="M72.71,117.3c-3.28-12.18-6.13-24.65-8.45-37.06l16.32-3.05c2.24,11.99,4.99,24.03,8.17,35.79l-16.04,4.32h0Z"/>
      <path class="cls-3" d="M12.87,131.13c-2.13-8.11-4.78-21.99-6.54-30.2l16.25-3.47c1.7,7.96,4.29,21.59,6.36,29.46l-16.07,4.21Z"/>
      <circle class="cls-7" cx="9.71" cy="75.75" r="9.71"/>
      <circle class="cls-6" cx="27.85" cy="151.56" r="9.71"/>
      <circle class="cls-8" cx="38.14" cy="181.02" r="9.71"/>
      <circle class="cls-19" cx="63.87" cy="160.73" r="9.71"/>
      <circle class="cls-14" cx="54.29" cy="130.53" r="9.71"/>
      <circle class="cls-10" cx="69.36" cy="55.42" r="9.71"/>
      <circle class="cls-15" cx="87.94" cy="138.56" r="9.71"/>
      <circle class="cls-4" cx="150.12" cy="204.48" r="9.71"/>
      <circle class="cls-16" cx="178.77" cy="120.53" r="9.71"/>
      <circle class="cls-5" cx="278.19" cy="227.38" r="9.71"/>
      <circle class="cls-2" cx="236.83" cy="171.84" r="9.71"/>
      <ellipse class="cls-11" cx="227.68" cy="263.77" rx="9.71" ry="10.05" transform="translate(-7.46 6.62) rotate(-1.64)"/>
      <circle class="cls-1" cx="280.99" cy="183.26" r="9.71"/>
      <circle class="cls-21" cx="257.29" cy="200.77" r="9.71"/>
      <circle class="cls-13" cx="302.78" cy="208.78" r="9.71"/>
      <circle class="cls-23" cx="271.98" cy="108.03" r="9.71"/>
      <path class="cls-18" d="M250.46,258.18c-7.53-8.94-17.12-20.99-23.91-30.43-18.65-25.98-34.63-54.08-47.48-83.52l15.23-6.65c12.38,28.37,27.77,55.44,45.75,80.48,6.08,8.46,16.67,21.41,23.37,29.46-4.25,3.49-9.86,8.34-12.95,10.66h-.01Z"/>
      <path class="cls-12" d="M131.71,188.57c-9.36-19.52-17.38-39.87-23.85-60.51-9.57-30.52-15.94-62.2-18.92-94.19l16.54-1.54c2.87,30.82,9,61.35,18.23,90.75,6.24,19.88,13.97,39.49,22.99,58.3l-14.98,7.18h-.01Z"/>
      <path class="cls-20" d="M290.83,157.31c-4.69-6.96-11.76-19.19-16.11-26.37l14.2-8.63c4.23,6.96,11.16,18.97,15.7,25.73l-13.78,9.27Z"/>
    </g>
  </g>
</svg>