<?xml version="1.0" encoding="UTF-8"?>
<svg id="Layer_2" data-name="Layer 2" xmlns="http://www.w3.org/2000/svg" xmlns:xlink="http://www.w3.org/1999/xlink" viewBox="0 0 443.9 458.67">
  <defs>
    <style>
      .cls-1, .cls-2, .cls-3, .cls-4, .cls-5, .cls-6, .cls-7, .cls-8, .cls-9, .cls-10 {
        stroke: #1f1a17;
      }

      .cls-1, .cls-2, .cls-3, .cls-4, .cls-5, .cls-6, .cls-7, .cls-10 {
        stroke-width: 1.14px;
      }

      .cls-1, .cls-11, .cls-12 {
        fill: #fff;
      }

      .cls-1, .cls-12, .cls-13, .cls-14, .cls-5, .cls-15, .cls-6, .cls-16, .cls-7, .cls-17, .cls-18, .cls-19, .cls-10, .cls-20 {
        fill-rule: evenodd;
      }

      .cls-2, .cls-21, .cls-8, .cls-9 {
        fill: none;
      }

      .cls-3, .cls-22, .cls-6, .cls-16 {
        fill: #0069ac;
      }

      .cls-13, .cls-15 {
        stroke: #000;
        stroke-miterlimit: 1.69;
        stroke-width: 2.35px;
      }

      .cls-13, .cls-19 {
        fill: #ffbe29;
      }

      .cls-14, .cls-4, .cls-5 {
        fill: #ffb700;
      }

      .cls-7 {
        fill: #df4b24;
      }

      .cls-8 {
        stroke-width: .63px;
      }

      .cls-17 {
        fill: #da251d;
      }

      .cls-9 {
        stroke-width: .74px;
      }

      .cls-10, .cls-20 {
        fill: #1f1a17;
      }

      .cls-23 {
        clip-path: url(#clippath);
      }
    </style>
    <clipPath id="clippath">
      <path class="cls-21" d="M221.95,415.58h21.62c5.1-2.42,15.65-13.23,15.65-13.23,29.05-40.2-7.26-40.55-7.26-40.55h-60s-36.31.35-7.18,40.55c0,0,10.46,10.81,15.56,13.23h21.62Z"/>
    </clipPath>
  </defs>
  <g>
    <path class="cls-22" d="M358.36,413.71s-1.17,2.47-3.36,5.45h5.5v6.23c2.37,1.37,5.54,3.89,6.74,7.93l.02.05c.62,2.19,3.39,2.86,3.4,2.86l3.16.81v21.63H70.08v-21.63l3.16-.81s2.78-.67,3.4-2.86l.02-.05c1.2-4.05,4.37-6.56,6.74-7.93v-6.23h5.5c-2.19-2.98-3.35-5.44-3.36-5.45v-.03s-.02,0-.02,0c-.39-.85-.75-1.7-1.08-2.57-.34-.87-.65-1.74-.93-2.63-1.5-4.7-2.27-9.59-2.27-14.52h0s.02,0,.02,0c0-7.45,1.77-14.4,4.88-20.6.75-1.51,1.59-2.97,2.5-4.39,4.63-7.19,11.17-13.11,18.8-17.26l2.36-1.46c7.26-5.02.96-11.77.09-12.66h0s-.1-.1-.1-.1c-4.28-4.12-8.32-8.47-12.12-13.03-3.81-4.57-7.36-9.34-10.65-14.3-16.92-25.56-26.77-56.22-26.77-89.12h0s.02,0,.02,0c0-15.99,2.32-31.42,6.63-45.98,2.44-8.24,5.55-16.28,9.28-24.03,18.45-38.35,51.58-68.31,92.09-82.59-1.04-4.22-1.58-8.64-1.58-13.14h0s.02,0,.02,0c0-15.26,6.19-29.08,16.19-39.08C192.87,6.21,206.69.02,221.94.02v-.02h0v.02c15.26,0,29.08,6.19,39.08,16.19,10,10,16.19,23.82,16.19,39.08h.02v.02h-.02c0,2.94-.23,5.88-.69,8.79-.23,1.46-.52,2.91-.88,4.34,7.68,2.7,15.14,5.98,22.32,9.82,8.27,4.42,16.15,9.54,23.54,15.32,37.86,29.62,62.16,75.72,62.16,127.47h0s-.02,0-.02,0c0,22.85-4.75,44.61-13.31,64.33-1.39,3.2-2.89,6.36-4.48,9.47v.02c-8.16,15.86-18.88,30.26-31.73,42.62-.02.02-7.78,7.38-.01,12.75l2.36,1.46c2.09,1.13,4.1,2.39,6.02,3.78,1.95,1.42,3.8,2.97,5.54,4.65,8.97,8.65,14.63,20.42,14.63,33.82h0s-.02,0-.02,0c0,3.54-.38,6.97-1.09,10.23-.12.54-.24,1.08-.38,1.61-.69,2.71-1.63,5.35-2.8,7.89l-.02.02Z"/>
    <path class="cls-11" d="M354.29,393.97c.57-22.66-20.9-34.32-24.66-36.66l-.15-.1c-16.48-11.22-1.19-25.71-1.15-25.75l.02-.02H115.54l.02.02s15.33,14.53-1.15,25.75l-.15.1c-14.86,9.22-24.48,18.89-24.66,36.64-.18,17.35,8.34,26.6,24.33,33.59h-22.16v3.47l-2.85.97s-3.45,1.14-4.23,3.65h0c-1.11,3.94-3.96,6.21-6.23,7.44v7.21h286.96v-7.21c-2.27-1.23-5.12-3.5-6.23-7.44h0c-.78-2.51-4.22-3.65-4.23-3.65l-2.85-.97v-3.47h-22.16c7.23-3.25,23.76-10.92,24.33-33.58h0Z"/>
    <path class="cls-12" d="M262.47,73.31c2.44-5.5,3.79-11.6,3.79-18.01,0-24.47-19.85-44.32-44.32-44.32s-44.32,19.85-44.32,44.32c0,6.39,1.35,12.47,3.77,17.96-65.22,17.76-113.19,77.4-113.19,148.24,0,84.83,68.8,153.63,153.63,153.63s153.63-68.8,153.63-153.63c0-70.76-47.88-130.36-113-148.18h0Z"/>
    <path class="cls-14" d="M221.95,370.88c83.09,0,150.44-67.35,150.44-150.44s-67.35-150.44-150.44-150.44S71.51,137.35,71.51,220.44s67.35,150.44,150.44,150.44h0Z"/>
    <path class="cls-12" d="M221.95,366.04c80.41,0,145.69-65.19,145.69-145.6s-65.28-145.68-145.69-145.68S76.35,140.03,76.35,220.44s65.19,145.6,145.6,145.6Z"/>
    <g>
      <path class="cls-5" d="M179.67,92.56s-2.42,0-4.24,1.47c0,0-5.71-1.82-6.31,5.45l-1.21,2.08s-.52-.52,4.24-.86c3.54-.35,3.46-6.31,4.41-7.26l3.11-.86ZM161.95,97.06s-2.42,0-4.24,1.47c0,0-5.71-1.82-6.31,5.45l-1.21,2.08s-.52-.52,4.24-.86c3.63-.35,3.46-6.31,4.41-7.26l3.11-.86ZM148.11,106.4s-2.42,0-4.24,1.47c0,0-5.71-1.82-6.31,5.36l-1.12,2.16s-.61-.52,4.15-.95c3.63-.26,3.46-6.23,4.41-7.18l3.11-.86Z"/>
      <path class="cls-5" d="M172.15,93.43s-2.42,0-4.24,1.56c0,0-5.71-1.82-6.31,5.36l-1.21,2.08s-.52-.43,4.24-.86c3.63-.35,3.46-6.23,4.41-7.18l3.11-.95ZM149.15,116.86s-2.42-.43-4.41.78c0,0-5.36-2.77-7.09,4.24l-1.56,1.9s-.43-.6,4.32-.17c3.54.26,4.41-5.62,5.53-6.4l3.2-.35Z"/>
      <path class="cls-5" d="M172.41,104.06s-2.07-1.21-4.41-.86c0,0-3.89-4.5-8.21,1.38l-2.08,1.21s-.17-.78,4.06,1.38c3.2,1.56,6.23-3.54,7.52-3.89l3.11.78Z"/>
      <path class="cls-5" d="M160.91,106.74s-2.16-1.12-4.41-.69c0,0-4.15-4.32-8.13,1.73l-2.07,1.3s-.17-.69,4.15,1.21c3.29,1.47,6.05-3.8,7.35-4.24l3.11.69ZM137.22,113.06s-2.33.35-3.89,2.08c0,0-5.97-.87-5.36,6.4l-.86,2.25s-.61-.43,3.98-1.56c3.54-.86,2.51-6.74,3.29-7.78l2.85-1.38Z"/>
      <path class="cls-5" d="M154.42,110.29s-6.66-2.07-11.76,4.76l-1.73.6s10.55,2.16,12.54-4.75l.95-.61ZM137.56,124.64s-6.57-1.99-11.67,4.84l-1.82.6s10.63,2.16,12.62-4.84l.86-.61ZM127.54,117.38s-2.08,1.21-2.85,3.37c0,0-5.88,1.3-2.77,7.87v2.42s-.78-.17,3.2-2.85c2.94-2.08-.09-7.18.26-8.47l2.16-2.33Z"/>
      <path class="cls-5" d="M122,120.58s-2.16,1.04-3.2,3.2c0,0-5.88.69-3.46,7.52l-.17,2.42s-.69-.26,3.46-2.59c3.11-1.82.52-7.18.95-8.39l2.42-2.16Z"/>
      <path class="cls-5" d="M117.68,127.49s-2.33.86-3.46,2.85c0,0-5.97.26-4.15,7.26l-.43,2.33s-.6-.26,3.72-2.25c3.29-1.47,1.12-7.09,1.73-8.3l2.59-1.9ZM122.87,140.2s-6.92,0-9.86,7.95l-1.56,1.12s10.81-.95,10.72-8.21l.69-.86ZM127.79,130.26s-5.45.61-6.92,7.26l-1.12,1.04s8.39-1.9,7.61-7.61l.43-.69Z"/>
      <path class="cls-5" d="M113.96,138.56s-2.08,1.12-2.85,3.37c0,0-5.88,1.21-2.85,7.78v2.42s-.69-.17,3.2-2.85c3.03-2.07-.09-7.18.26-8.47l2.25-2.25ZM104.97,154.73s-2.08,1.21-2.94,3.37c0,0-5.79,1.3-2.77,7.87v2.42s-.69-.17,3.2-2.85c3.03-2.08-.09-7.18.26-8.47l2.25-2.33ZM98.05,171.24s-2.08,1.21-2.85,3.37c0,0-5.88,1.3-2.85,7.87v2.42s-.69-.17,3.2-2.85c3.03-2.07-.09-7.18.26-8.47l2.25-2.33ZM95.89,158.45s-1.56,1.82-1.56,4.15c0,0-5.1,3.11-.09,8.3l.86,2.25s-.78.09,1.99-3.72c2.16-2.94-2.42-6.74-2.51-8.13l1.3-2.85ZM104.45,145.56s-4.67,3.03-3.03,9.6l-.52,1.38s6.66-5.36,3.46-10.12l.09-.86Z"/>
      <path class="cls-5" d="M108,135.62s-4.58,3.03-2.94,9.6l-.61,1.47s6.74-5.45,3.46-10.2l.09-.86ZM99,151.27s-4.58,3.03-2.94,9.6l-.61,1.38s6.74-5.36,3.46-10.12l.09-.86ZM120.19,151.1s-2.33-.43-4.41.69c0,0-5.27-2.85-7.18,4.06l-1.64,1.82s-.43-.61,4.32-.09c3.54.43,4.58-5.45,5.71-6.23l3.2-.26Z"/>
      <path class="cls-5" d="M115.95,158.01s-2.33-.52-4.41.69c0,0-5.19-2.94-7.18,4.06l-1.56,1.82s-.43-.61,4.24-.09c3.63.43,4.67-5.45,5.79-6.23l3.11-.26ZM109.38,165.1s-2.42.09-4.15,1.64c0,0-5.79-1.64-6.14,5.62l-1.12,2.16s-.52-.52,4.15-1.04c3.63-.43,3.29-6.4,4.15-7.44l3.11-.95ZM105.66,173.4s-2.33.61-3.72,2.51c0,0-5.97-.35-4.84,6.74l-.61,2.33s-.69-.35,3.8-1.9c3.46-1.12,1.9-6.92,2.59-8.04l2.77-1.64ZM91.22,169.86s-4.67,3.03-3.03,9.6l-.52,1.47s6.66-5.45,3.46-10.2l.09-.86ZM118.54,131.47s-4.67,3.03-3.03,9.6l-.52,1.38s6.66-5.36,3.46-10.2l.09-.78Z"/>
      <path class="cls-5" d="M100.21,183s-2.33.6-3.72,2.51c0,0-5.97-.35-4.76,6.74l-.69,2.33s-.61-.35,3.89-1.9c3.37-1.12,1.82-6.92,2.51-8.04l2.77-1.64ZM96.93,197.79s-2.33.52-3.72,2.42c0,0-5.97-.35-4.75,6.83l-.69,2.25s-.61-.35,3.89-1.82c3.37-1.21,1.82-6.92,2.51-8.13l2.77-1.56ZM90.27,180.32s-4.58,3.11-2.94,9.68l-.52,1.38s6.66-5.36,3.37-10.2l.09-.86Z"/>
      <path class="cls-5" d="M86.81,190.44s-3.8,3.98-.69,10.03l-.26,1.56s5.36-6.83,1.12-10.72l-.17-.86ZM83.96,199.95s-1.3,1.99-.95,4.32c0,0-4.5,3.89,1.3,8.21l1.12,2.08s-.69.26,1.47-3.98c1.64-3.29-3.46-6.31-3.8-7.61l.86-3.03ZM89.67,209.11s-1.21,2.08-.86,4.41c0,0-4.5,3.98,1.38,8.21l1.21,2.08s-.69.17,1.38-4.06c1.64-3.29-3.54-6.23-3.89-7.52l.78-3.11ZM95.03,192.68s-5.36,1.38-5.88,8.13l-1.04,1.12s8.13-2.94,6.57-8.47l.35-.78ZM93.9,225.97s-1.21,2.08-.86,4.32c0,0-4.5,3.98,1.38,8.21l1.21,2.16s-.69.17,1.38-4.15c1.56-3.2-3.63-6.14-3.89-7.44l.78-3.11Z"/>
      <path class="cls-5" d="M88.46,219.05s-1.21,2.07-.86,4.41c0,0-4.41,3.89,1.47,8.13l1.12,2.16s-.69.17,1.38-4.06c1.64-3.29-3.54-6.23-3.89-7.52l.78-3.11Z"/>
      <path class="cls-5" d="M83.96,211.88s-1.21,1.99-.86,4.32c0,0-4.41,3.98,1.38,8.21l1.21,2.08s-.69.26,1.38-4.06c1.64-3.2-3.54-6.14-3.89-7.44l.78-3.11Z"/>
      <path class="cls-5" d="M81.02,219.66s-.86,2.25-.09,4.41c0,0-3.63,4.75,2.94,7.78l1.56,1.9s-.69.35.6-4.24c.95-3.54-4.67-5.45-5.27-6.66l.26-3.2Z"/>
      <path class="cls-5" d="M86.64,228.65s-1.12,2.16-.61,4.5c0,0-4.15,4.24,1.9,8.04l1.38,1.99s-.69.26,1.12-4.06c1.38-3.37-3.98-5.97-4.41-7.26l.61-3.2ZM97.01,239.03s-1.64,1.73-1.82,4.06c0,0-5.19,2.94-.35,8.3l.78,2.33s-.78,0,2.16-3.72c2.25-2.77-2.16-6.74-2.25-8.13l1.47-2.85Z"/>
      <path class="cls-5" d="M84.22,235.57s-1.04,2.16-.52,4.41c0,0-4.24,4.24,1.9,8.13l1.3,1.99s-.69.26,1.12-4.15c1.38-3.29-3.98-5.97-4.41-7.18l.61-3.2Z"/>
      <path class="cls-5" d="M86.55,248.36s-3.2,4.58.78,10.03v1.56s4.24-7.52-.52-10.72l-.26-.86Z"/>
      <path class="cls-5" d="M89.06,239.8s-1.12,2.16-.61,4.41c0,0-4.24,4.24,1.9,8.04l1.3,2.07s-.69.26,1.21-4.15c1.38-3.37-3.98-5.97-4.41-7.26l.61-3.11Z"/>
      <path class="cls-5" d="M92.09,249.66s-1.12,2.16-.6,4.5c0,0-4.24,4.24,1.9,8.04l1.3,2.08s-.69.17,1.12-4.15c1.38-3.37-3.98-5.97-4.32-7.26l.61-3.2Z"/>
      <path class="cls-5" d="M90.27,257.53s-1.12,2.07-.6,4.41c0,0-4.24,4.24,1.9,8.04l1.3,2.08s-.69.26,1.12-4.15c1.38-3.37-3.89-5.97-4.32-7.26l.61-3.11ZM98.92,251.56s-1.47,1.9-1.47,4.24c0,0-4.93,3.29.26,8.3l.86,2.25s-.69.09,1.99-3.89c1.99-2.94-2.68-6.57-2.85-7.95l1.21-2.94ZM98.31,272.23s-.69,5.45,5.45,8.47l.69,1.3s.17-8.65-5.53-9.16l-.61-.61Z"/>
      <path class="cls-5" d="M102.03,260.99s-1.12,2.07-.78,4.41c0,0-4.41,4.06,1.56,8.13l1.21,2.08s-.69.26,1.3-4.06c1.56-3.29-3.63-6.14-3.98-7.44l.69-3.11ZM108.77,290.21s-1.64,5.27,3.8,9.34l.43,1.47s1.82-8.47-3.8-10.12l-.43-.69ZM103.33,281.48s-1.64,5.27,3.8,9.34l.52,1.47s1.73-8.39-3.8-10.03l-.52-.78ZM94.59,278.02s-.6,2.33.52,4.41c0,0-3.11,5.1,3.8,7.35l1.82,1.64s-.69.43,0-4.32c.52-3.54-5.27-4.75-5.97-5.88l-.17-3.2Z"/>
      <path class="cls-5" d="M100.56,285.46s-.52,2.33.52,4.5c0,0-3.03,5.1,3.8,7.35l1.82,1.64s-.6.43.09-4.32c.52-3.54-5.36-4.75-6.05-5.97l-.17-3.2ZM91.57,271.19s-.61,5.53,5.45,8.47l.78,1.3s.17-8.56-5.62-9.16l-.61-.61ZM115,294.88s-1.21,5.45,4.5,9.08l.61,1.38s1.12-8.56-4.58-9.77l-.52-.69ZM108.43,279.32s-1.21,5.36,4.5,8.99l.61,1.38s1.04-8.47-4.58-9.68l-.52-.69ZM109.64,301.54s1.12,5.36,7.87,6.31l1.04.95s-2.51-8.13-8.21-6.92l-.69-.35ZM111.63,306.81s.17,2.42,1.73,4.06c0,0-1.38,5.79,5.88,5.88l2.16,1.12s-.43.52-1.21-4.15c-.52-3.54-6.48-3.03-7.44-3.89l-1.12-3.03Z"/>
      <path class="cls-5" d="M119.06,306.2s.17,2.42,1.82,4.06c0,0-1.38,5.88,5.88,5.97l2.16,1.04s-.52.52-1.21-4.15c-.52-3.54-6.48-3.03-7.52-3.89l-1.12-3.03Z"/>
      <path class="cls-5" d="M123.21,301.54s-.09,2.33,1.3,4.24c0,0-2.08,5.62,5.01,6.57l2.08,1.3s-.52.52-.69-4.24c-.09-3.54-6.05-3.8-6.92-4.76l-.78-3.11ZM131.94,310.79s-.17,2.42,1.3,4.32c0,0-2.16,5.62,5.01,6.57l2.08,1.3s-.61.52-.69-4.24c-.09-3.63-6.05-3.8-7-4.84l-.69-3.11ZM129.26,318.05s-.17,2.33,1.21,4.24c0,0-2.08,5.62,5.1,6.57l1.99,1.3s-.52.52-.61-4.24c-.17-3.54-6.14-3.8-7-4.75l-.69-3.11ZM143.53,324.36s1.12,5.36,7.87,6.31l1.12.95s-2.59-8.21-8.21-6.92l-.78-.35ZM138.43,326.18s1.12,5.36,7.87,6.23l1.12,1.04s-2.59-8.21-8.21-6.92l-.78-.35Z"/>
      <path class="cls-5" d="M150.45,331.54s1.12,5.45,7.87,6.31l1.12,1.04s-2.59-8.21-8.21-6.92l-.78-.43ZM158.49,332.75s1.21,5.36,7.95,6.31l1.04,1.04s-2.51-8.21-8.21-6.92l-.78-.43ZM143.36,331.54s.52,2.33,2.42,3.8c0,0-.52,5.97,6.57,4.93l2.33.69s-.35.69-1.82-3.89c-1.04-3.46-6.83-1.99-7.95-2.68l-1.56-2.85Z"/>
      <path class="cls-5" d="M204.57,350.73c4.76-6.05-15.91-2.42-15.91-2.42-15.91,10.81-36.92-.86-45.05-7.18s-28.53-23.17-28.53-23.17c0,0,8.99,8.13,14.09,9.34,5.1,1.21,8.13,5.71,9.34,7.52,1.21,1.82,17.98,11.67,22.48,12.28,4.5.61,21.01,2.16,30-2.94,0,0-22.13-2.42-26.72-.35l3.37-1.82s-9.68.95-12.97-1.04c0,0,5.45,1.38,9.94.17,0,0-4.06-1.3-5.19-2.25,0,0,3.11-.17,5.79,1.04,2.68,1.21,3.89,2.08,3.89,2.08l-2.68-2.94s5.71,3.29,10.81,2.94c0,0-10.81-7.78-17.72-10.81-6.92-3.03-16.51-12.28-17.72-14.35-1.21-2.16-9.94-9.68-9.94-9.68,0,0,18.33,16.86,23.17,18.68,4.76,1.82,14.35,8.04,16.51,9.25,2.08,1.21,11.07,5.45,16.51,4.5l15.91,3.63s7.18.35,12.88,5.71c0,0,2.68,2.08,5.1,2.42h-18.59l1.21-.61ZM214.77,343.82s0,1.82,5.1,4.24c0,0-2.42-1.82-.95-3.89l-4.15-.35ZM264.31,92.56s2.33,0,4.15,1.47c0,0,5.71-1.82,6.31,5.45l1.21,2.08s.52-.52-4.24-.86c-3.54-.35-3.46-6.31-4.41-7.26l-3.03-.86ZM282.04,97.06s2.33,0,4.15,1.47c0,0,5.71-1.82,6.31,5.45l1.21,2.08s.52-.52-4.24-.86c-3.54-.35-3.46-6.31-4.41-7.26l-3.03-.86ZM295.79,106.4s2.42,0,4.24,1.47c0,0,5.71-1.82,6.31,5.36l1.21,2.16s.52-.52-4.24-.95c-3.63-.26-3.46-6.23-4.41-7.18l-3.11-.86Z"/>
      <path class="cls-5" d="M271.75,93.43s2.42,0,4.24,1.56c0,0,5.71-1.82,6.31,5.36l1.21,2.08s.52-.43-4.24-.86c-3.54-.35-3.46-6.23-4.41-7.18l-3.11-.95ZM294.75,116.86s2.42-.43,4.41.78c0,0,5.36-2.77,7.09,4.24l1.56,1.9s.43-.6-4.32-.17c-3.54.26-4.41-5.62-5.53-6.4l-3.2-.35Z"/>
      <path class="cls-5" d="M271.49,104.06s2.08-1.21,4.41-.86c0,0,3.98-4.5,8.21,1.38l2.08,1.21s.17-.78-4.06,1.38c-3.2,1.56-6.23-3.54-7.52-3.89l-3.11.78Z"/>
      <path class="cls-5" d="M282.99,106.74s2.16-1.12,4.41-.69c0,0,4.15-4.32,8.13,1.73l2.08,1.3s.26-.69-4.15,1.21c-3.29,1.47-6.05-3.8-7.26-4.24l-3.2.69ZM306.68,113.06s2.33.35,3.89,2.08c0,0,5.97-.87,5.36,6.4l.86,2.25s.61-.43-3.98-1.56c-3.54-.86-2.42-6.74-3.2-7.78l-2.94-1.38Z"/>
      <path class="cls-5" d="M289.47,110.29s6.66-2.07,11.76,4.76l1.82.6s-10.63,2.16-12.62-4.75l-.95-.61ZM306.33,124.64s6.66-1.99,11.67,4.84l1.82.6s-10.55,2.16-12.62-4.84l-.86-.61ZM316.36,117.38s2.07,1.21,2.85,3.37c0,0,5.88,1.3,2.85,7.87v2.42s.69-.17-3.2-2.85c-3.03-2.08.09-7.18-.35-8.47l-2.16-2.33Z"/>
      <path class="cls-5" d="M321.9,120.58s2.16,1.04,3.2,3.2c0,0,5.88.69,3.46,7.52l.17,2.42s.69-.26-3.46-2.59c-3.11-1.82-.52-7.18-.95-8.39l-2.42-2.16Z"/>
      <path class="cls-5" d="M326.31,127.49s2.25.86,3.37,2.85c0,0,6.05.26,4.15,7.26l.43,2.33s.6-.26-3.63-2.25c-3.37-1.47-1.21-7.09-1.73-8.3l-2.59-1.9ZM321.03,140.2s7,0,9.86,7.95l1.56,1.12s-10.81-.95-10.72-8.21l-.69-.86ZM316.1,130.26s5.45.61,6.92,7.26l1.12,1.04s-8.39-1.9-7.61-7.61l-.43-.69Z"/>
      <path class="cls-5" d="M329.94,138.56s2.08,1.12,2.94,3.37c0,0,5.79,1.21,2.77,7.78v2.42s.69-.17-3.2-2.85c-3.03-2.07.09-7.18-.26-8.47l-2.25-2.25ZM338.93,154.73s2.08,1.21,2.94,3.37c0,0,5.79,1.3,2.77,7.87v2.42s.69-.17-3.2-2.85c-2.94-2.08.09-7.18-.26-8.47l-2.25-2.33ZM345.84,171.24s2.08,1.21,2.94,3.37c0,0,5.79,1.3,2.77,7.87v2.42s.69-.17-3.2-2.85c-3.03-2.07.09-7.18-.26-8.47l-2.25-2.33ZM348.01,158.45s1.56,1.82,1.64,4.15c0,0,5.01,3.11,0,8.3l-.78,2.25s.69.09-2.08-3.72c-2.16-2.94,2.42-6.74,2.51-8.13l-1.3-2.85ZM339.53,145.56s4.58,3.03,2.94,9.6l.52,1.38s-6.66-5.36-3.37-10.12l-.09-.86Z"/>
      <path class="cls-5" d="M335.9,135.62s4.58,3.03,2.94,9.6l.61,1.47s-6.74-5.45-3.46-10.2l-.09-.86ZM344.89,151.27s4.58,3.03,3.03,9.6l.52,1.38s-6.74-5.36-3.46-10.12l-.09-.86ZM323.71,151.1s2.33-.43,4.41.69c0,0,5.27-2.85,7.26,4.06l1.56,1.82s.43-.61-4.32-.09c-3.54.43-4.58-5.45-5.71-6.23l-3.2-.26Z"/>
      <path class="cls-5" d="M327.95,158.01s2.33-.52,4.41.69c0,0,5.19-2.94,7.18,4.06l1.64,1.82s.35-.61-4.32-.09c-3.63.43-4.58-5.45-5.71-6.23l-3.2-.26ZM334.62,165.1s2.33.09,4.15,1.64c0,0,5.71-1.64,6.05,5.62l1.12,2.16s.52-.52-4.15-1.04c-3.63-.43-3.29-6.4-4.15-7.44l-3.03-.95ZM338.24,173.4s2.33.61,3.72,2.51c0,0,5.97-.35,4.84,6.74l.61,2.33s.69-.35-3.8-1.9c-3.46-1.12-1.9-6.92-2.59-8.04l-2.77-1.64ZM352.68,169.86s4.67,3.03,3.03,9.6l.52,1.47s-6.66-5.45-3.46-10.2l-.09-.86ZM325.35,131.47s4.67,3.03,3.03,9.6l.52,1.38s-6.66-5.36-3.46-10.2l-.09-.78Z"/>
      <path class="cls-5" d="M343.68,183s2.33.6,3.72,2.51c0,0,5.97-.35,4.75,6.74l.69,2.33s.61-.35-3.89-1.9c-3.37-1.12-1.82-6.92-2.51-8.04l-2.77-1.64ZM346.97,197.79s2.33.52,3.72,2.42c0,0,5.97-.35,4.84,6.83l.61,2.25s.69-.35-3.8-1.82c-3.46-1.21-1.9-6.92-2.59-8.13l-2.77-1.56ZM353.63,180.32s4.58,3.11,2.94,9.68l.61,1.38s-6.74-5.36-3.46-10.2l-.09-.86Z"/>
      <path class="cls-5" d="M357.08,190.44s3.8,3.98.69,10.03l.26,1.56s-5.36-6.83-1.04-10.72l.09-.86ZM359.95,199.95s1.3,1.99.95,4.32c0,0,4.5,3.89-1.3,8.21l-1.12,2.08s.69.26-1.47-3.98c-1.64-3.29,3.54-6.31,3.8-7.61l-.86-3.03ZM354.23,209.11s1.21,2.08.86,4.41c0,0,4.5,3.98-1.38,8.21l-1.21,2.08s.69.17-1.38-4.06c-1.56-3.29,3.54-6.23,3.89-7.52l-.78-3.11ZM348.87,192.68s5.36,1.38,5.97,8.13l.95,1.12s-8.13-2.94-6.57-8.47l-.35-.78ZM350,225.97s1.3,2.08.86,4.32c0,0,4.5,3.98-1.38,8.21l-1.21,2.16s.78.17-1.38-4.15c-1.56-3.2,3.63-6.14,3.98-7.44l-.86-3.11Z"/>
      <path class="cls-5" d="M355.44,219.05s1.21,2.07.86,4.41c0,0,4.5,3.89-1.38,8.13l-1.21,2.16s.69.17-1.38-4.06c-1.64-3.29,3.54-6.23,3.89-7.52l-.78-3.11Z"/>
      <path class="cls-5" d="M359.95,211.88s1.21,1.99.86,4.32c0,0,4.5,3.98-1.38,8.21l-1.21,2.08s.69.26-1.38-4.06c-1.56-3.2,3.54-6.14,3.89-7.44l-.78-3.11Z"/>
      <path class="cls-5" d="M362.88,219.66s.86,2.25.09,4.41c0,0,3.63,4.75-2.85,7.78l-1.56,1.9s.61.35-.69-4.24c-.95-3.54,4.67-5.45,5.27-6.66l-.26-3.2Z"/>
      <path class="cls-5" d="M357.26,228.65s1.12,2.16.61,4.5c0,0,4.24,4.24-1.9,8.04l-1.38,1.99s.69.26-1.12-4.06c-1.38-3.37,3.98-5.97,4.41-7.26l-.61-3.2ZM346.88,239.03s1.64,1.73,1.82,4.06c0,0,5.19,2.94.35,8.3l-.69,2.33s.69,0-2.25-3.72c-2.25-2.77,2.16-6.74,2.25-8.13l-1.47-2.85Z"/>
      <path class="cls-5" d="M359.68,235.57s1.04,2.16.61,4.41c0,0,4.15,4.24-1.99,8.13l-1.3,1.99s.69.26-1.12-4.15c-1.38-3.29,3.98-5.97,4.41-7.18l-.61-3.2Z"/>
      <path class="cls-5" d="M357.35,248.36s3.2,4.58-.78,10.03v1.56s-4.24-7.52.61-10.72l.17-.86Z"/>
      <path class="cls-5" d="M354.83,239.8s1.12,2.16.61,4.41c0,0,4.24,4.24-1.9,8.04l-1.3,2.07s.69.26-1.12-4.15c-1.38-3.37,3.98-5.97,4.32-7.26l-.61-3.11Z"/>
      <path class="cls-5" d="M351.81,249.66s1.12,2.16.61,4.5c0,0,4.24,4.24-1.9,8.04l-1.3,2.08s.69.17-1.12-4.15c-1.38-3.37,3.98-5.97,4.41-7.26l-.69-3.2Z"/>
      <path class="cls-5" d="M353.63,257.53s1.12,2.07.61,4.41c0,0,4.24,4.24-1.9,8.04l-1.3,2.08s.69.26-1.12-4.15c-1.38-3.37,3.98-5.97,4.32-7.26l-.61-3.11ZM344.98,251.56s1.56,1.9,1.47,4.24c0,0,5.01,3.29-.26,8.3l-.86,2.25s.69.09-1.99-3.89c-1.99-2.94,2.77-6.57,2.85-7.95l-1.21-2.94ZM345.59,272.23s.69,5.45-5.45,8.47l-.69,1.3s-.17-8.65,5.62-9.16l.52-.61Z"/>
      <path class="cls-5" d="M341.87,260.99s1.21,2.07.78,4.41c0,0,4.41,4.06-1.56,8.13l-1.21,2.08s.69.26-1.3-4.06c-1.56-3.29,3.72-6.14,4.06-7.44l-.78-3.11ZM335.13,290.21s1.64,5.27-3.8,9.34l-.43,1.47s-1.73-8.47,3.8-10.12l.43-.69ZM340.57,281.48s1.64,5.27-3.8,9.34l-.43,1.47s-1.82-8.39,3.72-10.03l.52-.78ZM349.3,278.02s.61,2.33-.43,4.41c0,0,3.03,5.1-3.89,7.35l-1.73,1.64s.61.43-.09-4.32c-.52-3.54,5.27-4.75,5.97-5.88l.17-3.2Z"/>
      <path class="cls-5" d="M343.34,285.46s.52,2.33-.52,4.5c0,0,3.03,5.1-3.8,7.35l-1.82,1.64s.6.43-.09-4.32c-.52-3.54,5.36-4.75,6.05-5.97l.17-3.2ZM352.33,271.19s.61,5.53-5.45,8.47l-.78,1.3s-.17-8.56,5.62-9.16l.61-.61ZM328.9,294.88s1.21,5.45-4.5,9.08l-.6,1.38s-1.04-8.56,4.58-9.77l.52-.69ZM335.56,279.32s1.21,5.36-4.58,8.99l-.52,1.38s-1.12-8.47,4.5-9.68l.6-.69ZM334.35,301.54s-1.21,5.36-7.87,6.31l-1.12.95s2.59-8.13,8.21-6.92l.78-.35ZM332.36,306.81s-.17,2.42-1.82,4.06c0,0,1.38,5.79-5.88,5.88l-2.16,1.12s.52.52,1.21-4.15c.52-3.54,6.48-3.03,7.52-3.89l1.12-3.03Z"/>
      <path class="cls-5" d="M324.84,306.2s-.17,2.42-1.82,4.06c0,0,1.38,5.88-5.79,5.97l-2.25,1.04s.52.52,1.21-4.15c.61-3.54,6.48-3.03,7.52-3.89l1.12-3.03Z"/>
      <path class="cls-5" d="M320.69,301.54s.17,2.33-1.3,4.24c0,0,2.16,5.62-5.01,6.57l-2.08,1.3s.52.52.69-4.24c.09-3.54,6.05-3.8,7-4.76l.69-3.11ZM311.95,310.79s.17,2.42-1.21,4.32c0,0,2.08,5.62-5.1,6.57l-1.99,1.3s.52.52.61-4.24c.17-3.63,6.05-3.8,7-4.84l.69-3.11ZM314.72,318.05s.09,2.33-1.3,4.24c0,0,2.07,5.62-5.1,6.57l-1.99,1.3s.52.52.69-4.24c.09-3.54,6.05-3.8,6.92-4.75l.78-3.11ZM300.37,324.36s-1.12,5.36-7.87,6.31l-1.12.95s2.59-8.21,8.21-6.92l.78-.35ZM305.47,326.18s-1.12,5.36-7.87,6.23l-1.12,1.04s2.59-8.21,8.21-6.92l.78-.35Z"/>
      <path class="cls-5" d="M293.45,331.54s-1.12,5.45-7.87,6.31l-1.04,1.04s2.51-8.21,8.21-6.92l.69-.43ZM285.41,332.75s-1.21,5.36-7.87,6.31l-1.12,1.04s2.59-8.21,8.21-6.92l.78-.43ZM300.54,331.54s-.52,2.33-2.33,3.8c0,0,.52,5.97-6.66,4.93l-2.33.69s.35.69,1.82-3.89c1.04-3.46,6.83-1.99,7.95-2.68l1.56-2.85ZM322.5,317.88s-7.18,1.9-8.99,5.79l8.99-5.79Z"/>
      <path class="cls-5" d="M239.33,350.73c-4.76-6.05,15.99-2.42,15.99-2.42,15.91,10.81,36.92-.86,44.96-7.18,8.13-6.31,28.53-23.17,28.53-23.17,0,0-8.99,8.13-14.09,9.34-5.1,1.21-8.13,5.71-9.34,7.52s-17.98,11.67-22.48,12.28c-4.5.61-21.01,2.16-30-2.94,0,0,22.22-2.42,26.72-.35l-3.29-1.82s9.6.95,12.88-1.04c0,0-5.45,1.38-9.94.17,0,0,4.15-1.3,5.27-2.25,0,0-3.11-.17-5.88,1.04-2.68,1.21-3.89,2.08-3.89,2.08l2.77-2.94s-5.79,3.29-10.89,2.94c0,0,10.81-7.78,17.72-10.81,6.92-3.03,16.51-12.28,17.72-14.35,1.21-2.16,9.94-9.68,9.94-9.68,0,0-18.33,16.86-23.17,18.68-4.76,1.82-14.35,8.04-16.51,9.25-2.08,1.21-11.07,5.45-16.51,4.5l-15.91,3.63s-7.18.35-12.88,5.71c0,0-2.68,2.08-5.1,2.42h18.59l-1.21-.61ZM229.13,343.82s0,1.82-5.1,4.24c0,0,2.42-1.82.95-3.89l4.15-.35Z"/>
    </g>
    <path class="cls-5" d="M221.95,356.7h23.69c2.77-4.5-2.68-5.36-2.68-5.36h-42.02s-5.36.86-2.68,5.36h23.69Z"/>
    <path class="cls-14" d="M221.95,415.58h21.62c5.1-2.42,15.65-13.23,15.65-13.23,29.05-40.2-7.26-40.55-7.26-40.55h-60s-36.31.35-7.18,40.55c0,0,10.46,10.81,15.56,13.23h21.61Z"/>
    <g class="cls-23">
      <path class="cls-20" d="M173.84,372.5h96.3v6.4h-96.3v-6.4Z"/>
    </g>
    <path class="cls-2" d="M221.95,415.58h21.62c5.1-2.42,15.65-13.23,15.65-13.23,29.05-40.2-7.26-40.55-7.26-40.55h-60s-36.31.35-7.18,40.55c0,0,10.46,10.81,15.56,13.23h21.61Z"/>
    <path class="cls-10" d="M221.95,424.31h36.31c-.86,0-2.94.86-6.31-3.37-3.29-4.15-8.04-3.54-8.04-3.54h-43.84s-4.84-.61-8.13,3.54c-3.29,4.24-5.45,3.37-6.31,3.37h36.31Z"/>
    <path class="cls-5" d="M207.86,357.04s.26,4.76-1.47,4.76h31.22c-1.82,0-1.57-4.76-1.57-4.76h-28.19ZM268.81,369.93h-93.72,93.72Z"/>
    <path class="cls-2" d="M268.81,369.93h-93.72"/>
    <path class="cls-5" d="M269.42,381.95h-94.93,94.93Z"/>
    <path class="cls-2" d="M269.42,381.95h-94.93"/>
    <path class="cls-5" d="M268.81,386.18h-93.72,93.72Z"/>
    <path class="cls-2" d="M268.81,386.18h-93.72"/>
    <path class="cls-5" d="M260.08,401.14h-76.26,76.26Z"/>
    <path class="cls-2" d="M260.08,401.14h-76.26"/>
    <path class="cls-10" d="M221.95,415.58h21.61c3.29-1.21,14.09-11.76,14.09-11.76h-71.42s10.81,10.55,14.09,11.76h21.61Z"/>
    <g>
      <path class="cls-5" d="M176.9,379.09c1.71,0,3.11-1.37,3.11-3.09,0,0,0-.02,0-.03,0-1.73-1.38-3.2-3.11-3.2s-3.11,1.47-3.11,3.2c0,1.71,1.37,3.11,3.09,3.11,0,0,.02,0,.03,0h0Z"/>
      <path class="cls-5" d="M182.96,379.09c1.71,0,3.11-1.37,3.11-3.09,0,0,0-.02,0-.03,0-1.73-1.38-3.2-3.11-3.2s-3.11,1.47-3.11,3.2c0,1.71,1.37,3.11,3.09,3.11,0,0,.02,0,.03,0h0Z"/>
      <path class="cls-5" d="M188.92,379.09c1.71,0,3.11-1.38,3.11-3.09,0,0,0-.02,0-.03,0-1.73-1.38-3.2-3.11-3.2s-3.11,1.47-3.11,3.2c0,1.71,1.37,3.11,3.09,3.11,0,0,.02,0,.03,0h0Z"/>
      <path class="cls-5" d="M194.97,379.09c1.71,0,3.11-1.37,3.11-3.09,0,0,0-.02,0-.03,0-1.73-1.38-3.2-3.11-3.2s-3.2,1.47-3.2,3.2,1.47,3.11,3.2,3.11h0Z"/>
      <path class="cls-5" d="M200.94,379.09c1.71,0,3.11-1.37,3.11-3.09,0,0,0-.02,0-.03,0-1.73-1.38-3.2-3.11-3.2s-3.11,1.47-3.11,3.2c0,1.71,1.37,3.11,3.09,3.11,0,0,.02,0,.03,0h0Z"/>
      <path class="cls-5" d="M206.9,379.09c1.73,0,3.2-1.38,3.2-3.11s-1.47-3.2-3.2-3.2-3.11,1.47-3.11,3.2,1.47,3.11,3.11,3.11h0Z"/>
      <path class="cls-5" d="M212.96,379.09c1.71,0,3.11-1.37,3.11-3.09,0,0,0-.02,0-.03,0-1.73-1.38-3.2-3.11-3.2s-3.11,1.47-3.11,3.2c0,1.71,1.37,3.11,3.09,3.11,0,0,.02,0,.03,0h0Z"/>
      <path class="cls-5" d="M218.92,379.09c1.71,0,3.11-1.37,3.11-3.09,0,0,0-.02,0-.03,0-1.73-1.38-3.2-3.11-3.2s-3.11,1.47-3.11,3.2c0,1.71,1.37,3.11,3.09,3.11,0,0,.02,0,.03,0h0ZM266.99,379.09c-1.71,0-3.11-1.37-3.11-3.09,0,0,0-.02,0-.03,0-1.73,1.38-3.2,3.11-3.2s3.11,1.47,3.11,3.2c0,1.71-1.37,3.11-3.09,3.11,0,0-.02,0-.03,0h0Z"/>
      <path class="cls-5" d="M260.94,379.09c-1.64,0-3.11-1.38-3.11-3.11s1.47-3.2,3.11-3.2c1.73,0,3.2,1.47,3.2,3.2s-1.47,3.11-3.2,3.11h0Z"/>
      <path class="cls-5" d="M254.98,379.09c-1.71,0-3.11-1.37-3.11-3.09,0,0,0-.02,0-.03,0-1.73,1.38-3.2,3.11-3.2s3.11,1.47,3.11,3.2c0,1.71-1.37,3.11-3.09,3.11,0,0-.02,0-.03,0h0Z"/>
      <path class="cls-5" d="M249.01,379.09c-1.73,0-3.2-1.38-3.2-3.11s1.47-3.2,3.2-3.2,3.11,1.47,3.11,3.2c0,1.71-1.37,3.11-3.09,3.11,0,0-.02,0-.03,0h0Z"/>
      <path class="cls-5" d="M242.96,379.09c-1.71,0-3.11-1.37-3.11-3.09,0,0,0-.02,0-.03,0-1.73,1.38-3.2,3.11-3.2s3.11,1.47,3.11,3.2c0,1.71-1.37,3.11-3.09,3.11,0,0-.02,0-.03,0h0Z"/>
      <path class="cls-5" d="M236.99,379.09c-1.71,0-3.11-1.37-3.11-3.09,0,0,0-.02,0-.03,0-1.73,1.38-3.2,3.11-3.2s3.11,1.47,3.11,3.2c0,1.71-1.37,3.11-3.09,3.11,0,0-.02,0-.03,0h0Z"/>
      <path class="cls-5" d="M230.94,379.09c-1.71,0-3.11-1.37-3.11-3.09,0,0,0-.02,0-.03,0-1.73,1.38-3.2,3.11-3.2s3.11,1.47,3.11,3.2c0,1.71-1.37,3.11-3.09,3.11,0,0-.02,0-.03,0h0Z"/>
      <path class="cls-5" d="M224.98,379.09c-1.71,0-3.11-1.37-3.11-3.09,0,0,0-.02,0-.03,0-1.73,1.38-3.2,3.11-3.2s3.11,1.47,3.11,3.2c0,1.71-1.37,3.11-3.09,3.11,0,0-.02,0-.03,0h0Z"/>
    </g>
    <g>
      <path class="cls-5" d="M216.85,415.41s-1.56-7.95-.35-9.08l-1.21-1.04s-.17-.17-.43-.17c-.35,0-.52.17-.52.17l-1.21,1.04c.61.52,1.82,2.51,1.73,5.71.52,2.42.6,3.37.6,3.37h1.38Z"/>
      <path class="cls-5" d="M207.77,404.25l2.42.09c4.76.95,4.67,11.07,4.67,11.07l-1.47.09s-.35-9.34-3.46-8.39c0,0-1.3.52-1.99.35h-.26c-.69.17-1.9-.35-1.9-.35-3.11-.95,2.08,8.3,2.08,8.3h-1.47s-6.31-10.72-.95-11.07l2.33-.09Z"/>
      <path class="cls-5" d="M212.96,415.41s-.6-8.99-3.37-7.35c0,0-.86.43-1.73.61-1.21,0-1.99-.69-1.99-.69-2.77-1.47,2.33,7.44,2.33,7.44h1.73s-.95-3.8-1.21-5.1c0,0,2.42,4.93,2.59,5.1.17.09-1.21,0-1.21,0h2.85ZM205.87,415.41s-4.06-7.95-2.77-9.08l-1.21-1.04s-.17-.17-.52-.17c-.26,0-.43.17-.43.17l-1.3,1.04c.61.52,1.56,2.25,3.11,5.79.52,2.51,1.21,3.29,1.21,3.29h1.9Z"/>
      <path class="cls-5" d="M191.77,408.75c-.26-1.82.17-4.24,2.16-4.41l.17-.09,2.33.09c4.76.95,6.92,11.07,6.92,11.07h-1.99s-.43-9.25-3.54-8.21c0,0-.69.43-1.38.26h-.26c-.69.17-1.99-.35-1.99-.35-1.12-.35-.78,2.07-.35,3.54l-2.07-1.9Z"/>
      <path class="cls-2" d="M191.77,408.75c-.26-1.82.17-4.24,2.16-4.41l.17-.09,2.33.09c4.76.95,6.92,11.07,6.92,11.07h-1.99s-.43-9.25-3.54-8.21c0,0-.69.43-1.38.26h-.26c-.69.17-1.99-.35-1.99-.35-1.12-.35-.78,2.07-.35,3.54"/>
      <path class="cls-5" d="M200.77,415.23s-.69-8.47-2.68-7.18c0,0-.86.43-1.73.61-1.3,0-1.99-.69-1.99-.69-1.04-.52-.26,1.9.17,3.29l6.23,3.98Z"/>
      <path class="cls-2" d="M200.77,415.23s-.69-8.47-2.68-7.18c0,0-.86.43-1.73.61-1.3,0-1.99-.69-1.99-.69-1.04-.52-.26,1.9.17,3.29"/>
      <path class="cls-5" d="M197.39,413.33c-.26-.95-.52-1.99-.61-2.51,0,0,1.05,1.93,1.99,3.16l-1.38-.65ZM216.76,417.65s-1.64,4.58-.35,5.19l-1.3.6s-.17.09-.43.09c-.35,0-.52-.09-.52-.09l-1.21-.6c.61-.26,1.9-1.38,1.73-3.2.52-1.47.61-1.99.61-1.99h1.47Z"/>
      <path class="cls-5" d="M207.6,423.95h2.42c4.84-.52,4.67-6.31,4.67-6.31h-1.47s-.35,5.27-3.54,4.75c0,0-1.21-.26-1.9-.17h-.26c-.69-.09-1.99.17-1.99.17-3.11.52,2.08-4.75,2.08-4.75h-1.38s-6.4,6.14-1.04,6.31h2.42Z"/>
      <path class="cls-5" d="M212.78,417.65s-.6,5.1-3.37,4.24c0,0-.86-.26-1.73-.35-1.3,0-1.99.35-1.99.35-2.77.86,2.25-4.24,2.25-4.24h1.82s-.95,2.16-1.21,2.94c0,0,2.42-2.85,2.59-2.94.17-.09-1.21,0-1.21,0h2.85ZM205.61,417.65s-3.98,4.58-2.77,5.19l-1.21.6s-.17.09-.52.09c-.26,0-.43-.09-.43-.09l-1.21-.6c.52-.26,1.47-1.3,3.03-3.29.52-1.47,1.21-1.9,1.21-1.9h1.9Z"/>
      <path class="cls-5" d="M191.26,421.79c-.26,1.04,0,2.07,1.99,2.16h2.59c4.67-.52,6.92-6.31,6.92-6.31h-1.99s-.52,5.27-3.63,4.67c0,0-.69-.17-1.38-.09h-.26c-.69-.09-1.9.17-1.9.17-1.21.17-.61-1.99-.17-2.85l-2.16,2.25Z"/>
      <path class="cls-2" d="M191.26,421.79c-.26,1.04,0,2.07,1.99,2.16h2.59c4.67-.52,6.92-6.31,6.92-6.31h-1.99s-.52,5.27-3.63,4.67c0,0-.69-.17-1.38-.09h-.26c-.69-.09-1.9.17-1.9.17-1.21.17-.61-1.99-.17-2.85"/>
      <path class="cls-5" d="M199.99,417.65s-.6,4.93-2.51,4.24c0,0-.86-.26-1.82-.35-1.21,0-1.99.35-1.99.35-1.04.35-.09-1.9.43-2.68l5.88-1.56Z"/>
      <path class="cls-2" d="M199.99,417.65s-.6,4.93-2.51,4.24c0,0-.86-.26-1.82-.35-1.21,0-1.99.35-1.99.35-1.04.35-.09-1.9.43-2.68"/>
      <path class="cls-5" d="M196.1,418.17c-.26.52-.52,1.12-.6,1.47,0,0,.63-.69,1.41-1.47h-.81ZM227.05,415.41s1.56-7.95.35-9.08l1.21-1.04s.17-.17.43-.17c.35,0,.52.17.52.17l1.21,1.04c-.6.52-1.82,2.51-1.64,5.71-.61,2.42-.69,3.37-.69,3.37h-1.38Z"/>
      <path class="cls-5" d="M236.13,404.25l-2.42.09c-4.76.95-4.67,11.07-4.67,11.07l1.47.09s.43-9.34,3.54-8.39c0,0,1.21.52,1.9.35h.26c.69.17,1.9-.35,1.9-.35,3.2-.95-2.08,8.3-2.08,8.3h1.47s6.4-10.72.95-11.07l-2.33-.09Z"/>
      <path class="cls-5" d="M231.03,415.41s.52-8.99,3.29-7.35c0,0,.86.43,1.73.61,1.21,0,1.99-.69,1.99-.69,2.77-1.47-2.25,7.44-2.25,7.44h-1.82s.95-3.8,1.21-5.1c0,0-2.33,4.93-2.59,5.1-.17.09,1.21,0,1.21,0h-2.77ZM221.95,407.45c.69.09,2.16-.35,2.16-.35,3.11-1.04,1.04,8.3,1.04,8.3h1.47s3.2-10.89-2.25-11.15h-4.84c-5.45.26-2.16,11.15-2.16,11.15h1.38s-2.08-9.34,1.04-8.3c0,0,1.47.43,2.16.35h0Z"/>
      <path class="cls-5" d="M221.86,410.82s.78,4.58,1.04,4.75c.17.17,1.56.09,1.56.09h.43s1.73-9.08-1.04-7.44c0,0-.86.43-1.73.61h-.35c-.86-.17-1.73-.61-1.73-.61-2.77-1.64-.95,7.44-.95,7.44h.35s1.38.09,1.56-.09c.26-.17,1.04-4.76,1.04-4.76h-.17ZM238.03,415.41s4.06-7.95,2.77-9.08l1.21-1.04s.26-.17.52-.17.52.17.52.17l1.21,1.04c-.61.52-1.47,2.25-3.03,5.79-.61,2.51-1.3,3.29-1.3,3.29h-1.9Z"/>
      <path class="cls-5" d="M252.12,408.75c.26-1.82-.17-4.24-2.08-4.41l-.17-.09-2.42.09c-4.76.95-6.92,11.07-6.92,11.07h1.99s.52-9.25,3.63-8.21c0,0,.69.43,1.3.26h.26c.69.17,1.99-.35,1.99-.35,1.12-.35.78,2.07.35,3.54l2.08-1.9Z"/>
      <path class="cls-2" d="M252.12,408.75c.26-1.82-.17-4.24-2.08-4.41l-.17-.09-2.42.09c-4.76.95-6.92,11.07-6.92,11.07h1.99s.52-9.25,3.63-8.21c0,0,.69.43,1.3.26h.26c.69.17,1.99-.35,1.99-.35,1.12-.35.78,2.07.35,3.54"/>
      <path class="cls-5" d="M243.13,415.23s.78-8.47,2.68-7.18c0,0,.86.43,1.73.61,1.3,0,1.99-.69,1.99-.69,1.04-.52.35,1.9-.17,3.29l-6.22,3.98Z"/>
      <path class="cls-2" d="M243.13,415.23s.78-8.47,2.68-7.18c0,0,.86.43,1.73.61,1.3,0,1.99-.69,1.99-.69,1.04-.52.35,1.9-.17,3.29"/>
      <path class="cls-5" d="M246.59,413.33c.17-.95.43-1.99.61-2.51,0,0-1.04,1.99-1.82,3.46l1.21-.95ZM227.22,417.65s1.56,4.58.26,5.19l1.3.6s.17.09.43.09c.35,0,.52-.09.52-.09l1.21-.6c-.6-.26-1.82-1.38-1.64-3.2-.61-1.47-.69-1.99-.69-1.99h-1.38Z"/>
      <path class="cls-5" d="M236.3,423.95h-2.42c-4.76-.52-4.67-6.31-4.67-6.31h1.47s.43,5.27,3.54,4.75c0,0,1.3-.26,1.9-.17h.26c.69-.09,1.99.17,1.99.17,3.11.52-2.07-4.75-2.07-4.75h1.47s6.31,6.14.95,6.31h-2.42Z"/>
      <path class="cls-5" d="M231.2,417.65s.52,5.1,3.29,4.24c0,0,.86-.26,1.73-.35,1.3,0,1.99.35,1.99.35,2.85.86-2.25-4.24-2.25-4.24h-1.82s.95,2.16,1.21,2.94c0,0-2.33-2.85-2.59-2.94-.17-.09,1.21,0,1.21,0h-2.77ZM222.12,424.05l2.42-.09c5.45-.09,2.16-6.31,2.16-6.31h-1.38s2.08,5.36-1.04,4.76c0,0-1.56-.26-2.25-.17h-.17c-.69-.09-2.25.17-2.25.17-3.11.61-.95-4.75-.95-4.75h-1.47s-3.29,6.22,2.16,6.31l2.42.09h.35Z"/>
      <path class="cls-5" d="M221.95,421.37c.86.17,2.08.35,2.08.35,2.68.95.95-4.15.95-4.15h-.43s-1.3-.09-1.56,0c-.17.09-.95,2.77-.95,2.77h-.09s-.87-2.68-1.04-2.77c-.26-.09-1.56,0-1.56,0h-.43s-1.73,5.1.95,4.15c0,0,1.21-.17,2.08-.35h0ZM238.29,417.65s3.98,4.58,2.77,5.19l1.21.6s.17.09.52.09c.26,0,.43-.09.43-.09l1.3-.6c-.61-.26-1.56-1.3-3.11-3.29-.52-1.47-1.21-1.9-1.21-1.9h-1.9Z"/>
      <path class="cls-5" d="M252.64,421.79c.26,1.04,0,2.07-1.99,2.16h-2.51c-4.76-.52-6.92-6.31-6.92-6.31h1.9s.52,5.27,3.63,4.67c0,0,.69-.17,1.38-.09h.26c.69-.09,1.99.17,1.99.17,1.12.17.52-1.99.09-2.85l2.16,2.25Z"/>
      <path class="cls-2" d="M252.64,421.79c.26,1.04,0,2.07-1.99,2.16h-2.51c-4.76-.52-6.92-6.31-6.92-6.31h1.9s.52,5.27,3.63,4.67c0,0,.69-.17,1.38-.09h.26c.69-.09,1.99.17,1.99.17,1.12.17.52-1.99.09-2.85"/>
      <path class="cls-5" d="M243.91,417.65s.61,4.93,2.59,4.24c0,0,.86-.26,1.73-.35,1.21,0,1.99.35,1.99.35,1.04.35.09-1.9-.43-2.68l-5.88-1.56Z"/>
      <path class="cls-2" d="M243.91,417.65s.61,4.93,2.59,4.24c0,0,.86-.26,1.73-.35,1.21,0,1.99.35,1.99.35,1.04.35.09-1.9-.43-2.68"/>
      <path class="cls-5" d="M247.8,418.17c.26.52.52,1.12.61,1.47,0,0-.49-.9-1.26-1.68l.66.21Z"/>
    </g>
    <path class="cls-16" d="M128.53,428.2c19.45,0,35.19-15.74,35.19-35.19s-15.74-35.28-35.19-35.28-35.28,15.82-35.28,35.28,15.82,35.19,35.28,35.19Z"/>
    <path class="cls-17" d="M128.53,425.26c17.81,0,32.25-14.44,32.25-32.25s-14.44-32.25-32.25-32.25-32.25,14.44-32.25,32.25,14.44,32.25,32.25,32.25Z"/>
    <path class="cls-14" d="M128.53,421.03c15.48,0,28.01-12.54,28.01-28.01s-12.54-28.01-28.01-28.01-28.01,12.54-28.01,28.01,12.54,28.01,28.01,28.01Z"/>
    <path class="cls-5" d="M128.53,414.63c11.93,0,21.61-9.68,21.61-21.61s-9.68-21.7-21.61-21.7-21.7,9.77-21.7,21.7,9.77,21.61,21.7,21.61Z"/>
    <path class="cls-5" d="M128.53,412.12c10.55,0,19.11-8.56,19.11-19.11s-8.56-19.11-19.11-19.11-19.11,8.56-19.11,19.11,8.56,19.11,19.11,19.11Z"/>
    <path class="cls-9" d="M132.25,374.86c.26,1.38-.6,2.42-1.12,3.63-1.3,2.68.86,5.27-.26,8.21-1.3,3.2,1.64,7.09.26,10.55-.26.78-2.07-.26-2.59.26-.86,1.04,1.04,1.99,1.04,3.11.09,1.64.43,2.77.26,4.5-.43-.17-.69.35-1.12.35,2.07,1.47,2.85,3.89,3.54,6.31M129.31,383.85c-3.46-3.63-8.73-2.59-12.02.26h.26M127.15,385.92c-3.8-1.47-6.92,1.56-10.46,2.16"/>
    <path class="cls-9" d="M126.89,387.13c-2.94-.78-5.62-.26-8.13,1.21,2.51-.35,5.01.86,7.52,0-.35-.43.43-1.12-.35-1.47M126.29,393.79c-1.21.6-1.99,1.56-1.38,2.94.95,2.33,1.99-.17,3.8.6-.17-.17-.69.35-.61-.26M128.36,398.88c.69.09.61.78.95,1.12-3.03-1.04-4.06,2.16-6.92,2.42,2.59,0,4.67.43,7,0M128.97,406.07c-1.64-.17-2.94-.17-4.24-1.47M126.55,382.64c-1.73-.6-3.54-.17-5.36-.26M128.71,405.46c-1.73-.17-3.63-.17-4.84-1.47"/>
    <path class="cls-16" d="M315.89,428.2c19.45,0,35.19-15.74,35.19-35.19s-15.74-35.28-35.19-35.28-35.28,15.82-35.28,35.28,15.74,35.19,35.28,35.19Z"/>
    <path class="cls-17" d="M315.89,425.26c17.81,0,32.25-14.44,32.25-32.25s-14.44-32.25-32.25-32.25-32.34,14.44-32.34,32.25,14.44,32.25,32.34,32.25Z"/>
    <g>
      <path class="cls-2" d="M113.27,428.8h-18.59v3.55M330.63,428.8h18.59v3.55"/>
      <path class="cls-5" d="M221.95,443.16h139.89s-5.36,1.82-4.76-4.76c.61-6.66-7.87-6.05-7.87-6.05H94.68s-8.39-.61-7.78,6.05c.6,6.57-4.84,4.75-4.84,4.75h139.89Z"/>
      <path class="cls-5" d="M221.95,448H82.06v-4.84h279.78v4.84h-139.89Z"/>
      <path class="cls-2" d="M301.84,428.8h-36.66M142.06,428.8h131.82"/>
    </g>
    <path class="cls-5" d="M221.95,96.89c22.91,0,41.5-18.59,41.5-41.59s-18.59-41.5-41.5-41.5-41.5,18.59-41.5,41.5,18.59,41.59,41.5,41.59Z"/>
    <path class="cls-5" d="M221.95,92.82c20.66,0,37.44-16.77,37.44-37.52s-16.77-37.44-37.44-37.44-37.44,16.77-37.44,37.44,16.77,37.52,37.44,37.52Z"/>
    <g>
      <path class="cls-5" d="M194.11,352.89s-1.82,5.19,3.46,9.51l.35,1.47s2.16-8.39-3.37-10.2l-.43-.78Z"/>
      <path class="cls-5" d="M184.08,363.62s2.42-.43,3.89-2.16c0,0,5.97.78,5.27-6.48l.78-2.25s.61.43-3.98,1.64c-3.46.95-2.33,6.74-3.11,7.87l-2.85,1.38Z"/>
      <path class="cls-5" d="M184.69,370.88s2.42-.43,3.89-2.25c0,0,5.97.78,5.27-6.4l.78-2.33s.6.43-3.98,1.64c-3.46.95-2.33,6.74-3.11,7.87l-2.85,1.47ZM157.71,367.08s2.33.61,4.41-.43c0,0,5.1,3.11,7.44-3.8l1.64-1.73s.43.6-4.32-.09c-3.54-.61-4.84,5.19-5.97,5.97l-3.2.09ZM169.81,366.99s-5.45,1.21-6.31,7.87l-1.04,1.12s8.21-2.51,6.92-8.21l.43-.78ZM163.93,387.22s2.16-1.12,3.03-3.37c0,0,5.88-1.04,3.03-7.69v-2.42s.69.17-3.29,2.77c-3.03,1.99-.09,7.18-.43,8.47l-2.33,2.25Z"/>
      <path class="cls-5" d="M168.17,390.5s2.07-1.12,2.94-3.29c0,0,5.88-1.12,3.03-7.78l.09-2.42s.69.17-3.29,2.77c-3.03,1.99-.09,7.18-.52,8.47l-2.25,2.25Z"/>
      <path class="cls-5" d="M172.93,380.04s1.73-1.82,1.82-4.15c0,0,5.27-2.85.43-8.21l-.69-2.33s.78-.09-2.25,3.63c-2.25,2.85,2.16,6.83,2.16,8.21l-1.47,2.85ZM169.47,387.74s-3.98,3.89-1.12,10.03l-.26,1.47s5.53-6.57,1.47-10.63l-.09-.86ZM174.66,404.94s1.73-1.73,1.9-4.06c0,0,5.19-2.85.43-8.3l-.69-2.33s.78,0-2.25,3.63c-2.25,2.85,2.07,6.83,2.16,8.21l-1.56,2.85ZM166.36,410.3s2.08-1.12,3.03-3.29c0,0,5.88-1.12,2.94-7.78l.09-2.42s.69.26-3.29,2.77c-3.03,1.99-.09,7.18-.52,8.47l-2.25,2.25ZM162.21,419.55s2.42-.35,3.98-1.99c0,0,5.88,1.04,5.62-6.14l.95-2.25s.52.43-4.06,1.38c-3.54.78-2.68,6.66-3.54,7.69l-2.94,1.3ZM164.71,420.16s-5.53.26-7.52,6.66l-1.21.95s8.47-1.12,8.21-6.92l.52-.69ZM168.95,433.04s1.73-1.64,1.99-3.98c0,0,5.36-2.59.86-8.3l-.61-2.33s.78,0-2.42,3.54c-2.42,2.77,1.82,7,1.82,8.3l-1.64,2.77Z"/>
      <path class="cls-5" d="M174.92,412.03s-3.98,3.89-1.12,10.03l-.35,1.47s5.62-6.57,1.56-10.63l-.09-.86ZM184.94,415.41s-.17-2.42-1.82-4.06c0,0,1.38-5.88-5.79-5.97l-2.25-1.04s.52-.52,1.21,4.15c.6,3.54,6.48,3.03,7.52,3.89l1.12,3.03ZM203.01,347.45c-6.57-1.56-12.54-.35-19.8,6.57-7.18,6.92-13.49,6.92-13.49,6.92l4.24-.6s-4.24,4.5-2.42,8.73c0,0-.35-7.87,4.5-9.6l3.29-1.82s-1.47,5.97-3.89,7.52c0,0,6.31-10.55,16.17-15.65,0,0,3.03.26.95,3.63,0,0,1.82-1.82,1.47-3.89,0,0,1.82.09,1.21,5.36,0,0,.86-3.63.35-5.36-.61-1.82,8.65-1.56,10.46.26l-3.03-2.07Z"/>
    </g>
    <g>
      <path class="cls-5" d="M249.79,352.89s1.82,5.19-3.37,9.51l-.43,1.47s-2.08-8.39,3.37-10.2l.43-.78Z"/>
      <path class="cls-5" d="M259.82,363.62s-2.33-.43-3.89-2.16c0,0-5.88.78-5.27-6.48l-.78-2.25s-.61.43,3.98,1.64c3.46.95,2.33,6.74,3.11,7.87l2.85,1.38Z"/>
      <path class="cls-5" d="M259.21,370.88s-2.33-.43-3.89-2.25c0,0-5.88.78-5.19-6.4l-.86-2.33s-.61.43,3.98,1.64c3.54.95,2.33,6.74,3.11,7.87l2.85,1.47ZM286.19,367.08s-2.33.61-4.41-.43c0,0-5.1,3.11-7.44-3.8l-1.64-1.73s-.43.6,4.32-.09c3.54-.61,4.84,5.19,5.97,5.97l3.2.09ZM274.17,366.99s5.36,1.21,6.31,7.87l.95,1.12s-8.21-2.51-6.92-8.21l-.35-.78ZM279.96,387.22s-2.16-1.12-3.03-3.37c0,0-5.88-1.04-2.94-7.69l-.09-2.42s-.69.17,3.29,2.77c3.03,1.99.09,7.18.52,8.47l2.25,2.25Z"/>
      <path class="cls-5" d="M275.73,390.5s-2.08-1.12-2.94-3.29c0,0-5.88-1.12-3.03-7.78l-.09-2.42s-.69.17,3.29,2.77c3.03,1.99.09,7.18.52,8.47l2.25,2.25Z"/>
      <path class="cls-5" d="M270.97,380.04s-1.64-1.82-1.82-4.15c0,0-5.27-2.85-.43-8.21l.69-2.33s-.78-.09,2.25,3.63c2.25,2.85-2.16,6.83-2.16,8.21l1.47,2.85ZM274.43,387.74s3.98,3.89,1.12,10.03l.26,1.47s-5.53-6.57-1.47-10.63l.09-.86ZM269.24,404.94s-1.73-1.73-1.82-4.06c0,0-5.27-2.85-.52-8.3l.69-2.33s-.69,0,2.25,3.63c2.33,2.85-2.08,6.83-2.08,8.21l1.47,2.85ZM277.54,410.3s-2.08-1.12-2.94-3.29c0,0-5.88-1.12-3.03-7.78l-.09-2.42s-.69.26,3.29,2.77c3.03,1.99.09,7.18.52,8.47l2.25,2.25ZM281.69,419.55s-2.42-.35-3.98-1.99c0,0-5.88,1.04-5.62-6.14l-.86-2.25s-.61.43,4.06,1.38c3.46.78,2.59,6.66,3.46,7.69l2.94,1.3ZM279.27,420.16s5.45.26,7.52,6.66l1.12.95s-8.47-1.12-8.13-6.92l-.52-.69ZM274.95,433.04s-1.73-1.64-1.99-3.98c0,0-5.36-2.59-.86-8.3l.61-2.33s-.69,0,2.42,3.54c2.42,2.77-1.82,7-1.82,8.3l1.64,2.77Z"/>
      <path class="cls-5" d="M269.07,412.03s3.89,3.89,1.12,10.03l.26,1.47s-5.62-6.57-1.47-10.63l.09-.86ZM258.95,415.41s.17-2.42,1.82-4.06c0,0-1.38-5.88,5.88-5.97l2.16-1.04s-.52-.52-1.21,4.15c-.52,3.54-6.48,3.03-7.52,3.89l-1.12,3.03ZM240.88,347.45c6.57-1.56,12.62-.35,19.8,6.57,7.18,6.92,13.49,6.92,13.49,6.92l-4.15-.6s4.15,4.5,2.33,8.73c0,0,.35-7.87-4.5-9.6l-3.29-1.82s1.56,5.97,3.89,7.52c0,0-6.31-10.55-16.17-15.65,0,0-3.03.26-.95,3.63,0,0-1.73-1.82-1.47-3.89,0,0-1.82.09-1.21,5.36,0,0-.86-3.63-.26-5.36.61-1.82-8.73-1.56-10.55.26l3.03-2.07Z"/>
    </g>
    <g>
      <path class="cls-5" d="M221.95,344.25c68.39,0,123.9-55.42,123.9-123.81s-55.51-123.9-123.9-123.9-123.81,55.51-123.81,123.9,55.42,123.81,123.81,123.81Z"/>
      <path class="cls-6" d="M221.95,337.68c64.76,0,117.24-52.48,117.24-117.24s-52.48-117.24-117.24-117.24-117.24,52.48-117.24,117.24,52.48,117.24,117.24,117.24h0Z"/>
    </g>
    <path class="cls-5" d="M221.95,330.59c60.78,0,110.15-49.37,110.15-110.15s-49.37-110.15-110.15-110.15-110.15,49.37-110.15,110.15,49.37,110.15,110.15,110.15h0Z"/>
    <path class="cls-6" d="M221.95,326c58.36,0,105.57-47.29,105.57-105.57s-47.21-105.57-105.57-105.57-105.57,47.29-105.57,105.57,47.29,105.57,105.57,105.57h0Z"/>
    <path class="cls-20" d="M221.95,319.32c54.67,0,98.88-44.3,98.88-98.88s-44.22-98.88-98.88-98.88-98.88,44.3-98.88,98.88,44.3,98.88,98.88,98.88Z"/>
    <g>
      <path class="cls-5" d="M223.76,144.44s-.6-21.01,2.68-23.95l-3.2-2.77s-.52-.43-1.3-.52c-.78.09-1.3.52-1.3.52l-3.2,2.77c3.29,2.94,2.68,23.95,2.68,23.95h3.63ZM194.54,149.54s-8.56-19.11-6.66-23.17l-4.06-1.3s-.61-.26-1.38,0c-.69.35-.95,1.04-.95,1.04l-1.99,3.72c4.24,1.47,11.76,21.1,11.76,21.1l3.29-1.38ZM169.55,165.45s-15.3-14.44-15.13-18.85l-4.15.35s-.78,0-1.3.52c-.52.52-.52,1.3-.52,1.3l-.35,4.15c4.41-.17,18.85,15.13,18.85,15.13l2.59-2.59ZM152.44,189.75s-19.63-7.52-21.1-11.76l-3.72,1.99s-.69.26-1.04.95c-.26.78,0,1.38,0,1.38l1.3,4.06c4.06-1.9,23.26,6.66,23.26,6.66l1.3-3.29ZM146.04,218.62s-21.01.6-24.04-2.68l-2.68,3.2s-.52.52-.6,1.3c.09.78.6,1.3.6,1.3l2.68,3.2c3.03-3.29,24.04-2.68,24.04-2.68v-3.63ZM151.14,247.85s-19.19,8.56-23.26,6.66l-1.3,4.06s-.26.69,0,1.38c.35.69,1.04.95,1.04.95l3.72,1.99c1.47-4.24,21.1-11.76,21.1-11.76l-1.3-3.29ZM166.96,272.83s-14.44,15.3-18.85,15.13l.35,4.15s0,.78.52,1.3c.61.52,1.3.52,1.3.52l4.15.35c-.17-4.41,15.13-18.85,15.13-18.85l-2.59-2.59ZM191.26,289.95s-7.52,19.63-11.67,21.1l1.9,3.72s.26.69.95,1.04c.78.26,1.38,0,1.38,0l4.06-1.3c-1.9-4.06,6.66-23.17,6.66-23.17l-3.29-1.38ZM220.13,296.35s.61,21.01-2.68,24.04l3.2,2.68s.52.52,1.3.6c.78-.09,1.3-.6,1.3-.6l3.2-2.68c-3.29-3.03-2.68-24.04-2.68-24.04h-3.63ZM249.36,291.25s8.65,19.19,6.74,23.26l3.98,1.3s.69.26,1.38,0c.69-.35.95-1.04.95-1.04l1.99-3.72c-4.24-1.47-11.67-21.1-11.67-21.1l-3.37,1.3ZM274.43,275.43s15.22,14.44,15.04,18.85l4.15-.35s.78,0,1.3-.52c.52-.61.52-1.3.52-1.3l.43-4.15c-4.5.17-18.94-15.13-18.94-15.13l-2.51,2.59ZM291.46,251.13s19.63,7.52,21.1,11.67l3.8-1.9s.61-.26.95-.95c.26-.78,0-1.38,0-1.38l-1.3-4.06c-3.98,1.9-23.17-6.66-23.17-6.66l-1.38,3.29ZM297.95,222.25s21.01-.61,23.95,2.68l2.77-3.2s.43-.52.52-1.3c-.09-.78-.52-1.3-.52-1.3l-2.77-3.2c-2.94,3.29-23.95,2.68-23.95,2.68v3.63ZM292.85,193.03s19.11-8.65,23.17-6.74l1.3-3.98s.26-.69,0-1.38c-.35-.69-1.04-.95-1.04-.95l-3.72-1.99c-1.47,4.24-21.1,11.67-21.1,11.67l1.38,3.37ZM276.94,167.96s14.44-15.22,18.85-15.04l-.35-4.15s0-.78-.52-1.3c-.61-.52-1.3-.52-1.3-.52l-4.15-.43c.17,4.5-15.13,18.93-15.13,18.93l2.59,2.51ZM252.64,150.92s7.52-19.63,11.67-21.1l-1.9-3.8s-.26-.6-.95-.95c-.78-.26-1.38,0-1.38,0l-4.06,1.3c1.9,3.98-6.66,23.17-6.66,23.17l3.29,1.38Z"/>
      <path class="cls-5" d="M242.79,118.07l6.14,1.47c13.75,3.89-1.04,29.83-1.04,29.83l-3.54-1.47s10.81-22.13,2.25-21.36c0,0-3.54.52-5.19-.26l-.69-.09c-1.82,0-4.76-1.99-4.76-1.99-7.52-4.24-6.83,20.4-6.83,20.4l-3.8-.17s-2.77-29.66,11.33-27.58l6.14,1.21ZM202.06,117.9l6.22-1.04c14.09-1.64,10.38,27.93,10.38,27.93l-3.8.09s1.56-24.55-6.14-20.66c0,0-3.03,1.9-4.84,1.82l-.69.17c-1.64.69-5.19,0-5.19,0-8.47-1.04,1.64,21.44,1.64,21.44l-3.63,1.3s-13.92-26.37-.09-29.83l6.14-1.21ZM164.28,133.29l5.36-3.29c12.45-6.92,20.4,21.79,20.4,21.79l-3.54,1.56s-8.04-23.34-13.57-16.77c0,0-2.08,2.94-3.8,3.54l-.52.43c-1.3,1.21-4.84,1.99-4.84,1.99-8.21,2.33,9.68,19.19,9.68,19.19l-2.77,2.59s-23-19.02-11.59-27.49l5.19-3.55ZM135.4,161.99l3.63-5.1c8.82-11.15,27.15,12.36,27.15,12.36l-2.68,2.77s-16.34-18.5-18.94-10.29c0,0-.78,3.46-2.16,4.76l-.35.52c-.69,1.73-3.63,3.72-3.63,3.72-6.74,5.36,16.25,14.01,16.25,14.01l-1.64,3.54s-28.45-8.82-21.18-21.1l3.54-5.19ZM119.58,199.6l1.47-6.14c3.89-13.75,29.83,1.04,29.83,1.04l-1.47,3.54s-22.13-10.81-21.36-2.25c0,0,.52,3.54-.17,5.19l-.17.69c0,1.82-1.99,4.84-1.99,4.84-4.15,7.44,20.4,6.74,20.4,6.74l-.09,3.8s-29.74,2.77-27.67-11.33l1.21-6.14ZM119.41,240.32l-1.04-6.14c-1.64-14.18,28.01-10.46,28.01-10.46v3.8s-24.55-1.56-20.58,6.14c0,0,1.82,3.03,1.73,4.84l.17.69c.69,1.64,0,5.19,0,5.19-.95,8.47,21.44-1.56,21.44-1.56l1.38,3.54s-26.46,13.92-29.92.09l-1.21-6.14ZM134.8,278.11l-3.29-5.36c-6.92-12.45,21.87-20.4,21.87-20.4l1.47,3.54s-23.34,8.04-16.69,13.57c0,0,2.85,2.08,3.46,3.8l.43.52c1.21,1.3,1.99,4.84,1.99,4.84,2.33,8.21,19.19-9.68,19.19-9.68l2.59,2.85s-19.02,22.91-27.49,11.5l-3.55-5.19ZM163.5,307.07l-5.1-3.72c-11.15-8.82,12.36-27.15,12.36-27.15l2.77,2.68s-18.5,16.34-10.29,18.93c0,0,3.54.78,4.76,2.16l.52.35c1.73.69,3.72,3.63,3.72,3.63,5.36,6.74,14.09-16.25,14.09-16.25l3.46,1.64s-8.82,28.45-21.01,21.18l-5.27-3.46ZM201.11,322.81l-6.14-1.47c-13.66-3.89,1.04-29.83,1.04-29.83l3.54,1.47s-10.81,22.13-2.25,21.36c0,0,3.54-.52,5.19.26l.69.09c1.82,0,4.84,1.99,4.84,1.99,7.52,4.15,6.74-20.4,6.74-20.4l3.8.09s2.77,29.74-11.33,27.67l-6.14-1.21ZM241.83,322.98l-6.14,1.04c-14.18,1.64-10.46-28.01-10.46-28.01h3.8s-1.56,24.55,6.14,20.66c0,0,3.03-1.9,4.84-1.82l.69-.17c1.64-.69,5.19,0,5.19,0,8.56,1.04-1.56-21.44-1.56-21.44l3.54-1.38s13.92,26.46.09,29.92l-6.14,1.21ZM279.62,307.59l-5.36,3.29c-12.45,6.92-20.32-21.87-20.32-21.87l3.46-1.47s8.04,23.34,13.57,16.69c0,0,2.08-2.85,3.8-3.46l.61-.43c1.21-1.21,4.75-1.99,4.75-1.99,8.3-2.33-9.68-19.19-9.68-19.19l2.85-2.59s22.91,19.02,11.5,27.49l-5.19,3.55ZM308.58,278.88l-3.72,5.1c-8.82,11.15-27.15-12.36-27.15-12.36l2.68-2.77s16.34,18.5,18.93,10.29c0,0,.86-3.54,2.16-4.76l.35-.52c.69-1.73,3.63-3.72,3.63-3.72,6.83-5.36-16.25-14.09-16.25-14.09l1.64-3.46s28.53,8.82,21.18,21.01l-3.46,5.27ZM324.32,241.27l-1.47,6.14c-3.89,13.66-29.83-1.04-29.83-1.04l1.47-3.54s22.13,10.81,21.36,2.25c0,0-.52-3.54.26-5.19l.09-.69c0-1.82,1.99-4.84,1.99-4.84,4.24-7.52-20.4-6.74-20.4-6.74l.17-3.8s29.66-2.77,27.58,11.33l-1.21,6.14ZM324.49,200.55l1.04,6.14c1.64,14.18-27.93,10.46-27.93,10.46l-.09-3.8s24.55,1.56,20.66-6.14c0,0-1.9-3.03-1.82-4.84l-.17-.69c-.69-1.64,0-5.19,0-5.19,1.04-8.56-21.44,1.56-21.44,1.56l-1.3-3.54s26.37-13.92,29.83-.09l1.21,6.14ZM309.1,162.77l3.29,5.36c6.92,12.45-21.79,20.32-21.79,20.32l-1.56-3.46s23.34-8.04,16.69-13.57c0,0-2.85-2.08-3.46-3.8l-.43-.61c-1.21-1.21-1.99-4.75-1.99-4.75-2.33-8.3-19.19,9.68-19.19,9.68l-2.59-2.85s19.02-22.91,27.49-11.5l3.55,5.19ZM280.4,133.81l5.1,3.72c11.15,8.82-12.36,27.15-12.36,27.15l-2.77-2.68s18.5-16.34,10.29-18.94c0,0-3.46-.86-4.76-2.16l-.52-.35c-1.73-.69-3.72-3.63-3.72-3.63-5.36-6.83-14.09,16.25-14.09,16.25l-3.46-1.64s8.82-28.53,21.1-21.18l5.19,3.46Z"/>
      <path class="cls-5" d="M214.17,144.96s.69-23.6-5.71-18.16c0,0-1.99,1.47-4.24,2.33-3.2.61-5.36-.69-5.36-.69-7.95-2.77,1.47,18.85,1.47,18.85l4.5-1.12s.86-8.65-.43-11.93c0,0,3.46,10.81,4.06,11.15.61.26,4.67-.35,4.67-.35l1.04-.09Z"/>
      <path class="cls-8" d="M201.54,146.86s-3.46-6.92-3.46-11.67M203.19,146.6s-2.85-6.92-3.11-10.12M212.35,145.04s.43-7.69-1.47-12.1M210.71,145.39s-.09-7.44-1.04-10.46"/>
      <path class="cls-5" d="M185.9,153.69s-8.39-22.05-12.19-14.61c0,0-1.38,2.16-3.03,3.8-2.77,1.82-5.27,1.38-5.27,1.38-8.39.52,8.65,16.95,8.65,16.95l3.63-2.85s-2.42-8.3-4.93-10.81c0,0,7.35,8.65,8.04,8.73.6,0,4.15-2.08,4.15-2.08l.95-.52Z"/>
      <path class="cls-8" d="M174.92,160.26s-5.79-5.01-7.61-9.42M176.38,159.4s-5.27-5.27-6.74-8.13M184.25,154.47s-2.59-7.35-5.97-10.63M182.87,155.42s-2.94-6.83-5.01-9.25"/>
      <path class="cls-5" d="M163.07,172.54s-16.17-17.12-16.86-8.73c0,0-.43,2.42-1.3,4.58-1.9,2.77-4.32,3.29-4.32,3.29-7.61,3.72,14.35,12.36,14.35,12.36l2.33-4.06s-5.45-6.66-8.65-8.04c0,0,10.03,5.19,10.72,5.02.61-.26,3.03-3.54,3.03-3.54l.69-.86Z"/>
      <path class="cls-8" d="M155.55,182.83s-7.35-2.42-10.72-5.79M156.5,181.44s-6.92-2.85-9.34-4.84M161.86,173.92s-5.19-5.79-9.6-7.61M160.99,175.31s-5.36-5.19-8.21-6.66"/>
      <path class="cls-5" d="M149.24,198.74s-21.53-9.68-18.93-1.64c0,0,.61,2.42.52,4.75-.69,3.29-2.68,4.76-2.68,4.76-5.62,6.31,17.98,5.79,17.98,5.79l.61-4.58s-7.61-4.06-11.07-4.15c0,0,11.24.95,11.76.52.52-.43,1.56-4.41,1.56-4.41l.26-1.04Z"/>
      <path class="cls-8" d="M146.21,211.19s-7.7.52-12.19-1.3M146.56,209.54s-7.52,0-10.55-.95M148.63,200.47s-7-3.37-11.76-3.29M148.37,202.11s-7-2.77-10.12-3.03"/>
      <path class="cls-5" d="M146.47,228.22s-23.6-.69-18.16,5.71c0,0,1.47,1.99,2.33,4.24.69,3.29-.69,5.36-.69,5.36-2.68,7.95,18.94-1.47,18.94-1.47l-1.21-4.5s-8.65-.86-11.85.43c0,0,10.81-3.46,11.07-4.06.35-.61-.26-4.67-.26-4.67l-.17-1.04Z"/>
      <path class="cls-8" d="M148.37,240.84s-6.83,3.46-11.67,3.46M148.11,239.2s-6.92,2.85-10.03,3.11M146.56,230.03s-7.69-.43-12.1,1.47M146.9,231.68s-7.44.09-10.46,1.04"/>
      <path class="cls-5" d="M155.2,256.49s-22.05,8.47-14.53,12.19c0,0,2.08,1.38,3.72,3.03,1.82,2.77,1.38,5.27,1.38,5.27.6,8.39,16.95-8.56,16.95-8.56l-2.85-3.72s-8.3,2.51-10.81,4.93c0,0,8.65-7.35,8.73-7.95,0-.69-2.08-4.24-2.08-4.24l-.52-.95Z"/>
      <path class="cls-8" d="M161.86,267.47s-5.1,5.79-9.51,7.61M160.91,266s-5.27,5.27-8.04,6.83M155.98,258.14s-7.35,2.59-10.63,5.97M156.93,259.53s-6.83,2.94-9.25,5.01"/>
      <path class="cls-5" d="M174.05,279.32s-17.12,16.25-8.73,16.86c0,0,2.42.43,4.67,1.3,2.68,1.9,3.29,4.41,3.29,4.41,3.72,7.52,12.28-14.44,12.28-14.44l-4.06-2.33s-6.66,5.45-8.04,8.65c0,0,5.19-10.03,5.01-10.72-.26-.61-3.54-3.03-3.54-3.03l-.86-.69Z"/>
      <path class="cls-8" d="M184.43,286.84s-2.51,7.35-5.88,10.72M183.04,285.89s-2.94,6.92-4.93,9.34M175.43,280.53s-5.79,5.19-7.52,9.6M176.82,281.48s-5.19,5.27-6.66,8.13"/>
      <path class="cls-5" d="M200.25,293.15s-9.6,21.53-1.64,18.93c0,0,2.42-.61,4.84-.52,3.2.69,4.67,2.68,4.67,2.68,6.31,5.62,5.88-17.98,5.88-17.98l-4.67-.61s-4.06,7.61-4.15,11.07c0,0,.95-11.24.52-11.76s-4.41-1.56-4.41-1.56l-1.04-.26Z"/>
      <path class="cls-8" d="M212.7,296.19s.52,7.69-1.3,12.19M211.06,295.83s0,7.52-.95,10.55M201.98,293.76s-3.37,7-3.29,11.76M203.62,294.1s-2.77,6.92-3.03,10.03"/>
      <path class="cls-5" d="M229.73,295.92s-.69,23.6,5.71,18.16c0,0,2.08-1.47,4.24-2.33,3.29-.6,5.45.69,5.45.69,7.95,2.68-1.56-18.93-1.56-18.93l-4.5,1.21s-.86,8.65.43,11.84c0,0-3.46-10.81-4.06-11.07-.6-.26-4.58.26-4.58.26l-1.12.17Z"/>
      <path class="cls-8" d="M242.35,294.02s3.46,6.83,3.46,11.67M240.71,294.28s2.85,6.92,3.2,10.03M231.55,295.83s-.43,7.69,1.47,12.1M233.19,295.49s.09,7.44,1.04,10.46"/>
      <path class="cls-5" d="M258.09,287.19s8.39,22.05,12.1,14.52c0,0,1.38-2.07,3.11-3.72,2.77-1.82,5.19-1.38,5.19-1.38,8.39-.61-8.56-16.95-8.56-16.95l-3.72,2.85s2.51,8.3,4.93,10.81c0,0-7.35-8.65-7.95-8.73-.69,0-4.24,2.08-4.24,2.08l-.86.52Z"/>
      <path class="cls-8" d="M268.98,280.53s5.79,5.1,7.69,9.51M267.6,281.48s5.27,5.27,6.74,8.13M259.73,286.41s2.51,7.35,5.97,10.63M261.03,285.46s2.94,6.83,5.01,9.25"/>
      <path class="cls-5" d="M280.83,268.34s16.25,17.12,16.86,8.73c0,0,.43-2.42,1.38-4.67,1.82-2.68,4.32-3.29,4.32-3.29,7.52-3.72-14.44-12.28-14.44-12.28l-2.33,4.06s5.45,6.66,8.65,8.04c0,0-10.03-5.19-10.72-5.01-.6.26-3.03,3.54-3.03,3.54l-.69.86Z"/>
      <path class="cls-8" d="M288.44,257.96s7.26,2.51,10.72,5.88M287.49,259.35s6.83,2.94,9.34,4.93M282.04,266.95s5.19,5.79,9.6,7.52M282.99,265.57s5.36,5.19,8.13,6.66"/>
      <path class="cls-5" d="M294.66,242.14s21.53,9.6,18.94,1.64c0,0-.52-2.42-.52-4.84.69-3.2,2.77-4.67,2.77-4.67,5.53-6.31-18.07-5.88-18.07-5.88l-.61,4.67s7.61,4.06,11.07,4.15c0,0-11.24-.95-11.76-.52-.52.43-1.56,4.41-1.56,4.41l-.26,1.04Z"/>
      <path class="cls-8" d="M297.69,229.69s7.69-.52,12.19,1.3M297.34,231.33s7.52,0,10.55.95M295.27,240.41s7,3.37,11.76,3.29M295.61,238.77s6.92,2.77,10.03,3.03"/>
      <path class="cls-5" d="M297.43,212.66s23.6.69,18.16-5.71c0,0-1.47-2.08-2.33-4.24-.61-3.29.69-5.45.69-5.45,2.77-7.95-18.85,1.56-18.85,1.56l1.12,4.5s8.65.86,11.93-.43c0,0-10.81,3.46-11.15,4.06-.26.6.35,4.58.35,4.58l.09,1.12Z"/>
      <path class="cls-8" d="M295.53,200.03s6.92-3.46,11.67-3.46M295.79,201.68s6.92-2.85,10.12-3.2M297.34,210.84s7.7.43,12.1-1.47M297,209.2s7.44-.09,10.46-1.04"/>
      <path class="cls-5" d="M288.7,184.3s22.05-8.39,14.61-12.1c0,0-2.16-1.38-3.8-3.11-1.82-2.68-1.38-5.19-1.38-5.19-.52-8.39-16.95,8.56-16.95,8.56l2.85,3.72s8.3-2.51,10.81-4.93c0,0-8.65,7.35-8.73,7.95,0,.69,2.08,4.24,2.08,4.24l.52.86Z"/>
      <path class="cls-8" d="M282.13,173.4s5.01-5.79,9.42-7.69M282.99,174.87s5.27-5.36,8.13-6.83M287.92,182.74s7.35-2.59,10.63-6.05M286.97,181.36s6.83-2.94,9.25-5.01"/>
      <path class="cls-5" d="M269.85,161.56s17.12-16.25,8.73-16.86c0,0-2.42-.43-4.67-1.38-2.68-1.82-3.29-4.32-3.29-4.32-3.72-7.52-12.28,14.44-12.28,14.44l4.06,2.33s6.66-5.45,8.04-8.65c0,0-5.19,10.03-5.02,10.72.26.6,3.54,3.03,3.54,3.03l.86.69Z"/>
      <path class="cls-8" d="M259.56,153.95s2.42-7.26,5.79-10.72M260.94,154.9s2.85-6.83,4.84-9.34M268.46,160.35s5.79-5.19,7.61-9.6M267.08,159.4s5.19-5.36,6.66-8.13"/>
      <path class="cls-5" d="M243.65,147.73s9.68-21.53,1.64-18.93c0,0-2.42.52-4.84.52-3.2-.69-4.67-2.77-4.67-2.77-6.31-5.53-5.79,18.07-5.79,18.07l4.58.6s4.06-7.61,4.15-11.07c0,0-.95,11.24-.52,11.76.43.52,4.41,1.56,4.41,1.56l1.04.26Z"/>
      <path class="cls-8" d="M231.2,144.7s-.52-7.7,1.3-12.19M232.84,145.04s0-7.52.95-10.55M241.92,147.12s3.37-7,3.29-11.76M240.28,146.77s2.77-6.92,3.03-10.03"/>
    </g>
    <path class="cls-1" d="M221.95,296.57c42.04,0,76.13-34.09,76.13-76.13s-34.09-76.13-76.13-76.13-76.13,34.09-76.13,76.13,34.09,76.13,76.13,76.13Z"/>
    <path class="cls-16" d="M221.95,292.8c39.97,0,72.36-32.38,72.36-72.36s-32.38-72.36-72.36-72.36-72.36,32.38-72.36,72.36,32.38,72.36,72.36,72.36Z"/>
    <path class="cls-12" d="M221.95,287.22c36.88,0,66.78-29.9,66.78-66.78s-29.9-66.78-66.78-66.78-66.78,29.9-66.78,66.78,29.9,66.78,66.78,66.78Z"/>
    <path class="cls-7" d="M221.95,283.58c34.93,0,63.14-28.3,63.14-63.14s-28.22-63.14-63.14-63.14-63.14,28.22-63.14,63.14,28.3,63.14,63.14,63.14Z"/>
    <path class="cls-3" d="M212.04,42.92l-6.61-15.63c-.75-1.82.11-3.91,1.94-4.67,1.81-.75,3.88.1,4.65,1.89l6.48,15.31c1.13-.25,2.29-.38,3.45-.38h0s0-.01,0-.01h0c.58.01,1.16.05,1.72.11l6.46-15.69c.77-1.82,2.87-2.67,4.69-1.9,1.79.76,2.65,2.81,1.93,4.62l-6.32,15.33c.99.63,1.92,1.37,2.75,2.2.4.41.79.84,1.15,1.28l15.63-6.61c1.82-.77,3.92.09,4.68,1.91.77,1.82-.09,3.92-1.91,4.68l-15.31,6.48c.25,1.11.38,2.27.38,3.45h.01s-.01,0-.01,0c0,.57-.03,1.13-.09,1.69l15.77,6.5c1.82.77,2.67,2.87,1.9,4.69-.76,1.79-2.81,2.65-4.62,1.93l-15.37-6.33c-.63,1.01-1.37,1.95-2.2,2.79-.4.4-.81.78-1.25,1.13l6.55,15.71c.75,1.83-.12,3.92-1.95,4.68-1.82.75-3.91-.11-4.67-1.93l-6.38-15.31c-1.16.26-2.35.4-3.54.4h0s0,.01,0,.01h0c-.57-.01-1.14-.05-1.7-.11l-6.39,15.67c-.78,1.82-2.88,2.67-4.71,1.89-1.77-.76-2.63-2.78-1.94-4.58l6.25-15.35c-1.48-.94-2.8-2.12-3.89-3.5l-15.65,6.55c-1.84.73-3.92-.16-4.65-2-.72-1.8.13-3.85,1.91-4.62l15.3-6.41c-.26-1.15-.39-2.33-.38-3.51h-.01s.01,0,.01,0c0-.57.03-1.14.09-1.69l-15.76-6.39c-1.82-.78-2.67-2.88-1.89-4.71.76-1.77,2.78-2.63,4.58-1.94l15.43,6.26c.94-1.49,2.12-2.81,3.49-3.9h0Z"/>
    <path class="cls-3" d="M221.95,88.01v.02h0v-.02c-9.03,0-17.21-3.66-23.13-9.58-5.91-5.91-9.58-14.09-9.58-23.13h-.02s.02,0,.02,0c0-9.03,3.67-17.18,9.59-23.08,5.92-5.89,14.09-9.53,23.11-9.54v-.02h0v.02c9.02,0,17.19,3.64,23.11,9.53,5.92,5.9,9.59,14.06,9.59,23.09h.02s-.02,0-.02,0c0,9.03-3.66,17.21-9.58,23.13-5.91,5.91-14.09,9.58-23.13,9.58h0ZM221.95,81.69h0v.02c7.26,0,13.86-2.97,18.65-7.76,4.79-4.79,7.76-11.39,7.76-18.65h-.02s.02,0,.02,0c0-7.27-2.96-13.85-7.74-18.61-4.78-4.77-11.39-7.71-18.67-7.71v.02h0v-.02c-7.28,0-13.89,2.95-18.67,7.71-4.78,4.76-7.74,11.33-7.74,18.6h.02s-.02,0-.02,0c0,7.26,2.97,13.86,7.76,18.65,4.79,4.79,11.39,7.76,18.65,7.76v-.02h0Z"/>
    <g>
      <path class="cls-4" d="M221.95,64.08h0c2.42.01,4.59-.97,6.16-2.56,1.57-1.59,2.54-3.78,2.54-6.21h-.01s.01,0,.01,0c0-2.39-.97-4.56-2.54-6.14-1.63-1.64-3.85-2.56-6.16-2.56h0s0,.01,0,.01h0c-2.31-.02-4.53.9-6.16,2.55-1.63,1.63-2.54,3.84-2.54,6.14h.01s-.01,0-.01,0c0,2.43.97,4.63,2.54,6.22,1.63,1.65,3.84,2.57,6.16,2.57h0s0-.01,0-.01Z"/>
      <path class="cls-5" d="M221.95,60.83c3.03,0,5.53-2.51,5.53-5.53s-2.51-5.53-5.53-5.53-5.53,2.51-5.53,5.53,2.51,5.53,5.53,5.53Z"/>
    </g>
    <path class="cls-5" d="M182.27,424.15h79.29v4.72h-79.29v-4.72ZM312.71,361.99c3.33-3.52,7.59-.01,6.47.37-1.17.4-2.05,1.06-1.5,1.71,1.43,1.69,4.28,3.21,2.46,8.07l-7.62-.48c-1.62-2.07-2.19-7.16.19-9.67h0Z"/>
    <path class="cls-5" d="M323.49,362.82c4.33-2.16,7.14,2.59,5.95,2.57-1.24-.02-2.29.29-2,1.09.76,2.08,2.92,4.48-.45,8.42l-6.99-3.06c-.82-2.5.4-7.47,3.49-9.02h0Z"/>
    <path class="cls-5" d="M333.33,367.3c4.81-.55,5.81,4.88,4.71,4.46-1.15-.45-2.25-.51-2.25.34,0,2.22,1.21,5.21-3.32,7.76l-5.52-5.28c.09-2.63,2.93-6.88,6.38-7.28h0Z"/>
    <path class="cls-5" d="M341.04,374.89c4.71,1.14,3.79,6.58,2.9,5.8-.93-.82-1.94-1.25-2.23-.45-.76,2.09-.65,5.31-5.78,6.15l-3.37-6.85c.98-2.44,5.12-5.46,8.48-4.65Z"/>
    <path class="cls-5" d="M345.67,384.66c4.03,2.68,1.3,7.48.73,6.44-.6-1.09-1.39-1.84-1.94-1.19-1.43,1.7-2.44,4.77-7.53,3.8l-.82-7.59c1.76-1.95,6.68-3.37,9.56-1.46h0Z"/>
    <path class="cls-5" d="M346.69,395.43c2.87,3.9-1.34,7.47-1.52,6.3-.19-1.22-.68-2.21-1.41-1.78-1.92,1.11-3.92,3.64-8.38.98l1.83-7.41c2.32-1.23,7.43-.88,9.48,1.91Z"/>
    <path class="cls-5" d="M343.94,405.89c1.36,4.65-3.83,6.56-3.59,5.4.24-1.21.12-2.31-.72-2.16-2.19.38-4.93,2.08-8.21-1.95l4.26-6.34c2.6-.36,7.28,1.73,8.25,5.05h0Z"/>
    <path class="cls-5" d="M337.77,414.77c-.32,4.83-5.84,4.85-5.23,3.84.65-1.06.9-2.13.07-2.28-2.18-.39-5.35.26-7.04-4.65l6.18-4.49c2.57.56,6.25,4.12,6.02,7.57Z"/>
    <path class="cls-5" d="M328.93,420.99c-1.96,4.43-7.15,2.55-6.23,1.81.97-.77,1.58-1.69.84-2.11-1.92-1.12-5.11-1.59-5.02-6.78l7.34-2.1c2.22,1.41,4.46,6.01,3.06,9.18h0Z"/>
    <path class="cls-5" d="M318.49,423.82c-3.36,3.49-7.59-.06-6.47-.43,1.17-.39,2.06-1.04,1.52-1.7-1.42-1.71-4.25-3.25-2.39-8.09,2.54.18,5.08.37,7.62.55,1.6,2.08,2.13,7.18-.28,9.67h0Z"/>
    <path class="cls-5" d="M307.71,422.87c-4.35,2.12-7.11-2.66-5.93-2.62,1.24.04,2.29-.27,2.01-1.07-.75-2.09-2.88-4.51.53-8.42l6.97,3.13c.79,2.51-.46,7.47-3.58,8.99h0Z"/>
    <path class="cls-5" d="M297.91,418.31c-4.82.5-5.77-4.94-4.67-4.5,1.15.46,2.25.53,2.25-.32.02-2.22-1.16-5.23,3.39-7.73l5.47,5.33c-.11,2.63-3,6.86-6.44,7.22h0Z"/>
    <path class="cls-5" d="M290.27,410.65c-4.7-1.18-3.73-6.62-2.84-5.83.92.82,1.93,1.27,2.23.47.78-2.08.7-5.31,5.83-6.1l3.31,6.88c-1.01,2.43-5.17,5.41-8.53,4.57h0Z"/>
    <path class="cls-5" d="M285.73,400.84c-4.01-2.72-1.23-7.49-.67-6.45.59,1.09,1.38,1.85,1.93,1.21,1.44-1.69,2.48-4.74,7.57-3.73l.75,7.6c-1.78,1.94-6.71,3.31-9.58,1.37h0Z"/>
    <path class="cls-5" d="M284.82,390.06c-2.83-3.93,1.41-7.46,1.58-6.29.18,1.23.66,2.21,1.4,1.8,1.93-1.09,3.96-3.61,8.39-.9l-1.9,7.4c-2.34,1.21-7.44.81-9.47-2Z"/>
    <path class="cls-5" d="M287.66,379.63c-1.31-4.66,3.89-6.52,3.64-5.37-.26,1.21-.14,2.3.7,2.17,2.19-.36,4.95-2.03,8.19,2.03l-4.32,6.3c-2.61.33-7.27-1.79-8.21-5.12h0Z"/>
    <path class="cls-5" d="M293.91,370.81c.37-4.83,5.89-4.79,5.26-3.79-.66,1.05-.92,2.12-.09,2.27,2.18.41,5.35-.21,7,4.71l-6.22,4.43c-2.56-.58-6.21-4.17-5.95-7.63h0Z"/>
    <path class="cls-5" d="M302.81,364.65c2-4.41,7.18-2.48,6.24-1.76-.98.76-1.59,1.67-.86,2.11,1.91,1.14,5.1,1.64,4.96,6.83l-7.36,2.03c-2.21-1.43-4.4-6.05-2.97-9.21h0Z"/>
    <g>
      <path class="cls-5" d="M315.89,414.63c11.93,0,21.61-9.68,21.61-21.61s-9.68-21.7-21.61-21.7-21.7,9.77-21.7,21.7,9.68,21.61,21.7,21.61h0Z"/>
      <path class="cls-5" d="M315.89,412.12c10.55,0,19.11-8.56,19.11-19.11s-8.56-19.11-19.11-19.11-19.11,8.56-19.11,19.11,8.47,19.11,19.11,19.11Z"/>
      <path class="cls-2" d="M314.51,380.55c-2.85-2.94-8.3-3.8-11.41-.95M312.69,382.64c-2.77-2.59-6.92-2.25-9.94-.26"/>
      <path class="cls-5" d="M314.16,385.68c-3.46-3.11-7.69-4.84-11.93-1.82-2.08,1.47,12.62,2.42,11.93,1.82Z"/>
      <path class="cls-2" d="M314.51,388.09c.17.86.43,1.73.26,2.68M312.09,391.63c-.35.69-1.82.86-1.38,1.73.95,1.82,3.54.95,5.01,2.16.26.26-.43,1.21-.35,1.82M315.72,398.55c-1.04-.78-2.51-.95-3.11-.43-1.38,1.3-3.03,1.73-4.67,1.64,2.68.17,5.1.43,7.43.61M307.94,399.76c2.94.09,4.75,5.1,7.43,3.29M310.01,407.54c1.73,1.64,4.06,2.16,6.31,1.82M317.37,380.55c2.94-2.85,8.39-3.46,11.41-.52M319.09,382.71c2.85-2.51,7-2.07,9.94,0"/>
      <path class="cls-5" d="M317.54,385.68c3.54-2.94,7.87-4.58,12.02-1.38,1.99,1.47-12.8,1.99-12.02,1.38Z"/>
      <path class="cls-2" d="M317.1,388.09c-.17.86-.43,1.73-.35,2.68M319.44,391.72c.35.78,1.73.95,1.3,1.82-1.04,1.82-3.54.86-5.01,1.99-.26.26.35,1.21.26,1.82M315.63,398.55c1.04-.78,2.51-.86,3.11-.35,1.3,1.3,2.94,1.82,4.67,1.82-2.77,0-5.19.26-7.52.35M323.41,400.01c-3.03-.09-3.98,4.58-7.69,3.03M321.08,407.71c-1.82,1.64-4.15,1.99-6.4,1.64"/>
    </g>
  </g>
  <g>
    <g id="b">
      <path class="cls-13" d="M196.72,259.41l.99-.57.42.57c.56.76,2.13.76,3.17-.02l.79-.59.66.59c.87.78,2.5.78,3.54,0,.73-.54.83-.55,1.31-.14.29.25,1.13.53,1.87.62,1.34.17,1.36.16,2.14-1.01.66-.98.76-1.38.6-2.33-.1-.63-.22-1.65-.25-2.26-.06-1.11-.05-1.11,1.56-1.68.89-.31,1.92-.73,2.29-.92.64-.35,2.42-2.43,2.42-2.84,0-.11-.69-.28-1.54-.37-3.37-.38-3.94-2.19-1.75-5.55,3.58-5.49,5.73-10.83,5.75-14.23,0-1.52.09-2.03.29-1.7.8,1.35-.63,7.02-2.8,11.09l-.87,1.64.83-.19c.46-.11,3.15-1.24,5.99-2.53,7.76-3.51,10.42-4.2,15.44-3.99,4.21.18,6,1,8.97,4.11,1.57,1.65,3.09,2.83,5.86,4.57,5.91,3.7,6.15,4.02,6.43,8.36.28,4.4.14,4.64-3.19,5.38-2.85.63-4.63,1.96-5.11,3.8-.26.98.28,1.01,1.72.09l1.05-.68.47.68c.62.89,1.92.89,3.01,0l.82-.67.84.67c1.3,1.04,3.03.79,3.52-.51.09-.25.34-.17.85.27.95.83,3.39,1.18,3.65.53.1-.25-.09-.86-.42-1.36-1.42-2.13-1.86-3.14-1.88-4.3-.03-1.61.45-2.39,2.29-3.7,2.23-1.59,2.91-3.65,1.22-3.65-1.05,0-2.1-.92-2.77-2.43-1.37-3.06-1.1-6.49.95-12.2,2.08-5.8,2.31-6.87,2.32-10.74,0-3.14-.07-3.68-.79-5.4-.44-1.05-1.32-2.62-1.97-3.48l-1.17-1.57,1.51-1.25c4.6-3.81,3.66-10.05-1.88-12.45-1.69-.74-2.12-.8-5.09-.78-1.78.01-4.5.25-6.04.52-1.57.28-4.22.5-6.04.51-2.89.01-3.38-.06-4.5-.65-1.16-.62-1.36-.91-1.59-2.34-.05-.29-.25-.59-.46-.65-.4-.12-2.22,1.46-2.49,2.16-.13.35-.24.32-.63-.14-.26-.31-.62-1.01-.8-1.57-.46-1.4.11-2.44,1.75-3.22l1.27-.61-.75-.47c-1.55-.96-4.18-.3-5.13,1.28-.27.45-.56.82-.65.82-.09,0-.6-.43-1.14-.95-2-1.95-1.31-4.84,1.36-5.72,1.43-.47,2.69-.11,2.95.84.4,1.45,1.65-.46,1.42-2.18-.15-1.15-.13-1.19.67-1.19,1.1,0,3.45,1.45,4.17,2.57.84,1.31.78,3.37-.15,4.91l-.73,1.21.95-.19c1.4-.28,2.75-1.15,3.44-2.2.73-1.11.8-3.28.16-4.45-.62-1.13-.55-1.31.37-.93,1.57.65,2.41,1.37,3.04,2.6.57,1.11.6,1.38.29,2.54-.19.71-.61,1.65-.94,2.08-.51.67-.52.79-.12.79.75,0,2.32-.71,2.88-1.3.28-.3.69-1.04.91-1.64l.4-1.09.46.83c.65,1.18,1.91,2.24,3.46,2.9,1.66.71,2.35.75,1.48.09-.58-.45-1.66-3.61-1.34-3.92.19-.18,2.44,1.55,5.01,3.86,2.43,2.18,3.96,2.9,6.19,2.9,2.85,0,4.51-2.48,3.23-4.83-.75-1.37-2.41-1.56-3.39-.39-.45.54-.57.97-.44,1.53.16.69.1.79-.53.79-.83,0-2.46-1.06-5.37-3.48-4.43-3.69-9.81-6.83-13.69-7.97-2.49-.73-7.82-1.02-10.35-.56-2.74.5-5.99,2.07-7.75,3.75-3.13,2.98-3.18,6.94-.13,10.55l.87,1.03-.59.92c-.86,1.34-.79,3.13.18,4.46.43.58.86,1.06.96,1.06.1,0,.21-.38.24-.83.09-1.16.58-1.94,1.44-2.24.77-.28,1.27-.15,4.79,1.26,3.7,1.48,9.79,1.58,16.27.27,3.17-.64,6.92-.6,8.57.09,3.02,1.26,3.72,4.56,1.5,7.05-.96,1.08-1.89,1.52-5,2.38-2.37.65-2.93.69-8.31.64-4.6-.05-6.25.04-8.13.43-2.04.43-3.29.47-9.27.32l-6.92-.17.77.64c.42.35,1.02.78,1.32.96.52.3.5.34-.27.63-.46.17-1.47.31-2.25.31h-1.42l-.19,1.21c-.11.66-.1,1.44.02,1.72.17.42.11.48-.33.32-.3-.11-1.13-.32-1.85-.47-.72-.15-1.68-.46-2.15-.69-.78-.38-.87-.37-1.15.14-.26.45-2.66,2.24-3.01,2.24-.06,0-.13-.34-.16-.77-.03-.42-.38-1.52-.77-2.44-.39-.92-.8-1.92-.91-2.23-.16-.46-.24-.49-.43-.14-.13.23-.32.86-.42,1.39-.1.54-.46,1.41-.81,1.94l-.62.96-.4-.82c-.42-.88-1.13-1.8-1.38-1.8-.09,0-.23.28-.33.63-.19.72-1.86,2.72-2.27,2.72-.15,0-.27-.56-.27-1.25s-.13-1.25-.29-1.25-.29.18-.29.4c0,.53-1.43,2.11-1.9,2.11-.21,0-.54.19-.75.42-.53.6-.96.52-.73-.14.1-.31.04-1.03-.15-1.6l-.44-1.35c-.07-.22-.58-.16-1.66.19-1.75.56-2.33.46-1.43-.24.33-.26.83-1.15,1.11-1.98.28-.83.7-1.57.93-1.64.32-.1.3.02-.07.53-.27.36-.49.85-.49,1.08,0,.23-.2.79-.45,1.23-.24.44-.4.85-.34.91.06.05.72-.2,1.48-.56l1.37-.66v.59c0,.32.17,1.18.37,1.9l.36,1.31.94-.43c.96-.44,1.86-2.01,1.86-3.22,0-.6.34-.51.48.13.04.19.26.89.48,1.56l.4,1.22.64-.77c.35-.42.79-1.26.98-1.85.33-1.03.84-1.47.84-.72,0,.54,1.47,2.47,1.75,2.3.14-.08.41-.8.61-1.61.41-1.68,1.07-2.81,1.49-2.57.16.09.22.27.14.4s.26,1.22.75,2.42c.5,1.2.99,2.42,1.11,2.7.18.45.34.38,1.41-.56.66-.58,1.26-1.24,1.34-1.45.11-.33.26-.31.88.07.87.54,3.78,1.4,4,1.19.08-.08.17-.84.19-1.7l.04-1.55.84.17c.46.1,1.43.09,2.15-.01l1.31-.19-1.17-.8c-.64-.44-1.29-1.01-1.45-1.27-.16-.27-.73-.51-1.38-.56-1.75-.15-4.86-1.89-4.86-2.73,0-.16.43.11.96.59,1.17,1.07,2.79,1.74,4.21,1.74h1.06l-.66-.87c-.38-.5-.71-1.45-.79-2.23-.13-1.25-.26-1.44-1.56-2.35-.78-.54-1.75-1.36-2.15-1.81l-.73-.82-.37.98c-.2.54-.46.98-.56.98s-.49-.31-.88-.7c-.38-.38-.77-.7-.86-.69-.09,0-.43.52-.75,1.15l-.58,1.14-.45-.66c-.25-.36-.83-1-1.29-1.43-.46-.42-.71-.77-.54-.77s.74.44,1.27.98l.97.98.4-.72c.23-.42.32-1.08.22-1.6-.16-.77-.13-.81.16-.33.19.31.76.89,1.26,1.31l.92.75.64-1.17c.63-1.16.64-1.16.93-.47.39.93,3.18,3.22,5.56,4.55.37.21.21-.5-.46-2.13-.18-.43-.33-1.21-.33-1.73,0-.77-.22-1.11-1.21-1.86-1.42-1.08-1.88-1.85-2.15-3.6-.11-.71-.36-1.49-.55-1.75-.29-.38-.34-.17-.26,1.15.05.89-.06,1.99-.26,2.45l-.35.84-.27-.7c-.15-.38-.81-1.05-1.47-1.48-.66-.43-1.12-.86-1.03-.95.09-.09.77.3,1.5.87,1.12.87,1.36.96,1.52.58.18-.45,0-2.4-.35-3.77-.18-.68-.16-.68.68.16.62.62.96,1.36,1.23,2.65.34,1.64.51,1.91,2.02,3.24.91.8,1.7,1.41,1.76,1.35.06-.05.17-2.12.26-4.59.16-4.74-.02-5.87-1.16-7.33l-.59-.75.92-.99c1.2-1.3,1.75-2.34,1.99-3.75l.19-1.15-1.04.99c-.85.81-1.26.99-2.24.99s-1.36-.16-2.02-.87c-.79-.84-2.19-1.65-3.54-2.05-.5-.15-.66-.08-.66.25,0,.25-.27.96-.61,1.58l-.61,1.13-1.28-1.26c-.78-.78-1.72-1.38-2.41-1.56-1.77-.47-1.86-.42-1.86.9,0,2-.85,2.37-2.39,1.04-1.17-1.01-2.14-1.23-4.36-.99l-1.72.19.31.77c.26.65.2.92-.35,1.65-.9,1.19-2.06,1.71-3.85,1.71-.83,0-1.86.17-2.3.38-.44.21-1.52.45-2.41.53s-1.84.24-2.11.34c-.42.16-.47.03-.33-.93.21-1.47-.82-2.55-2.42-2.55-2.07,0-3.03,1.86-2.22,4.3.16.47.36,1.21.45,1.65.1.45,1.03,1.66,2.18,2.8,1.1,1.1,2.15,2.25,2.32,2.55.17.3.74.78,1.26,1.07l.95.52-.12-1.01c-.14-1.11.11-1.29.7-.5.21.28.75.73,1.19,1.01.7.43.81.44.81.07,0-.24.14-.79.32-1.22l.32-.78.55,1.07c.3.59,1.29,1.92,2.19,2.97,1.75,2.03,2.82,4.29,2.27,4.81-.22.21-.83.2-2.08-.06-.97-.19-2.17-.3-2.67-.23-1.01.14-1.09.01-.47-.77.66-.82.55-.96-.74-.96-1.5,0-5.21-.72-6.63-1.28-1.39-.55-1.71-.41-2.11.9-.18.59-.52,1.66-.75,2.38l-.41,1.31,1.5-.14c.82-.08,1.88-.26,2.36-.4.47-.14.9-.22.95-.17.05.05-.16.56-.47,1.13l-.56,1.04.93-.19c.51-.1,1.29-.36,1.72-.57.75-.36.81-.34,1.4.61.73,1.17,1.31,1.12,1.44-.12.13-1.28.55-1.09,1.35.61.76,1.63,1.55,2.21,1.71,1.24.05-.32.46-.84.91-1.16.91-.64,1.6-.45,1.99.56.41,1.04-.5,2.12-3.15,3.73-5.3,3.21-8.39,7.61-9.27,13.22-.79,5.05,1.69,10.28,6.66,14.03,2.38,1.8,6.16,3.69,5.92,2.97-1.02-3.07-.99-8.93.06-9.92.16-.15.1.46-.12,1.36-.83,3.34-.47,5.99,1.66,12.22,1.92,5.63,1.66,8.04-1.06,9.63-.87.51-1.44.6-3.78.57-2.55-.03-2.83.02-3.64.67-.79.63-1.82,2.71-1.82,3.68,0,.52.58.46,1.73-.21h0Z"/>
      <path class="cls-13" d="M238.08,259.3l1.07-.69.73.69c.95.9,2.06.88,2.98-.05.4-.41.76-.69.8-.63.04.06.22.36.39.67.23.39.69.58,1.53.64,1.01.07,1.28-.03,1.68-.61l.48-.69,1.05.68c2.88,1.85,4.42-.09,3.13-3.96-.65-1.97-.29-3.07,1.82-5.58.89-1.06,1.62-2.18,1.62-2.5,0-.51-.16-.58-1.35-.56-1.13.02-1.46-.1-2.06-.76-.97-1.07-.91-2.29.17-3.65l.87-1.08-1.54-1.04c-.85-.57-2.37-1.93-3.39-3.02-2.29-2.44-4.53-3.59-7.5-3.85l-1.99-.18v1.5c0,1.94.92,3.8,3.4,6.95,2.82,3.59,3.02,4.14,3.13,8.83l.1,3.97-.82.77c-.74.7-1.07.79-3.45.93-2.27.13-2.74.25-3.41.84-.88.78-1.15,1.21-1.42,2.29-.16.63-.09.77.36.77.3,0,1.03-.31,1.62-.69h0ZM177.92,247.83c0-.5.22-.64,1.33-.79l1.33-.19-.88-.7c-1.05-.84-1.15-1.49-.22-1.49.92,0,2.48-.96,2.72-1.67.11-.33.04-.77-.16-1-.52-.59-1.49-.5-1.67.15-.19.7-.52.7-1.26,0-1.11-1.05-1.13-3.22-.05-4.49.51-.6.51-.64-.14-1.25-.7-.66-1.2-1.97-.87-2.28.1-.1.66-.02,1.23.18.81.28,1.13.28,1.46.02,1.01-.8-.08-1.82-1.71-1.59-.65.09-.92,0-1.02-.34-.07-.26-.64-.59-1.29-.75-1.15-.29-1.16-.29-1.16.5,0,.87-.5,1.03-1.44.48-.77-.45-1.51-.1-1.51.71,0,.76.76,1.14,2.13,1.05,1.05-.07,1.09.71.09,1.84l-.72.81.57.82c.84,1.21.77,3.22-.15,4.22l-.72.78-.47-.63c-.66-.87-1.56-.81-1.8.12-.16.61-.03.89.74,1.53.51.43,1.26.79,1.66.79,1,0,.96.78-.08,1.57l-.81.62,1.25.19c.69.11,1.25.31,1.25.45,0,.53.38,2.17,1.21,2.19.72.02,1.12-1.08,1.14-1.84h0Z"/>
      <path class="cls-13" d="M193.75,241.99c1.14-.45,3.6-2.53,3.6-3.05,0-.16-.68-.91-1.51-1.66-1.75-1.58-3.65-4.24-4.14-5.8-.26-.81-1.5-2.2-4.99-5.59l-4.65-4.51-1.34.34c-.74.19-1.64.34-2,.35-.62,0-.61.05.22.69l.87.68,1.23-.68c1.19-.66,1.23-.66,1.38-.13.09.31-.1.85-.43,1.25-.32.38-.5.82-.4.97.1.15-.21.46-.68.69-.87.43-1.48,1.84-.79,1.84.62,0,1.99-1.69,1.83-2.26-.08-.29-.04-.59.09-.67.53-.31.5,1.01-.04,1.66-.32.38-.5.82-.4.97.1.15-.21.46-.68.69-.87.42-1.48,1.84-.8,1.84s2.01-1.61,1.85-2.21c-.09-.32-.05-.63.08-.71.36-.21.55.84.25,1.35-.16.27-.16.65,0,.95.3.54,0,1.57-.55,1.89-.24.14-.08.41.49.84.83.62.84.69.84,3.44,0,2.3.09,2.89.52,3.29.47.45.52.45.52.02,0-.47.83-1.05,1.5-1.05.2,0,1.44,1.05,2.77,2.34,1.33,1.3,2.72,2.4,3.12,2.47.39.07.82.14.94.17s.72-.16,1.33-.39h0ZM179.54,230.86c0-.74-1.53-1.53-3.36-1.74-1.48-.17-1.5-.16-1.5.58,0,.61.23.85,1.25,1.29,1.64.71,3.61.64,3.61-.14Z"/>
      <path class="cls-13" d="M181.21,230.8c.75-.68,1.1-1.48.65-1.48-.52,0-1.89,1.23-1.89,1.69,0,.72.25.68,1.24-.21ZM179.63,228.6c.06-.42-.2-.7-.97-1.05-1.67-.76-3.67-1.1-4.15-.73-.89.7-.3,1.63,1.14,1.8.58.07,1.36.24,1.74.39,1.1.43,2.15.23,2.25-.42ZM179.63,226.36c.09-.6-.29-.81-3.41-1.91-2.32-.82-3.35-.43-2.61.98.26.49.69.72,1.67.86.72.11,1.72.32,2.2.47,1.3.4,2.05.26,2.15-.41h0ZM181.19,224.27c.47-.48.85-1.04.85-1.25,0-.68-1.86.53-2.09,1.36-.28,1,.18.96,1.24-.11ZM179.63,224.13c.1-.68-1.03-1.29-3.25-1.76-1.63-.35-2.35-.15-2.23.61.07.41.61.72,2.15,1.2,2.47.77,3.21.76,3.33-.04h0ZM181.8,220.96c2.85-1.27,3.09-4.46.41-5.3-1.11-.35-1.83-.16-2.25.59-.33.58-.11,1.63.34,1.63.15,0,.27.19.27.43,0,1.11-4.35,1.61-6.13.71-.63-.32-.9-1.14-.38-1.14.39,0,.66-.84.46-1.43-.27-.81-1.09-1.09-2.27-.78-2.67.7-2.59,3.83.12,5.17,2.23,1.09,7.11,1.16,9.43.13h0Z"/>
      <path class="cls-13" d="M180.03,218.51c.16-.16.09-.4-.18-.61-.61-.48-.57-1.18.09-1.99.5-.61.56-1.52.73-10.7.3-15.83,1.47-27.73,3.02-30.59.62-1.14.53-1.14-1.06-.06-2.06,1.4-3.62,3.22-5.01,5.83-2.62,4.92-3.53,11.55-3.53,25.68,0,8.03.05,9.08.51,9.83.43.72.46.98.15,1.75-.2.5-.29.97-.2,1.05.58.55,4.84.41,5.47-.19h0ZM203.95,203.41c.09-.14-.11-.83-.44-1.53-.51-1.1-.72-1.29-1.46-1.29-2.3,0-5.99-1.03-9.8-2.72-2.2-.98-2.96-1.21-3.22-.96-.67.64.45,2.15,2.18,2.94,1.54.7,5.83,1.57,7.79,1.57,1.14,0,1.16.05.52.99l-.48.69,1.29.03c.71.02,1.68.13,2.17.25,1.26.3,1.27.3,1.45.03h0Z"/>
      <path class="cls-15" d="M217.37,210.54c0-.41-1.2-1.52-2.42-2.23-.96-.56-1.11-.58-1.12-.12,0,.69-.62,2.44-.86,2.44-.14,0-.34-.34-.45-.76-.11-.42-.57-1.24-1.03-1.83l-.83-1.07-.65.99c-.6.92-1.64,1.83-2.11,1.83-.11,0-.13-.49-.05-1.08.09-.64.02-1.16-.18-1.27-.18-.11-.33-.07-.33.08,0,.35-1.45,1.99-1.75,1.99-.13,0-.3-.47-.39-1.05-.09-.58-.24-1.48-.34-2.02-.1-.54.11-.17.46.81l.63,1.78.7-1.09c.38-.6.7-1.25.7-1.45,0-.2.13-.29.29-.2.16.09.38.81.49,1.6l.2,1.43.77-.84c.42-.46.91-1.08,1.1-1.37.32-.52.34-.52.99.02.36.31.92,1.04,1.24,1.63.32.59.62,1.03.67.98.05-.05.17-.66.26-1.35s.17-1.28.18-1.31c.04-.17,2.3,1.3,3.14,2.04.54.48,1.05.8,1.13.72.09-.08.16-.79.16-1.57,0-1.21-.13-1.53-.87-2.19-.85-.76-.87-.76-1.19-.21-.41.72-.89.73-.89.02,0-.52-1.61-2.52-2.02-2.52-.11,0-.45.44-.75.98-.31.54-.63.98-.73.97-.41,0-2.68-2.53-2.68-2.98,0-.36.15-.27.55.34.3.46.9,1.15,1.34,1.53.88.77,1.2.58,1.54-.9.1-.42.27-.77.37-.77.38,0,2.35,2.09,2.63,2.79l.28.7.21-.77c.26-.94.54-.97.95-.12.17.36,1.02,1.1,1.89,1.65l1.57,1,.32-1.01c.17-.55.4-.87.51-.71.16.25-.25,1.92-.56,2.27-.05.05-.56-.24-1.13-.66l-1.05-.76v1.36c0,.75-.09,1.64-.19,1.98-.19.67-.7.86-.7.26h0ZM209.52,199.72c-1.87-1.56-2.16-1.92-2.11-2.66l.04-.79.12.76c.07.44.57,1.11,1.2,1.6l1.08.84.66-.76c.36-.42.67-.92.67-1.11.02-.5.1-.46,1.37.64,1.13.98,1.14.98,1.31.35.09-.35.06-1.02-.07-1.48-.37-1.26-.3-1.45.26-.69.28.38.72.92.99,1.19.47.48.49.47.67-.14.1-.35.18-1,.19-1.43v-.79s1.02,1.15,1.02,1.15c.95,1.07,1.04,1.11,1.32.6.17-.3.31-1.03.31-1.61,0-.76.08-.95.28-.66.32.48.1,1.79-.49,2.9l-.43.8-.56-.87c-.71-1.11-.95-1.09-1.41.11-.43,1.13-.71,1.22-1.14.35-.27-.56-.33-.5-.52.69l-.22,1.32-2.58-2-.58.66c-.32.36-.58.82-.59,1.01-.01.42-.32.43-.8.03ZM226.17,193.9c-.68-.61-1.15-1.2-1.04-1.3.11-.1.23-.13.27-.06.04.07.6.65,1.24,1.3,1.47,1.5,1.17,1.54-.46.06h0ZM203.99,191.61c-.62-.84-.58-1.39.18-2.3.55-.66.79-.75,1.75-.62.61.08,1.92.62,2.92,1.2,1.15.67,2.34,1.12,3.26,1.23.8.1,1.45.13,1.45.08s-.33-.59-.74-1.2c-.96-1.44-.93-1.6.16-.73,1.11.89,2.44,1.15,5.42,1.06l1.45-.04-.84-.83c-1.18-1.17-.82-1.27.49-.14,1.22,1.06,1.15,1.13-1.43,1.39-1.09.11-2.27.03-3.24-.22-1.46-.37-1.52-.37-1.24.12.16.28.42.51.57.51s.28.14.28.32c0,.54-3.16.06-4.66-.7-3.44-1.74-3.88-1.9-4.7-1.64-.46.14-.91.56-1.07.99-.53,1.41,1.47,2.5,2.29,1.26.24-.36.18-.61-.24-1.05-.57-.6-.52-.69.25-.4.55.2.62,1.52.11,2.01-.59.55-1.92.4-2.43-.29h0Z"/>
      <path class="cls-15" d="M217.56,188.14c-.43-.41-.09-.51,1.84-.54,2.39-.04,3.84-.44,5.55-1.52,1.37-.87,1.74-.7.44.2-1.19.82-3.04,1.45-4.83,1.64-.87.09-1.85.22-2.19.29-.34.06-.7.04-.81-.06h0Z"/>
    </g>
    <g id="b-2" data-name="b">
      <path class="cls-19" d="M196.72,259.41l.99-.57.42.57c.56.76,2.13.76,3.17-.02l.79-.59.66.59c.87.78,2.5.78,3.54,0,.73-.54.83-.55,1.31-.14.29.25,1.13.53,1.87.62,1.34.17,1.36.16,2.14-1.01.66-.98.76-1.38.6-2.33-.1-.63-.22-1.65-.25-2.26-.06-1.11-.05-1.11,1.56-1.68.89-.31,1.92-.73,2.29-.92.64-.35,2.42-2.43,2.42-2.84,0-.11-.69-.28-1.54-.37-3.37-.38-3.94-2.19-1.75-5.55,3.58-5.49,5.73-10.83,5.75-14.23,0-1.52.09-2.03.29-1.7.8,1.35-.63,7.02-2.8,11.09l-.87,1.64.83-.19c.46-.11,3.15-1.24,5.99-2.53,7.76-3.51,10.42-4.2,15.44-3.99,4.21.18,6,1,8.97,4.11,1.57,1.65,3.09,2.83,5.86,4.57,5.91,3.7,6.15,4.02,6.43,8.36.28,4.4.14,4.64-3.19,5.38-2.85.63-4.63,1.96-5.11,3.8-.26.98.28,1.01,1.72.09l1.05-.68.47.68c.62.89,1.92.89,3.01,0l.82-.67.84.67c1.3,1.04,3.03.79,3.52-.51.09-.25.34-.17.85.27.95.83,3.39,1.18,3.65.53.1-.25-.09-.86-.42-1.36-1.42-2.13-1.86-3.14-1.88-4.3-.03-1.61.45-2.39,2.29-3.7,2.23-1.59,2.91-3.65,1.22-3.65-1.05,0-2.1-.92-2.77-2.43-1.37-3.06-1.1-6.49.95-12.2,2.08-5.8,2.31-6.87,2.32-10.74,0-3.14-.07-3.68-.79-5.4-.44-1.05-1.32-2.62-1.97-3.48l-1.17-1.57,1.51-1.25c4.6-3.81,3.66-10.05-1.88-12.45-1.69-.74-2.12-.8-5.09-.78-1.78.01-4.5.25-6.04.52-1.57.28-4.22.5-6.04.51-2.89.01-3.38-.06-4.5-.65-1.16-.62-1.36-.91-1.59-2.34-.05-.29-.25-.59-.46-.65-.4-.12-2.22,1.46-2.49,2.16-.13.35-.24.32-.63-.14-.26-.31-.62-1.01-.8-1.57-.46-1.4.11-2.44,1.75-3.22l1.27-.61-.75-.47c-1.55-.96-4.18-.3-5.13,1.28-.27.45-.56.82-.65.82-.09,0-.6-.43-1.14-.95-2-1.95-1.31-4.84,1.36-5.72,1.43-.47,2.69-.11,2.95.84.4,1.45,1.65-.46,1.42-2.18-.15-1.15-.13-1.19.67-1.19,1.1,0,3.45,1.45,4.17,2.57.84,1.31.78,3.37-.15,4.91l-.73,1.21.95-.19c1.4-.28,2.75-1.15,3.44-2.2.73-1.11.8-3.28.16-4.45-.62-1.13-.55-1.31.37-.93,1.57.65,2.41,1.37,3.04,2.6.57,1.11.6,1.38.29,2.54-.19.71-.61,1.65-.94,2.08-.51.67-.52.79-.12.79.75,0,2.32-.71,2.88-1.3.28-.3.69-1.04.91-1.64l.4-1.09.46.83c.65,1.18,1.91,2.24,3.46,2.9,1.66.71,2.35.75,1.48.09-.58-.45-1.66-3.61-1.34-3.92.19-.18,2.44,1.55,5.01,3.86,2.43,2.18,3.96,2.9,6.19,2.9,2.85,0,4.51-2.48,3.23-4.83-.75-1.37-2.41-1.56-3.39-.39-.45.54-.57.97-.44,1.53.16.69.1.79-.53.79-.83,0-2.46-1.06-5.37-3.48-4.43-3.69-9.81-6.83-13.69-7.97-2.49-.73-7.82-1.02-10.35-.56-2.74.5-5.99,2.07-7.75,3.75-3.13,2.98-3.18,6.94-.13,10.55l.87,1.03-.59.92c-.86,1.34-.79,3.13.18,4.46.43.58.86,1.06.96,1.06.1,0,.21-.38.24-.83.09-1.16.58-1.94,1.44-2.24.77-.28,1.27-.15,4.79,1.26,3.7,1.48,9.79,1.58,16.27.27,3.17-.64,6.92-.6,8.57.09,3.02,1.26,3.72,4.56,1.5,7.05-.96,1.08-1.89,1.52-5,2.38-2.37.65-2.93.69-8.31.64-4.6-.05-6.25.04-8.13.43-2.04.43-3.29.47-9.27.32l-6.92-.17.77.64c.42.35,1.02.78,1.32.96.52.3.5.34-.27.63-.46.17-1.47.31-2.25.31h-1.42l-.19,1.21c-.11.66-.1,1.44.02,1.72.17.42.11.48-.33.32-.3-.11-1.13-.32-1.85-.47-.72-.15-1.68-.46-2.15-.69-.78-.38-.87-.37-1.15.14-.26.45-2.66,2.24-3.01,2.24-.06,0-.13-.34-.16-.77-.03-.42-.38-1.52-.77-2.44-.39-.92-.8-1.92-.91-2.23-.16-.46-.24-.49-.43-.14-.13.23-.32.86-.42,1.39-.1.54-.46,1.41-.81,1.94l-.62.96-.4-.82c-.42-.88-1.13-1.8-1.38-1.8-.09,0-.23.28-.33.63-.19.72-1.86,2.72-2.27,2.72-.15,0-.27-.56-.27-1.25s-.13-1.25-.29-1.25-.29.18-.29.4c0,.53-1.43,2.11-1.9,2.11-.21,0-.54.19-.75.42-.53.6-.96.52-.73-.14.1-.31.04-1.03-.15-1.6l-.44-1.35c-.07-.22-.58-.16-1.66.19-1.75.56-2.33.46-1.43-.24.33-.26.83-1.15,1.11-1.98.28-.83.7-1.57.93-1.64.32-.1.3.02-.07.53-.27.36-.49.85-.49,1.08,0,.23-.2.79-.45,1.23-.24.44-.4.85-.34.91.06.05.72-.2,1.48-.56l1.37-.66v.59c0,.32.17,1.18.37,1.9l.36,1.31.94-.43c.96-.44,1.86-2.01,1.86-3.22,0-.6.34-.51.48.13.04.19.26.89.48,1.56l.4,1.22.64-.77c.35-.42.79-1.26.98-1.85.33-1.03.84-1.47.84-.72,0,.54,1.47,2.47,1.75,2.3.14-.08.41-.8.61-1.61.41-1.68,1.07-2.81,1.49-2.57.16.09.22.27.14.4s.26,1.22.75,2.42c.5,1.2.99,2.42,1.11,2.7.18.45.34.38,1.41-.56.66-.58,1.26-1.24,1.34-1.45.11-.33.26-.31.88.07.87.54,3.78,1.4,4,1.19.08-.08.17-.84.19-1.7l.04-1.55.84.17c.46.1,1.43.09,2.15-.01l1.31-.19-1.17-.8c-.64-.44-1.29-1.01-1.45-1.27-.16-.27-.73-.51-1.38-.56-1.75-.15-4.86-1.89-4.86-2.73,0-.16.43.11.96.59,1.17,1.07,2.79,1.74,4.21,1.74h1.06l-.66-.87c-.38-.5-.71-1.45-.79-2.23-.13-1.25-.26-1.44-1.56-2.35-.78-.54-1.75-1.36-2.15-1.81l-.73-.82-.37.98c-.2.54-.46.98-.56.98s-.49-.31-.88-.7c-.38-.38-.77-.7-.86-.69-.09,0-.43.52-.75,1.15l-.58,1.14-.45-.66c-.25-.36-.83-1-1.29-1.43-.46-.42-.71-.77-.54-.77s.74.44,1.27.98l.97.98.4-.72c.23-.42.32-1.08.22-1.6-.16-.77-.13-.81.16-.33.19.31.76.89,1.26,1.31l.92.75.64-1.17c.63-1.16.64-1.16.93-.47.39.93,3.18,3.22,5.56,4.55.37.21.21-.5-.46-2.13-.18-.43-.33-1.21-.33-1.73,0-.77-.22-1.11-1.21-1.86-1.42-1.08-1.88-1.85-2.15-3.6-.11-.71-.36-1.49-.55-1.75-.29-.38-.34-.17-.26,1.15.05.89-.06,1.99-.26,2.45l-.35.84-.27-.7c-.15-.38-.81-1.05-1.47-1.48-.66-.43-1.12-.86-1.03-.95.09-.09.77.3,1.5.87,1.12.87,1.36.96,1.52.58.18-.45,0-2.4-.35-3.77-.18-.68-.16-.68.68.16.62.62.96,1.36,1.23,2.65.34,1.64.51,1.91,2.02,3.24.91.8,1.7,1.41,1.76,1.35.06-.05.17-2.12.26-4.59.16-4.74-.02-5.87-1.16-7.33l-.59-.75.92-.99c1.2-1.3,1.75-2.34,1.99-3.75l.19-1.15-1.04.99c-.85.81-1.26.99-2.24.99s-1.36-.16-2.02-.87c-.79-.84-2.19-1.65-3.54-2.05-.5-.15-.66-.08-.66.25,0,.25-.27.96-.61,1.58l-.61,1.13-1.28-1.26c-.78-.78-1.72-1.38-2.41-1.56-1.77-.47-1.86-.42-1.86.9,0,2-.85,2.37-2.39,1.04-1.17-1.01-2.14-1.23-4.36-.99l-1.72.19.31.77c.26.65.2.92-.35,1.65-.9,1.19-2.06,1.71-3.85,1.71-.83,0-1.86.17-2.3.38-.44.21-1.52.45-2.41.53s-1.84.24-2.11.34c-.42.16-.47.03-.33-.93.21-1.47-.82-2.55-2.42-2.55-2.07,0-3.03,1.86-2.22,4.3.16.47.36,1.21.45,1.65.1.45,1.03,1.66,2.18,2.8,1.1,1.1,2.15,2.25,2.32,2.55.17.3.74.78,1.26,1.07l.95.52-.12-1.01c-.14-1.11.11-1.29.7-.5.21.28.75.73,1.19,1.01.7.43.81.44.81.07,0-.24.14-.79.32-1.22l.32-.78.55,1.07c.3.59,1.29,1.92,2.19,2.97,1.75,2.03,2.82,4.29,2.27,4.81-.22.21-.83.2-2.08-.06-.97-.19-2.17-.3-2.67-.23-1.01.14-1.09.01-.47-.77.66-.82.55-.96-.74-.96-1.5,0-5.21-.72-6.63-1.28-1.39-.55-1.71-.41-2.11.9-.18.59-.52,1.66-.75,2.38l-.41,1.31,1.5-.14c.82-.08,1.88-.26,2.36-.4.47-.14.9-.22.95-.17.05.05-.16.56-.47,1.13l-.56,1.04.93-.19c.51-.1,1.29-.36,1.72-.57.75-.36.81-.34,1.4.61.73,1.17,1.31,1.12,1.44-.12.13-1.28.55-1.09,1.35.61.76,1.63,1.55,2.21,1.71,1.24.05-.32.46-.84.91-1.16.91-.64,1.6-.45,1.99.56.41,1.04-.5,2.12-3.15,3.73-5.3,3.21-8.39,7.61-9.27,13.22-.79,5.05,1.69,10.28,6.66,14.03,2.38,1.8,6.16,3.69,5.92,2.97-1.02-3.07-.99-8.93.06-9.92.16-.15.1.46-.12,1.36-.83,3.34-.47,5.99,1.66,12.22,1.92,5.63,1.66,8.04-1.06,9.63-.87.51-1.44.6-3.78.57-2.55-.03-2.83.02-3.64.67-.79.63-1.82,2.71-1.82,3.68,0,.52.58.46,1.73-.21h0Z"/>
      <path class="cls-19" d="M238.08,259.3l1.07-.69.73.69c.95.9,2.06.88,2.98-.05.4-.41.76-.69.8-.63.04.06.22.36.39.67.23.39.69.58,1.53.64,1.01.07,1.28-.03,1.68-.61l.48-.69,1.05.68c2.88,1.85,4.42-.09,3.13-3.96-.65-1.97-.29-3.07,1.82-5.58.89-1.06,1.62-2.18,1.62-2.5,0-.51-.16-.58-1.35-.56-1.13.02-1.46-.1-2.06-.76-.97-1.07-.91-2.29.17-3.65l.87-1.08-1.54-1.04c-.85-.57-2.37-1.93-3.39-3.02-2.29-2.44-4.53-3.59-7.5-3.85l-1.99-.18v1.5c0,1.94.92,3.8,3.4,6.95,2.82,3.59,3.02,4.14,3.13,8.83l.1,3.97-.82.77c-.74.7-1.07.79-3.45.93-2.27.13-2.74.25-3.41.84-.88.78-1.15,1.21-1.42,2.29-.16.63-.09.77.36.77.3,0,1.03-.31,1.62-.69h0ZM177.92,247.83c0-.5.22-.64,1.33-.79l1.33-.19-.88-.7c-1.05-.84-1.15-1.49-.22-1.49.92,0,2.48-.96,2.72-1.67.11-.33.04-.77-.16-1-.52-.59-1.49-.5-1.67.15-.19.7-.52.7-1.26,0-1.11-1.05-1.13-3.22-.05-4.49.51-.6.51-.64-.14-1.25-.7-.66-1.2-1.97-.87-2.28.1-.1.66-.02,1.23.18.81.28,1.13.28,1.46.02,1.01-.8-.08-1.82-1.71-1.59-.65.09-.92,0-1.02-.34-.07-.26-.64-.59-1.29-.75-1.15-.29-1.16-.29-1.16.5,0,.87-.5,1.03-1.44.48-.77-.45-1.51-.1-1.51.71,0,.76.76,1.14,2.13,1.05,1.05-.07,1.09.71.09,1.84l-.72.81.57.82c.84,1.21.77,3.22-.15,4.22l-.72.78-.47-.63c-.66-.87-1.56-.81-1.8.12-.16.61-.03.89.74,1.53.51.43,1.26.79,1.66.79,1,0,.96.78-.08,1.57l-.81.62,1.25.19c.69.11,1.25.31,1.25.45,0,.53.38,2.17,1.21,2.19.72.02,1.12-1.08,1.14-1.84h0Z"/>
      <path class="cls-19" d="M193.75,241.99c1.14-.45,3.6-2.53,3.6-3.05,0-.16-.68-.91-1.51-1.66-1.75-1.58-3.65-4.24-4.14-5.8-.26-.81-1.5-2.2-4.99-5.59l-4.65-4.51-1.34.34c-.74.19-1.64.34-2,.35-.62,0-.61.05.22.69l.87.68,1.23-.68c1.19-.66,1.23-.66,1.38-.13.09.31-.1.85-.43,1.25-.32.38-.5.82-.4.97.1.15-.21.46-.68.69-.87.43-1.48,1.84-.79,1.84.62,0,1.99-1.69,1.83-2.26-.08-.29-.04-.59.09-.67.53-.31.5,1.01-.04,1.66-.32.38-.5.82-.4.97.1.15-.21.46-.68.69-.87.42-1.48,1.84-.8,1.84s2.01-1.61,1.85-2.21c-.09-.32-.05-.63.08-.71.36-.21.55.84.25,1.35-.16.27-.16.65,0,.95.3.54,0,1.57-.55,1.89-.24.14-.08.41.49.84.83.62.84.69.84,3.44,0,2.3.09,2.89.52,3.29.47.45.52.45.52.02,0-.47.83-1.05,1.5-1.05.2,0,1.44,1.05,2.77,2.34,1.33,1.3,2.72,2.4,3.12,2.47.39.07.82.14.94.17s.72-.16,1.33-.39h0ZM179.54,230.86c0-.74-1.53-1.53-3.36-1.74-1.48-.17-1.5-.16-1.5.58,0,.61.23.85,1.25,1.29,1.64.71,3.61.64,3.61-.14Z"/>
      <path class="cls-19" d="M181.21,230.8c.75-.68,1.1-1.48.65-1.48-.52,0-1.89,1.23-1.89,1.69,0,.72.25.68,1.24-.21ZM179.63,228.6c.06-.42-.2-.7-.97-1.05-1.67-.76-3.67-1.1-4.15-.73-.89.7-.3,1.63,1.14,1.8.58.07,1.36.24,1.74.39,1.1.43,2.15.23,2.25-.42ZM179.63,226.36c.09-.6-.29-.81-3.41-1.91-2.32-.82-3.35-.43-2.61.98.26.49.69.72,1.67.86.72.11,1.72.32,2.2.47,1.3.4,2.05.26,2.15-.41h0ZM181.19,224.27c.47-.48.85-1.04.85-1.25,0-.68-1.86.53-2.09,1.36-.28,1,.18.96,1.24-.11ZM179.63,224.13c.1-.68-1.03-1.29-3.25-1.76-1.63-.35-2.35-.15-2.23.61.07.41.61.72,2.15,1.2,2.47.77,3.21.76,3.33-.04h0ZM181.8,220.96c2.85-1.27,3.09-4.46.41-5.3-1.11-.35-1.83-.16-2.25.59-.33.58-.11,1.63.34,1.63.15,0,.27.19.27.43,0,1.11-4.35,1.61-6.13.71-.63-.32-.9-1.14-.38-1.14.39,0,.66-.84.46-1.43-.27-.81-1.09-1.09-2.27-.78-2.67.7-2.59,3.83.12,5.17,2.23,1.09,7.11,1.16,9.43.13h0Z"/>
      <path class="cls-19" d="M180.03,218.51c.16-.16.09-.4-.18-.61-.61-.48-.57-1.18.09-1.99.5-.61.56-1.52.73-10.7.3-15.83,1.47-27.73,3.02-30.59.62-1.14.53-1.14-1.06-.06-2.06,1.4-3.62,3.22-5.01,5.83-2.62,4.92-3.53,11.55-3.53,25.68,0,8.03.05,9.08.51,9.83.43.72.46.98.15,1.75-.2.5-.29.97-.2,1.05.58.55,4.84.41,5.47-.19h0ZM203.95,203.41c.09-.14-.11-.83-.44-1.53-.51-1.1-.72-1.29-1.46-1.29-2.3,0-5.99-1.03-9.8-2.72-2.2-.98-2.96-1.21-3.22-.96-.67.64.45,2.15,2.18,2.94,1.54.7,5.83,1.57,7.79,1.57,1.14,0,1.16.05.52.99l-.48.69,1.29.03c.71.02,1.68.13,2.17.25,1.26.3,1.27.3,1.45.03h0Z"/>
      <path class="cls-18" d="M217.37,210.54c0-.41-1.2-1.52-2.42-2.23-.96-.56-1.11-.58-1.12-.12,0,.69-.62,2.44-.86,2.44-.14,0-.34-.34-.45-.76-.11-.42-.57-1.24-1.03-1.83l-.83-1.07-.65.99c-.6.92-1.64,1.83-2.11,1.83-.11,0-.13-.49-.05-1.08.09-.64.02-1.16-.18-1.27-.18-.11-.33-.07-.33.08,0,.35-1.45,1.99-1.75,1.99-.13,0-.3-.47-.39-1.05-.09-.58-.24-1.48-.34-2.02-.1-.54.11-.17.46.81l.63,1.78.7-1.09c.38-.6.7-1.25.7-1.45,0-.2.13-.29.29-.2.16.09.38.81.49,1.6l.2,1.43.77-.84c.42-.46.91-1.08,1.1-1.37.32-.52.34-.52.99.02.36.31.92,1.04,1.24,1.63.32.59.62,1.03.67.98.05-.05.17-.66.26-1.35s.17-1.28.18-1.31c.04-.17,2.3,1.3,3.14,2.04.54.48,1.05.8,1.13.72.09-.08.16-.79.16-1.57,0-1.21-.13-1.53-.87-2.19-.85-.76-.87-.76-1.19-.21-.41.72-.89.73-.89.02,0-.52-1.61-2.52-2.02-2.52-.11,0-.45.44-.75.98-.31.54-.63.98-.73.97-.41,0-2.68-2.53-2.68-2.98,0-.36.15-.27.55.34.3.46.9,1.15,1.34,1.53.88.77,1.2.58,1.54-.9.1-.42.27-.77.37-.77.38,0,2.35,2.09,2.63,2.79l.28.7.21-.77c.26-.94.54-.97.95-.12.17.36,1.02,1.1,1.89,1.65l1.57,1,.32-1.01c.17-.55.4-.87.51-.71.16.25-.25,1.92-.56,2.27-.05.05-.56-.24-1.13-.66l-1.05-.76v1.36c0,.75-.09,1.64-.19,1.98-.19.67-.7.86-.7.26h0ZM209.52,199.72c-1.87-1.56-2.16-1.92-2.11-2.66l.04-.79.12.76c.07.44.57,1.11,1.2,1.6l1.08.84.66-.76c.36-.42.67-.92.67-1.11.02-.5.1-.46,1.37.64,1.13.98,1.14.98,1.31.35.09-.35.06-1.02-.07-1.48-.37-1.26-.3-1.45.26-.69.28.38.72.92.99,1.19.47.48.49.47.67-.14.1-.35.18-1,.19-1.43v-.79s1.02,1.15,1.02,1.15c.95,1.07,1.04,1.11,1.32.6.17-.3.31-1.03.31-1.61,0-.76.08-.95.28-.66.32.48.1,1.79-.49,2.9l-.43.8-.56-.87c-.71-1.11-.95-1.09-1.41.11-.43,1.13-.71,1.22-1.14.35-.27-.56-.33-.5-.52.69l-.22,1.32-2.58-2-.58.66c-.32.36-.58.82-.59,1.01-.01.42-.32.43-.8.03ZM226.17,193.9c-.68-.61-1.15-1.2-1.04-1.3.11-.1.23-.13.27-.06.04.07.6.65,1.24,1.3,1.47,1.5,1.17,1.54-.46.06h0ZM203.99,191.61c-.62-.84-.58-1.39.18-2.3.55-.66.79-.75,1.75-.62.61.08,1.92.62,2.92,1.2,1.15.67,2.34,1.12,3.26,1.23.8.1,1.45.13,1.45.08s-.33-.59-.74-1.2c-.96-1.44-.93-1.6.16-.73,1.11.89,2.44,1.15,5.42,1.06l1.45-.04-.84-.83c-1.18-1.17-.82-1.27.49-.14,1.22,1.06,1.15,1.13-1.43,1.39-1.09.11-2.27.03-3.24-.22-1.46-.37-1.52-.37-1.24.12.16.28.42.51.57.51s.28.14.28.32c0,.54-3.16.06-4.66-.7-3.44-1.74-3.88-1.9-4.7-1.64-.46.14-.91.56-1.07.99-.53,1.41,1.47,2.5,2.29,1.26.24-.36.18-.61-.24-1.05-.57-.6-.52-.69.25-.4.55.2.62,1.52.11,2.01-.59.55-1.92.4-2.43-.29h0Z"/>
      <path class="cls-18" d="M217.56,188.14c-.43-.41-.09-.51,1.84-.54,2.39-.04,3.84-.44,5.55-1.52,1.37-.87,1.74-.7.44.2-1.19.82-3.04,1.45-4.83,1.64-.87.09-1.85.22-2.19.29-.34.06-.7.04-.81-.06h0Z"/>
    </g>
  </g>
</svg>