<?xml version="1.0" encoding="UTF-8"?>
<svg id="Layer_1" data-name="Layer 1" xmlns="http://www.w3.org/2000/svg" viewBox="0 0 838.47 294.5">
  <defs>
    <style>
      .cls-1 {
        fill: #fff;
      }

      .cls-2 {
        fill: #0085ca;
      }
    </style>
  </defs>
  <g>
    <path class="cls-2" d="M524.33,206.91c0,.48-.07.94-.23,1.4-.16.44-.46.98-.89,1.56-.75.96-1.9,2.11-3.44,3.48-1.54,1.35-3.26,2.86-5.18,4.51-2.24,1.92-4.51,3.92-6.83,6-2.31,2.08-4.33,4.06-6.03,6-1.97,2.13-2.96,4.06-2.96,5.84,0,1.49.89,3.1,2.64,4.88.75.75,1.7,1.67,2.87,2.75,1.17,1.1,2.36,2.2,3.58,3.32,1.01.85,1.99,1.69,2.91,2.52.92.82,1.69,1.53,2.27,2.11,3.51,3.67,5.27,7.34,5.27,11.02v.23c0,1.49-.27,2.89-.8,4.19s-1.26,2.57-2.15,3.8c-1.92,2.39-3.97,4.38-6.19,5.94-2.22,1.56-4.08,2.79-5.62,3.64-.37.21-.71.34-.99.39-.3.05-.62.07-.99.07-.64,0-1.26-.18-1.84-.51-.59-.35-1.03-.87-1.35-1.56-.37-.64-.57-1.26-.57-1.84s.14-1.17.44-1.76c.28-.59.82-1.06,1.56-1.44,1.38-.8,3.02-1.81,4.91-3.03,1.88-1.22,3.44-2.66,4.67-4.31.59-.69.98-1.37,1.19-1.99.21-.64.32-1.28.32-1.92-.05-.85-.32-1.76-.8-2.71-.48-.96-1.26-1.97-2.32-3.03-.85-.85-1.95-1.88-3.32-3.1-1.35-1.22-2.7-2.43-4.03-3.6-.8-.75-1.56-1.44-2.27-2.08-.73-.64-1.35-1.19-1.88-1.67-3.51-3.19-5.27-6.55-5.27-10.06v-.23c0-3.25,1.76-6.79,5.27-10.61,2.18-2.39,4.54-4.72,7.06-6.95s4.88-4.29,7.06-6.16c1.01-.9,1.93-1.72,2.8-2.47.85-.75,1.6-1.38,2.24-1.92.43-1.97,1.51-3.26,3.26-3.92.48-.21,1.01-.32,1.6-.32,1.12,0,2.09.37,2.96,1.12.69.53,1.03,1.35,1.03,2.47l.04-.02Z"/>
    <path class="cls-2" d="M552.75,250.24c-.27,0-.55-.02-.89-.07-.32-.05-.6-.2-.89-.41h.09c-.75-.32-1.31-.48-1.69-.48h-.48c-.16,0-.3.04-.39.07-.75.11-1.65.32-2.71.64-1.06.32-2.16.73-3.32,1.24s-2.31,1.08-3.51,1.72c-1.19.64-2.31,1.28-3.32,1.92-1.54.96-2.61,1.92-3.19,2.87-.43.69-.69,1.31-.8,1.88-.11.57-.21,1.19-.32,1.88v-.07c-.11,1.17-.51,2.04-1.19,2.59-.69.55-1.49.83-2.39.83s-1.72-.3-2.43-.92c-.73-.6-1.1-1.53-1.15-2.75-.05-.53-.07-1.06-.07-1.6v-5.5c0-1.22.02-2.38.07-3.48.05-1.08.12-2.06.23-2.91-.43-.27-.64-.69-.64-1.28,0-.37.14-.75.41-1.12.48-.8.9-1.69,1.28-2.64v.07c.27-.75.67-1.26,1.24-1.56s1.15-.44,1.79-.44c.11,0,.28.04.55.07.27.05.57.07.89.07.59.21,1.12.57,1.6,1.08s.73,1.14.73,1.88c0,.11,0,.21-.04.32s-.04.21-.04.32c-.16.59-.3,1.35-.41,2.31-.11.96-.2,1.84-.23,2.64.11-.05.18-.09.23-.12.05-.02.14-.09.23-.2.11-.11.25-.2.41-.25,1.12-.8,2.41-1.58,3.92-2.36,1.49-.76,3.02-1.45,4.59-2.08,1.56-.6,3.1-1.14,4.63-1.56s2.89-.66,4.12-.71h.32c1.06,0,2.02.16,2.87.48.85.32,1.49.64,1.92.96.9.69,1.37,1.58,1.37,2.64,0,.9-.25,1.7-.73,2.39h.07c-.69,1.06-1.6,1.6-2.71,1.6l-.02.02Z"/>
    <path class="cls-2" d="M587.13,260.94c-.51.69-1.4,1.12-2.68,1.28-.8.11-1.84.35-3.16.76-1.31.39-2.68.89-4.12,1.47-1.33.48-2.64.94-3.96,1.4-1.31.44-2.48.82-3.55,1.08-1.7.43-3.18.64-4.38.64-2.13,0-3.81-.55-5.02-1.63-1.22-1.1-2.18-2.84-2.87-5.23-.16-.59-.28-1.26-.35-2.04-.07-.76-.12-1.56-.12-2.36,0-.59,0-1.1.04-1.56.04-.44.07-.87.12-1.24.11-1.22.28-2.41.51-3.58s.51-2.29.83-3.35c-.21-.21-.32-.55-.32-1.03,0-.21,0-.39.04-.51.02-.14.07-.28.12-.44.27-.59.62-1.28,1.08-2.08.44-.8.89-1.4,1.31-1.84.75-.59,1.6-.89,2.55-.89.53,0,1.08.11,1.67.32.75.27,1.33.66,1.76,1.15s.64,1.05.64,1.63c0,.48-.07.9-.23,1.28-.59,1.06-1.15,2.48-1.72,4.28-.57,1.79-.89,3.53-.99,5.23v1.28c0,1.44.11,2.55.32,3.35.32,1.12.98,1.69,1.99,1.69h.64c.21,0,.48-.05.8-.16.75-.11,1.61-.34,2.63-.71,1.01-.37,2.04-.76,3.1-1.19,1.81-.75,3.64-1.44,5.46-2.08,1.84-.64,3.39-.96,4.67-.96h.16c1.22,0,2.15.37,2.75,1.12s.94,1.6.99,2.55v.16c0,.8-.25,1.54-.76,2.24l.05-.02ZM574.94,227.57c0,.8-.18,1.6-.51,2.39-.35.8-.89,1.47-1.63,1.99-1.06.69-2.11,1.03-3.1,1.03-.64,0-1.31-.12-1.99-.35s-1.33-.66-1.92-1.24c-1.01-1.12-1.51-2.36-1.51-3.76,0-.75.18-1.51.55-2.27s.96-1.45,1.76-2.04c.85-.64,1.88-.96,3.1-.96,1.12,0,2.15.32,3.1.96h.07c1.38,1.06,2.08,2.47,2.08,4.22v.04Z"/>
    <path class="cls-2" d="M656.04,258.31c0,.59-.14,1.17-.41,1.76s-.76,1.1-1.51,1.51c-1.86,1.12-3.97,2.11-6.35,2.96-2.38.85-4.86,1.56-7.47,2.11-2.61.57-5.27.98-7.98,1.24-2.71.27-5.32.39-7.82.39-1.92-.05-3.55-.27-4.88-.64s-2.39-1.01-3.19-1.92c-1.33-1.28-1.99-3.1-1.99-5.5,0-2.13.48-4.75,1.44-7.91,2.18-7.45,3.78-14.19,4.79-20.24,1.01-6.05,1.81-11.3,2.39-15.77.11-1.17.55-2.02,1.31-2.55s1.61-.8,2.52-.8c.96,0,1.79.27,2.52.8s1.08,1.38,1.08,2.55v.48c-.48,5.59-1.31,11.55-2.52,17.88-1.21,6.33-2.79,12.91-4.75,19.73-.27.9-.46,1.69-.6,2.36s-.2,1.24-.2,1.72c0,.69.12,1.22.41,1.6.43.48,1.45.71,3.1.71,2.29-.05,4.59-.23,6.95-.55,2.34-.32,4.59-.73,6.74-1.24,2.16-.51,4.15-1.1,6-1.76,1.84-.67,3.39-1.37,4.67-2.11.37-.21.75-.35,1.12-.41s.73-.07,1.03-.07c1.22,0,2.18.51,2.87,1.53l.07.07c.43.69.64,1.38.64,2.08h.02Z"/>
    <path class="cls-2" d="M707.13,258.95c0,.64-.16,1.26-.48,1.83-.32.59-.78,1.06-1.35,1.44-1.81.96-3.87,1.84-6.14,2.68-2.29.82-4.42,1.35-6.39,1.56-.37.05-.75.07-1.12.07h-.96c-1.76,0-3.16-.28-4.19-.83s-1.99-1.45-2.84-2.68v.07c-.37-.53-.73-1.29-1.03-2.27-.32-.98-.48-1.88-.48-2.68-.16,0-.32.07-.48.23-.69.43-1.56,1.08-2.59,1.95-1.03.89-2.15,1.83-3.32,2.84-.75.59-1.45,1.15-2.11,1.72-.67.55-1.31,1.1-1.95,1.63-2.29,1.65-4.42,2.48-6.39,2.48-1.65,0-3.07-.51-4.24-1.53-1.49-1.28-2.24-3.21-2.24-5.84.11-2.39.73-4.65,1.84-6.79.8-1.6,1.77-3.14,2.91-4.63s2.36-2.89,3.64-4.19c1.28-1.31,2.57-2.48,3.87-3.55,1.31-1.06,2.52-1.97,3.64-2.71,1.28-.8,2.8-1.67,4.56-2.59,1.76-.92,3.62-1.4,5.59-1.4,1.06,0,2.15.2,3.23.6,1.08.39,2.2,1.05,3.32,1.95.53.43.9.89,1.12,1.35.21.48.32.94.32,1.37,0,.69-.16,1.31-.48,1.83-.37.59-.87,1.05-1.47,1.4s-1.29.51-2.04.51c-.8,0-1.54-.23-2.24-.71-.37-.32-.78-.55-1.24-.67s-.92-.2-1.4-.2c-1.49,0-3.25.69-5.27,2.08-.96.64-1.99,1.44-3.1,2.39s-2.22,2-3.32,3.16-2.11,2.34-3.03,3.6c-.94,1.26-1.67,2.43-2.2,3.55-.16.27-.28.6-.35,1.03s-.12.82-.12,1.19.02.59.07.64c0,.11.05.16.16.16.32,0,.76-.25,1.37-.73l.96-.73c.85-.69,1.83-1.51,2.91-2.43,1.1-.92,2.22-1.84,3.35-2.75,1.14-.9,2.25-1.77,3.35-2.59,1.08-.82,2.06-1.51,2.91-2.04v.07c1.38-.85,2.71-1.28,3.99-1.28,1.06,0,1.93.32,2.64.96.69.64,1.03,1.63,1.03,2.96v1.19c0,.75.02,1.42.07,1.99.05.59.16,1.06.32,1.44.27.75.59,1.26.96,1.51.37.27.85.41,1.44.41h.32c.64-.11,1.38-.27,2.24-.48.85-.21,1.72-.46,2.59-.76.89-.28,1.72-.6,2.55-.92.82-.32,1.53-.64,2.11-.96.64-.32,1.22-.48,1.76-.48,1.01,0,1.88.43,2.64,1.28v.07c.53.69.8,1.42.8,2.16l-.02.07Z"/>
    <path class="cls-2" d="M756.71,259.86c-.32.62-.85,1.08-1.6,1.4-.37.11-.71.2-.99.28s-.6.12-.92.12h-.64c-.64.27-1.37.51-2.15.73h.07c-.9.32-1.86.67-2.87,1.03-1.01.37-2.06.83-3.1,1.35-2.13.85-4.06,1.28-5.84,1.28-1.92,0-3.65-.46-5.18-1.4-1.54-.92-2.77-2.36-3.67-4.28-.75-1.54-1.26-3.09-1.56-4.63s-.51-2.84-.67-3.92v.09c-.05-.21-.07-.41-.07-.57s-.04-.3-.07-.39c-.05-.32-.3-.53-.73-.64-.11-.05-.23-.07-.41-.07-.43,0-.83.09-1.24.28-.39.2-.83.41-1.31.67h.07c.11,0-.21.3-.96.92-.75.6-1.49,1.21-2.24,1.79v-.09c-.75.64-1.49,1.29-2.24,1.95-.75.67-1.49,1.24-2.24,1.72-.64.48-1.31,1.05-2.04,1.72-.71.67-1.4,1.35-2.08,2.08s-1.26,1.44-1.79,2.15-.92,1.31-1.19,1.79c-.43.85-.96,1.44-1.6,1.76-.64.32-1.28.48-1.92.48-.27,0-.57-.04-.92-.07-.35-.05-.66-.16-.92-.32-.9-.43-1.51-.94-1.79-1.53-.3-.59-.44-1.24-.44-1.99v-8.3c0-.75,0-1.47-.04-2.15-.04-.69-.04-1.33-.04-1.92v-1.99c-.8-.37-1.19-1.03-1.19-1.99.11-.53.32-1.15.64-1.88s.69-1.29,1.12-1.72c.59-.8,1.54-1.19,2.87-1.19h.39c.75.05,1.47.3,2.15.73s1.1,1.06,1.21,1.92c0,.16,0,.34.04.51.02.2.04.35.04.51.05.64.09,1.38.12,2.24.02.85.04,1.74.04,2.64v3.74c.53-.53,1.08-1.03,1.63-1.51.55-.48,1.1-.96,1.63-1.44.16-.11.32-.23.48-.35.16-.12.32-.25.48-.35,1.06-1.01,2.18-2,3.35-3,1.17-.98,2.29-1.84,3.35-2.59,1.12-.9,2.41-1.61,3.92-2.11,1.49-.51,2.87-.76,4.15-.76h.48c1.65,0,3.05.48,4.19,1.44,1.14.96,1.88,2.43,2.2,4.38.27,1.92.55,3.6.89,5.07.32,1.47.69,2.68,1.12,3.64.43,1.06,1.29,1.6,2.63,1.6.8,0,1.56-.16,2.32-.48.43-.16.83-.34,1.24-.51.39-.18.82-.34,1.24-.44h-.07c1.44-.59,2.91-1.15,4.43-1.72,1.51-.55,2.89-.98,4.12-1.24.21-.05.59-.07,1.12-.07,1.17,0,2.04.35,2.59,1.03.57.69.87,1.54.92,2.55v.16c0,.64-.16,1.26-.48,1.88l-.04-.04Z"/>
    <path class="cls-2" d="M786.57,268.41c-.59.51-1.28.76-2.08.76-.11,0-.21,0-.32-.04s-.21-.04-.32-.04c-2.13-.48-4.4-1.24-6.83-2.27-2.43-1.03-4.81-2.22-7.18-3.51s-4.56-2.66-6.58-4.06c-2.02-1.4-3.71-2.73-5.02-3.96-.11,1.22-.16,2.5-.16,3.83v3.1c-.11,1.17-.48,2.04-1.12,2.59-.64.57-1.44.83-2.39.83-.85,0-1.65-.28-2.39-.83s-1.12-1.45-1.12-2.68c-.05-.8-.09-1.61-.12-2.43-.04-.82-.04-1.69-.04-2.59,0-1.86.07-3.8.2-5.84.14-2.02.35-4.06.67-6.14.37-2.39.83-4.81,1.4-7.27.57-2.45,1.24-4.81,2.04-7.06.8-2.25,1.72-4.38,2.79-6.39,1.06-1.99,2.32-3.8,3.76-5.39.8-.8,1.7-1.21,2.71-1.21.75,0,1.65.37,2.71,1.12.27.27.5.59.67.96.18.37.28.89.28,1.53s-.2,1.31-.55,1.99c-1.86,2.71-3.39,5.45-4.56,8.18-1.17,2.75-2.13,5.62-2.87,8.66.96-.43,2.11-.85,3.44-1.28s2.75-.82,4.28-1.15c1.53-.34,3.05-.66,4.63-.92,1.56-.27,3.07-.43,4.51-.48h1.37c1.22,0,2.39.07,3.51.23,1.17.16,1.99.57,2.48,1.24.48.67.71,1.4.71,2.2v.32c-.05.9-.35,1.7-.87,2.39-.53.69-1.33,1.03-2.39,1.03h-.55c-.16,0-.32-.02-.48-.07-.21-.05-.51-.07-.89-.07h-2.63c-1.28.11-2.64.28-4.06.51-1.44.23-2.82.55-4.15.92s-2.57.76-3.71,1.15c-1.15.39-2.09.82-2.84,1.24-.53.16-.8.43-.8.8,0,.32.12.6.39.89.96.85,2.36,1.93,4.24,3.23,1.86,1.31,3.88,2.59,6.07,3.87,2.18,1.28,4.43,2.45,6.74,3.51,2.32,1.06,4.4,1.76,6.26,2.08,1.01.27,1.72.71,2.15,1.31.43.6.64,1.29.64,2.04,0,.48-.11.92-.32,1.35-.27.69-.69,1.29-1.28,1.79l-.04.02Z"/>
    <path class="cls-2" d="M838.45,258.95c0,.64-.16,1.26-.48,1.83-.32.59-.78,1.06-1.35,1.44-1.81.96-3.87,1.84-6.14,2.68-2.29.82-4.42,1.35-6.39,1.56-.37.05-.75.07-1.12.07h-.96c-1.76,0-3.16-.28-4.19-.83-1.03-.55-1.99-1.45-2.84-2.68v.07c-.37-.53-.73-1.29-1.03-2.27-.32-.98-.48-1.88-.48-2.68-.16,0-.32.07-.48.23-.69.43-1.56,1.08-2.59,1.95-1.03.89-2.15,1.83-3.32,2.84-.75.59-1.45,1.15-2.11,1.72-.67.55-1.31,1.1-1.95,1.63-2.29,1.65-4.42,2.48-6.39,2.48-1.65,0-3.07-.51-4.24-1.53-1.49-1.28-2.24-3.21-2.24-5.84.11-2.39.73-4.65,1.84-6.79.8-1.6,1.77-3.14,2.91-4.63s2.36-2.89,3.64-4.19c1.28-1.31,2.57-2.48,3.87-3.55,1.31-1.06,2.52-1.97,3.64-2.71,1.28-.8,2.8-1.67,4.56-2.59s3.62-1.4,5.59-1.4c1.06,0,2.15.2,3.23.6,1.08.39,2.2,1.05,3.32,1.95.53.43.9.89,1.12,1.35.21.48.32.94.32,1.37,0,.69-.16,1.31-.48,1.83-.37.59-.87,1.05-1.47,1.4s-1.29.51-2.04.51c-.8,0-1.54-.23-2.24-.71-.37-.32-.78-.55-1.24-.67s-.92-.2-1.4-.2c-1.49,0-3.25.69-5.27,2.08-.96.64-1.99,1.44-3.1,2.39s-2.22,2-3.32,3.16-2.11,2.34-3.03,3.6c-.94,1.26-1.67,2.43-2.2,3.55-.16.27-.28.6-.35,1.03s-.12.82-.12,1.19.02.59.07.64c0,.11.05.16.16.16.32,0,.76-.25,1.37-.73l.96-.73c.85-.69,1.83-1.51,2.91-2.43,1.1-.92,2.22-1.84,3.35-2.75,1.14-.9,2.25-1.77,3.35-2.59,1.08-.82,2.06-1.51,2.91-2.04v.07c1.38-.85,2.71-1.28,3.99-1.28,1.06,0,1.93.32,2.64.96.69.64,1.03,1.63,1.03,2.96v1.19c0,.75.02,1.42.07,1.99.05.59.16,1.06.32,1.44.27.75.59,1.26.96,1.51.37.27.85.41,1.44.41h.32c.64-.11,1.38-.27,2.24-.48.85-.21,1.72-.46,2.59-.76.89-.28,1.72-.6,2.55-.92.82-.32,1.53-.64,2.11-.96.64-.32,1.22-.48,1.76-.48,1.01,0,1.88.43,2.64,1.28v.07c.53.69.8,1.42.8,2.16l-.02.07Z"/>
  </g>
  <g>
    <rect class="cls-1" x="6.51" y="19.85" width="157.88" height="136.59"/>
    <g>
      <path class="cls-2" d="M87.15,58.13c4.38.34,9.05,2.13,12.2,4.98,1.65-1.7,3.49-3.96,5.32-4.98-5.18-4.1-10.98-6.63-17.67-7.11.37,2.22.28,4.81.14,7.11Z"/>
      <path class="cls-2" d="M87.15,116.83c1.74-.66,4.15-.62,5.75-.9-.94-.94-2.36-.85-2.73-2.25-.66-.94.28-1.93.23-2.73-1.14-.51-2.82.14-3.64-.89l.48.8-.09,5.98h0Z"/>
      <path class="cls-2" d="M113.72,107.87c-1.03,1.42-2.45,2.73-3.96,3.62-4.9,1.7-5.37,7.17-10.18,8.96-1.88.75-2.96-1.7-4.67-2.08-2.54.43-5.18,1.14-7.77.71v7.91l.34-.23c12.15-.51,23.13-5.32,31.65-13.34-1.93-1.84-4.01-3.73-5.41-5.55h0Z"/>
      <path class="cls-2" d="M93.36,92.51c.57-.76,1.79-.62,2.02-1.45-1.03-.2-2.16.57-2.02,1.45Z"/>
      <path class="cls-2" d="M126.59,80.3l-.34-.37.23.48c-.43,9.93-4.52,19.03-10.87,25.77,1.79,1.6,3.81,3.67,5.46,5.41,6.26-7.2,10.55-15.31,12.06-24.5.51-2.36.37-4.9,1.03-7.17-2.31.66-5.04.23-7.59.37h.02Z"/>
      <path class="cls-2" d="M65.3,60.06c-1.6,1.99-3.16,4.15-4.29,6.46-1.84,3.39-2.36,7.31-3.07,11.16l3.07-.09c-.51-.6-.43-1.45-.43-2.25.71-1.51.99-4.19,3.25-4.04,1.08-.23-.05-1.08.8-1.51,1.6-.23,2.02-1.74,3.39-2.45,1.28-.14,1.56-1.93,2.82-2.08-2.16-1.51-3.62-3.39-5.55-5.18l.02-.02Z"/>
      <path class="cls-2" d="M81.83,98.96c-.57.09-1.14.2-1.7.34-2.96-.99-5.98-2.31-8.14-4.84-1.51,1.84-3.3,3.58-5.09,5.09h.34c4.15,3.58,9.37,6.08,14.28,6.88-1.79-.23-2.5-1.99-3.3-3.3-.48-1.08,1.17-1.31.89-2.45.6-.99,1.56-1.56,2.73-1.7v-.02Z"/>
      <path class="cls-2" d="M87.58,36.88c.66.23.66,1.03.48,1.6,3.33-.2,6.55.64,9.61,1.56,3.25.43,6.08,4.33,9.28,2.25.89.99,2.45.05,2.93,1.6,1.22.23,1.88,1.45,2.73,2.25-.09,1.14.94,1.65,1.31,2.5v-.14c1.08-1.93,2.79-3.64,4.67-4.61-6.74-6.4-14.99-10.55-23.98-12.2-2.45-.51-5.18-.37-7.59-1.03.2,1.88.2,4.52,0,6.69.05-.34.37-.34.57-.48v.02ZM108.49,40.92c.62.34,1.88-.14,2.25.8l.34,1.45c-1.45.85-1.45-1.22-2.68-1.31-.14-.23-.28-.85.09-.94ZM89.4,36.22l3.39-1.51c1.42.23,3.3.28,3.81,1.7-1.79,1.99-4.33.43-6.46,1.37-.8-.09-1.45-.57-2.11-.99-.2-.99.99-.37,1.37-.57Z"/>
      <path class="cls-2" d="M114.61,51.02c.66,0,.48.76.89,1.03,2.08,1.45,3.02,3.53,4.75,5.09.66,1.6,2.36,2.64,2.36,4.61,2.45,4.75,3.58,10.36,3.87,15.82,2.45-.28,5.23-.37,7.59-.34l-.23-.23c-.46-12.24-5.46-22.71-13.46-31.42l-4.95,5.32-.8.09-.02.02Z"/>
      <path class="cls-2" d="M109.38,79.84l1.28,1.45c-.05,1.65,2.22,2.16,2.36,3.87.48-1.56.43-3.3.89-4.86-1.45-.14-3.3.34-4.52-.48v.02Z"/>
      <path class="cls-2" d="M84.42,119.17l-.09.14c-10.04-.28-19.18-4.01-26.24-10.98l-5.23,5.41c8.96,8.02,19.64,12.35,31.65,13.09l-.34-.57c.09-2.36-.2-4.84.23-7.11l.02.02Z"/>
      <path class="cls-2" d="M88.84,69.66h.57c1.45-1.51,2.31,1.88,3.81.34.28-1.93,3.02-1.7,3.64-3.62-.48.48-.71-.05-1.14-.2.14-.66,1.03-1.08,1.45-1.51-3.07-1.88-6.4-3.16-10.04-3.73l.2,5.09,1.93.71c.57-.99,1.6-1.22,2.25-2.08.6-.28.6.48.89.71.37,2.31-2.16,3.35-3.58,4.29l.02-.02Z"/>
      <path class="cls-2" d="M88.94,97.26c-.09,1.7,1.88.43,2.5,1.45.71-.05.71-.75.99-1.28,1.45-.23,2.96-1.14,3.76-2.25.2-.43.48-1.31-.14-1.56-.51.28-.94.28-1.22.89-.62.8-1.37-.05-1.93-.34.2.23.62.8.09,1.14-.6.66-1.17-.28-1.79-.48-.34,2.08-1.08-.57-2.16-.09-.48-1.17-1.28.23-2.02.09-.57.48-.6,1.84-1.7,1.7-.23.66-1.14.43-1.22.89.51.6,1.22.34,1.79.23.89-.8,2.02-.28,3.07-.43v.04Z"/>
      <path class="cls-2" d="M98.31,89.46c-.14-.51-.09-1.08-.57-1.45-.8,0-.8-1.03-1.22-1.03-1.03,1.45.99,1.37,1.14,2.59.23,0,.51.09.66-.09v-.02Z"/>
      <path class="cls-2" d="M58.08,53.27c-5.98,6.83-9.33,15.08-9.93,24.3,2.45.05,5.13-.09,7.45.09l-.23-.34c.48-7.31,3.07-13.94,8.05-19.21-1.99-1.6-3.81-3.44-5.32-5.32v.48h-.02Z"/>
      <path class="cls-2" d="M111.79,106.17c-.6.43-1.37.14-1.7-.43.05-2.11-2.5-3.07-3.39-4.75v.09c-3.53,2.5,1.7,2.59,1.79,4.75-.51,1.03-2.39,2.08-1.22,3.3.37.43-.2.75-.34,1.14l4.84-4.1h.02Z"/>
      <path class="cls-2" d="M96.38,96.71c1.51.57,3.21.57,4.43,1.7,1.31-.14,2.96.2,3.96-.57.14-.94.51-1.79,1.14-2.5.85.09.66,1.22,1.03,1.79,2.5-3.16,4.67-6.17,5.52-10.04-1.22-.09-2.11.6-3.39.43-1.37-1.03-1.08.94-2.25.8-.43-.09-.51-.62-.57-1.03-.09,1.08-.94,1.88-1.56,2.73-2.16-.62-1.6,2.45-3.76,1.79.28.85,1.22-.14,1.7.14.37-.2.28-.57.48-.8.23-.89,1.31-1.22,2.16-.89.48.75.6,1.7.57,2.59-.51.37-.51.99-.48,1.6-.66,1.08-.37,3.39-2.36,3.16-2.08-.75-4.33-1.31-6.6-1.37v.48l-.02-.02Z"/>
      <path class="cls-2" d="M115.61,86.62c-1.17,4.61-3.49,8.85-6.78,12.52h-.34c.85.51,1.45,1.7,2.39,1.93v-.66c.2-.14.28-.48.57-.34,1.84.57,1.99,3.1,2.11,4.29,4.81-5.04,7.77-11.02,9.28-17.53.51-2.16.23-4.81,1.14-6.69-2.45.14-5.13.28-7.45-.09.28.94-.28,1.84-.23,2.82-.99,1.65,1.28,2.08.66,3.62-.43.34-.85.28-1.37.09l.02.02Z"/>
      <path class="cls-2" d="M109.52,65.05c-.05-2.08-2.16-3.49-3.3-5.23-2.16,2.54-5,5.23-7.11,7.68.14.34.51.71.57.57.57-.71.14-2.5,1.7-2.13,1.56.51,2.93.37,4.61.57.94.51,1.08,1.65,1.93,2.13.37.43-.14.8-.34,1.14.2.2.37.37.48.57.48-.43,1.14-.99,2.02-.75.89.05,1.14,1.31,1.93,1.45.37.48-.23.94-.57,1.14.2.89-.85,1.17-.48,2.02.48.09.94-.14,1.14-.48,1.79-1.31.37-3.02.09-4.61-.71-1.45-2.22-1.74-3.39-2.82.05-.48.34-.99.71-1.22v-.02Z"/>
      <path class="cls-2" d="M48.23,80.64c.23,3.39,1.17,6.69,1.45,9.93.43-.28.14-1.03.71-1.03.2-1.6.43-3.44,1.45-4.84,1.51-.05,1.56-2.08,3.16-1.93.25.2.57.43.78.71-.51-.94-.55-2.18-.23-3.16-2.36.34-5.18.34-7.59,0l.23.34.04-.02Z"/>
      <path class="cls-2" d="M83.2,96.57c-.05-.89-.05-1.79.43-2.5.48-.28,1.17.14,1.6-.34-.05-.43-.34-.43-.57-.8-.28-.66,0-1.28.09-1.7.2-.34-.37-1.08.23-1.31-1.45.71-2.79-.28-4.04-.71-.71-.57-1.99-.71-2.16-1.79l-4.52,5.09c2.59,1.99,5.61,3.53,8.96,4.04v.02Z"/>
      <path class="cls-2" d="M70.51,84.45c-.05-1.17-1.51-.43-2.02-1.14l.43.71c.57,2.36,1.99,4.33,3.16,6.46l2.16-2.25c-.05-.28.09-.62-.09-.8-.43-.57-.14-1.6-.71-1.93-.2.51.43.8.14,1.22-.71-.28-1.45-.6-1.84-1.45.14-1.08-.66-.28-1.22-.8v-.02Z"/>
      <path class="cls-2" d="M77.16,85.73l-.75-.48c-.14.66-.66,1.17-1.03,1.7.66-.28,1.03-1.28,1.79-1.22h-.02Z"/>
      <path class="cls-2" d="M0,13.98v149.15h172.05V13.98H0ZM150.23,94.44c-2.02,2.16-3.3,4.43-5,6.63,1.7-9.37-4.19-16.67-4.61-25.67-.28-1.74-.43-3.58-.34-5.52,1.7,7.2,9.1,12.24,7.91,20.77-.09,1.37-.8,2.59-.71,3.87,1.56-2.22,1.14-5.46,2.16-8.02,1.88-6.63,6.49-12.38,5.18-20.03,3.9,9.05,2.16,20.86-4.61,27.94l.02.02ZM153.05,60.06c2.08,8.62-3.49,14.94-4.19,22.85-1.08-8.28-8.99-13.43-11.64-21.06-.66-1.74-.99-3.58-1.45-5.41,3.07,5.41,10.64,8.57,12.06,15.02.28,1.17.37,2.39.8,3.53.2-2.87-.28-5.75-.43-8.62.23-5.94,2.22-13.09-1.28-18.18,3.25,3.3,5.04,7.54,6.12,11.87h0ZM145.94,49.08c1.65,5.37-.43,11.07.75,16.53-3.76-7.54-13.71-9.56-16.25-17.9l-1.03-4.29c3.3,7.34,12.35,8.2,15.02,15.97-.14-2.08-1.42-3.96-1.88-6.03-1.79-4.95-1.45-11.02-6.46-14.32,4.67,1.37,8.48,5.41,9.85,10.04ZM137.46,43.76c1.14,2.25,1.37,4.9,2.45,7.17-5.09-3.58-10.22-9.19-13.89-14.83l-3.64-3.64c5.8,1.93,12.81,5,15.08,11.3ZM60.44,35.09c13.48-8.28,34.25-9.24,48.29-1.37,8.53,4.15,17.1,12.63,21.57,21.25,9.56,15.79,7.57,39.81-3.96,54.03-12.77,16.87-33.83,24.16-54.6,18.41-18.89-4.95-34.29-22.99-36.05-42.48-2.36-20.68,7.26-39.52,24.73-49.85h.02ZM48.57,33.15c-5.84,4.33-7.4,11.16-13.43,15.36l-3.96,3.39c1.31-3.87,2.11-7.91,4.72-11.3,3.35-4.19,8.2-5.66,12.67-7.45ZM26.75,46.49c1.79-3.02,4.72-5.55,8.14-6.55-6.55,4.75-4.61,13.8-8.05,20.2h.23c2.31-7.73,11.64-8.67,14.46-15.93-.2,6.12-4.95,11.58-10.27,15.02-2.31,1.93-4.95,4.52-6.32,7.26,1.08-6.63-2.02-14.42,1.79-20.03l.02.02ZM18.52,60.52c.94-4.15,2.79-8.05,5.52-11.3-3.96,6.55.51,14.46-.75,22.14l-.37,4.29.23.23c.23-1.03.57-2.08.57-3.16,1.37-6.63,8.82-9.9,11.87-15.5-.57,10.36-11.02,16.64-12.52,26.57-1.14-7.91-6.37-14.6-4.52-23.27h-.02ZM16.82,67.5c-1.45,9.19,5.37,15.4,6.32,23.88.09,1.51.66,2.87,1.28,4.04-.34-2.36-.99-4.95-.57-7.59.66-6.46,6.26-10.87,7.45-17.15.48,8.71-2.64,16.3-4.61,24.16-.34,2.25-.43,5.04.09,7.26-3.02-5.27-8.82-9.51-10.41-15.59-1.84-5.89-1.99-13.38.48-19.03l-.02.04ZM14.97,88.41c.85,8.99,10.7,13.23,14.6,20.72.66,1.08,1.31,2.31,2.36,2.82-3.16-4.43-3.96-10.79-2.36-16.2.48-2.82,1.45-5.55.89-8.67,4.29,9.61,1.45,22.09,6.78,31.27-7.49-5.09-18.61-10.27-21.34-20.35-.99-2.93-.99-6.37-.94-9.61l.02.02ZM19.5,107.44c3.76,8.28,13,10.22,19.69,14.56,2.08,1.28,3.81,3.21,6.12,4.19l.09-.09c-7.11-4.95-7.73-13.57-9.05-21.39l-1.37-3.49c5.84,5.98,8.2,13.71,10.87,21.11,1.22,2.93,2.73,5.27,5.41,7.34-7.31-2.11-15.65-1.7-21.62-6.97-4.98-3.76-9.14-9.19-10.18-15.26h.04ZM30.24,125.06c5.94,6.6,15.22,5.55,23.33,6.55,2.39.14,4.61,1.14,7.02.89-2.16-.89-4.75-1.22-6.69-2.93-5.04-3.48-5.18-9.1-8.82-13.34,8.43,4.84,14.08,16.25,24.55,16.73-8.99.8-17.53,6.08-26.95,2.5-4.98-1.6-9.76-5.69-12.44-10.41l-.02.02ZM111.79,143.63c-6.92-.8-11.64-6.17-17.76-8.85-1.51-.14-3.3-.23-4.75.14,5.66,2.93,11.12,6.6,15.82,11.16l-2.93,2.5c-4.47-4.95-9.9-9.9-15.82-12.77-6.12,2.73-11.83,7.4-16.07,13l-2.93-2.5c4.81-4.98,10.13-8.48,15.93-11.41-6.83-2.13-10.93,4.61-16.3,6.88-5.84,2.96-14,3.35-19.64-.34-1.88-1.37-3.67-2.31-5.32-4.29,8.76,6.32,20.06.6,28.36-3.16,4.75-1.56,10.98-1.56,15.73,0,9.42-3.49,18.75.62,26.8,4.29,4.19,1.37,9.7,1.84,13.8,0l3.49-1.84c-4.52,5.37-11.07,8.34-18.41,7.17l-.02.02ZM122.95,136.13c-7.4.48-13.29-2.87-20.35-3.39,3.21-.94,6.46-1.56,9.19-3.62,4.95-3.87,9.61-9.9,15.02-13.43-3.62,5.94-6.12,15.5-14.94,16.25-.14-.05-.23.14-.34.23,2.68,0,5.32-.8,8-1.14,8.05-.75,16.82-.37,22.28-6.88-3.73,7.02-10.98,11.64-18.89,11.97h.02ZM132.79,126.65c-3.96.85-8.14,1.37-11.96,2.59,7.4-6.26,6.78-16.3,12.1-23.65l3.96-5.18c-3.62,8.05-1.31,18.98-9.85,24.64l-.34.48h.57c4.95-4.33,10.87-7.45,16.73-10.18,3.39-2.22,6.74-5.04,8.34-8.85-1.28,9.14-10.64,17.9-19.55,20.17v-.02ZM135.61,117.06l-.9.76c5.46-9.19,2.22-22,6.69-31.66-.28,8.05,4.19,16.91-.8,24.13l-.71.89c.14.23.48.09.57-.14,3.49-6.69,10.55-11.97,14.71-18.41.89-1.65,1.51-3.39,1.7-5.32,2.13,14.23-10.64,23.98-21.25,29.77h0Z"/>
      <path class="cls-2" d="M67.46,103.68c0,.8,1.08.85.66,1.84-1.6.99-3.53.28-5.09,1.45-1.42.75-2.59-.89-3.39-.8,6.88,5.94,14.94,9.9,24.21,10.32l.57.34c-.37-2.25-.23-4.9-.09-7.26-6.32.37-12.01-2.25-16.87-5.89v-.02Z"/>
      <path class="cls-2" d="M56.39,106.41c-.94-.62-1.56-1.7-2.5-2.5-1.17-.23-1.99-1.37-2.25-2.36.05.14-.14.23-.23.34-1.08.51-1.42-.8-2.13-1.22-.66-.34-.14-1.84-1.28-1.28-.66-1.08-1.88-.99-2.36-2.25l-.48.8c-.85-.05-1.45-1.08-1.93-1.6-1.74.51-1.03-1.88-2.02-2.68-.37-1.51.09-2.93.89-4.1.51-.48,1.51-.09,1.7.23.9.34.34-.71.8-.89,1.28-1.08,1.88.43,2.59,1.22-1.03-3.02-1.7-6.55-1.56-9.79-2.39.34-5.13.23-7.59.09.51,12.01,4.95,22.51,12.77,31.42,1.74-1.84,3.67-3.9,5.55-5.41l.04-.02Z"/>
      <path class="cls-2" d="M60.01,51.25c1.88,1.31,3.73,3.39,5.27,5.09,4.98-4.86,11.69-7.82,18.89-7.91-.14-2.36-.14-4.9,0-7.26-9.14.71-17.33,4.01-24.16,10.08Z"/>
      <path class="cls-2" d="M84.19,38.33c-.37-2.36-.23-5.04-.09-7.45-11.97.66-22.37,5.18-31.24,13.09l5.55,5.32c6.97-6.78,15.93-10.64,25.77-10.98v.02Z"/>
      <path class="cls-2" d="M84.08,61.09c-3.96.57-7.68,2.02-10.5,5.09.94.2,1.88.57,2.59,1.22.23.48-.43.51-.48.8.6.89.66-.2,1.28-.34.57.57,1.08.99,1.88.57.43.71,1.08.05,1.6.09.2-.57.99-1.03.66-1.7.28-.51.43-1.37,1.14-1.37-.43,2.22,1.65,0,2.25,1.03-.6-1.6-.14-3.81-.43-5.41l.02.02Z"/>
      <path class="cls-2" d="M84.08,70.56c.14.71.66,1.79,0,2.25-.85,1.14-2.87.89-3.16,2.39-2.22.66-1.37,3.39-2.08,5.09-1.42.34-.89-1.37-1.56-1.93l-.34.43c-2.16-1.65-1.74,1.88-3.07,2.16,1.51.34,2.79-.51,4.29-.57.09.2.48.28.34.57h.23c.34-.34.37-.75.34-1.22.14-.48.71-.75,1.14-.48-.14.48.2.85.57,1.03l-.8,1.14c-.43.48.09,1.74-.99,1.7-.23.05-.43-.14-.34-.37h-.23l.57,1.03c.66-.05.51-1.22,1.37-1.37.76-.2.85-1.08.76-1.79.99-.85,2.22-.34,3.3-.48.28.28.94.37.8.89.43.85-.28,1.79-.8,2.5.23.48-.34.85-.34,1.37-.89.94-1.88.51-3.07.8,1.51,1.03,3.1,1.7,5.09,1.56,1.88.14.99-2.25,2.36-3.02.8-.09,1.51.09,2.39-.14.37-.71.43-1.56.57-2.36-.8-.37-.51-1.17-.57-1.84-.46-.57-.43-1.6-1.37-1.7-.2-.51.37-.75.34-1.22,1.42-.51-.75-1.37.14-2.16-1.6-.28-1.99-2.82-3.96-2.02-.48-.66-1.7-.94-1.7-1.93.12-.59,1.24-.5,1.51-.39-.11-.11-.23-.21-.2-.37-.6-.05-1.31,0-1.7.34l.14.09.02.05Z"/>
      <path class="cls-2" d="M67.12,58.27c1.93,1.28,3.49,3.25,5.32,4.95,3.16-3.02,7.34-4.81,11.73-4.95-.14-2.16-.23-5.04.14-7.34l-.23.2c-6.49.37-11.92,3.25-16.96,7.17v-.02Z"/>
      <path class="cls-2" d="M46.3,70.46c1.65-7.11,4.72-13.85,10.18-19.12l-5.09-4.95-.23-.71c-8.05,8.76-12.58,19.83-13.2,31.89l7.68.09c-.28-2.45.37-4.81.66-7.2Z"/>
      <path class="cls-2" d="M87.01,48.43c5.98.09,11.64,1.93,16.3,5.41-.43-.23-.99-1.17-.89-1.79h.2c.09-.85-1.17-1.22-.75-2.08,1.14.09,1.99,1.65,2.59,2.5,3.25-.05,1.37,3.81,3.81,4.98.57.28-.2,1.45.71,1.37.75.6,1.7,1.28,1.56,2.25.28,1.7,1.65-.51,2.39.57.66.51-.48.85-.34,1.45.43.2.8-.43,1.14.09.14.57-.28.8-.57,1.14-.28.99.89.43,1.22.89.51,1.14.94,2.82.09,4.1,1.17,1.28-.2,2.59-.43,3.81-.85.8-.99,2.68-2.59,2.25-.37.66.23,1.42-.14,1.93l2.82.14c-1.6-2.25.48-4.43,1.14-6.46.34-.14.75-.85,1.03-.14-.14.94-.23,1.99-.34,2.73.71,1.08.43,2.59.66,3.87l7.26-.14c-.51-4.81-1.51-9.42-3.53-13.57-.51.2-1.14.57-1.7.23-.8-1.08-1.45-2.39-2.59-3.3-.94,0-1.6-.75-2.36-1.22-1.65.05-1.03-2.36-2.64-2.02-.85-.43-1.45-.85-1.7-1.84-.05-1.14-.14-2.54-1.22-3.39-.6-.34-1.17.09-1.6.48-.89.57-1.28-.43-1.22-1.14-.99-.75.05-1.6-.48-2.5-1.42-1.14-.75-3.25-2.68-4.19-3.1-1.51-6.4-2.45-9.85-3.16-1.79-.28-3.73-.34-5.41-.8.37,2.36.23,5.18.09,7.49l.02.05Z"/>
      <path class="cls-2" d="M60.12,82.43c-.34.99.75,1.45.23,2.39,1.28,1.28,2.25,2.82,2.02,4.61.89,1.28.66,3.21.89,4.86.75.75,1.17,1.88,1.14,3.07.05.62-.62.8-.99,1.03-.48.57.34.28.34.75l6.32-6.55c-2.22-2.54-3.96-5.94-4.61-9.47l-.8-.48c-.14.89-.09,2.16-.89,2.5-.43-.37-1.28-.57-1.28-1.37.23-.51.66-.2,1.03-.23-.05-.43.05-.85.09-1.22.14-.51-.75-.9-.09-1.37.57-.05.8.6,1.22.89l1.14-.57c-.34-1.08.28-2.79-.09-3.96-.14-.94-1.17-.75-1.93-.8-1.74.57,0,2.22-.09,3.3-.2.89-1.08.2-1.6.57.23,1.45-.99,1.74-2.02,2.02l-.02.02Z"/>
      <path class="cls-2" d="M60.12,80.41c-.85.2-1.51.2-2.25-.23.51,1.7,1.08,3.53.66,5.41,0-.85,1.84-1.7.37-2.45.57-.85.14-2.64,1.22-2.73Z"/>
    </g>
  </g>
  <g>
    <path class="cls-2" d="M195.75,55.38V14.05h14.74v40.92c0,9.61,5.52,16.23,16.05,16.23s15.97-6.62,15.97-16.23V14.05h14.83v41.33c0,17.05-10.02,28.83-30.79,28.83s-30.79-11.78-30.79-28.83Z"/>
    <path class="cls-2" d="M317.44,82.96l-32.53-44.95v44.95h-14.53V14.03h14.94l31.61,43.3V14.03h14.53v68.93h-14.01Z"/>
    <path class="cls-2" d="M220.23,163.14l-26.29-68.93h16.48l18.93,52.92,18.93-52.92h16.48l-26.29,68.93h-18.24Z"/>
    <path class="cls-2" d="M263.96,128.73c0-20.77,15.04-35.66,35.71-35.66s35.6,14.88,35.6,35.66-15.04,35.66-35.6,35.66-35.71-14.88-35.71-35.66ZM320.33,128.73c0-12.91-8.09-22.63-20.67-22.63s-20.77,9.72-20.77,22.63,8.09,22.63,20.77,22.63,20.67-9.81,20.67-22.63Z"/>
    <path class="cls-2" d="M344.63,163.14v-68.93h14.63v56h28.84v12.91h-43.48v.02Z"/>
    <path class="cls-2" d="M393.98,135.56v-41.33h14.74v40.92c0,9.61,5.52,16.23,16.05,16.23s15.97-6.62,15.97-16.23v-40.92h14.83v41.33c0,17.05-10.02,28.83-30.79,28.83s-30.79-11.78-30.79-28.83Z"/>
    <path class="cls-2" d="M515.67,163.14l-32.53-44.95v44.95h-14.53v-68.93h14.94l31.61,43.3v-43.3h14.53v68.93h-14.01Z"/>
    <path class="cls-2" d="M556.69,163.14v-56h-19.96v-12.91h54.42v12.91h-19.85v56h-14.63.02Z"/>
    <path class="cls-2" d="M598.16,163.14v-68.93h48.29v12.91h-33.76v14.48h33.05v12.91h-33.05v15.7h33.76v12.91h-48.29v.02Z"/>
    <path class="cls-2" d="M658.26,163.14v-68.93h48.29v12.91h-33.76v14.48h33.05v12.91h-33.05v15.7h33.76v12.91h-48.29v.02Z"/>
    <path class="cls-2" d="M756.92,163.14l-13.39-24.5h-10.64v24.5h-14.53v-68.93h31.91c14.23,0,23.03,9.4,23.03,22.23,0,12.1-7.68,18.7-15.04,20.45l15.45,26.25h-16.78ZM758.36,116.33c0-5.68-4.4-9.19-10.13-9.19h-15.34v18.61h15.34c5.73,0,10.13-3.51,10.13-9.4v-.02Z"/>
    <path class="cls-2" d="M778.46,153.42l7.98-11.48c4.81,5.06,12.28,9.4,21.69,9.4,8.09,0,11.87-3.62,11.87-7.65,0-11.99-39.29-3.62-39.29-29.55,0-11.48,9.83-20.99,25.88-20.99,10.84,0,19.85,3.3,26.59,9.61l-8.09,10.96c-5.52-5.16-12.9-7.54-19.85-7.54-6.14,0-9.61,2.68-9.61,6.81,0,10.86,39.19,3.51,39.19,29.25,0,12.61-9.01,22.12-27.32,22.12-13.2,0-22.62-4.43-29.06-10.94l.02-.02Z"/>
  </g>
</svg>