<?xml version="1.0" encoding="UTF-8"?>
<svg id="Layer_1" data-name="Layer 1" xmlns="http://www.w3.org/2000/svg" viewBox="0 0 838.47 294.5">
  <defs>
    <style>
      .cls-1 {
        letter-spacing: 0em;
      }

      .cls-1, .cls-2, .cls-3, .cls-4 {
        font-size: 70.5px;
      }

      .cls-5 {
        letter-spacing: -.02em;
      }

      .cls-6 {
        font-size: 70px;
        letter-spacing: .04em;
      }

      .cls-7 {
        letter-spacing: -.05em;
      }

      .cls-8 {
        letter-spacing: .02em;
      }

      .cls-8, .cls-9 {
        font-size: 90.5px;
      }

      .cls-10 {
        letter-spacing: -.05em;
      }

      .cls-11 {
        letter-spacing: -.06em;
      }

      .cls-2 {
        letter-spacing: .02em;
      }

      .cls-4 {
        letter-spacing: 0em;
      }

      .cls-12 {
        font-size: 38.5px;
      }

      .cls-12, .cls-13, .cls-14, .cls-15 {
        fill: #680c0c;
      }

      .cls-12, .cls-14 {
        font-family: BodoniMT, 'Bodoni MT';
      }

      .cls-13 {
        fill-rule: evenodd;
      }

      .cls-9 {
        letter-spacing: 0em;
      }

      .cls-16 {
        letter-spacing: -.04em;
      }
    </style>
  </defs>
  <path class="cls-13" d="M397.03,179.28v-32.16c-8.19,5.26-20.59,9.33-37.22,12.17v.58c13.68,2.71,24.9,7.93,33.66,15.64,1.28,1.14,2.46,2.4,3.56,3.77Z"/>
  <path class="cls-13" d="M376.37,144.06c2.96-5.34,4.42-13.85,4.42-25.49,0-9.51-1.5-16.48-4.5-20.9-3-4.38-6.67-7.09-10.93-8.13-4.3-1-9.89-1.5-16.81-1.5h-27.74v67.82h21.98c9.47,0,16.68-.63,21.65-1.92,4.96-1.25,8.93-4.55,11.93-9.89Z"/>
  <text class="cls-12" transform="translate(414.97 275.11)"><tspan class="cls-16" x="0" y="0">Str</tspan><tspan class="cls-7" x="45.21" y="0">a</tspan><tspan class="cls-16" x="62.2" y="0">t</tspan><tspan class="cls-5" x="75.13" y="0">e</tspan><tspan class="cls-16" x="90.78" y="0">gi</tspan><tspan x="117.07" y="0">c </tspan><tspan class="cls-16" x="142.93" y="0">Ana</tspan><tspan class="cls-10" x="205.4" y="0">l</tspan><tspan class="cls-16" x="213.95" y="0">ysi</tspan><tspan x="255.16" y="0">s </tspan><tspan class="cls-11" x="279.03" y="0">f</tspan><tspan class="cls-16" x="289.23" y="0">o</tspan><tspan x="306.6" y="0">r </tspan><tspan class="cls-16" x="330.47" y="0">Asi</tspan><tspan x="378.07" y="0">a</tspan></text>
  <text class="cls-14" transform="translate(403.73 229.56)"><tspan class="cls-8" x="0" y="0">R</tspan><tspan class="cls-2" x="70.31" y="0">ESEA</tspan><tspan class="cls-4" x="261.73" y="0">R</tspan><tspan class="cls-2" x="315.81" y="0">C</tspan><tspan class="cls-3" x="358.91" y="0">H</tspan></text>
  <polygon class="cls-13" points="174.63 86.41 174.63 80.2 180.99 80.2 191.78 80.2 191.78 12.69 11.86 12.69 11.86 281.79 191.78 281.79 191.78 117.64 147.72 246.91 144.45 246.91 84.04 86.68 62.22 86.68 62.22 80.47 139.98 80.47 139.98 86.68 114.14 86.68 156.33 201.41 156.83 201.41 191.78 98.7 191.78 86.68 191.78 86.41 174.63 86.41"/>
  <path class="cls-13" d="M355.77,81.79c11.72,0,21.36,1.04,28.91,3.09,4.48,1.19,8.6,3.2,12.36,5.96V12.71h-179.92v68.26h0s11.56,0,11.56,0v6.21h-11.56v194.62h179.92v-35.73c-6.59-1.75-11.62-4.99-15.11-9.7-5.55-7.47-8.22-14.81-8.09-21.98l.5-20.77c0-7.26-2.29-14.39-6.88-21.44-4.63-7.05-15.06-10.59-31.37-10.59h-15.27v77.88h25.78v6.21h-80.63v-6.21h25.78V88.04h-25.78v-6.26h89.81Z"/>
  <text class="cls-14" transform="translate(408.92 142.4)"><tspan class="cls-9" x="0" y="0">V</tspan><tspan class="cls-1" x="64.96" y="0">ERIT</tspan><tspan class="cls-3" x="246.15" y="0">E</tspan><tspan class="cls-6" x="295.37" y="0"> </tspan></text>
  <path class="cls-15" d="M673.06,94.07l5.06-10.25s2.26-6.29,5.11-4.3c2.92,2.05-2.34,5.95-2.34,5.95l-7.83,8.59Z"/>
</svg>