<?xml version="1.0" encoding="UTF-8"?>
<svg id="Layer_1" data-name="Layer 1" xmlns="http://www.w3.org/2000/svg" viewBox="0 0 1334 600">
  <defs>
    <style>
      .cls-1 {
        fill: #62646a;
      }

      .cls-2 {
        fill: #fff;
      }

      .cls-3 {
        fill: #3b82f6;
      }

      .cls-4 {
        fill: #e4e5e7;
      }
    </style>
  </defs>
  <g>
    <path class="cls-4" d="M1327.05,416.8l.92-.61,1.28,1.07-.61,1.93-2.29.51-2.04-.46-.36-1.63,1.43-1.27,1.68.46h-.01ZM1334,413.28l-2.36.91-2.36.78-.48-1.38,1.85-.76,1.17-.21,2.17-1.15h0v1.81h0ZM0,411.47H0l.76-.17-.45,1.78L0,413.28H0v-1.81Z"/>
    <path class="cls-4" d="M792.63,355.45l.63.41,13.43,7.55.25,2.15,5.32,3.7-1.71,4.57.21,2.1,2.37,1.35.11.96-1.01,2.24.21,1.13-.24,1.77,1.29,2.32,1.53,3.66,1.35.81-2.95,2.14-4.04,1.44-2.23-.06-1.32,1.11-2.57.1-.97.46-4.46-1.04-2.79.3-1.03-5.04-1.27-1.72-.73-1.03-3.64-.69-2.09-1.11-2.36-.63-1.48-.62-1.55-.94-2-4.67-2.15-2.07-.73-2.15.36-1.93-.67-3.41,1.53-.18,1.35-1.34,1.44-1.93.92-.78-.04-1.2-.8-.84-.21-1.46,1.07-.46.21-2.18-1.47-2.09,1.31-.45,4.06.04,7.55-.28h0Z"/>
    <path class="cls-4" d="M634.89,249.44v.25l-.07.71v5.61l-12.17-.19.12,9.48-3.48.33-.91,1.91.71,5.35-14.51-.03-.8,1.24.16-1.56h.07l8.34-.29.44-1.34,1.52-1.66,1.23-5.12,5.15-4,1.75-4.67,1.15-.28,1.21-2.89,3.12-.4,1.33.48h1.68l1.2-.84,2.29-.12-.09-1.99h.56v.02Z"/>
    <path class="cls-4" d="M211.82,170.36h-.51l-7.16-3.65-2.65-1.6-6.71-1.53-2.07-3.28.53-2.28-4.75-1.58-.64-2.99-4.48-2.69-.08-1.91,2.05-1.79-.09-2.34-6.31-2.36-3.79-4.23-2.31-2.66-3.4-1.67-2.49-1.52-1.96-1.92-3.72,1.2-3.6,2.07-3.3-2.43-2.59-1.62-3.62-1.03-3.64-.11v-21.1l.04-13.75,6.91.89,5.84,1.79,3.86.34,3.25-1.55,4.48-1.15,5.51.45,5.55-1.62,6.07-.93,2.55,1.54,2.76-.87.83-1.74,2.56.4,6.27,3.32,4.92-2.52.51,2.82,4.55-.61,1.4-1.09,4.5.21,5.66,1.56,8.67,1.36,5.11.63,3.63-.24,4.99,1.88-5.2,1.84,6.7.8,10.01-.44,3.15-.65,3.95,2.22,4.03-1.88-3.78-1.57,2.39-1.27,4.51-.17,2.97-.37,2.99.88,3.72,2.01,4.14-.29,6.55,1.67,5.75-.59,5.4.09-.43-2.3,3.3-.65,5.75,1.25-.03,3.51,2.36-2.95,2.97.1,1.68-3.73-3.98-2.28-4.32-1.5.29-4.1,4.39-2.69,4.88.6,3.75,1.64,5.04,4.18-3.3,1.82,6.9.75v3.79l4.94-2.9,4.43,2.38-1.11,2.75,3.59,2.5,3.87-2.68,2.69-3.2.21-4.07,5.26.29,5.48.55,4.98,1.84.23,1.84-2.76,1.98,2.61,1.98-.48,1.81-7.26,2.59-5.15.57-3.83-1.12-1.11,1.86-3.58,3.12-1.08,1.62-4.3,2.5-5.3.24-2.93,1.57-.24,2.41-4.31.46-4.54,3-4.02,4.17-1.44,2.92-.21,4.3,5.46.62,1.67,3.47,1.73,2.81,5.18-.73,6.9,1.61,3.7,1.41,2.65,1.75,4.64,1.02,3.92,1.56,6.12.21,4.03.36-.6,3.2,1.15,3.73,2.68,4.15,5.52,3.52,2.85-1.2,2-3.81-1.93-5.86-2.61-1.95,5.94-1.73,4.19-2.6,2.05-2.58-.31-2.48-2.51-3.15-4.51-2.79,4.38-3.88-1.61-3.36-1.24-5.78,2.59-.86,6.35,1.01,3.82.36,3.07-.97,3.44,1.25,4.56,2.15,1.13,1.44,6.6.28-.11,3.11,1.23,4.69,3.39.58,2.68,2.18,5.36-2.06,3.55-4.09,2.45-1.72,2.88,3.31,4.83,4.73,4.1,4.45-1.49,2.33,4.94,2.09,3.34,2.12,5.9.95,2.39,1.19,1.47,3.14,2.88.49,1.49,1.4.27,4.16-2.69,1.39-2.65,1.3-6.11,1.32-4.66,3.05-6.27.6-7.92-.78-5.56-.03-3.83.26-3.11,2.66-4.72,1.64-5.35,4.9-4.27,3.42,3.15-.61,5.95-4.87,7.78-3.09,5.54-.36,3.28,1.81-3.5,2.49,1.17,4,1.21,2.8,4.82,1.85,6.12-.54,3.71-4.16.25,2.69,2.4,1.34-4.59,2.43-8.2,2.2-3.68,1.5-4.14,2.67-2.81-.28-.15-3.14,6.44-3.06-5.94.12-4.12.45-2.41-2.09v-5.05l-1.64-1.07-2.49.63-1.23-.97-2.83,2.8-1.12,2.89-1.32,1.69-1.57.57-1.19.19-.37.92h-6.83l-5.63.03-1.67.68-3.92,2.67-.45.29-1.19,1.45h-7.04s-1.67.59-1.67.59l.59.73.33,1.14-.07.38-4.84,1.84-3.82.58-4.31,1.98h-.93l-1.25-.58-.41-.53.08-.38.81-1.3,1.75-2.04,1.08-2.19-.75-3.22-.79-3.36-3.87-1.74.47-.66-.55-.46h-1.01l-.75-.58-.19-.88-.72.38-1-.11.23-.37-.87-.36-.36-.97-2.88-1.19-2.99-1.24-3.63-1.44-3.48-1.34-3.31,1.05-1.21.04-4.56-.97-3,.48-3.59-1.15-3.79-.59-2.59-.23-1.15-.63-.65-2.04-1.25.02v1.42h-102.6ZM355.76,120.51l2.76-1.71,5.08.04-.08.71-4.34,2.04-2.61-.08-.81-1h0ZM371.39,82.15l-4.08-1.96.16-1.34,1.77-.24,8.48.4,6.39,2.04.33,1.02-3.95-.11-3.99-.08-4.06.5-1.07-.23h.02ZM369.39,121.87l1.43-1.11,1.52.08.93.76-1.44,1.94-1.64-.31-.97-1.1.17-.26h0ZM320.11,74.09l-2.01,1.44-5.38-.28-4.5-.97,1.97-1.67,5.32-1,3.24,1.3,1.35,1.17h.01ZM319.27,64.67l-1.68.11-6.95-.24-.99-1.03,7.46.06,2.6.68-.44.43h0ZM308.48,60.06l4.43,1.29-1.01,1.34-5.48.77-3.01-.87-1.59-1.39-.29-1.54,4.8.15,2.16.24h0ZM340.36,76.27l-5.99-.46-9.85-1.19-1.28-2.04-.45-1.84-3.72-1.62-7.66-.45-4.3-1.15,1.39-1.52,7.64.23,4.11,1.19h7.3l3.2,1.21-.85,1.39,4.26.84,2.36.88,4.99.16,5.42.31,5.88-.8,7.55-.32,6.02.26,3.98,1.4.83,1.53-2.32.98-5.52.8-4.74-.45-10.63.57-7.6.07-.02.02ZM254.7,62.33l5.23.58-1.24,1.11-6.91,1.07-5.48-1.2,2.99-1.18,5.42-.38h-.01ZM255.83,59.91l4.82.75-4.52.72h-6.15l.07-.53,3.8-1.11,1.99.17h-.01ZM460.97,161.77l-1.97,2.33-2.45,3.24,2.41-1.25,2.49.79-1.31,1.29,3.3,1.02,1.71-.9,3.7,1.14-1.15,2.72,2.59-.63.48,1.96,1.15,2.3-1.56,3.26-1.67.14-2.44-.7.8-3.04-1.03-.47-4.3,3.22-2.21-.13,2.61-1.74-3.56-.9-3.98.22-7.19-.11-.57-1.1,2.31-1.3-1.61-1,3.12-2.23,3.83-5.9,2.29-2.11,3.21-1.28,1.72.16-.72,1h0ZM356.17,110.66l4.06,1.27,4.24,1.15.33,1.76,2.72-.29,2.65,1.23-3.3,1.17-5.76-.89-2.08-1.67-3.67,1.97-5.28,1.92-1.27-2.17-5.03.36,3.23-1.83.47-2.92,1.27-3.4,2.68.31.68,1.62,1.91-.57,2.15.97h0ZM375.11,83.82l3.51-1.47,8.22,1.88,5.11,1.77.48,1.62,6.87-.84,3.87,2.36,8.94,1.47,3.23,1.49,3.51,3.47-6.8,1.72,8.72,2.42,5.88.82,5.34,3.41,5.83.24-1.16,2.6-6.5,4.31-4.56-1.59-5.83-3.56-4.79.46-.47,2.12,3.9,2.16,5.03,1.71,1.52.98,2.41,3.66-1.28,2.67-4.67-1-9.3-2.97,5.24,3.19,3.86,2.24.6,1.29-10.05-1.48-7.95-2.15-4.5-1.8,1.29-1.05-5.52-1.91-5.4-1.79.07,1.07-10.71.59-3.13-1.27,2.44-2.73,6.96-.06,7.62-.48-1.23-1.32,1.28-1.84,4.8-3.61-1.03-1.64-1.43-1.27-5.67-1.79-7.51-1.26,2.37-.94-3.92-2.3-3.27-.21-2.92-1.26-1.99,1.1-6.71.48-13.49-.83-7.84-1.09-6-.56-3.08-1.3,3.87-1.69h-5.26l-1.17-3.77,2.84-3.31,3.82-1.51,9.56-.99-2.72,2.4,2.92,2.31,3.42-2.99,9.39-1.52,6.36,3.83-.56,2.43,7.34-1.08v-.04ZM316.82,77.22l7.72.13,7.07.9-5.54,3.3-4.42.72-3.98,2.77-4.23-.14-2.31-3.26.05-1.84,1.93-1.57,3.68-1.01h.03ZM211.75,69.87l6.3-2.77,7.6-2.4,5.68.06,5.08-.55-.51,2.85-2.85,1.29-3.46.18-6.9,1.58-5.92.57-5.03-.8h0ZM175.24,151.68l3.56-.29-1.12,4.21,3.23,2.98h-1.48l-2.23-1.7-1.37-1.71-1.87-1.15-.68-1.63.21-1.18,1.75.48h0ZM276.09,58.07l7.28.51,10.02,1.35,2.83,1.76,1.44,1.55-6.04-.41-6.1-1.2-8.26-.13,3.58-1.1-4.47-.89-.28-1.42v-.02ZM209.34,172.17l-1.87.51-6.08-1.69-1.12-1.31-3.31-1.3-.67-1.05-3.82-.67-1.43-2.01.32-.86,3.88.81,2.28.56,3.48.4,1.25,1.28,1.84,1.76,3.7,1.53,1.53,2.05h.02ZM216.63,76.05l5.3.77,9.46.21,3.6,1.07,3.98,1.56-4.66.93-9.08,2.6-4.59,2.6v1.61l-9.75,1.79-1.96-1.62-8.55-1.96,1.59-1.57,2.56-2.71,3.21-2.43-3.63-2.27,12.53-.58h0ZM267.47,70.88l3.3-.62,3.88.16.65,1.81-2.25,1.76-12.54.57-9.35,1.61-5.64.09-.47-1.21,7.7-1.64-16.74.44-5.19-.66,5.06-3.62,3.5-1.03,10.43,1.25,6.58,2.2,6.47.28-5.3-3.54,3.4-1.35,3.82.43,1.25,1.77,1.45,1.32v-.02ZM272.27,81.14l4.15,1.5,2.33,3.61,1.15,2.62,6.22,1.84,6.7,1.75-.41,1.63-6.08.3,2.37,1.42-1.25,1.36-6.71-.58-6.38-1-4.3.23-6.96,1.26-9.39.55-6.59.35-2.01-1.75-5.06-1.01-3.28.41-4.58-2.94,2.47-.39,5.72-.63,5.23.16,4.83-.65-7.16-.87-7.92.29-5.26-.08-1.95-1.36,8.59-1.49-5.71.06-6.47-.98,3.11-2.78,2.57-1.47,9.93-2.25,3.79.71-1.85,1.74,8.24-1.12,5.15,1.87,4.19-1.89,3.39,1.22,3.03,3.64,1.87-1.53-2.63-3.8,3.25-.54,3.68.59h-.01ZM294.82,82.51l-4.08-2.42,4.39-1.79,4.42.78,6.62-.47.96,1.08-3.46,1.77,5.6,1.59-.67,3.34-6.07,1.44-3.58-.31-2.56-1.41-9.2-2.86.07-1.19,7.56.46h0ZM271.99,79.2l4.96-.15,2.81.82-3.26,2.45-5.79-2.59,1.27-.52h.01ZM302.01,67.64l2.83,1.71.12,1.9-1.69,2.76-6.11.38-3.98-.59.07-2.16-6.07.29-.24-2.87,3.99.11,5.59-1.26,5.2.21s.29-.48.29-.48ZM311.21,53.25l2.56-1.13,3.8-.26-1.63-.85,8.62-.19,4.74,1.98,6.24.8,6.07.7,2.93,2.45,4.46,1.19-5.08,1.1-6.84,2.79-6.56.26-7.67-.48-3.99-1.51.05-1.35,2.93-.98-6.78.03-4.08-1.23-2.35-1.68,2.57-1.64h.01ZM327.62,48.46l5.51-.7,4.32-.12,7.27-.6,5.46-1.38,4.59.19,4,1.04,2.81-2,4.9-.6,6.64-.41,11.33-.15,1.97.4,10.7-.63,8.02.24,8.03.23,9.9.29,7.96.47,6.78,1.01-.16.98-9.04,1.61-8.96.75-3.35.83,8.07-.02-8.75,2.25-6.03,1.05-6.35,3.03-7.64.61-2.36.75-11.22.4,5.11.46-2.56.66,3.07,1.83-3.52,1.27-5.72,1.05-1.76,1.46-5.18,1.1.52.84,6.34-.14.08.9-9.9,2.23-9.68-1.02-10.89.57-5.52-.45-7-.19-.47-1.78,6.86-.83-1.83-2.68,2.27-.26,9.9,1.6-5.06-2.38-6-.71,3-1.44,6.56-.88,1.05-1.29-5.23-1.45-1.57-1.91,10.13.16,2.93.4,5.78-1.35-8.34-.43-12.97.24-6.55-1.26-3.09-1.5-4.32-1.09-.81-1.27-.03.02ZM388.28,102.01l-2.4,1.09-4.16.19-.92-1.81,1.57-2.08,3.4-.51,2.89,1.02.04,1.59-.43.51h0ZM310.32,94.43l2.25,1.42-2.31,1.3-4.99-1.12-3.01.41-5.07-1.67,3.27-1.15,2.59-1.61,3.94,1.05,2.21.66,1.12.7h0ZM427.93,167.12l1.28-.31,4.87.93,3.79,1.55.11.68-1.8.07-4.8-1.17-3.44-1.75h-.01ZM429.79,177.63l1.29,1.81,2.69.5,3.43-.1-1.83,1.52-1.36.24-4.71-1.57-.92-1.24,1.4-1.15h0Z"/>
    <path class="cls-1" d="M211.82,170.36h102.57v-1.42l1.27-.02.65,2.04,1.15.63,2.59.23,3.79.59,3.59,1.15,3-.48,4.56.97,1.21-.04,3.31-1.05,3.48,1.34,3.63,1.44,2.99,1.24,2.88,1.19.36.97.87.36-.23.37,1,.11.72-.38.19.88.75.58h1.01l.55.46-.47.66,3.87,1.74.79,3.36.75,3.22-1.08,2.19-1.75,2.04-.81,1.3-.08.38.41.53,1.25.58h.93l4.31-1.98,3.82-.58,4.84-1.84.07-.38-.33-1.14-.59-.73,1.67-.58,3.64-.02h3.4l1.19-1.44.45-.29,3.92-2.67,1.67-.68,5.63-.03h6.83l.37-.92,1.19-.19,1.57-.57,1.32-1.69,1.12-2.89,2.83-2.8,1.23.97,2.49-.63,1.64,1.07v5.05l2.41,2.09.64,1.22-3.95,1.79-3.82,1.28-3.91,1.1-1.96,2.2-.63.83-.04,1.96,1.23,1.96,1.53.09-.39-1.35,1.11.82-.29,1.06-2.51.6-1.77-.07-2.73.65-1.61.18-2.16.18-3.08,1.07,5.44-.7,1.09.7-5.19,1.11h-2.36l.11-.45-1.12,1.03,1.09.17-.8,2.66-2.71,2.85-.27-.95-.81-.19-1.21-.93.76,1.99.92.66.07,1.4-1.19,1.44-2.09,2.96-.33-.15,1.15-2.52-1.89-1.41-.44-3.08-.71,1.6.79,2.35-2.44-.58,2.55,1.2.16,3.52,1.05.26.39,1.28.52,3.71-2.35,2.75-3.84,1.1-2.43,2.17-1.85.24-1.88,1.36-.52,1.25-4.07,2.4-2.09,1.76-1.75,2.2-.57,2.63.67,2.58,1.23,3.17,1.65,2.62v1.61l1.77,4.3-.12,2.5-.16,1.44-.92,2.26-1.11.47-1.83-.45-.59-1.62-1.4-.85-1.97-3.19-1.72-2.83-.56-1.45.76-2.46-1.03-2.04-2.89-3.1-1.44-.56-3.75,1.68-.65-.19-1.8-1.72-2.32-.92-4.19.47-3.3-.41-2.83.26-1.52.58.67.98-.07,1.51.79.73-.71.48-1.37-.55-1.39.7-2.69-.11-2.76-1.96-3.23.46-2.69-.86-2.31.26-3.12.87-3.38,2.75-3.68,1.6-2.03,1.77-.84,1.67-.04,2.55.19,1.78.69,1.26-1.44.11-2.63-.82-2.89-1.15-1.04-1.74-.81-2.6-2.19-2.11-1.28-2.17-1.85-2.53-2.61-1.48-3.03.07-2.33,2.93-3.07-1.11-1.92-1.12-.92-2.04-1.23-1.94-2.2-1.63-1.89-1.17-1.36-1.32h-6.42v1.53h-2.95l-7.36.03-8.46-2.61-5.59-1.8.35-.73-4.71.4-4.22.29-.61-1.89-2.4-2.13-1.73-.45-.4-1.06-2.08-.19-1.33-1-3.44-.37-.95-.6-.44-2.03-3.6-3.73-3.08-5.15.13-.86-1.64-1.22-2.87-3.1-.51-3.02-1.97-2.03.81-3.07-.13-3.18-1.19-2.84,1.45-3.49.45-3.36.44-3.36-.67-4.97-1.17-3.17-1.07-1.72.44-.72,5.36,1.25,1.97,3.5.92-.98-.6-3.04-1.25-3.04-.03.04ZM91.15,277.52l.65.32.6.5.95,1.3-.09.21-1.44.79-1.19.58-.55.62-.92-.53.11-1.03-.61-1.35.19-.41.64-.61-.25-.73.21-.34.28.07,1.43.63v-.02ZM88.95,274.98l-.31.45-1.25.27-.63-.78-.43-.3-.04-.23.36-.31,1.32.35.97.56h0ZM86.13,273.46l-.12.4-1.99-.11.28-.45,1.83.16ZM81.43,271.45l.31.24,1.07,1.23-.2.21-.25-.05-1.29-.13-.47-.83-.15-.15.99-.51h0ZM76.47,269.61l.07.87-.44.36-1.24-.67.19-.27.57-.36.85.08h0ZM50.15,128.17l2.93.34.36,1.42-2.28.58-2.43-.69-2.24-1.01,3.66-.63h0ZM99.2,137.12l2.47.25,1.56,1.15-3.2,1.76-3.7,1.41-1.89-.95-.57-1.74,3.36-1.32,1.97-.56h0ZM144.57,93.61l-.03,13.75v21.1l3.63.11,3.62,1.03,2.59,1.62,3.3,2.43,3.6-2.07,3.72-1.2,1.96,1.92,2.49,1.52,3.4,1.67,2.31,2.66,3.79,4.23,6.31,2.36.09,2.34-2.05,1.79-2.04-1.4-3.27-1.18-1.04-3.23-4.78-3-2-3.5-3.56-.24-5.88-.09-4.35-1.07-7.66-3.84-3.55-.7-6.48-1.32-5.14.32-7.28-1.71-4.4-1.58-4.12.78.77,2.58-2.05.24-4.28.77-3.27,1.25-4.11.79-.52-2.18,1.67-3.64,3.94-1.14-1.01-.93-4.72,2.06-2.53,2.47-5.34,2.63,2.71,1.8-3.5,2.66-3.99,1.56-3.71,1.13-.92,1.64-5.79,1.91-1.16,1.74-4.34,1.58-2.55-.28-3.46,1.03-3.76,1.26-3.08,1.24-6.36,1.06-.57-.62,4.06-1.73,3.62-1.14,3.95-2.03,4.6-.41,1.83-1.52,5.14-2.21.83-.75,2.73-1.3.64-2.81,1.88-2.19-4.27,1.12-1.2-.64-2,1.35-2.41-1.88-1,1.33-1.39-1.84-3.71,1.48h-2.27l-.32-2.21.67-1.35-2.39-1.32-4.82.71-3.13-1.74-2.53-.89v-2.09l-2.87-1.58,1.44-2.13,3.01-2.07,1.32-1.9,3-.27,2.55.59,2.99-1.79,2.68.32,2.83-1.15-.69-1.69-2.07-.66,2.73-1.43-2.27.04-3.94.8-1.13.82-2.92-.82-5.23.42-5.43-.89-1.56-1.49-4.68-2.15,5.2-1.55,8.27-1.81h3.04l-.51,1.86,7.82-.14-3-2.3-4.56-1.41-2.63-1.86-3.56-1.58-5.08-1.17,2.07-1.94,6.58-.12,4.67-1.69.88-1.8,3.79-1.76,3.62-.43,7.02-1.64,3.42.25,5.7-1.98,5.62.78,2.68,1.67,1.64-.71,6.26.22-.21.85,5.67.63,3.78-.37,7.8,1.17,7.12.35,2.85.48,4.94-.6,5.62,1.11,4.03.52-.06-.05ZM30.64,115.58l2.28.71,2.31-.38,3,.98,3.68.5-.31.4-2.81.78-2.81-.8-1.41-.67-3.27.21-.88-.33.23-1.4h0Z" data-info="United States - 30 Projects"/>
    <path class="cls-4" d="M990.72,169.56l-2.83,2.46-3.07.35-.17,3.71-2.07,1.67-7.35-1.22-2.67,6.64-1.91.82-7.34,1.48,3.34,6.43-2.53.97.29,2.11-2.28-.55-1.87-1.33-5.5-.39-6.15-.1-1.33.41-5.28-1.56-2.11.77-.57,2.19-6.1-1.28-2.44.53-.83,1.62-2.12.68-4.9,2.58-1.61,2.65-1.39.03-1.01-1.76-4.71-.12-.76-3.04-1.8-.03.28-3.72-4.44-2.7-6.35.29-4.35.54-3.54-3.34-3.03-1.4-5.75-2.65-.69-.32-9.54,2.19.15,13.66-1.89.18-2.6-2.9-2.51-1.04-4.2.77-1.64,1.24-.2-.9.91-1.54-.71-1.29-4.3-1.27-1.67-3.32-2.05-.94-.12-1.2,3.6.35.15-2.71,3.15-.6,3.24.55.67-3.61-.67-2.29-3.71.18-3.15-.9-4.28,1.63-3.46.78-1.89-.6.39-1.91-2.36-2.48-2.76.11-3.13-2.52,2.13-2.81-1.08-.75,2.96-4.07,3.8,2.14.47-2.7,7.64-4.03,5.79-.09,8.16,2.57,4.39,1.5,3.94-1.56,5.87-.08,4.75,1.92,1.07-1.1,5.22.16.92-1.76-6-2.55,3.56-1.81-.69-1.01,3.55-.96-2.67-2.54,1.69-1.27,13.86-1.29,1.81-.92,9.27-1.37,3.34-1.54,6.66.8,1.17,3.84,3.87-.9,4.75,1.27-.31,2.02,3.56-.21,9.28-3.5-1.36,1.16,4.74,2.87,8.27,9.41,1.97-1.94,5.11,2.13,5.32-.95,2.05.66,1.77,2.14,2.59.72,1.59,1.57,4.78-.5,1.96,2.26v.03Z"/>
    <path class="cls-4" d="M874.39,198.86l-.15-13.66,9.54-2.19.69.32,5.75,2.65,3.03,1.4,3.54,3.34,4.35-.54,6.35-.29,4.44,2.7-.28,3.72,1.8.03.76,3.04,4.71.12,1.01,1.76,1.39-.03,1.61-2.65,4.9-2.58,2.12-.68,1.11.36-3.12,2.4,2.73,1.4,2.64-.92,4.39,1.95-4.74,2.67-2.83-.36-1.52.09-.53-1.03.77-1.72-4.95.86-1.19,2.38-1.76,2.04-3.09-.18-.96,1.64,2.72.88.8,2.76-2.08,3.75-2.8-.78-2.05-.03.09-2.27-4.92-1.59-3.88-1.81-2.41-1.74-4.23-2.56-1.83-3.82-1.24-.68-4.02.17-1.41-.76-.4-2.95-4.99-1.96-3.12,2.15-3.16,1.28.6,1.86-4.18.05h0Z"/>
    <path class="cls-4" d="M1189.49,361.57l6.43,2.55,6.84,2.12,2.56,1.89,2.05,1.86.57,2.19,6.16,2.29.91,1.96-3.42.4.83,2.46,3.31,2.43,2.4,3.93,2.12-.13-.15,1.64,2.87.63-1.12.7,3.94,1.56-.4,1.07-2.45.26-.92-.96-3.17-.41-3.75-.56-2.88-2.36-2.11-2.04-1.92-3.24-4.83-1.62-3.14,1.06-2.27,1.22.47,2.73-2.91,1.27-2.07-.62-3.84-.16-.05-12.07-.07-12.07v.02ZM1232.62,365.49l1.41,1.19.44,1.93-1.16.98-.69-2.18-.87-1.44-1.68-1.21-2.11-1.58-2.67-1.09,1.03-.9,2,1.04,1.25.82,1.56.89,1.48,1.56h.01ZM1227.65,373.57l-2.03.9-1.89.87h-1.97l-3.04-1.08-2.11-1.03.31-1.15,3.32.54,2.03-.29.56-1.77.53-.09.36,1.97,2.11-.28,1.04-1.27,2.07-1.32-.4-2.18,2.21-.07.75.61-.07,2.05-1.24,2.26-1.95.3-.59,1.04h0ZM1240.47,371.71l1.12.84,1.8,2.35,1.75,1.25-.52,1.04-1.04.37-1.6-1.42-1.63-2.35-.79-2.82.51-.36.4,1.1Z"/>
    <path class="cls-4" d="M1189.49,361.57l.07,12.07.05,12.07-3.3-3.04-3.76-.74-.92,1.05-4.7.11,1.57-3.02,2.33-1.03-.96-4.03-1.79-3.11-7.18-3.14-3.05-.31-5.56-3.42-1.09,1.8-1.43.33-.84-1.35v-1.61l-2.84-1.82,3.99-1.34,2.64.07-.31-.98h-5.43l-1.47-2.21-3.31-.68-1.56-1.84,4.99-.9,1.89-1.2,5.95,1.52.59,1.38,1.04,5.99,3.83,2.22,3.09-3.93,4.26-2.23h3.3l3.17,1.29,2.75,1.33,3.98.71h.01ZM1130.08,384.88l.37.73.07,1.12-2.41,2.77-3.17.82-.44-.45.33-1.26,1.59-2.26,3.67-1.47h0ZM1164.33,377.48l-.36-2.79.65-1.33.77-1.25.84,1.09v1.77l-1.91,2.52h.01ZM1103.82,336.6l-2.11,3.34,2.72,3.51-.64,1.71,4.16,3.42-4.39.44-1.24,2.53.16,3.36-3.56,2.53-.09,3.69-1.43,5.66-.55-1.32-4.22,1.67-1.47-2.26-2.64-.21-1.85-1.19-4.4,1.33-1.35-1.79-2.43.2-3.05-.43-.57-4.97-1.84-1.03-1.79-3.17-.51-3.24.43-3.44,2.2-2.46.63,2.48,2.53,2.09,2.39-.76,2.36.27,2.16-1.88,1.77-.33,3.51,1.04,3.01-.79,1.91-5.16,1.43-1.29,1.28-4.21h4.26l3.21.63v.03ZM1146.4,362.31l4.07,1.08,1.35,2.83-3.12-1.53-3.09-.31-2.09.24-2.56-.13.87-2.04,4.59-.15h-.02ZM1137.14,365.98l-2.56-.68-.72-1.59,3.75-.18.92,1.22-1.39,1.23h0ZM1141.06,343.87l.27,2.02,2.19.33.35,1.51-.2,3.24-1.91-.36-.56,2.25,1.52,1.96-1.04.45-1.49-2.35-1.09-4.74.75-2.96,1.23-1.35h-.02ZM1122.52,348.68l4.26-.16,3.67-2.69.64.83-2.97,3.68-2.79.71-3.56-.72-6.18.18-3.24.53-.52,2.8,3.31,3.3,2-1.68,6.91-1.26-.29,1.71-1.61-.54-1.61,2.18-3.27,1.44,3.51,4.75-.67,1.27,3.32,4.28-.03,2.43-1.97,1.09-1.45-1.3,1.79-3.04-3.64,1.44-.92-1.03.48-1.43-2.67-2.17.28-3.61-2.48,1.12.32,4.32.15,5.31-2.35.53-1.59-1.09,1.05-3.41-.57-3.57-1.56-.03-1.15-2.54,1.53-2.43.53-2.94,1.85-5.59.77-1.52,3.16-2.75,2.89,1.09,4.67.51h0ZM1112.76,389.94l-4.91-2.6,3.46-.73,1.95,1.13,1.29,1.13-.23,1-1.56.07h0ZM1116.64,383.56l2.47-.28,3.32-1.35-.55,2.06-5.56,1.05-4.94-.46v-1.35l2.93-.77,2.32,1.11h.01ZM1105.22,382.92l2.29-.3.92,1.57-4.28.75-2.57.5-1.99-.03,1.27-2.13,2.04-.03.99-1.31,1.33.99h0ZM1069,375.73l.51,1.32,7.11.37.81-1.53,6.87,1.78,1.35,2.4,5.56.68,4.55,2.2-4.23,1.41-4.08-1.49-3.35.1-3.84-.28-3.47-.66-4.3-1.41-2.72-.37-1.55.46-6.75-1.52-.64-1.59-3.4-.28,2.55-3.54,4.5.22,2.99,1.45,1.53.28h0ZM1053.75,355.95l.63,2.58,1.29,2.07,2.72.33,1.8,2.35-.93,4.61-.15,5.73-4.11.08-3.12-3.1-4.75-3.02-1.59-2.25-2.8-3.02-1.84-2.78-2.83-5.19-3.26-3.09-1.08-3.19-1.37-2.89-3.33-2.33-1.93-3.17-2.79-2.07-3.87-4.09-.32-1.88,2.37.15,5.74.71,3.28,3.62,2.87,2.52,2.04,1.54,3.51,3.98,3.78.06,3.11,2.54,2.15,3.1,2.81,1.69-1.48,3.02,2.12,1.29,1.33.09h0Z"/>
    <path class="cls-4" d="M412.68,546.98l1.41,1.72,1.85,2.78,4.82,2.23,5.19.92-1.67,1.86-3.52.18-1.88-1.3-2.24-.1h-3.96v-8.28h0ZM453.47,463.9l-.93,2.97-.99,3.81.04,3.69-.81.83-.28,2.4-.25,1.93,4.71,3.17-.51,2.56,2.31,1.61-.19,1.81-3.56,4.75-5.5,1.99-7.43.77-4.07-.37.79,2.21-.76,2.77.68,1.87-2.23,1.3-3.79.51-3.56-1.35-1.44.97.52,3.68,2.51,1.12,2.03-1.17,1.09,1.93-3.4,1.15-2.97,2.3-.55,3.73-.88,1.98h-3.5l-2.91,1.91-1.07,2.78,3.64,2.72,3.55.75-1.28,3.33-4.38,2.09-2.4,4.34-3.39,1.47-1.51,1.73,1.19,3.85,2.47,2.14-1.56-.19-3.43-.58-8.96-.5-1.53-2.16.08-2.78-2.47.24-1.31-1.34-.32-3.93,2.84-1.63,1.17-2.35-.44-1.88,1.97-3.16,1.35-4.9-.4-2.18,1.63-.7-.4-1.4-1.72-.74,1.23-1.56-1.68-1.4-.87-4.28,1.49-.75-.63-4.52.87-3.79,1-3.31,2.21-1.35-1.12-3.61v-3.41l2.79-2.42-.09-3.1,2.12-3.61v-3.41l-.95-.68-1.71-6.4,2.28-3.81-.36-3.59,1.33-3.37,2.43-3.48,2.61-2.3-1.11-1.46.77-1.19-.12-6.18,4.03-1.83,1.28-3.85-.45-.93,3.08-3.35,4.86.9,2.17,2.68,1.45-2.98,4.22.15.6.8,6.82,6.05,3.03.56,4.52,2.74,3.82,1.45.53,1.64-3.64,5.63,3.74,1,4.16.57,2.93-.6,3.36-2.84.6-3.27,1.84-.71,1.85,2.14-.08,2.96-3.12,2.04-2.48,1.51-4.19,3.59-4.94,5.06.03.02Z"/>
    <path class="cls-4" d="M412.68,546.98v8.27h3.96l2.24.11-1.23,1.5-3.17,1.15-1.83-.12-2.19-.3-2.69-1.11-3.88-.54-4.67-2.07-3.78-1.99-5.11-4.15,3.05.78,5.2,2.48,4.92,1.33,1.91-1.7,1.2-2.54,3.42-1.53,2.64.44h0ZM409.13,417.07l1.81,2.52.49,2.67,1.95,1.57-1.17,3.59,2,4.16,1.45,5.11,2.67-.51.45.93-1.28,3.85-4.03,1.83.12,6.18-.77,1.19,1.11,1.46-2.61,2.3-2.43,3.48-1.33,3.37.36,3.59-2.28,3.81,1.71,6.4.96.68v3.41l-2.13,3.61.09,3.1-2.8,2.42v3.41l1.13,3.61-2.21,1.35-1,3.31-.87,3.79.63,4.52-1.49.75.87,4.28,1.68,1.4-1.23,1.56,1.72.74.4,1.4-1.63.7.4,2.18-1.35,4.9-1.97,3.16.44,1.88-1.17,2.35-2.84,1.63.32,3.93,1.31,1.34,2.47-.24-.08,2.78,1.53,2.16,8.96.5,3.43.58-3.3-.03-1.79.91-3.34,1.34-.6,3.46-1.57.09-4.18-1.2-4.24-2.58-4.62-2.12-1.16-2.35,1.05-2.17-1.87-2.46-.48-6.32,1.59-3.56,3.91-2.87-5.63-1.08,3.54-3.27,1.25-6.16,4.12,1.3,1.93-7.68-2.48-.98-1.16,4.63-2.33-.52,1.16-5.3,1.27-6.87,1.69-2.53-1.07-3.61-.29-4.18,1.56-.12,2.27-5.98,2.56-5.93,1.57-5.53-.85-5.55,1.11-3.05-.45-4.58,2.17-4.52.67-7.17,1.19-7.7,1.16-8.29-.27-6.06-.77-5.22,1.91-.95.99-1.9v-.03Z"/>
    <path class="cls-4" d="M775.72,368.6l.67,3.41-.36,1.93.73,2.15,2.15,2.07,2,4.67-1.45-.38-4.98.62-1,.45-1.05,2.36.83,1.64-.65,4.38-.45,3.72,1,.66,2.59,1.44,1.01-.67.31,4-2.83-.03-1.52-2.04-1.37-1.58-2.84-.51-.83-1.94-2.27,1.17-2.96-.52-1.24-1.68-2.35-.34-1.75.09-.2-1.15-1.28-.09-1.69-.22-2.29.56-1.61-.09-.91.34.2-4.41-1.24-1.37-.28-2.28.55-2.23-.75-1.43-.07-2.33-4.5.03.32-1.34h-1.89l-.2.66-2.29.14-.92,2.16-.56.93-2.05-.52-1.21.52-2.45.29-1.41-1.94-.85-1.2-1.07-2.22-.91-2.76-10.94-.05-1.31.45-1.07-.07-1.53.5-.52-1.15.95-.39.12-1.62.6-.95,1.35-.78.97.38,1.27-1.42,2.03.04.23,1.05,1.39.66,2.19-2.32,2.15-1.81.95-1.19-.13-3.05,1.61-3.6,1.69-1.91,2.44-1.79.43-1.19.09-1.35.6-1.29-.19-2.1.45-3.29.73-2.31,1.11-1.98.21-2.24.33-2.58,1.44-1.88,1.99-1.19,3.05,1.25,2.36,1.37,2.71.37,2.76.72,1.11-2.24.51-.29,1.69.38,4.12-1.85,1.47.78,1.2-.11.55-.9,1.39-.32,2.79.39,2.37.09,1.21-.4,2.25,3.06,1.65.45,1-.62,1.71.24,2.07-.78.88,1.58,3.26,2.46-.21,4.33,1.48.5-1.19,1.32-1.43.98-1.41,1.93-.79,1.72-.2,2.98-.87,1.41-.03,2.8-1.07,1.03-.13,2.2-.51.29-.35,2.03.93,1.68.23,4.47h-.02Z"/>
    <path class="cls-4" d="M821.1,358.17l-2.2-3.06-.04-13.5,3.24-4.2,1.01-1.17,2.37-.07,3.3-2.62,4.83-.16,10.47-11.12,2.59-3.09,1.67-2.28v-7.2l.04-.06,1.19-.08,1.71-.55,1.96-.37,1.76-1.27h1.4l.08,1.01-.33,2.16v1.94l-.77,1.34-1.04,4.01-1.79,4.13-2.29,4.74-3.17,5.43-3.16,4.15-4.36,5.06-3.71,3-5.54,3.68-3.46,2.82-4.06,4.48-.85,1.96-.84.88h-.01Z"/>
    <path class="cls-4" d="M812.27,369.26l-5.32-3.7-.25-2.15-13.43-7.55-.63-.41-.04-3.93,1.07-1.5,1.83-2.45,1.35-2.7-1.64-4.25-.43-1.86-1.76-2.58,2.28-2.21,2.51-2.45,1.93.62v2.08l1.27,1.22h2.57l4.7,3.15,1.16.04.87-.1.83.43,2.47.29,1.09-1.55,3.39-1.55,1.49,1.25h2.53l-3.24,4.2.04,13.5,2.2,3.06-2.6,1.48-.91,1.54-1.39.28-.53,2.61-1.19,1.49-.72,2.46-1.49,1.22v.02Z"/>
    <path class="cls-4" d="M758.04,321.43l-2.83-1.62-1.28-1.07-.24-1.15.6-1.54v-1.51l-2.15-2.31-.41-1.59.04-.9-1.36-1.09-.04-2.15-.77-1.43-1.31.21.37-1.36.96-1.54-.43-1.54,1.23-1.14-.77-.87.97-2.29,1.69-2.73,3.2.26-.19-14.71.04-1.56h4.27v-7.41h43.97l1.2,3.64-.81.67.53,3.81,1.36,4.43,1.41.91,2.03,1.37-1.88,2.11-2.72.61-1.17,1.14-.36,2.46-1.6,5.44.4,1.48-.6,3.19-1.49,3.65-2.24,1.84-1.59,2.83-.37,1.51-1.76,1.04-1.09,3.88.05,3.33-.04-2.89-.52-.08.07-1.84-.44-1.27-1.91-1.46-.45-2.67.45-2.73-1.72-.26-.25.83-2.23.19.89,1.09.31,2.23-2.03,2.03-1.84,2.67-1.92.38-3.11-2.16-1.4.77-.39,1.08-1.91.7-.12.77h-3.7l-.51-.77-2.67-.13-1.33.63-1.03-.32-1.91-2.16-.64-1.02-2.67.51-1.01,1.72-.96,3.31-1.27.7-1.13.41,2.52,1.44h.01Z"/>
    <path class="cls-4" d="M755.33,279.37l.19,14.71-3.2-.26-1.69,2.73-.97,2.29.77.87-1.23,1.14.43,1.54-.96,1.54-.37,1.36,1.31-.21.77,1.43.04,2.15,1.36,1.09-.04.9-2.35.63-1.88,1.5-2.68,4.05-3.48,1.71-3.59-.23-1.04.34.37,1.3-1.93,1.3-1.57,1.44-4.67,1.42-.92-.84-.61-.07-.69.95-3.05.28.57-1-1.16-2.55-.52-1.54-1.61-.63-2.19-2.16.8-1.75,1.69.38,1.04-.26,2.07.04-2.01-3.37.13-2.46-.24-2.46-1.48-2.37.37-1.75-2.37-.08v-2.38l-1.53-1.37,1.6-4.88,4.72-3.49.2-4.82,1.43-7.52.8-1.59-1.55-1.27-.05-1.18-1.39-.96-.91-5.76,3.74-2.03,14.78,7.1,14.78,7.09-.03-.04Z"/>
    <path class="cls-4" d="M401.27,278.88l.32,2.01-.28,1.43-.91.62.95,1.11-.07,1.01-2.47-.63-1.75.26-2.25-.27-1.73.69-1.99-1.15.32-1.19,3.42.51,2.8.29,1.33-.82-1.69-1.61.03-1.42-2.33-.58.83-1.02,2.27.16,3.21.58v.02Z"/>
    <path class="cls-4" d="M401.29,285.06l.07-1.01-.95-1.11.91-.62.28-1.43-.32-2.01.45-.63,2.89.02,2.2.95.97-.09.67,1.31,2.03-.07-.12,1.1,1.65.13,1.81,1.36-1.37,1.51-1.76-.8-1.69.16-1.23-.18-.67.67-1.41.23-.57-.9-1.23.53-1.48,2.54-.95-.59-.19-1.07h.01Z"/>
    <path class="cls-4" d="M1014.51,51.69l8-.83,7.2,1.86,8.54,3.59-.92,3.33-8.08.46-10.31-1.07-6.16-1.42-2.84-2.65-5.06-.73,9.63-2.53h0ZM1048.07,58.15l9.39,2.11-1.09,1.51-20.89,1.43,6.76-4.87,3.05-.41,2.77.24h0ZM1181.44,69.8l9.79.16,13.39,1.96-2.92,2.75-13.65-.1-6.15.87-7.34-2.41,1.99-2.55,4.88-.7v.02ZM1216.25,72.73l9.3.97-4.28,1.47-5.92-.33-6.88-1.46.88-1.2,6.91.56h-.01ZM1185.27,80.05l3.51-1.47,4.64-.34,5.26,1.42.45.97-5.62.03-7.59-.41-.65-.19h0ZM833.19,53.3l7.23-.67,5.63-.05.76,1,2.12-.89,3.5-.61,5.5.81-1.43.56-4.98.49-3.34.28-.52.61-4.32.61-4.02-.88,2.11-1.16-8.24-.11h0ZM751.24,150.61l-6.82.06-4.56-.42.84-1.63,5.11-1.2,3.88.65,1.64.59-.4,1.02.31.94h0ZM865.28,78.64l8.87-3.25-1-1.68,8.28-1.96,12.23-2.38,12.34-.69,6.34-1.38,7.22-.48,2.57,1.46-2.49,1.15-13.13,1.84-11.31,1.77-11.51,3.52-5.52,3.62-5.8,3.56.75,3.08,7.08,3.04-2.19.33-12.1-.48-.99-1.64-6.71-.99-.53-2.01,3.79-.79-.13-2.03,7.35-3.15-3.4-.46h0ZM1196.59,152.93l1.28,3.57-.09,3.64,1.52,3.74,3.74,6.56-5.48-1.22-2.28,5.36,3.62,3.79-.11,2.59-2.81-2.23-2.43,2.87-.68-3.11.41-3.61-.43-4,.85-2.8.17-4.95-2.17-3.64.32-5.07,3.43-1.7-1.47-1.72,1.64-.52.97,2.45h0ZM0,96.38H0l9.08,2.83,9.71,3.69-.32,2.3,2.49.92-.85-2.69,10.06.55,7.26,3.47-3.68,1.61-6.07.38-.09,3.63-1.48.77-3.47-.11-2.83-1.29-4.92-1.08-.83-1.61-3.78-.6-4.2.48-2.01-1.3.8-1.37-4.44.88,1.68,1.74L0,111.15h0v-14.76H0ZM1334,111.14l-.03.02-4.76,1.63-4.8-.28,3.34,1.98,2.21,3.05,1.71,1,.43,1.53-.95.98-6.91-.81-10.37,2.79-3.3.43-5.67,2.6-5.38,2.27-1.36,1.69-5.3-2.57-9.66,2.91-1.68-1.37-3.58,1.59-4.95-.51-1.2,2.43-4.44,3.59.13,1.5,4.22.83-.49,5.39-3.44.14-1.59,3.1,1.55,1.6-6.48,1.89-1.28,4.23-5.54.9-1.11,3.76-5.34,3.46-1.37-2.55-1.59-5.41-2.07-8.23,1.79-5.14,3.12-2.21.19-1.73,5.76-.83,6.62-4.67,6.39-3.81,6.66-2.95,2.97-5.22-4.5.31-2.23,3.05-9.4,4.07-3.03-4.56-9.56,1.26-9.28,6.21,3.07,2.27-8.27.97-5.74.38.27-2.68-5.75-.56-4.59,1.83-11.34-.64-12.19,1.1-11.99,7.23-14.21,8.74,5.84.46,1.81,2.32,3.6.83,2.37-1.85,4.07.24,5.35,4.08.12,3.15-2.89,3.7-.31,4.42-1.68,5.93-5.58,5.36-1.25,2.57-5.03,4.32-4.99,4.28-2.39,2.19-4.94,2.17-2.33.05-2.33-1.8-4.98,2.71-.57,1.24h0l-.52-.65-.03-1.88,1.89-.1.53-4.38-.97-3.17,3.17-1.3,4.51.65,2.48-3.61,1.28-4.06,1.43-1.35,1.95-3.34-6.12,1.1-3.2,1.46h-5.64l-1.49-3.49-4.39-2.63-6.44-1.19-1.37-3.63-1.29-2.28-1.39-1.59-2.29-3.74-3.26-1.36-5.54-1.1-4.92.1-4.6.66-3.05,1.84,2.03.88.05,2.04-2.07,1.19-3.35,3.93.04,1.63-5.23,2.34-4.44-1.4-4.42.31-1.95-1.24-2.21-.4-5.43,2.61-4.88.61-3.4.92-4.67-.6-3.44.04-2.24-1.89-3.63-1.78-3.72-.49-4.68.49-3.51.68-5.26-1.56-.71-2.78-4.36-.95-3.36-.43-4.15-1.53-3.84,3.84,1.51,2.18-3.6,2.58-5.36-.93-3.7-.14-2.48-1.73-3.86-.05-3.23-1.14-5.64,1.74-7.07,3.19-3.9.64-1.45.31-1.96-2.26-4.78.5-1.59-1.57-2.59-.72-1.77-2.14-2.05-.66-5.32.95-5.11-2.13-1.97,1.94-8.27-9.41-4.74-2.87,1.36-1.16-9.28,3.5-3.56.21.31-2.02-4.75-1.27-3.87.9-1.17-3.84-6.66-.8-3.34,1.54-9.27,1.37-1.81.92-13.86,1.29-1.69,1.27,2.67,2.54-3.55.96.69,1.01-3.56,1.81,6,2.55-.92,1.76-5.22-.16-1.07,1.1-4.75-1.92-5.87.08-3.94,1.56-4.39-1.5-8.16-2.57-5.79.09-7.64,4.03-.47,2.7-3.8-2.14-2.96,4.07,1.08.75-2.13,2.81,3.13,2.52,2.76-.11,2.36,2.48-.39,1.91,1.89.6-1.69,2.2-3.59.61-3.68,3.83,3.36,3.52-.36,2.5,4.04,4.37-2.21,1.49-.64.94-1.63-.25-2.55-2.25-1.04-.13-2.33-.86-1.13-1.52-3.46-.78-2.25.58-.64-.69-5.04-1.77-5.46-.6-3.13-.63-.45.44-4.72-3.13-4.23-1.4-3.2-2.18,2.69-.6,3.08-3.1-2.08-1.47,5.47-1.51-.11-.81-3.32.6.12-1.64,1.91-1.03,3.59-.27.59-1.24-.83-2.04,1.51-1.94-.04-1.09-5.47-1.2-2.16.04-2.29-1.74-2.84.59-4.7-1.3.08-.73-1.32-1.61-2.96-.18-.31-1.15.93-.75-2.37-2.09-3.84.36-1.12-.19-.93.84-1.39-.14-.91-2.38-.88-1.23.72-.34,2.99.13,1.44-.81-1.07-.98-2.49-.65.21-.67-1.51-.68-2.32-2.43.8-1-.36-1.74-3.63-.88-1.95.44-.52-.92-3.91-.93-1.19-2.18-.32-1.8-1.79-.85,1.6-1.17-1.11-3.46,2.64-2.14-.56-.65,4.22-2.05-3.88-1.76,7.92-4.74,3.44-2.14,1.4-1.89-5.48-2.54,1.51-2.41-3.34-2.76,2.49-3.17-4.31-4.22,3.42-2.79-5.67-2.47.55-2.6,2.99-.34,6.31-1.49,3.82-1.29,6.08,2.25,10.15.88,14.01,4.19,2.84,1.76.24,2.46-4.11,1.95-6.06.98-16.54-2.82-2.72.47,6.04,2.72.24,1.72.24,3.79,4.78,1.13,2.89.96.48-1.79-2.24-1.59,2.36-1.4,8.96,2.31,3.11-.9-2.48-2.72,8.63-3.63,3.42.21,3.47,1.29,2.15-2.55-3.08-2.21,1.81-2.21-2.72-2.3,10.37,1.19,2.11,2.08-4.68.46v2.06l2.93,1.27,5.72-.8.91-2.36,7.74-1.77,12.94-3.18,2.79.18-3.64,2.25,4.59.38,2.65-1.27,6.95-.1,5.5-1.54,4.23,2.23,4.2-2.45-3.88-2.15,1.93-1.22,10.94,1.12,5.14,1.16,13.42,4.23,2.48-1.94-3.76-1.96-.11-.78-4.47-.36,1.23-1.76-1.99-2.89-.11-1.19,6.83-3.36,2.44-3.37,2.75-.73,9.82.98.76,2.06-3.51,3,2.31,1.19,1.19,2.59-.84,5.07,4.1,2.27-1.6,2.48-7.26,5.26,4.24.55,1.47-1.34,4.08-.95.99-1.84,3.2-1.76-2.16-2.11,1.73-2.45-4.06-.31-.89-2.06,2.96-3.72-4.82-3.02,6.63-2.5-.85-2.64,1.85-.08,1.93,2.06-1.45,3.57,3.96.68-1.69-2.67,6.2-1.46,7.7-.19,6.84,2.11-3.29-3.09-.37-3.95,6.44-.75,8.92.16,8.03-.48-3.01-1.94,4.28-2.43,4.26-.1,7.2-1.84,9.79-.5,1.24-1.02,9.72-.34,3.03.83,8.32-1.97,6.8.06,1.03-1.6,3.54-1.58,8.75-1.52,6.35,1.2-5.04.92,8.39.56,1,1.83,3.39-.9,10.83.04,8.35,1.81,2.97,1.39-.92,1.93-4.1,1.1-9.74,2.06-2.79,1.1,4.6.52,5.47.93,3.35-.7,1.88,2.38,1.63-.96,5.92-.58,11.9.61.89,1.73,15.5.55.2-2.83,7.87.65,5.91-.03,5.99,1.96,1.71,2.37-2.2,1.55,4.66,2.92,5.83,1.51,3.58-3.89,5.95,1.67,6.31-1,7.18,1.14,2.72-1.04,6.07.52-2.68-3.44,4.9-1.61,33.47,2.41,3.15,2.2,9.7,2.83,14.97-.7,7.38.61,3.08,1.53-.44,2.71,4.56,1.05,4.96-.76,6.56-.09,7,.73,7.02-.41,6.46,3.3,4.59-1.19-2.99-2.37,1.64-1.64,11.82,1.03,7.71-.23,10.66,1.77,5.19,1.62v14.76-.03ZM1334,89.46l-4.07.19-.65-1.17,4.72-1.55v2.53ZM0,86.92H0l.48-.15h3.13l5.36,1.07-.32.51-3.82.88-4.84.23H0v-2.53H0Z"/>
    <path class="cls-4" d="M790.9,181.58l.97-.92,2.64.8,1.19.14.48.73.56.11.03.32,1.81.89,3.79-.22-.73,1.32-4.06.65-5.03,2.14-2.05-.76.81-1.74-4.06-1.09.67-.71,3.54-1.24-.56-.45v.03Z"/>
    <path class="cls-4" d="M374.34,252.66l1.73-.29,2.45.11.11.96-4.04.6-.25-1.37h0ZM378.74,251.73l2.93,1.66-.64,2.63-.68-.47.05-1.94-1.65-1.47v-.42h0ZM377.26,258.51l1.12.14,1.29,3.08v2.15l-.89.18-.93-2.13-1.39-1.07.8-2.35h0Z"/>
    <path class="cls-4" d="M440.23,544.06l4.44-2.22,3.15.93,2.23-1.49,2.96,1.67-1.11,1.3-5,1.11-1.67-1.3-3.15,1.67-1.85-1.67Z"/>
    <path class="cls-4" d="M723.12,56.69l1.4-1.27,5.44-.13,4.67,1.29,12.21,2.76-9.32,1.46-2.07,2.73-3.24.7-1.76,3.07-4.47.14-7.98-2.26,3.36-1.32-5.55-1.07-7.22-3.13-2.88-2.9,10.1-1.33,2.03,1.3,5.28-.05h0ZM782.25,94.18l-6.31,1.49-2.99.34,1.56-2.6-4.75-1.47-5.75,1.25-1.83,2.72-3.54,1.64-3.98-.9-4.83.18-4.12-1.96-2.23.98-2.29.15-.55,2.44-6.98-.6-.99,2.06h-3.56l-2.44,2.63-3.71,4.11-5.75,5.21,1.35,1.27-1.29,1.47-3.67-.06-2.4,3.47.23,4.92,2.36,1.88-1.23,4.35-3.08,2.54-1.63,2.14-2.49-2.28-7.31,4.29-4.95.87-5.12-1.89-1.32-3.98-1.17-8.55,3.42-2.39,9.78-3.11,7.32-3.82,6.78-5.17,8.91-7.16,6.2-2.78,10.18-4.65,8.14-1.62,6.1.19,5.64-3.07,6.75.16,6.66-.74,11.59,2.72-4.78.99,4.07,2.33h0ZM768.57,55.27l-5.5,1.99-10.75.44-10.93-.61-.67-1.02-5.31-.07-4.06-1.7,11.45-1.03,5.38.89,3.75-1.11,9.36.93,7.27,1.3h0ZM758.62,63.44l-8.27,1.51-6.54-.86,2.55-.95-2.23-1.19,7.67-.75,1.47,1.39,5.35.84h0Z"/>
    <path class="cls-4" d="M493.72,45.75l12.43-2.21,13.01.17,4.72-1.37,13.1-.36,29.6.46,23.17,2.94-6.84,1.42-14.17.16-19.96.36,1.87.66,13.13-.41,11.15,1.28,7.2-1.14,3.08,1.33-4.07,2.16,9.43-1.38,17.98-1.44,11.11.71,2.08,1.59-15.1,2.63-2.09.85-11.85.64,8.58.18-4.32,2.7-2.99,2.4.12,4.13,4.44,2.42-5.79.15-6.1,1.17,6.84,1.96.87,3.15-3.96.34,4.8,3.19-8.23.26,4.3,1.51-1.21,1.3-5.22.57h-5.18l4.64,2.52.05,1.65-7.32-1.53-1.91.99,5,.93,4.86,2.26,1.4,2.99-6.6.71-2.85-1.43-4.59-2.13,1.27,2.52-4.3,1.95,9.76.16,5.11.2-9.94,3.23-10.07,2.92-10.85,1.28h-4.08l-3.84,1.44-5.15,3.91-7.96,2.6-2.56.15-4.94.91-5.32.87-3.17,2.29-.05,2.6-1.88,2.43-6.04,2.96,1.49,2.9-1.67,3.06-1.89,3.62-5.22.23-5.47-3.02-7.42-.02-3.59-2.03-2.48-3.62-6.42-4.61-1.88-2.41-.51-3.32-5.12-3.42,1.33-2.73-2.48-1.3,3.67-4.33,5.58-1.38,1.47-1.55.77-2.89-4.24,1.31-2.01.55-3.32.53-4.55-1.21-.25-2.52,1.45-1.97,3.44-.06,7.56.98-6.38-2.35-3.32-1.27-3.68.52-3.09-.92,4.14-3.45-2.25-1.38-2.93-2.57-4.47-3.93-4.71-1.44.04-1.55-9.94-2.17-7.87-.27-9.91.15-9.03.28-4.31-1.18-6.43-2.33,9.72-1.17,7.46-.19-15.85-.97-8.36-1.51.52-1.44,14.02-1.79,13.58-1.78,1.43-1.34-10.01-1.34,3.24-1.47,12.82-2.59,5.39-.4-1.53-1.66,8.78-.98,11.39-.58,11.38-.03,4.04,1.15,9.83-2.04,8.84,1.39,5.2.29,7.7,1.2-8.8-1.99.51-1.59v.04Z"/>
    <path class="cls-4" d="M922.45,532.11l2.39,1.17,3.51.46.12.7-1.03,1.69-5.7.24-.09-1.97.55-1.53.25-.76h0Z"/>
    <path class="cls-4" d="M1130.08,384.88l.43-.87,3.19-.83,2.59-.13,1.16-.46,1.4.46-1.36,1-3.86,1.62-3.11,1.07-.07-1.12-.37-.73h0Z"/>
    <path class="cls-4" d="M727.57,457.82l1.77-1.83,1.45,1.02.63,1.58,1.67.27,2.33.7,1.99-.27,3.31-1.89v-13.69l1,.55,2.2,3.52-.35,2.26.83,1.3,2.65-.38,1.85-1.66,1.76-1.11.91-1.77,1.8-.86,1.56.45,1.77,1.04,3.01.18,2.37-.87.37-1.15.64-1.77,2.03-.29,1.11-1.39,1.24-2.46,3.32-2.77,5.24-2.73,1.51.04,1.79.63,1.25-.45,1.97.37,1.77,5.22.96,2.63-.65,4.13.31,1.33-1.87-.68-1.07.26-.35,1.08-1.01,1.39.03,1.28,2.21,2.01,2.17-.4.75-1.65,2.81.03-.93,2.7-.43,3.08-.96,1.67-2.53,1.87-.72.54-1.57,1.88-1.03,1.9-2.11,2.66-4.19,3.82-2.61,2.23-2.8,1.69-3.87,1.44-1.88.19-.48,1.03-2.25-.55-1.84.71-4.02-.71-2.24.45-1.53-.19-3.82,1.46-3.17.59-2.28,1.4-1.69.09-1.56-1.32-1.25-.07-1.6-1.66-.17.51-.49-1,.03-2.17-1.2-2.48,1.19-.68-.09-2.84-2.43-3.47-1.85-3.14h-.01l-2.65-4.82h-.01ZM774.38,459.23l-1.61-1.14-1.73.75-2.01,1.46-1.97,2.35,2.79,2.85,1.32-.37.68-1.18,2.07-.58.63-1.2,1.13-1.81-1.28-1.12h-.02Z"/>
    <path class="cls-4" d="M774.38,459.23l1.28,1.12-1.13,1.81-.63,1.2-2.07.58-.68,1.18-1.32.37-2.79-2.85,1.97-2.35,2.01-1.46,1.73-.75,1.61,1.14h.02Z"/>
    <path class="cls-4" d="M232.97,231.37l4.22-.29,4.71-.4-.35.73,5.59,1.8,8.46,2.61,7.36-.03h2.95v-1.53h6.42l1.36,1.32,1.89,1.17,2.2,1.63,1.23,1.94.92,2.04,1.92,1.12,3.07,1.11,2.33-2.93,3.03-.07,2.61,1.48,1.85,2.53,1.28,2.17,2.19,2.11.81,2.6,1.04,1.74,2.89,1.15,2.63.82,1.44-.11-1.43,3.25-.65,2.67-.27,4.96-.36,1.81.64,2.02,1.15,1.81.75,2.87,2.45,2.76.87,2.11,1.45,1.83,3.94.98,1.52,1.55,3.26-1.03,2.83-.38,2.77-.66,2.33-.63,2.35-1.51.89-2.16.29-3.11.64-1.09,2.51-.97,3.92-.86,3.28.13,2.25-.31.88.78-.12,1.79-1.99,2.2-.88,2.26.68.65-.56,1.6-.92,2.89-.95-.95-.77.06-.71.05-1.32,2.24-.68-.44-.44.17.03.55-3.43-.04h-3.46v2.09h-1.68l1.37,1.25,1.37.85.41.8.6.23-.09,1.26h-4.76l-1.77,3.03.52.7-.43.87-.09,1.08-4.19-3.99-1.92-1.2-3.01-.97-2.08.27-2.97,1.4-1.87.36-2.61-.98-2.77-.7-3.47-1.7-2.77-.52-4.19-1.72-3.11-1.77-.93-.99-2.07-.22-3.79-1.17-1.55-1.69-3.99-2.1-1.85-2.34-.88-1.81,1.24-.36-.39-1.06.85-.96v-1.28l-1.23-1.67-.33-1.47-1.25-1.87-3.26-3.68-3.74-2.9-1.8-2.31-3.17-1.51-.68-.91.56-2.29-1.89-.87-2.19-1.8-.92-2.58-1.99-.3-2.16-1.95-1.73-1.81-.16-1.15-1.99-2.8-1.32-2.83.07-1.42-2.68-1.47-1.24.16-2.12-1.02-.59,1.51.61,1.78.36,2.78,1.27,1.52,2.75,2.55.61.87.56.26.49,1.27.65-.05.75,2.39,1.13.94.79,1.32,2.32,1.88,1.23,3.45,1.11,1.62,1.03,1.74.2,1.95,1.79.13,1.49,1.68,1.33,1.66-.08.66-1.56,1.36-.65-.02-.99-2.25-2.41-2.11-2.68-1.79-1.89-.94.12-2.71-.56-2.01-1.76-1.15-2.55-1.66-.49.48-.93-.97-2.28-.9-2.19-2.15.27-.28,1.53.21,1.37-1.39.13-1.67-2.85-2.65-2.17-1.02-1.36-2.31-1.37-2.43-1.72-2.96-1.51-3.33v-.03Z"/>
    <path class="cls-4" d="M453.47,463.9l2.4-.4,3.72,2.87,1.37-.11,3.82,2.38,2.91,2.05,2.13,2.52-1.63,1.76,1.03,2.09-1.61,2.33-4.18,2.06-2.73-.74-2.01.4-3.42-1.59-2.52.12-2.25-2.05.28-2.4.81-.83-.04-3.69.99-3.81.93-2.97h0Z"/>
    <path class="cls-4" d="M469.23,477.06l-1.03-2.09,1.63-1.76-2.13-2.52-2.91-2.05-3.82-2.38-1.37.11-3.72-2.87-2.4.4,4.94-5.06,4.19-3.59,2.48-1.51,3.12-2.04.08-2.96-1.85-2.14-1.84.71.72-2.14.51-2.2v-2.04l-1.33-.67-1.39.6-1.37-.16-.44-1.43-.35-3.39-.69-1.11-2.49-1-1.52.73-3.91-.71.24-5.03-1.09-2.06,1.16-.77-.36-2.11,1.03-1.62.65-2.92-.88-2.3-2.01-1.04-.4-1.46.55-2.14-7.11-.15-1.43-4.32,1.08-.06-.04-1.6-.73-1.08-.16-2.14-2.15-1.1-2.33.04-1.53-1.08-2.51-.73-1.45-1.38-4.15-.61-4.03-3.32.31-2.48-.45-1.42.39-2.78-4.84.63-1.96,1.39-3.24,1.5-.83,1.12-1.91.08-2.75-.31-2.09.64-1.68-.43.24-5.63-3.04,2.18-3.27-.09-1.4-1.98-2.45-.21.79-1.59-2.07-2.25-1.53-3.34.97-.68v-1.57l2.24-1.07-.37-2,.95-1.29.27-1.72,4.24-2.52,3.03-.71.49-.56,3.35.18,1.67-10.16.08-1.61-.57-2.13-1.64-1.35v-2.7l2.09-.61.75.38.12-1.42-2.16-.38-.05-2.32,7.22.08,1.23-1.27,1.03,1.17.73,2.19.69-.46,2.04,1.96,2.88-.24.72-1.14,2.75-.87,1.53-.61.43-1.57,2.64-1.05-.2-.78-3.13-.32-.52-2.33.16-2.48-1.67-.96.69-.34,2.75.48,2.95.93,1.07-.88,2.67-.58,4.14-1.39,1.36-1.41-.49-1.05,1.93-.16.85.85-.48,1.62,1.28.56.84,1.72-1.03,1.31-.59,3.15.95,1.88.27,1.72,2.28,1.74,1.83.18.4-.73,1.17-.16,1.68-.65,1.2-.98,2.05.31.89-.13,2.01.3.33-.75-.61-.74.37-1.07,1.49.33,1.75-.38,2.12.78,1.61.77,1.15-1,.83.16.51,1.04,1.77-.26,1.43-1.4,1.13-2.73,2.19-3.39,1.27-.18.92,2.05,2.07,6.48,1.99.61.09,2.56-2.77,3.05,1.15,1.12,6.55.58.13,3.72,2.81-2.43,4.66,1.33,6.16,2.26,1.8,2.17-.6,2.05,4.31-1.14,7.2,1.96,5.54-.14,5.48,3.07,4.74,4.15,2.85,1.07,3.16.15,1.35,1.17,1.25,4.72.61,2.25-1.47,6.13-1.89,2.41-5.22,5.16-2.36,4.19-2.75,3.22-.92.07-1.04,2.73.27,6.94-1.03,5.71-.4,2.45-1.17,1.46-.65,4.95-3.76,4.84-.63,3.83-3,1.61-.87,2.23h-4.03l-5.83,1.41-2.6,1.65-4.15,1.09-4.36,2.95-3.13,3.68-.55,2.77.61,2.04-.68,3.74-.84,1.81-2.6,2.04-4.11,6.52-3.26,2.94-2.52,1.74-1.69,3.52-2.44,2.11-.06-.08Z"/>
    <path class="cls-4" d="M409.36,392.51l2.75.31,1.91-.08.83-1.12,3.24-1.5,1.96-1.39,4.84-.63-.39,2.78.45,1.42-.31,2.48,4.03,3.32,4.15.61,1.45,1.38,2.51.73,1.53,1.08,2.33-.04,2.15,1.1.16,2.14.73,1.08.04,1.6-1.08.06,1.43,4.32,7.11.15-.55,2.14.4,1.46,2.01,1.04.88,2.3-.65,2.92-1.03,1.62.36,2.11-1.16.77-.05-1.14-3.46-1.89-3.44-.06-6.46,1.08-1.77,3.26-.09,1.99-1.47,4.44-.6-.8-4.22-.15-1.45,2.98-2.17-2.68-4.86-.9-3.08,3.35-2.67.51-1.45-5.11-2-4.16,1.17-3.59-1.95-1.57-.49-2.67-1.81-2.52,2.33-4-1.59-3.11.84-1.25-.65-1.37,1.44-1.85.08-3.15.17-2.6.8-1.25-3.2-5.96h.02Z"/>
    <path class="cls-4" d="M408.01,367.86l-3.35-.18-.49.56-3.03.71-4.24,2.52-.27,1.72-.95,1.29.37,2-2.24,1.07v1.57l-.97.68,1.53,3.34,2.07,2.25-.79,1.59,2.45.21,1.4,1.98,3.27.09,3.04-2.18-.24,5.63,1.68.43,2.09-.64,3.2,5.96-.8,1.25-.17,2.6-.08,3.15-1.44,1.85.65,1.37-.84,1.25,1.59,3.11-2.33,4-.99,1.9-1.91.95-3.72-2.13-.32-1.52-7.35-3.72-6.64-4.05-2.85-2.29-1.53-3.06.61-1.07-3.15-4.86-3.66-6.84-3.5-7.38-1.52-1.69-1.16-2.73-2.88-2.42-2.64-1.5,1.2-1.66-1.79-3.53,1.15-2.6,2.95-2.34.44,1.54-1.05.88.11,1.35,1.52-.29,1.51.4,1.55,1.87,2.09-1.52.71-2.5,2.27-3.22,4.46-1.46,4.04-3.88,1.15-2.41-.51-2.82.99-.35,2.45,1.76,1.19,1.75,1.72.95,2.17,3.89,2.76.46,2.04-.98,1.35.65,2.21-.32,2.84,1.73-2.39,3.78,1.11.09,1.85,1.97v.04Z"/>
    <path class="cls-4" d="M419.19,347.29l-.69.46-.73-2.19-1.03-1.17-1.23,1.27-7.22-.08.05,2.32,2.16.38-.12,1.42-.75-.38-2.08.61v2.7l1.63,1.35.57,2.13-.08,1.61-1.67,10.16-1.85-1.97-1.11-.09,2.39-3.78-2.84-1.73-2.21.32-1.35-.65-2.04.98-2.76-.46-2.17-3.89-1.72-.95-1.19-1.75-2.45-1.76-.99.35-1.59-.88-1.83-1.22-1.05.59-3.13-.51-.91-1.6-.69.06-3.71-2.12-.49-1.15,1.37-.28-.16-1.86.87-1.34,1.84-.25,1.56-2.33,1.41-1.94-1.36-.88.69-2.15-.83-3.39.79-.97-.59-3.14-1.49-1.98.48-1.8,1.19.27.69-1.1-.85-2.18.45-.54,1.91.11,2.79-2.58,1.52-.4.04-1.22.68-3.14,2.12-1.72,2.33-.07.29-.77,2.91.31,2.91-1.87,1.45-.83,1.79-1.79,1.31.23.97.98-.72,1.25-2.37.62-.95,1.85-1.43,1.06-1.08,1.38-.45,2.65-1.03,2.16,1.92.25.47,1.7.83.82.28,1.49-.44,1.37.13.77.92.31.88,1.3,4.76-.36,2.15.47,2.61,3.19,1.49-.4,2.67.2,2.11-.43,1.32.64-.67,1.99-.83,1.25-.29,2.65.75,2.46,1.05,1.1.12.83-1.87,1.84,1.33.82.99,1.3,1.13,3.69.02.02Z"/>
    <path class="cls-4" d="M380.37,319.8l-.45.54.85,2.18-.69,1.1-1.19-.27-.48,1.8-1.24-1.07-.79-2,.91-.99-.93-.25-.69-1.23-1.84-1.03-1.63.24-.75,1.29-1.49.93-.81.13-.36.77,1.76,2.01-1,.48-.53.55-1.73.19-.64-2.21-.48.63-1.23-.22-.75-1.49-1.52-.24-.96-.43h-1.59l-.11.81-.43-.56.19-.73.31-.75-.13-.67.55-.44-.77-.55v-1.49l1.41-.33,1.33,1.33-.08.79,1.48.16.35-.3,1.03.91,1.81-.26,1.59-.94,2.24-.75,1.27-1.1,2.04.21-.13.36,2.07.13,1.65.64,1.2,1.11,1.4,1.03-.02-.02Z"/>
    <path class="cls-4" d="M361.12,316.48l-1.43.33v1.49l.79.55-.55.44.13.67-.31.75-.19.73-2.01-.82-.75-.78.43-.65-.15-.82-1.03-.89-1.45-.73-1.27-.48-.25-1.09-.97-.66.24,1.08-.73.88-.85-1.03-1.19-.36-.51-.75.03-1.12.48-1.17-1.04-.52.85-.71.56-.48,2.44.98.84-.48,1.19.31.61.76,1.09.25.88-.79.93,2.01,1.44,1.49,1.73,1.58.02.03Z"/>
    <path class="cls-4" d="M357.01,311.39l-.88.79-1.09-.25-.61-.76-1.19-.31-.84.48-2.44-.98-.56.48-1.28-1.17-1.73-1.49-.81-1.25-1.56-1.16-1.87-1.67.41-.57.61.55.28-.26,1.15-.16.47-.85.55-.03-.08-1.82.87-.09.77.03.8-.99,1.09.75.39-.46.68-.44,1.29-1.02.05-.76.36.03.48-.88.39-.11.63.56.75.17.81-.48h.93l1.29-.48.51-.51,1.27.08-.32.36-.19.83.39,1.35-.85,1.27-.4,1.49-.12,1.64.2.95.09,1.67-.57.36-.35,1.59.25.98-.75.95.16,1,.57.61v-.02Z"/>
    <path class="cls-4" d="M358.89,296.36l-1.27-.08-.51.51-1.29.48h-.93l-.81.48-.75-.17-.63-.56-.39.11-.48.88-.36-.03-.05.76-1.29,1.02-.68.44-.39.46-1.09-.75-.8.99-.77-.03-.87.09.08,1.82-.55.03-.47.85-1.15.16-.64-1.16-1.12-.32.25-1.49-.51-.4-.76-.26-1.63.44-.13-.5-1.12-.6-.8-.74-1.09-.31.77-.94-.29-.73.27-.71,1.75-1.04,1.69-1.41.39.14.81-.65,1.05-.05.35.3.57-.18,1.72.33,1.71-.09,1.2-.41.43-.41,1.19.19.88.25.97-.09.73-.32,1.69.51.59.08,1.13.69,1.07.83,1.35.57.97,1.02h0Z"/>
    <path class="cls-4" d="M335.89,298.48l1.09.31.8.74,1.12.6.13.5,1.63-.44.76.26.51.4-.25,1.49-.41.87-2.15-.06-1.33-.36-1.53-.73-2.05-.23-1.05-.8.12-.54,1.27-.93.69-.41-.2-.43.87-.23h-.02Z"/>
    <path class="cls-4" d="M325.25,298.05l.09-1.08.43-.87-.52-.7,1.77-3.02h4.76l.09-1.27-.6-.23-.41-.8-1.37-.85-1.37-1.24h1.67v-2.09h3.47l3.43.04-.03,2.94-.29,4.18h1.11l1.2.67.32-.55,1.09.47-1.69,1.41-1.75,1.04-.27.71.29.73-.77.94-.87.23.2.43-.69.41-1.27.93-.12.54-1.89-.65-2.32-.07-1.69-.73-1.99-1.53h-.01Z"/>
    <path class="cls-4" d="M336.68,285.94l-.03-.55.44-.17.68.44,1.32-2.24.71-.05v.55l.72.02-.07,1-.6,1.61.32.57-.39,1.33.24.35-.43,1.88-.73.98-.67.12-.73,1.29h-1.11l.29-4.18.03-2.94h.01Z"/>
    <path class="cls-4" d="M441.95,332.66l.49,1.05-1.36,1.41-4.14,1.39-2.67.58-1.07.88-2.95-.93-2.75-.48-.69.34,1.67.96-.16,2.48.52,2.33,3.13.32.2.78-2.64,1.05-.43,1.57-1.53.61-2.75.87-.72,1.14-2.88.24-2.04-1.96-1.13-3.69-.99-1.3-1.33-.82,1.87-1.84-.12-.83-1.05-1.1-.75-2.46.29-2.65.83-1.25.67-1.99-1.32-.64-2.11.43-2.67-.2-1.49.4-2.61-3.19-2.15-.47-4.76.36-.88-1.3-.92-.31-.13-.77.44-1.37-.28-1.49-.83-.82-.47-1.7-1.92-.25,1.03-2.16.45-2.65,1.08-1.38,1.43-1.06.95-1.85,2.37-.62-.11.87-2.17.43,1.21,1.68-.04,1.94-1.64,2.16,1.4,2.94,1.6-.24.83-2.68-1.15-1.3-.19-2.8,4.62-1.51-.51-1.74,1.29-1.17,1.33,2.6,2.6.06,2.4,2.07.15,1.22,3.32.04,3.96-.38,2.12,1.66,2.84.46,2.07-1.16.05-.93,4.59-.22,4.44-.06-3.15,1.1,1.27,1.75,2.96.28,2.8,1.83.6,2.97,1.92-.08,1.45.87-2.93,2.18-.32,1.35,1.27,1.38-.92.69-2.28.6.07,1.71-1,1.02,2.51,2.81v-.06Z"/>
    <path class="cls-4" d="M457.49,344.89l-.89.13-2.05-.31-1.2.98-1.68.65-1.17.16-.4.73-1.83-.18-2.28-1.74-.27-1.72-.95-1.88.59-3.15,1.03-1.31-.84-1.72-1.28-.56.48-1.62-.85-.85-1.93.16-2.51-2.81,1-1.02-.07-1.71,2.28-.6.92-.69-1.27-1.38.32-1.35,2.93-2.18,2.44,1.36,2.28,2.41.11,1.91,1.4.09,1.99,1.81,1.45,1.29-.59,3.34-2.25.97.2.87-.68,1.91,1.64,2.69h1.19l.49,2.09,2.25,3.22h0Z"/>
    <path class="cls-4" d="M464.96,343.36l-2.12-.78-1.75.38-1.49-.33-.37,1.07.61.74-.33.75-2.01-.3-2.25-3.22-.49-2.09h-1.19l-1.64-2.7.68-1.91-.2-.87,2.25-.97.59-3.34,4.44.75.4-.67,3-.27,3.98,1-1.92,3.19.29,2.53,1.45,2.2-.65,1.59-.32,1.69-.95,1.56h0Z"/>
    <path class="cls-4" d="M475.58,336.53l-2.19,3.39-1.13,2.73-1.43,1.4-1.77.26-.51-1.04-.83-.16-1.15,1-1.61-.77.95-1.56.32-1.69.65-1.59-1.45-2.2-.29-2.53,1.92-3.19,1.27.41,2.72.88,3.92,3.13.61,1.52h0ZM689.93,168.64l1.75.97,5.34.68-1.87,2.53-.47,2.64-1.03.63-1.68-.34.12.94-2.71,2.08-.07,1.67,1.77-.58,1.27,1.62-.15,1.05,1.09,1.39-1.29,1.13.96,2.87,2.01.47-.43,1.61-3.36,2.09-7.31-1-5.39,1.2-.43,2.23-4.3.48-4.18-1.67-1.35.8-6.82-1.68-1.48-1.44,1.92-2.22.71-7.38-3.83-3.89-2.73-1.88-5.66-1.42-.37-2.7,4.8-.81,6.22.95-1.17-4.2,3.51,1.59,8.62-2.89,1.12-3.04,3.24-.75.53,1.3,1.72.06,1.72,1.49,2.59,1.75,1.91-.29,3.24,1.69.83.33,1.07-.08.02.02ZM699.41,193.97l2.39-1.42.63,3.18-1.23,2.86-1.68-.75-.85-2.5.75-1.37h-.01Z"/>
    <path class="cls-4" d="M387.71,352.49l.51,2.82-1.15,2.41-4.04,3.88-4.46,1.46-2.27,3.22-.71,2.5-2.09,1.52-1.55-1.87-1.51-.4-1.52.29-.11-1.35,1.05-.88-.44-1.54,1.97-2.77-.8-1.62-1.41,1.72-2.21-1.62.75-1.05-.63-3.36,1.29-.56.69-2.31,1.4-2.39-.27-1.51,2.04-.79,2.53-1.48,3.71,2.12.69-.06.91,1.6,3.13.51,1.05-.59,1.83,1.22,1.59.88h.03Z"/>
    <path class="cls-4" d="M421.39,283.32l1.89.33.67.74-.95.93-2.79-.03-2.17.13-.21-1.59.53-.54,3.03.02h0Z"/>
    <path class="cls-4" d="M379.57,283.41l2.49.33,1.96.89.61,1.01-2.6.07-1.12.62-2.08-.6-2.12-1.35.45-.85,1.55-.26.85.13h.01Z"/>
    <path class="cls-4" d="M362.15,266l3.2.26,2.92.04,3.48,1.26,1.47,1.35,3.47-.41,1.31.87,3.13,2.3,2.31,1.67,1.23-.05,2.2.75-.27,1.05,2.73.15,2.8,1.52-.44.87-2.47.47-2.49.18-2.55-.29-5.31.36,2.48-2.06-1.51-.97-2.39-.24-1.28-1.07-.88-2.11-2.09.14-3.46-1-1.11-.78-4.83-.57-1.29-.72,1.39-.93-3.64-.19-2.65,1.93-1.53.05-.53.9-1.84.41-1.57-.35,1.95-1.15.8-1.34,1.68-.82,1.89-.73,2.8-.35.89-.41h0Z"/>
    <path class="cls-4" d="M782.59,434.38l-1.97-.37-1.25.45-1.79-.63-1.51-.04-2.36-1.67-2.87-.56-1.09-2.35v-1.3l-1.59-.4-4.2-4.07-1.16-2.14-.75-.66-1.43-2.97,4.15.41,1.2.43,1.25-.08,2.05-2.4,3.21-3.05,1.33-.29.44-1.29,2.12-1.47,2.8-.51.24,1.38,3.09-.08,1.71.78.8.92,1.76.27,1.93,1.19v4.69l-.72,2.57-.16,2.77.6,1.1-.41,2.18-.56.33-.99,2.67-3.9,4.21.03-.02Z"/>
    <path class="cls-4" d="M776.06,433.79l-5.24,2.73-3.32,2.77-1.24,2.46-1.11,1.39-2.03.29-.64,1.77-.37,1.15-2.37.87-3.01-.18-1.77-1.04-1.56-.45-1.8.86-.91,1.77-1.76,1.11-1.85,1.66-2.65.38-.83-1.3.35-2.26-2.2-3.52-1-.55v-10.82l3.66-.13.11-13.2,2.76-.12,5.71-1.3,1.41,1.52,2.36-1.45h1.13l2.08-.85.67.28,1.43,2.97.75.66,1.16,2.14,4.2,4.07,1.59.4v1.3l1.09,2.35,2.87.56,2.36,1.67-.03.04Z"/>
    <path class="cls-4" d="M740.73,443.71v13.69l-3.31,1.89-1.99.27-2.33-.7-1.67-.27-.63-1.58-1.45-1.02-1.77,1.83-2.76-2.8-1.44-2.71-.83-3.61-.91-2.68-1.24-5.71-.09-4.43-.47-2.02-1.44-1.52-1.92-3.07-1.95-4.44-.8-2.33-3.01-3.62-.23-2.84,1.79-.71,2.21-.63,2.4.11,2.21,1.67.56-.26,15.02-.16,2.56,1.78,8.98.52,6.8-1.51,3.04-.84,2.4.21,1.45.83.03.31-2.08.83h-1.13l-2.36,1.46-1.41-1.52-5.71,1.3-2.76.12-.11,13.2-3.66.13v10.82h0Z"/>
    <path class="cls-4" d="M605.07,301.55l-1.53-2.89-1.84-1.32,1.63-.7,1.79-2.6.88-1.91,1.28-1.19,1.84.32,1.8-.81,2.07-.04,1.77,1.09,2.45.98,2.24,2.73,2.45,2.54.17,2.31.72,2.12,1.39,1.04.32,1.44-.17,1.15-.53.21-2.01-.29-.28.41-.81.08-2.67-.9-1.79-.04-6.84-.16-1,.42-1.23-.12-1.96.6-.61-2.84,3.38.08.89-.52.67-.03,1.37-.85,1.59.78,1.61.07,1.6-.83-.75-1.07-1.23.62-1.15-.02-1.47-.91-1.17.06-.84.88-4.03.11h0Z"/>
    <path class="cls-4" d="M624.33,305.82l.17-1.15-.32-1.44-1.39-1.04-.72-2.12-.17-2.31,1.24-.67.63-2.18,1.17-.09,2.59,1.03,2.09-.73,1.43.24.56-.82,14.86-.06.83-2.6-.64-.46-1.79-15.99-1.79-15.99,5.67-.06,12.5,8.08,12.5,8.08.88,1.74,2.31,1.06,1.72.6.04,2.36,4.11-.36v8.54l-2.01,2.47-.32,2.28-3.3.59-5.06.32-1.36,1.32-2.37.14-2.37.02-.93-.71-2.04.53-3.46,1.54-.71,1.15-2.88,1.66-.51.95-1.55.75-1.79-.5-1.01.9-.55,2.54-2.95,3.07.09,1.25-1.01,1.57.24,2.15-1.52.55-.87.46-.57-1.59-1.07.42-.64-.07-.68,1.08-2.87-.03-1.03-.56-.48.34-1.13-1.07.2-1.1-.47-.43-.79.36.15-1.2.76-.95-1.52-1.56-.44-1.02-.83-.82-.73-.09-.89.52-1.2.5-1.01.8-1.59-.3-1.03-.94-.61-.12-.97.49h-.59l-.21-1.35v.03Z"/>
    <path class="cls-4" d="M603.78,274.11l.8-1.24,14.51.03-.71-5.35.91-1.91,3.48-.33-.12-9.48,12.15.19v-5.61l13.95,8.98-5.67.06,1.79,15.99,1.79,15.99.64.46-.83,2.6-14.86.06-.56.82-1.43-.24-2.09.73-2.59-1.03-1.17.09-.63,2.18-1.24.67-2.45-2.54-2.24-2.73-2.45-.98-1.77-1.09-2.07.04-1.8.81-1.84-.32-1.28,1.19-.32-1.99,1.04-1.83.45-3.49-.4-3.66-.45-1.84.37-1.85-.96-1.76-1.95-1.6v-.02Z"/>
    <path class="cls-4" d="M676.97,328.73l-3.05.43-.92-2.55.17-8.51-.75-.77-.15-1.82-1.28-1.3-1.13-1.09.47-1.95,1.28-.42.75-1.62,1.81-.35.81-1.1,1.24-1.09h1.33l2.83,2.12-.15,1.24.83,2.2-.72,1.49.39,1-1.8,2.3-1.15,1.14-.69,2.33.09,2.36-.21,5.97h0Z"/>
    <path class="cls-4" d="M722.04,267.21l.91,5.76,1.39.96.05,1.18,1.55,1.27-.8,1.59-1.43,7.52-.2,4.82-4.72,3.49-1.6,4.88,1.53,1.37v2.38l2.37.08-.37,1.75-1.04.21-.12,1.18-.69.08-2.51-4.06-.87-.15-2.89,2.08-2.87-1.09-2-.21-1.07.52-2.17-.11-2.19,1.58-1.88.09-4.5-1.91-1.75.91-1.89-.06-1.39-1.4-3.72-1.39-3.98.44-.96.8-.52,2.13-1.07,1.49-.25,3.31-2.83-2.13h-1.33l-1.24,1.1.08-2.54-4.27-.84-.12-1.79-2.08-2.42-.49-1.69.29-1.79,2.37-.14,1.36-1.32,5.06-.32,3.3-.59.32-2.28,2.03-2.47v-8.54l5.22-1.65,10.73-7.28,12.7-7.06,5.86,1.6,2.08,2.03,2.63-1.38h-.02Z"/>
    <path class="cls-4" d="M676.97,328.73l.21-5.97-.09-2.36.69-2.33,1.15-1.14,1.8-2.3-.39-1,.72-1.49-.83-2.2.15-1.24.25-3.31,1.07-1.49.52-2.13.96-.8,3.98-.44,3.72,1.39,1.39,1.4,1.89.06,1.75-.91,4.5,1.91,1.88-.09,2.19-1.58,2.17.11,1.07-.52,2,.21,2.87,1.09,2.89-2.08.87.15,2.51,4.06.69-.08,1.47,1.47-.41.67-.19,1.23-3.12,2.87-.99,2.36-.52,1.93-.79.83-.75,2.6-1.97,1.52-.57,1.88-.84,1.49-.35,1.54-2.55,1.25-2.08-1.52-1.4.06-2.2,2.16-1.08.04-1.76,3.57-.95,2.62-3.86,1.34-1.4-.19-1.43.83-2.96-.08-1.99-2.32-1.21-2.68-2.63-2.44-2.79.04h-3.27.01Z"/>
    <path class="cls-4" d="M720.72,304.28l1.48,2.37.24,2.46-.13,2.46,2.01,3.37-2.07-.04-1.04.26-1.69-.38-.8,1.75,2.19,2.16,1.61.63.52,1.54,1.16,2.55-.57,1-1.87,3.76-.89.67-.28,2.87.37,1.56-.31,1.1,1.76,1.94.31,1.33,1.37,1.91,1.69,1.19.16,1.69.39,1.08-.27,2-2.93-.88-3-.98-4.67-.14-.47-.2-2.19.48-2.25-.5-1.76.24-6.03-.08.53-2.92-1.44-2.45-1.69-.63-.75-1.66-.96-.53.05-1.02.95-2.62,1.76-3.57,1.08-.04,2.2-2.16,1.4-.06,2.08,1.52,2.55-1.25.35-1.54.84-1.49.57-1.88,1.97-1.52.75-2.6.79-.83.52-1.93.99-2.36,3.12-2.87.19-1.23.41-.67-1.47-1.47.12-1.18,1.04-.21h.01Z"/>
    <path class="cls-4" d="M670.33,311.18l-.47,1.95,1.13,1.09,1.28,1.3.15,1.82.75.77-.17,8.51.92,2.55-2.99.79-.83-1.3-.99-2.35-.29-1.84.81-3.34-.92-1.35-.36-2.92v-2.69l-1.53-1.91.27-1.15,3.24.08h0Z"/>
    <path class="cls-4" d="M667.09,311.1l-.27,1.15,1.55,1.91v2.69l.35,2.92.92,1.35-.81,3.34.29,1.84.99,2.35.83,1.3-5.82,2.17-2.05,1.27-3.34,1.07-3.31-1.05.17-1.46-1.61-3.19.97-4.18,1.56-3.11-.99-5.27-.51-2.78.09-2.11,6.43-.17,1.64.27,1.2-.6,1.71.29h.01Z"/>
    <path class="cls-4" d="M637.25,314.11l.48-.34,1.03.56,2.87.03.68-1.08.64.07,1.07-.42.57,1.59.87-.46,1.52-.55,1.67.81.65,1.22,1.67.78,1.29-.93,1.73-.14,2.53.95.99,5.27-1.56,3.11-.97,4.18,1.61,3.19-.17,1.46-1.68.04-2.59-.73-2.37.04-4.39.65-2.57,1.07-3.67,1.36-.72-.09.29-3.05.35-.46-.11-1.46-1.57-1.55-1.17-.25-1.08-1.02.8-1.64-.37-1.79.17-1.08h.59l.23-1.62-.29-.71.36-.51,1.37-.45-.92-2.97-.85-1.54.31-1.25.73-.29h-.02Z"/>
    <path class="cls-4" d="M616.24,305.29l1.79.04,2.67.9.81-.08.28-.41,2.01.29.53-.21.21,1.35h.59l.97-.5.61.12,1.03.94,1.59.3,1.01-.8,1.2-.5.89-.52.73.09.83.82.44,1.02,1.52,1.56-.76.95-.15,1.2.79-.36.47.43-.2,1.1,1.13,1.07-.73.29-.31,1.25.85,1.54.92,2.97-1.37.45-.36.51.29.71-.23,1.62h-.59l-1.04-.09-.76,1.49-1.04-.02-.73-.79.25-1.49-1.55-2.27-.97.42-.79.08-1.03.21.04-1.36-.59-.97.12-1.07-.8-1.56-1.04-1.32h-2.96l-.87.7-1.01.08-.64.8-.43,1.02-1.97,1.63-1.63-2.19-1.44-1.46-.95-.48-.92-.74-.43-1.64-.55-.82-1.07-.61,1.64-1.81,1.12.07.97-.62h.81l.59-.5-.32-1.23.41-.39.07-1.25.05.04Z"/>
    <path class="cls-4" d="M605.2,306.04l1.96-.6,1.23.12,1-.42,6.84.16-.07,1.25-.41.39.32,1.23-.59.49h-.81l-.97.63-1.12-.07-1.64,1.81-1.99-1.55-1.56-.24-.84-1.04v-.56l-1.11-.78-.24-.8v-.02Z"/>
    <path class="cls-4" d="M635.73,323.45l-.17,1.08.37,1.79-.8,1.64,1.08,1.02,1.17.25,1.57,1.55.11,1.46-.35.46-.29,3.05-.97.03-3.82-1.77-3.36-2.82-3.16-2.03-2.49-2.39.88-1.19.2-1.08,1.68-2.01,1.72-1.73.79-.08.97-.42,1.55,2.27-.25,1.49.73.79,1.04.02.76-1.49,1.04.09v.02Z"/>
    <path class="cls-4" d="M617.92,318.94l1.97-1.63.43-1.02.64-.8,1.01-.08.87-.7h2.96l1.04,1.33.8,1.56-.12,1.07.59.97-.04,1.36,1.03-.21-1.72,1.73-1.68,2.01-.2,1.08-.88,1.19-1-.28-2.67-1.49-1.92-1.98-.65-1.35-.45-2.74v-.02Z"/>
    <path class="cls-4" d="M646.97,313.5l-.24-2.15,1.01-1.57-.09-1.25,2.95-3.07.55-2.54,1.01-.9,1.79.5,1.55-.75.51-.95,2.88-1.66.71-1.15,3.46-1.54,2.04-.53.93.71,2.37-.02-.29,1.79.49,1.69,2.08,2.42.12,1.79,4.27.84-.08,2.54-.81,1.1-1.81.35-.75,1.62-1.28.42-3.24-.08-1.71-.29-1.2.6-1.64-.27-6.43.17-.09,2.11.51,2.78-2.53-.95-1.73.14-1.29.93-1.67-.78-.65-1.22-1.67-.81-.03-.02Z"/>
    <path class="cls-4" d="M768.43,332.53l-1.21.4-2.37-.09-2.79-.39-1.39.32-.55.9-1.2.11-1.47-.78-4.12,1.85-1.69-.38-.51.29-1.11,2.24-2.76-.72-2.71-.37-2.36-1.37-3.05-1.25-1.99,1.19-1.44,1.88-.33,2.58-2.37-.21-2.51-.62-2.21,1.96-1.95,3.45-.39-1.08-.16-1.69-1.69-1.19-1.37-1.91-.31-1.33-1.76-1.94.31-1.1-.37-1.56.28-2.87.89-.67,1.87-3.76,3.05-.28.69-.95.61.07.92.84,4.67-1.42,1.57-1.44,1.93-1.3-.37-1.3,1.04-.34,3.59.23,3.48-1.71,2.68-4.05,1.88-1.5,2.35-.63.41,1.59,2.13,2.31v1.51l-.59,1.54.24,1.15,1.28,1.07,2.83,1.62,2.03,1.5.03,1.2,2.49,1.93,1.55,1.6.93,2.23,2.77,1.47.59,1.17h.01Z"/>
    <path class="cls-4" d="M735.38,338.94l-.21,2.24-1.11,1.98-.73,2.31-.45,3.29.19,2.1-.6,1.29-.09,1.35-.43,1.19-2.44,1.79-1.69,1.91-1.61,3.6.13,3.05-.95,1.19-2.15,1.81-2.19,2.32-1.39-.66-.23-1.05-2.03-.04-1.27,1.42-.97-.38-1.39-1.27-1.12.63-1.49,1.6-3.04-3.93,2.83-2.04-1.4-2.45,1.27-.93,2.49-.46.31-1.64,1.97,1.77,3.27.16,1.13-1.75.48-2.46-.41-2.89-1.75-2.2,1.6-4.29-.92-.73-2.76.3-1.04-1.91.28-1.62,4.67.14,3,.98,2.93.88.27-2,1.95-3.45,2.21-1.96,2.51.62,2.37.21v-.02Z"/>
    <path class="cls-4" d="M708.79,343.55l1.76-.24,2.25.5,2.19-.48.47.2-.28,1.62,1.04,1.91,2.76-.3.92.73-1.6,4.29,1.75,2.2.41,2.89-.48,2.46-1.13,1.75-3.27-.16-1.97-1.77-.31,1.64-2.49.46-1.27.93,1.4,2.45-2.83,2.04-3.8-3.74-2.45-3.06-2.25-3.83.12-1.23.81-1.19.89-2.7.75-2.75,1.25-.22,5.39.04-.03-4.46v.02Z"/>
    <path class="cls-4" d="M702.76,343.47l6.03.08.03,4.46-5.39-.04-1.25.22-.69-.56,1.28-4.16h-.01Z"/>
    <path class="cls-4" d="M780.91,382.83l1.55.94,1.48.62,2.36.63,2.09,1.11,1.75,1.66.95,3.14-.63,1-.75,3,.71,3.07-1.16,1.29-1.13,3.44,1.96.96-11.25,3.05.35,2.64-2.8.51-2.12,1.47-.44,1.29-1.33.29-3.21,3.05-2.05,2.4-1.25.08-1.2-.43-4.15-.41-.67-.28-.03-.31-1.45-.83-2.4-.21-3.04.84-2.41-2.31-2.51-3.03.17-11.79,7.72.04-.32-1.27.55-1.39-.65-1.74.43-1.79-.39-1.15,1.28.09.2,1.15,1.75-.09,2.35.34,1.24,1.68,2.96.52,2.27-1.17.83,1.94,2.84.51,1.37,1.58,1.52,2.04,2.83.03-.31-4-1.01.67-2.59-1.44-1-.66.45-3.72.65-4.38-.83-1.64,1.05-2.36,1-.45,4.98-.62,1.45.38v.02Z"/>
    <path class="cls-4" d="M788.39,386.13l3.64.69.73,1.03,1.27,1.72,1.03,5.04-1.03,2.82,1.03,4.82,1.29-.06,1.33,1.2,1.55,2.68.32,4.77-1.6.78-1.13,2.57-2.41-2.29-.28-2.62.79-1.72-.21-1.49-1.47-.93-1.03.34-2.12-1.78-1.96-.96,1.13-3.44,1.16-1.29-.71-3.07.75-3,.63-1-.95-3.14-1.75-1.66h0Z"/>
    <path class="cls-4" d="M795.06,394.62l2.79-.3,4.46,1.04.97-.46,2.57-.1,1.32-1.11,2.23.06,4.04-1.44,2.95-2.14.6,1.66-.15,3.69.45,3.26.15,5.79.65,1.82-1.11,2.65-1.44,2.57-2.36,2.3-3.39,1.41-4.18,1.8-4.18,3.98-1.43.68-2.59,2.63-1.53.85-.31,2.64,1.76,2.81.72,2.17.05,1.11.65-.18-.11,3.63-.6,1.72.87.63-.55,1.54-1.55,1.32-3.05,1.25-4.46,2.01-1.63,1.37.32,1.56.95.25-.32,1.95-2.81-.03-.32-1.64-.55-1.66-.31-1.33.65-4.13-.96-2.63-1.77-5.22,3.9-4.21.99-2.67.56-.33.41-2.18-.6-1.1.16-2.77.72-2.57v-4.69l-1.93-1.19-1.76-.27-.8-.92-1.71-.78-3.09.08-.24-1.38-.35-2.64,11.25-3.05,2.12,1.78,1.03-.34,1.47.93.21,1.49-.79,1.72.28,2.62,2.41,2.29,1.13-2.57,1.6-.78-.32-4.77-1.55-2.68-1.33-1.2-1.29.06-1.03-4.82,1.03-2.82.03-.02Z"/>
    <path class="cls-4" d="M785.84,450.99l-.75,1.65-2.17.4-2.21-2.01-.03-1.28,1.01-1.39.35-1.08,1.07-.26,1.87.68.55,1.66.32,1.64h0Z"/>
    <path class="cls-4" d="M715.15,369.64l-1.35.78-.6.95-.12,1.62-.95.39-.99-2.78,1.49-1.6,1.12-.63,1.39,1.27h0ZM712.66,374.53l1.53-.5,1.07.07,1.31-.45,10.94.05.91,2.76,1.07,2.22.85,1.2,1.41,1.94,2.45-.29,1.21-.52,2.05.52.56-.93.92-2.16,2.29-.14.2-.65h1.89l-.32,1.32,4.5-.03.07,2.33.75,1.43-.55,2.23.28,2.28,1.24,1.37-.2,4.41.91-.34,1.61.09,2.29-.56,1.69.22.39,1.15-.43,1.79.65,1.74-.55,1.39.32,1.27-7.72-.04-.17,11.79,2.51,3.03,2.41,2.31-6.8,1.51-8.98-.52-2.56-1.78-15.02.16-.56.26-2.21-1.67-2.4-.11-2.21.63-1.79.71-.35-2.33.51-3.26,1.28-3.39.2-1.59,1.2-3.34.88-1.52,2.12-2.42,1.2-1.65.39-2.75-.2-2.1-1.11-1.32-.99-2.25-.91-2.23.2-.77,1.13-1.47-1.12-3.57-.76-2.48-1.85-2.35.35-.72.02.02Z"/>
    <path class="cls-4" d="M779.91,360.87l.21,1.46.8.84.04,1.2-.92.78-1.44,1.93-1.35,1.34-1.53.18-.23-4.47-.93-1.68,2.25.29,1.13-2.11,1.96.24h0Z"/>
    <path class="cls-4" d="M799.37,230.72l-.65,1.17-1.33-.51-.77,2.47.92.41-.95.51-.16.98,1.75-.5.09,1.44-1.85,5.92-.36-.96-2.07-5.41,1.07-1.22-.25-.21.99-1.73.75-2.8.53-.93.11-.04h1.24l.33-.65,1-.05.05,1.52-.51.56.08.03h-.01Z"/>
    <path class="cls-4" d="M799.74,228.62l-1,.05-.33.65h-1.24l1.32-3.03,1.84-2.61.07-.13,1.67.19.6,1.45-2.01,1.4-.91,2.03h-.01Z"/>
    <path class="cls-4" d="M850.58,398.14l.99,1.57.92,2.45.6,4.46.96,1.73-.37,1.78-.65,1.09-1.25-2.18-.71,1.1.71,2.75-.32,1.57-1.03.86-.24,3.14-1.45,4.32-1.83,5.11-2.29,7.02-1.41,5.15-1.67,4.3-3.01.88-3.24,1.57-2.13-.95-2.93-1.32-1.03-1.96-.24-3.29-1.31-2.95-.35-2.67.67-2.67,1.71-.64v-1.24l1.79-2.8.33-2.36-.87-1.76-.69-2.33-.31-3.41,1.29-2.08.51-2.35,1.84-.14,2.07-.76,1.37-.67,1.63-.04,2.11-2.11,3.05-2.28,1.11-1.86-.51-1.59,1.57.45,2.04-2.57.08-2.23,1.23-1.66,1.28,1.59-.02-.02Z"/>
    <path class="cls-4" d="M798.17,235.24l-1.75.5.16-.98.95-.51-.92-.41.77-2.47,1.33.51v2.27l-.55,1.09h0Z"/>
    <path class="cls-4" d="M605.07,301.55l4.03-.11.84-.88,1.17-.06,1.47.91,1.15.02,1.23-.62.75,1.07-1.6.83-1.61-.07-1.59-.78-1.37.85-.67.03-.89.52-3.38-.08.48-1.64h-.01Z"/>
    <path class="cls-4" d="M702.13,239.62l-1.57-6.65-2.28-1.49-.04-.9-3.03-2.21-.32-2.79,2.28-2.07.87-3.05-.59-3.53.76-1.9,4.03-1.5,2.6.45-.12,1.88,3.15-1.36.27.71-1.85,1.82-.03,1.71,1.28.92-.48,3.2-2.44,1.86.71,2.02,1.91.06.93,1.76,1.41.58-.21,2.85-1.8,1.07-1.15,1.19-2.55,1.43.4,1.53-.32,1.57-1.81.86v-.02Z"/>
    <path class="cls-4" d="M634.82,250.41l.08-.71v-.25l-.04-4.39,5.99-2.73,3.7-.56,3.03-1,1.43-1.85,4.32-1.47.16-2.75,2.15-.32,1.68-1.37,4.84-.62.68-1.44-.97-.78-1.28-3.91-.23-2.25-1.39-2.38,3.56-2.03,4-.64,2.33-1.53,3.58-1.13,6.28-.66,6.12-.3,1.87.55,3.5-1.46,3.96-.03,1.51.86,2.53-.22-.76,1.9.59,3.53-.87,3.05-2.28,2.07.32,2.79,3.03,2.21.04.9,2.28,1.49,1.57,6.65,1.2,3.27.2,1.72-.65,3.02.28,1.69-.48,2.03.32,2.33-1.47,1.55,2.19,2.7.15,1.59,1.32,2.07,1.73-.68,2.92,1.72,1.63,2.32-12.7,7.06-10.73,7.28-5.23,1.65-4.11.36-.04-2.36-1.72-.6-2.31-1.06-.88-1.74-12.5-8.08-12.5-8.08-13.94-8.98h0Z"/>
    <path class="cls-4" d="M798.72,231.89l.65-1.17,4.12,1.47,7.26-3.95,1.49,4.52-.71.56-7.42,1.86,3.7,3.71-1.23.63-.61,1.24-2.83.51-.88,1.34-1.6,1.14-4.14-.59-.12-.54,1.85-5.92-.09-1.44.55-1.09v-2.27h.01Z"/>
    <path class="cls-1" d="M858.13,262.09l.65-.18.15,1.02,2.89-.58,3.07.09,2.24.11,2.53-2.51,2.76-2.38,2.35-2.28.69,1.27.51,2.92-1.89.02-.31,2.41.67.51-1.68.73v1.51l-1.09,1.54-.09,1.49-.75.78-11.14-1.87-1.41-3.76-.15-.85h0Z" data-info="United Arab Emirates - 1 Project"/>
    <path class="cls-4" d="M855.28,260.2l-.24-2.7,1-1.94,1.01-.4,1.12,1.16.07,2.17-.81,2.18-1.03.26-1.12-.73Z"/>
    <path class="cls-4" d="M844.78,240.85l.77,1.64-.33.85,1.19,2.79-2.61.1-.92-1.77-3.31-.36,2.72-3.56,2.49.31Z"/>
    <path class="cls-4" d="M812.24,232.75l-1.49-4.52,8.2-3.85,1.4-4.48-.35-2.7,2.03-.92,1.89-2.31,1.59-.58,4.32.48,1.29.94,1.77-.63,2.4,4.42,2.43,1.11.28,2.16-1.85,1.28-.87,2.89,2.57,3.52,4.54,2.03,1.91,2.82-.61,2.68h1.19l.04,1.97,2.04,1.95-2.19-.18-2.49-.31-2.72,3.56-6.88-.29-10.46-7.45-5.51-2.6-4.47-1h0Z"/>
    <path class="cls-4" d="M871.58,267.78l.09-1.49,1.08-1.54v-1.51l1.69-.73-.67-.51.31-2.41,1.89-.02,1.67,2.53,2.07,1.34,2.71.49,2.2.67,1.67,2.13,1,1.23,1.33.47v.83l-1.36,2.21-.59,1.04-1.56,1.19-1.39,2.53-1.68-.19-.77.88-.59,1.88.45,2.48-.35.45h-1.71l-2.32,1.37-.36,1.81-.84.78-2.31-.03-1.45.93v1.49l-1.77,1.03-2.04-.35-2.48,1.25-1.71.21-1.21-2.59-2.89-6.12,11.11-3.71,2.47-7.41-1.69-2.62h0ZM875.47,256.64l-.69-1.27,1.07-1.26.47.32-.35,1.53-.49.68h-.01Z"/>
    <path class="cls-4" d="M1286.63,410.82l2.33,2.13-1.23.49-1.24-1.62.13-.99h.01ZM1285.06,409.99l-.52-1.02-.08-2.84,1.77,1.14.6,2.99-1-.46-.77.2h0Z"/>
    <path class="cls-4" d="M1047.14,306.77l-.88-4.47,2.37-3.09,4.79-.7,3.48.53,3.05,1.46,1.68-2.55,3.28,1.36.85,2.47-.45,4.44-6.23,2.85,1.63,2.25-3.9.27-3.2,1.49-3.11-.55-1.49-1.93-1.88-3.83h0Z"/>
    <path class="cls-4" d="M1056.9,299.04l-3.48-.53-4.79.7-2.37,3.09.88,4.47-3.32-1.7-3.18.07.55-2.91-3.27.02-.29,4.08-2,5.41-1.2,3.27.25,2.68,2.41.11,1.51,3.38.67,3.21,2.07,2.12,2.24.43,1.92,1.92-1.21,1.52-2.44.45-.29-1.91-3.03-1.62-.64.66-1.47-1.42-.63-1.83-1.97-2.09-1.8-1.76-.6,2.18-.71-2.06.4-2.31,1.09-3.55,1.8-3.81,2.03-3.46-1.44-3.38.05-1.72-.43-2.07-2.47-2.95-.88-1.86,1.28-.68,1.35-3.22-1.51-2.45-2.36-2.7-1.79-3.26,1.56-.67,1.69-4.01,2.61-.16,2.16-1.61,2.12-.86,1.6,1.14.21,2.23,2.51.17-.91,3.91.08,3.32,3.91-2.21,1.11.65,2.17-.11.75-1.29,2.8.25,2.81,3.01.24,3.66,2.99,3.23-.16,3.14-1.2,1.67.02.02Z"/>
    <path class="cls-4" d="M1064.92,299.3l-3.28-1.36-1.68,2.55-3.05-1.46,1.2-1.67.16-3.14-2.99-3.23-.24-3.66-2.81-3.01-2.8-.25-.75,1.29-2.17.11-1.11-.65-3.91,2.21-.08-3.32.91-3.91-2.51-.17-.21-2.23-1.6-1.14.79-1.37,3.16-2.41.33.87,1.97.1-.56-4.24,1.92-.54,2.16,2.92,1.67,3.37,4.56.03,1.44,3.23-2.37.97-1.07,1.33,4.44,2.21,3.08,4.38,2.33,3.26,2.8,2.58.93,2.62-.67,3.7v.03Z"/>
    <path class="cls-4" d="M1037.98,276.27l-2.12.86-2.16,1.61-2.61.16-1.69,4.01-1.56.67,1.79,3.26,2.36,2.7,1.51,2.45-1.35,3.22-1.28.68.88,1.86,2.47,2.95.43,2.07-.05,1.72,1.44,3.38-2.03,3.46-1.8,3.81-.36-2.75,1.15-2.83-1.25-2.2.31-4.04-1.51-1.92-1.2-4.43-.67-4.68-1.61-3.07-2.44,1.86-4.2,2.64-2.08-.33-2.29-.87,1.28-4.59-.77-3.47-2.91-4.27.45-1.34-2.17-.48-2.63-3.02-.24-2.99,1.29.56.08-2.66,1.83-.88-.4-1.57.84-1.26.15-3.84,2.89.85,1.65-3.05.19-1.81,2.04-3.11-.11-2.12,4.79-2.56,2.65.67-.31-2.28,1.29-.68-.27-1.4,2.16-.28,1.24,2.18,1.61.88.11,2.83-.15,3.05-3.51,3.09-.44,4.4,3.91-.61.88,3.41,2.35.72-1.08,3.07,2.75,1.39,1.61.68,2.71-1.08.12,1.53-3.16,2.41-.79,1.37h-.01Z"/>
    <path class="cls-4" d="M1053.62,313.07l3.2-1.49,3.9-.27-1.63-2.25,6.23-2.85.45-4.44-.85-2.47.67-3.7-.93-2.62-2.8-2.58-2.33-3.26-3.08-4.38-4.44-2.21,1.07-1.33,2.37-.97-1.44-3.23-4.56-.03-1.67-3.37-2.16-2.92,1.99-.91,2.95.02,3.62-.43,3.15-1.98,1.79,1.39,3.39.68-.59,2.13,1.76,1.51,3.74.97-4.95,3.17-3.08,3.5-.81,2.57,2.83,3.91,3.47,4.84,3.36,2.29,2.25,2.98,1.69,6.86-.49,6.52-3.09,2.44-4.24,2.39-3.03,3.09-4.62,3.45-1.35-2.37,1.04-2.52-2.75-2.1-.03-.03Z"/>
    <path class="cls-4" d="M1151.62,195.48h0ZM1151.1,194.83l.52.65-1.41-.23-1.6,1.25-1.11,1.27.13,2.66-1.91.82-.67.66-1.39,1.09-2.47.61-1.61,1-.12,1.61-.43.41,1.48.6,2.09,1.62-.53.9-1.57.24-2.63.18-1.44,1.67-1.65-.13-.23.34-1.8-.7-.45.7-1.08.31-.13-.7-.96-.34-1-.59,1.01-1.63.88-.43-.33-.68.95-2-.24-.6-2.17-.41-1.75-.99,3.03-2.38,4.08-1.99,2.55-2.63,1.75,1.16,3.21.14-.59-1.96,5.72-1.59,1.48-2.08,2.39,2.18h0Z"/>
    <path class="cls-4" d="M1134.55,212.05l.23-.34,1.65.13,1.44-1.67,2.63-.18,1.57-.24.53-.9,3.2,4.37.91,2.4.04,4.27-1.4,2.04-3.36.71-2.96,1.54-3.33.32-.41-2.02.68-2.78-1.63-3.86,2.75-.62-2.53-3.17h-.01Z"/>
    <path class="cls-4" d="M992.17,169.25l3.9-.64,7.07-3.19,5.64-1.74,3.23,1.14,3.86.05,2.48,1.73,3.7.14,5.36.93,3.6-2.58-1.51-2.18,3.84-3.84,4.15,1.53,3.36.43,4.36.95.71,2.78,5.26,1.56,3.51-.68,4.68-.49,3.72.49,3.63,1.78,2.24,1.89,3.44-.04,4.67.6,3.4-.92,4.88-.61,5.43-2.61,2.21.4,1.95,1.24,4.42-.31-1.8,2.8-2.63,3.7.96,1.51,2.09-.46,3.66.58,2.85-1.37,2.97,1.19,3.35,2.59-.4,1.32-2.92-.41-5.39.49-2.6,1.05-2.72,2.45-5.64,1.44-3.7,1.96-3.82-.75-2.08-.33-1.95,2.39,1.19,1.42.6,1.22-2.59,1.25-2.67,1.98-4.32,1.3-5.56.14-5.98,1.29-4.32,1.99-1.64-1.15h-4.48l-5.48-2.25-3.66-.55-4.92.51-7.66-.83-4.08.09-2.17-2.2-1.69-3.41-2.28-.41-4.48-2.31-4.99-.52-4.4-.63-1.33-1.61,1.43-4.33-2.56-2.99-5.28-1.39-3.11-1.96-.97-2.59-.02-.02Z"/>
    <path class="cls-1" d="M1027.66,247.21l.27,1.4-1.29.68.31,2.28-2.65-.67-4.79,2.56.11,2.12-2.04,3.11-.19,1.81-1.65,3.05-2.89-.85-.15,3.84-.84,1.26.4,1.57-1.83.88-1.96-5.88h-1.01l-.61,2.38-2.03-1.92,1.15-2.11,1.65-.21,1.71-3.14-2.13-.63-3.43.05-3.54-.51-.32-2.57-1.77-.19-2.93-1.6-1.31,2.52,2.67,1.96-2.31,1.38-.83,1.35,2.28,1-.63,2.23,1.28,2.78.57,3.05-.52,1.35-2.52-.04-4.58.77.21,2.79-1.97,2.19-5.34,2.5-4.15,4.36-2.79,2.34-3.68,2.43v1.7l-1.85.92-3.35,1.33-1.72.19-1.12,2.82.77,4.82.2,3.07-1.57,3.52v6.3l-1.93.18-1.68,2.82,1.12,1.22-3.38,1.05-1.24,2.52-1.49,1.07-3.51-3.46-1.71-5.19-1.43-3.74-1.29-1.75-1.97-3.56-.92-4.63-.64-2.31-3.38-5.09-1.53-7.18-1.11-4.74v-4.49l-.71-3.47-5.39,2.21-2.61-.44-4.83-4.49,1.77-1.34-1.09-1.46-4.35-3.14,2.47-2.48h8.16l-.75-3.17-2.08-1.88-.41-2.85-2.43-1.66,4.08-3.88,4.31.28,3.87-3.89,2.32-3.76,3.6-3.72-.05-2.64,3.15-2.14-2.99-1.83-1.28-2.51-1.32-3.24,1.83-1.6,5.62.9,4.14-.55,3.58-3.11,3.98,4.34-.37,3.02,1.48,1.9-.12,1.89-2.67-.5,1.04,4.08,3.64,2.35,5.15,2.59-2.35,1.68-1.44,3.47,3.59,1.4,3.5,1.81,4.83,2.08,5.08.48,2.13,1.89,2.87.35,4.46.87,3.08-.06.43-1.47-.48-2.35.28-1.6,2.27-.78.31,2.92.08.75,3.36,1.4,2.33-.58,3.12.24,3.03-.11.27-2.28-1.51-1.19,2.99-.46,3.36-2.75,4.28-2.36,3.11.91,2.64-1.56,1.73,2.3-1.25,1.56,4,.56h-.04Z" data-info="India - 1 Project"/>
    <path class="cls-4" d="M1010.41,270.25l-.08,2.66-1.29-.56.24,2.99-1.05-1.93-.21-1.89-.71-1.79-1.55-2.16-3.42-.14.33,1.52-1.16,2.06-1.57-.75-.55.68-1.04-.41-1.44-.33-.57-3.05-1.28-2.78.63-2.23-2.28-1,.83-1.35,2.31-1.38-2.67-1.96,1.31-2.52,2.93,1.6,1.77.19.32,2.57,3.54.51,3.43-.05,2.13.63-1.71,3.14-1.65.21-1.15,2.11,2.03,1.92.61-2.36h1.01l1.96,5.86h0Z"/>
    <path class="cls-4" d="M1006.79,249.02l1.51,1.19-.27,2.28-3.03.11-3.12-.24-2.33.58-3.36-1.4-.08-.75,2.45-2.75,2-.94,2.64.86,1.96.09,1.63,1v-.03Z"/>
    <path class="cls-4" d="M993.53,248.63l-.28,1.6.48,2.35-.43,1.47-3.08.06-4.46-.87-2.87-.35-2.13-1.89-5.08-.48-4.83-2.08-3.5-1.81-3.59-1.4,1.44-3.47,2.35-1.68,1.53-.88,2.97,1.14,3.74,2.41,2.09.53,1.24,1.78,2.88.73,3,1.62,4.19.85,4.32.36h.02Z"/>
    <path class="cls-4" d="M955.44,220.41l-3.58,3.11-4.14.55-5.62-.9-1.83,1.6,1.32,3.24,1.28,2.51,2.99,1.83-3.15,2.14.05,2.64-3.6,3.72-2.32,3.76-3.87,3.89-4.31-.28-4.08,3.88,2.43,1.66.41,2.85,2.08,1.88.75,3.18h-8.16l-2.47,2.46-2.71-.94-1.11-2.66-2.87-2.82-6.83.7-6.02.07-5.22.52,1.4-4.31,5.34-1.91-.31-1.71-1.77-.6-.09-3.26-3.55-1.63-1.49-2.24-1.83-1.94,6.2,1.89,3.71-.55,2.21.47.75-.81,2.59.33,4.82-1.54.13-3.15,2.05-2.09h2.76l.41-1.03,2.83-.48,1.37.34,1.44-1.04-.2-2.23,1.57-2.23,2.36-.94-1.47-2.45,3.54.11,1.01-1.34-.16-1.42,1.85-1.56-.43-1.84-.88-1.57,2.17-1.62,3.98-.78,4.26-.43,1.88-.68,2.16-.42,2.73,1.73,1.09,2.85,6.1,1.5h.05Z"/>
    <path class="cls-4" d="M913.49,213.48l2.05.03,2.8.78,1.13.45,2.68-1.19,1.24.71,1.2-1.7,2.21.08.57-.54.39-1.5,1.6-1.29,2,.84-.4,1.14,1.12.18-.35,3.11,1.47,1.22,1.29-.78,1.64-.36,2.31-1.66,2.56.28h3.82l.67,1.07-2.16.42-1.88.68-4.26.43-3.98.78-2.17,1.62.88,1.57.43,1.84-1.85,1.56.16,1.42-1.01,1.34-3.54-.11,1.47,2.45-2.36.94-1.57,2.23.2,2.23-1.44,1.04-1.37-.34-2.83.48-.41,1.04h-2.76l-2.05,2.09-.13,3.15-4.82,1.54-2.59-.33-.75.81-2.21-.47-3.71.55-6.2-1.89,3.36-3.36-.31-2.38-2.8-.63-.29-2.35-1.21-2.96,1.59-2.03-1.61-.55,1.01-2.7,1.51-4.62,3.79,1.4,2.79-.5.77-1.68,2.92-.56,2.09-1.13.73-2.96,3.12-.71.59-1.32,1.75.99,1.12.12h0Z"/>
    <path class="cls-4" d="M918.35,214.28l2.08-3.75-.8-2.76-2.72-.88.96-1.64,3.09.18,1.76-2.04,1.19-2.38,4.95-.86-.77,1.72.53,1.03,1.52-.09-1.35,1.14-4.04-.61-.35,2.13,4.02-.29,4.58,1.2,7.02-.56.93,3.42,1.21-.37,2.25.84-.13,1.44.56,2.11h-3.82l-2.56-.28-2.31,1.66-1.64.36-1.29.78-1.47-1.22.35-3.11-1.12-.18.4-1.14-2-.84-1.6,1.29-.39,1.5-.57.54-2.21-.08-1.2,1.7-1.24-.71-2.68,1.19-1.13-.45h-.01Z"/>
    <path class="cls-4" d="M929.96,195.31l.83-1.62,2.44-.53,6.1,1.28.57-2.19,2.11-.77,5.28,1.56,1.33-.41,6.15.1,5.5.39,1.87,1.33,2.28.55-.52.84-5.84,2.01-1.32,1.47-4.75.44-1.4,2.37-3.92-.5-2.56.73-3.55,1.75.52.87-1.05.85-7.02.56-4.58-1.2-4.02.29.35-2.13,4.04.61,1.35-1.14,2.83.36,4.74-2.67-4.39-1.95-2.64.92-2.73-1.4,3.12-2.4-1.11-.36h0Z"/>
    <path class="cls-4" d="M861.55,197.1l1.64-1.24,4.2-.77,2.51,1.04,2.6,2.9,1.89-.18,4.18-.05-.6-1.86,3.16-1.28,3.12-2.15,4.99,1.96.4,2.95,1.41.76,4.02-.17,1.24.68,1.83,3.82,4.23,2.56,2.41,1.74,3.88,1.81,4.92,1.59-.09,2.27-1.12-.12-1.75-.99-.59,1.32-3.12.71-.73,2.96-2.09,1.13-2.92.56-.77,1.68-2.79.5-3.79-1.4-.32-3.12-2.76-.13-4.24-3.28-2.95-.41-4.11-1.88-2.63-.34-1.63.69-2.48-.11-2.63,2.12-3.26.71-.69-2.62.53-3.88-2.88-1.25.95-2.54-2.45-.21.81-3.12,3.5.91,3.26-1.19-2.69-2.23-1.07-2.12-2.99.95-.37,2.72-1.16-2.4h-.01Z"/>
    <path class="cls-4" d="M846.97,241.03l-2.04-1.95-.04-1.97h-1.19l.61-2.68-1.91-2.82-4.54-2.03-2.57-3.52.87-2.89,1.85-1.28-.28-2.16-2.43-1.11-2.4-4.42-2.03-2.97.73-1.15-1.16-4.25,2.53-1.05.59,1.4,1.88,1.71,2.53.49,1.35-.11,4.36-2.73,1.39-.28,1.09,1.09-1.27,1.83,2.31,1.94.92-.18,1.17,2.73,3.51.77,2.57,1.86,5.27.64,5.79-.98.36-.87,3.26-.71,2.63-2.12,2.48.11,1.63-.69,2.63.34,4.11,1.88,2.95.41,4.24,3.28,2.76.13.32,3.12-1.51,4.62-1.01,2.7,1.61.55-1.59,2.03,1.21,2.96.29,2.35,2.8.63.31,2.38-3.36,3.36,1.83,1.94,1.49,2.24,3.55,1.63.09,3.26,1.77.6.31,1.71-5.34,1.91-1.4,4.31-6.98-1.12-4.04-.85-4.18-.48-1.57-4.55-1.77-.66-2.85.66-3.74,1.79-4.52-1.23-3.75-2.85-3.56-1.05-2.48-3.52-2.73-4.94-1.99.6-2.36-1.23-1.39,1.45h.03Z"/>
    <path class="cls-4" d="M799.37,230.72l-.08-.03.51-.56-.05-1.52.91-2.03,2.01-1.4-.6-1.45-1.67-.19-.35-2.83.91-1.52.99-.81,1-.82.2-2.06,1.21.72,4.08-1.03,1.96.7h3.05l4.27-1.4,1.99.06,4.22-.58-1.89,2.31-2.03.92.35,2.7-1.4,4.48-8.2,3.85-7.26,3.95-4.12-1.47h0Z"/>
    <path class="cls-4" d="M839.34,208.26l-1.35.11-1.51-2.14v-.57h-1.63s-1.09-.99-1.09-.99l-.77.1-1.45-1.08-2.76-.92.36-1.81-.63-1.3,5.15-.58.76.97,1.41.65-.75.93,1.97,1.27-1.04,1.19,1.57,1,1.65.61.09,2.57h.02Z"/>
    <path class="cls-4" d="M707.87,133.83l1.63-2.14,3.08-2.54,1.23-4.35-2.36-1.88-.23-4.92,2.4-3.47,3.67.06,1.29-1.47-1.35-1.27,5.75-5.21,3.71-4.11,2.44-2.64h3.56l.99-2.05,6.98.6.55-2.44,2.29-.15,4.95,1.81,5.78,2.52.11,5.71,1.24,1.44-6.38,1.05-3.59,2.59.57,2.26-5.88,2.98-7.16,3.19-2.69,5.22,2.64,2.61,3.54,2.06-3.4,4.18-3.86.87-1.41,6.22-2.09,3.47-4.5-.36-2.11,2.94-4.28.17-1.19-3.5-3.09-4.21-2.81-5.24h-.02Z"/>
    <path class="cls-4" d="M771.41,143.79l3.91.93.52.92,1.95-.44,3.63.88.36,1.74-.8,1,2.32,2.43,1.51.68-.21.67,2.49.65,1.07.98-1.44.81-2.99-.13-.72.34.88,1.23.91,2.38-3.19.22-1.13.81-.24,1.87-1.48-.36-3.34.18-.97-.87-1.39.65-1.4-.54-2.91-.08-4.14-.88-3.75-.29-2.87.09-2.03,1-1.77.14-.08-1.65-1.13-1.72,2.21-.76.03-1.47-1.03-1.41-.16-1.64,3.58.03,4.03-1.4.85-2.09,3.04-1.19-.35-1.66,2.25-.63,3.98-1.43h0Z"/>
    <path class="cls-4" d="M784.79,158.87l1.39.14.93-.84,1.12.19,3.84-.36,2.37,2.09-.93.75.31,1.15,2.96.18,1.32,1.61-.08.73,4.7,1.3,2.84-.59,2.29,1.74,2.16-.04,5.47,1.2.04,1.09-1.51,1.94.83,2.04-.59,1.24-3.59.27-1.91,1.03-.12,1.64-2.96.3-2.47,1.2-3.47.19-3.19,1.38.19,1.99-.56-.11-.48-.73-1.19-.14-2.64-.8-.97.92-.51-.4-5.76-.93-.25-1.39-3.43.46-1.37,2.04-2.87,2.74-1.68-.63-1.75.6-1.65-.68.93-.4.65-1.27,1.01-1.18-.27-.66.77-.29.36.51,2.19.11.99-.28-.69-.38.25-.55-1.29-.94-.53-1.55-1.35-.61.27-1.25-1.67-1-1.53-.14-2.72-1.15-2.47.36-.88.55h-1.57l-.92.87-2.73.35-1.27.57-1.72-.9-2.37-.02-2.29-.41-1.6.8-.25-1-2.07-1.01.73-1.49,1.03-.97.8.22-.95-1.67,3.36-3.08,1.84-.43.39-1.04-1.85-3.23,1.77-.14,2.03-1,2.87-.09,3.75.29,4.14.88,2.91.08,1.4.54,1.39-.65.97.87,3.34-.18,1.48.36.24-1.87,1.13-.81,3.19-.22h-.02Z"/>
    <path class="cls-4" d="M754.03,152.15l.16,1.64,1.03,1.41-.03,1.47-2.21.76,1.13,1.72.08,1.65,1.85,3.23-.39,1.04-1.84.43-3.36,3.08.95,1.67-.8-.22-3.52-1.42-2.67.53-1.75-.38-2.2.8-1.87-1.32-1.52.51-.21-.23-1.69-1.83-2.76-.23-.35-1.16-2.55-.41-.55.96-2.01-.77.23-1.02-2.76-.32-1.76-1.2-1.52-2.36.29-1.28-.92-1.98-1.35-1.32,1.03-.99-.85-1.88,2.52-1.09,5.79-1.71,4.67-1.25,3.7.63.28.9,3.58.04,4.56.42,6.82-.06,1.89.4.89,1.14h-.01Z"/>
    <path class="cls-4" d="M729.92,173.6l-.28,1.51h-2.08l.71.82-1.23,2.38-.71.63-3.24.09-1.87.84-3.05-.28-5.31-.96-.83-1.29-3.66.64-.43.71-2.25-.53-1.89-.1-1.67-.68.56-.91-.13-.65,1.11-.21,1.88,1.03.52-.98,3.27.16,2.65-.66,1.77.11,1.16.76.35-.63-.53-2.41,1.33-.47,1.31-1.71,2.75,1.19,2.09-1.52,1.31-.28,2.87,1.13,1.75-.19,1.71.7-.31.47.37,1.29h0Z"/>
    <path class="cls-4" d="M748.84,172.49l2.07,1.01.25,1-2.27.77-1.75,2.52-2.24,2.52-2.97.7-2.31-.16-2.84.97-1.39.56-3.05-.71-2.77-1.59-1.17-.46-.72-1.25-.63-.04,1.23-2.38-.71-.8h2.08l.28-1.52,1.88.95,1.37.41,3.11-.46.29-.74,1.48-.11,1.8-.58.4.24,1.73-.46.88-.87,1.21-.23,3.96,1.13.79-.38v-.04Z"/>
    <path class="cls-4" d="M765.65,173.24l.88-.55,2.47-.36,2.72,1.15,1.53.14,1.67,1-.27,1.25,1.35.61.53,1.55,1.29.94-.25.55.69.38-.99.28-2.19-.11-.36-.51-.77.29.27.66-1.01,1.18-.65,1.27-.93.4-.67-1.69.4-1.58-.12-1.62-2.13-2.21-1.19-1.56-1.15-1.1-1.12-.36h0Z"/>
    <path class="cls-4" d="M771.62,183.37l1.65.68,1.75-.6,1.68.63.08.95-1.8.8-1.12-.35-1.04,4.47-2.17-.39-2.69-1.35-4.36.87-1.84.94-5.44-.19-2.84-.58-1.44.27-1.07-1.52-.68-.65.87-.62-.92-.46-1.16.83-2.16-1.08-.29-1.53-2.25-.87-.41-1.18-2.01-1.46,2.97-.7,2.24-2.52,1.75-2.52,2.27-.77,1.6-.8,2.29.41,2.37.02,1.72.9,1.27-.57,2.73-.35.92-.87h1.57l1.12.36,1.15,1.1,1.19,1.56,2.13,2.21.12,1.62-.4,1.58.67,1.69-.02.04Z"/>
    <path class="cls-4" d="M765.18,145.85l.35,1.66-3.04,1.19-.85,2.09-4.03,1.4-3.58-.03-.89-1.14-1.89-.4-.31-.94.4-1.02-1.64-.59-3.88-.65-.79-3.12,4.24-1.14,6.22.24,3.64-.37.52.77,1.97.24,3.56,1.8h0Z"/>
    <path class="cls-4" d="M768.11,138.95l1.79.85.32,1.8,1.19,2.18-3.98,1.43-2.25.63-3.56-1.8-1.97-.24-.52-.77-3.64.37-6.22-.24-4.24,1.14.13-2.79,1.81-2.33,3.5-1.27,2.95,2.77,2.97-.08.71-2.84,3.16-.66,1.61.46,3.19,1.37h3.05v.02Z"/>
    <path class="cls-4" d="M770.69,131.54l.56.65-2.64,2.14,1.11,3.46-1.6,1.17h-3.05l-3.19-1.38-1.61-.46-3.16.66.43-2.19-1.36.47-2.35-1.32-.32-2.13,4.68-1.03,4.67-.54,4.02.61,3.83-.11h-.02Z"/>
    <path class="cls-4" d="M719.33,152.73l.85,1.88-1.03.99,1.35,1.32.92,1.98-.29,1.28,1.52,2.36-1.65.39-.97-.43-.93.71-2.67.71-1.37.92-2.69.81.65,1.1.4,1.56,1.88.89,2.09,1.59-1.31,1.71-1.33.47.53,2.41-.35.63-1.16-.76-1.77-.11-2.65.66-3.27-.16-.52.98-1.88-1.03-1.11.21-3.98-1.14-.76.8-3.15-.03.47-2.64,1.87-2.53-5.34-.68-1.75-.97.21-1.62-.75-.83.43-2.51-.63-3.88h2.23l.93-1.39.92-3.39-.68-1.25.72-.78,3.09-.2.69.82,2.51-1.83-.84-1.39-.17-2.1,2.8.49,2.37-.56.05,1.43,3.75.87-.04,1.32,3.78-.7,2.08-1.02,4.18,1.46,1.76,1.19h.01Z"/>
    <path class="cls-4" d="M750.96,188.01l1.07,1.52,1.44-.27,2.84.58,5.44.19,1.84-.94,4.36-.87,2.69,1.35,2.17.39-1.92,1.54-1.35,2.65,1.19,2.11-3.19-.5-3.78,1.17-.04,1.84-3.36.35-2.61-1.29-2.96,1.02-2.75-.11-.27-2.45-1.85-1.19.61-.53-.4-.44.63-1.18,1.4-1.16-1.8-1.6-.32-1.35.91-.84h0Z"/>
    <path class="cls-4" d="M764.42,221.12l-.47,1.1-5.34.31.04-.61-4.52-.72.69-1.57,2.03,1.25,2.88-.21,2.76.26-.09.65,2.01-.45h.01ZM752.05,198.75l2.75.11,2.96-1.02,2.61,1.29,3.36-.35.04-1.84,1.8.98-1.15,2.31-.88.42-2.25-.11-1.93-.35-4.48.97,2.56,2.08-1.88.6h-2.05l-1.96-1.91-.69.82.83,2.21,1.85,1.74-1.4.81,2.07,1.71,1.83,1.07.05,2.09-3.43-.98,1.09,1.89-2.35.39,1.4,3.27-2.45.05-3.04-1.61-1.39-2.97-.65-2.46-1.44-1.71-1.91-2.11-.24-1.05,1.72-1.8.21-1.2,1.21-.53.07-.97,2.43-.33,1.41-.81,2,.08.61-.65.71-.13Z"/>
    <path class="cls-1" d="M832.91,214.19l-1.77.63-1.29-.94-4.32-.48-1.59.58-4.22.58-1.99-.06-4.27,1.39h-3.05l-1.96-.69-4.08,1.03-1.21-.72-.2,2.06-1,.82-.99.81-1.36-1.68,1.4-1.39-2.25.32-3.11-.85-2.55,2.13-5.62.41-3-1.99-4-.13-.85,1.54-2.56.44-3.58-1.97-4.04.07-2.2-3.69-2.71-2.06,1.8-2.88-2.35-1.77,4.11-3.54,5.71-.14,1.56-2.82,7.06.49,4.46-2.4,4.32-1.05,6.12-.08,6.47,2.62,5.32,1.43,4.31-.57,3.19.33,4.38-1.94,3.95-.18,3.58,1.82.63,1.3-.36,1.81,2.76.92,1.45,1.08-2.53,1.05,1.16,4.25-.73,1.15,2.03,2.97h-.03ZM763.78,196.94l3.78-1.17,3.19.5.44,1.43,3.24,1.19-.68.91-4.4.21-1.57,1.14-3.09,2-1.16-1.73.04-.76.88-.42,1.15-2.31-1.8-.98h-.02Z" data-info="Turkey - 1 Project"/>
    <path class="cls-4" d="M744.89,200.59l-.07.97-1.21.53-.21,1.2-1.72,1.8-.64-.26-.07-.82-2.05-1.25-.32-1.76.31-2.53.51-1.15-.63-.58-.24-1.18,1.6-1.83.24.7,1-.33.79,1,.88.38.25,1.34-.47,1.26.52,1.59,1.53.9v.02Z"/>
    <path class="cls-4" d="M728.39,179.61l1.17.46,2.77,1.59,3.05.71,1.39-.56.89,1.44,1.19,1.06-1.43,1.39-1.68-.82-2.56.05-3.19-.61-1.73.08-.8.77-1.32-.85-.79,1.54,1.81,1.74.81,1.15,1.69,1.39,1.41.82,1.4,1.55,3.28,1.4-.41.63-3.48-1.37-2.15-1.34-3.39-1.1-3.11-2.72.75-.28-1.69-1.56-.07-1.25-2.39-.58-1.13,1.6-1.09-1.24.08-1.29.13-.06,2.59.13.68-.63,1.25.61,1.45.07v-1.03l1.28-.38.36-1.5,2.95-.98.03-.03Z"/>
    <path class="cls-4" d="M702.56,175.83l.13.65-.56.91,1.67.68,1.89.1-.29,1.52-1.63.63-2.75-.47-.8,1.5-1.76.12-.64-.59-2.08,1.25-1.79.18-1.6-.79-1.27-1.62-1.77.58.07-1.67,2.71-2.08-.12-.94,1.68.34,1.03-.63,3.15.03.76-.8,3.98,1.14v-.04Z"/>
    <path class="cls-4" d="M689.39,166.18l.75.83-.21,1.62-1.07.08-.83-.33.4-2.08.96-.14v.02Z"/>
    <path class="cls-4" d="M689.82,163.67l-.43,2.51-.96.14-.4,2.08-3.24-1.69-1.91.29-2.59-1.75-1.72-1.49-1.72-.06-.53-1.3,2.96-.73,2.72.29,3.43-.77,2.35,1.62,2.04.87h0Z"/>
    <path class="cls-1" d="M692.59,153.75l.68,1.25-.92,3.39-.93,1.39h-2.23l.63,3.88-2.04-.87-2.35-1.62-3.43.77-2.72-.29,1.91-1.02,3.25-5.45,5.07-1.56,3.08.11v.02Z" data-info="Netherlands - 2 Projects"/>
    <path class="cls-4" d="M633.52,196.74l1.35-.94,1.51-.54.93,1.81h2.19l.63-.47,2.16.13,1.04,1.86-1.72,1-.04,2.89-.6.54-.15,1.76-1.6.3,1.48,2.23-1.03,2.43,1.28,1.1-.51,1.01-1.37,1.39.31,1.22-1.49.96-1.95-.52-1.91.41.56-2.9-.35-2.28-1.65-.34-.89-1.4.29-2.42,1.48-1.35.27-1.5.77-2.23-.08-1.57-.75-1.33-.16-1.25Z"/>
    <path class="cls-4" d="M639.38,214.46l-.31-1.22,1.37-1.39.51-1.01-1.28-1.1,1.03-2.43-1.48-2.23,1.6-.3.15-1.76.6-.54.04-2.89,1.72-1-1.04-1.86-2.16-.13-.63.47h-2.19l-.93-1.81-1.51.54-1.35.94.19-2.63-1.52-1.61,5.24-2.67,4.54.66,4.98-.02,3.95.63,3.07-.19,5.99.12,1.48,1.44,6.82,1.68,1.35-.8,4.18,1.67,4.3-.48.2,2.16-3.51,2.46-4.75.78-.33,1.25-2.28,2.05-1.43,3.02,1.44,2.12-2.13,1.65-.8,2.41-2.8.74-2.63,2.85-4.7.06-3.54-.07-2.32,1.31-1.41,1.4-1.81-.31-1.37-1.25-1.05-2.13-3.46-.58h-.03Z"/>
    <path class="cls-4" d="M644.04,152.32l.61,2.65-2.8,3.31-6.58,2.19-5.24-.56,3-3.87-1.93-3.77,5.04-2.9,2.8-1.73.76,1.99-.76,1.99,2.29-.06,2.8.77h.01Z"/>
    <path class="cls-4" d="M1281.31,430.04l3.04,2.3,1.92,1.71-1.4.89-2.04-1-2.65-1.67-2.39-1.96-2.45-2.61-.51-1.26,1.59.06,2.08,1.26,1.63,1.25,1.19,1.04h0Z"/>
    <path class="cls-4" d="M1267.74,390.77l1.04,1.27-2.59-.03-1.41-2.28,2.21.89.75.14h0ZM1266.11,387.5l-.56.68-2.75-3.21-.76-2.21h1.25l1.33,2.97,1.48,1.77h.01ZM1263.05,388.51l-1.44.09-2.27-.38-.77-.57.23-1.47,2.44.58,1.21.78.6.97h0ZM1258.56,381.65l.87,1.17.16.75-2.91-1.57-2.03-1.33-1.39-1.24.55-.38,1.71.89,3.04,1.71h0ZM1249.29,377.95l1.48,1.21-.75.21-1.61-.84-1.52-1.52.19-.62,2.21,1.57h0Z"/>
    <path class="cls-4" d="M1322.46,500.39l-1.4,2-1.84,2.53-2.85,1.48-.64-.97-1.55-.53,2.13-3.05-1.21-2.04-3.99-1.48.11-1.34,2.68-1.29.63-2.85-.17-2.4-1.51-2.48.11-.65-1.77-1.53-2.91-3.28-1.56-2.62,1.39-.29,2.01,2.06,2.88.96,1.04,3.3,2.69,3.9.07-2.53,1.68,1.01.55,2.8,2.99,1.2,2.51.3,2.11-1.42,1.88.43-.89,3.29-1.13,2.16-2.83-.08-.99,1.12.35,1.59-.55.69h-.02ZM1295.72,513.33l3.17-1.94,2.23-1.92,1.64-2.77,1.41-.93.55-2.07,2.6-1.71.81,1.57.84,1.53,2.64-1.5,1.07,1.56v1.56l-1.37,1.72-2.43,2.73-1.89,1.49,1.37,1.78-2.85.04-3.17,1.4-1,2.43-2.09,3.74-2.92,1.66-1.84,1.06-3.42-.08-2.4-1.22-4.03-.26-.61-1.36,1.99-2.75,4.66-3.66,2.39-.7,2.67-1.41h-.02Z"/>
    <path class="cls-1" d="M1214.27,503.15l2.21.24.27,4.4-1.27,1.27-.39,2.99-1.29-1.02-2.57,2.58-.76-.2-2.28-.12-2.28-3.17-.51-2.45-2.13-3.23.09-1.7,2.41.33,3.59,1.28,2.01-.51,2.89-.71v.02ZM1134.45,471.31l-3.92,1.9-3.21.86-.71,1.94-1.37,1.51-3.15.09-2.32.33-3.28-.67-2.65.4-2.55.17-2.2,1.98-1.08-.16-1.87,1.05-1.77,1.17-2.71-.14h-2.48l-3.94-2.36-1.99-.71.08-2.12,1.84-.51.63-.84-.13-1.33.45-2.58-.41-2.2-1.96-3.75-.6-2.11.16-2.11-1.48-2.41-.09-1.09-1.64-1.47-.47-2.9-2.11-2.93-.52-1.58,1.63,1.6-1.24-3.44,1.83,1.07,1.11,1.44-.07-1.9-1.84-2.92-.35-1.17-.87-1.11.41-2.14.75-.92.51-1.85-.39-2.17,1.52-2.67.28,2.82,1.57-2.55,3-1.24,1.81-1.58,2.83-1.36,1.68-.29,1.03.46,2.92-1.38,2.24-.41.56-.81.99-.34,2.04.09,3.9-1.09,2.01-1.64.95-1.98,2.17-1.88.17-1.48.09-2.01,2.59-3.15,1.56,3.2,1.59-.74-1.32-1.75,1.16-1.8,1.63.8.45-2.82,2.03-1.83.89-1.46,1.87-.63.05-1.03,1.63.43.07-.93,1.63-.53,1.79-.5,2.73,1.7,2.07,2.2,2.31.03,2.36.35-.79-2.04,1.77-2.97,1.68-.97-.59-.92,1.61-2.12,2.24-1.3,1.89.44,3.12-.7-.07-1.89-2.72-1.22,1.97-.54,2.45.92,1.97,1.52,3.12.95,1.05-.38,2.29,1.14,2.16-1.06,1.4.32.87-.71,1.69,1.83-.99,1.98-1.4,1.5-1.28.13.43,1.48-1.08,1.85-1.32,1.83.27,1.04,2.95,2.05,2.85,1.19,1.91,1.28,2.68,2.2h1.04l1.93.94.57,1.15,3.54,1.25,2.44-1.27.73-1.99.75-1.64.45-2.03,1.13-2.95-.52-1.79.27-1.07-.43-2.13.49-2.79.71-.75-.57-1.24.89-1.96.69-2.04.09-1.05,1.39-1.39,1.04,1.81.25,2.33.93.45.15,1.56,1.35,1.88.28,2.1-.13,1.34,1.33,2.91,2.39-1.4,1.23,1.57,1.77,1.45-.39,1.64.8,3.17.56,1.85.93.45,1,3.17-.36,1.93,1.2,2.51,4.02,1.94,2.63,1.76,2.48,1.61-.49.9,2.12,2.33,1.44,4.01,1.48-.82,1.51,1.61.91-.57.64,3.93,2.63,2.28,1.72,1.42,2.89,3,1.04,2.98.09,2.11-.25,2.29,1.76,3.15-.21,3.28-.64,1.72-1,3.31.08,2.13-.73,2.65-1.64,3.37-2.73,1.82-1.36,2.87-1.24,1.83-1.09,3.2-1.43,1.84-.93,2.77-.48,2.55.19,1.17-2.12,1.29-4.15.14-3.43,1.52-1.69,1.44-2.24,1.59-3.07-1.64-2.27-.65.57-1.93-2.03.7-3.24,2.68-3.2-1-2.11-.59-2.12-.26-3.59-1.07-2.39-2.28-.69-2.82-.85-1.87-1.83-1.51-3.56-.45,1.21-1.8-.89-2.75-1.81,2.56-3.3.68,1.95-2.05.56-2.14,1.43-1.81-.29-2.75-3.01,3.16-2.32,1.27-1.41,2.95-2.89-1.52.12-1.96-2.32-2.69-1.96-1.39.69-.86-4.75-2.25-2.6-.11-3.56-1.8-6.64.35-4.79,1.32-4.23,1.24-3.54-.24.02-.06Z" data-info="Australia - 6 Projects"/>
    <path class="cls-4" d="M970.07,324.05l-.56,3.86-1.55,1.05-3.23.85-1.76-2.95-.65-5.32,1.68-6.01,2.56,2.06,1.72,2.61,1.79,3.86h0Z"/>
    <path class="cls-4" d="M1072.67,284.5l-3.04-1.15-.11-3.19,1.83-1.67,4.06-1.04,2.12.09.83,1.42-1.63,1.63-.85,2.14-3.2,1.78h-.01ZM964.41,195l-.29-2.11,2.53-.97-3.34-6.43,7.34-1.48,1.91-.82,2.67-6.64,7.35,1.22,2.07-1.67.17-3.71,3.07-.35,2.83-2.46,1.45-.31.97,2.59,3.11,1.96,5.28,1.39,2.56,2.99-1.43,4.33,1.33,1.61,4.4.63,4.99.52,4.48,2.31,2.28.41,1.69,3.41,2.17,2.2,4.08-.09,7.66.83,4.92-.51,3.66.55,5.48,2.25h4.48l1.64,1.15,4.32-1.99,5.98-1.29,5.56-.14,4.32-1.3,2.67-1.98,2.59-1.25-.6-1.22-1.19-1.42,1.95-2.39,2.08.33,3.82.75,3.7-1.96,5.64-1.44,2.72-2.45,2.6-1.05,5.39-.49,2.92.41.4-1.32-3.35-2.59-2.97-1.19-2.85,1.37-3.66-.58-2.09.46-.96-1.51,2.63-3.7,1.8-2.8,4.44,1.4,5.23-2.34-.04-1.63,3.35-3.93,2.07-1.19-.05-2.04-2.03-.88,3.05-1.84,4.6-.66,4.92-.1,5.54,1.1,3.26,1.36,2.29,3.74,1.39,1.59,1.29,2.28,1.37,3.63,6.44,1.19,4.39,2.63,1.49,3.48h5.64l3.2-1.46,6.12-1.1-1.95,3.34-1.43,1.35-1.28,4.06-2.48,3.61-4.51-.65-3.17,1.3.97,3.17-.53,4.38-1.89.1.03,1.88-2.39-2.18-1.48,2.08-5.72,1.59.59,1.96-3.21-.14-1.75-1.16-2.55,2.63-4.08,1.99-3.03,2.38-5.18,1.07-2.72,1.74-4,1.01,1.97-1.72-.77-1.44,2.93-2.49-1.96-1.94-3.23,1.31-4.19,2.58-2.28,2.39-3.63.18-1.89,1.72,1.96,2.51,3.03.61.12,1.66,2.93,1.09,4.15-2.65,3.3,1.44,2.39.09.6,1.94-5.24,1.03-1.73,2-3.6,1.86-1.89,2.6,3.99,2.04,1.45,3.64,2.25,3.39,2.52,2.85-.07,2.75-2.32,1.01.88,1.98,2.19,1.15-.57,3.02-.95,2.94-2.07.33-2.71,4.01-3,4.86-3.44,4.42-5.1,3.42-5.15,3.12-4.18.43-2.27,1.64-1.28-1.2-2.09,1.84-5.18,1.86-3.92.56-1.27,3.91-2.05.22-.97-2.69.88-1.43-4.98-1.19-1.75.6-3.74-.97-1.76-1.51.59-2.13-3.39-.68-1.79-1.39-3.15,1.98-3.62.43-2.95-.02-1.99.91-1.92.54.56,4.24-1.97-.1-.33-.87-.12-1.53-2.71,1.08-1.61-.68-2.75-1.39,1.08-3.07-2.35-.72-.88-3.41-3.91.61.44-4.4,3.51-3.09.15-3.05-.11-2.83-1.61-.88-1.24-2.18-2.16.28-4-.56,1.25-1.56-1.73-2.3-2.64,1.56-3.11-.91-4.28,2.36-3.36,2.75-2.99.46-1.63-1-1.96-.09-2.64-.86-2,.94-2.45,2.75-.31-2.92-2.27.78-4.32-.36-4.19-.85-3-1.62-2.88-.73-1.24-1.78-2.09-.53-3.74-2.41-2.97-1.14-1.53.88-5.15-2.59-3.64-2.35-1.04-4.08,2.67.5.12-1.89-1.48-1.9.37-3.02-3.98-4.34-6.1-1.5-1.09-2.85-2.73-1.73-.67-1.06-.56-2.11.13-1.44-2.25-.84-1.21.37-.93-3.42,1.05-.85-.52-.87,3.55-1.75,2.56-.73,3.92.5,1.4-2.37,4.75-.44,1.32-1.47,5.84-2.01.52-.84h.02Z"/>
    <path class="cls-4" d="M1118.25,261.54l-2.23,5.94-1.59,3.04-1.95-3.13-.43-2.75,2.17-3.64,2.97-2.8,1.69,1.1-.65,2.24h.02Z"/>
    <path class="cls-4" d="M705.69,178.16l2.25.53.43-.71,3.66-.64.83,1.29,5.31.96-.41,1.83.89,1.57-2.95-.54-3.01,1.32.2,1.84-.45,1.05,1.21,1.89,3.48,1.87,1.87,3.06,4.12,2.99,2.89-.02.91.82-1.04.74,3.32,1.34,2.72,1.12,3.17,1.93.39.7-.69,1.32-2.05-1.73-3.23-.61-1.55,2.4,2.67,1.37-.44,1.94-1.55.22-1.97,3.17-1.55.29v-1.14l.77-1.99.8-.79-1.44-2.14-1.13-1.87-1.53-.46-1.09-1.6-2.39-.67-1.6-1.49-2.75-.24-2.89-1.67-3.39-2.41-2.52-2.13-1.15-3.67-1.84-.43-3.01-1.22-1.71.5-2.15,1.72-1.53.27.43-1.61-2.01-.47-.96-2.87,1.29-1.13-1.09-1.39.15-1.05,1.6.79,1.79-.18,2.08-1.25.64.59,1.76-.12.8-1.5,2.75.47,1.63-.63.29-1.52h-.03ZM721.7,210.58l2.81-.32-1.33,2.92.55,1.15-.77,1.9-2.84-1.39-1.88-.4-5.16-1.88.51-1.91,4.34.34,3.79-.4h-.02ZM699.28,200.37l1.85-1.15,2.21,2.63-.52,4.9-1.68-.24-1.51,1.24-1.4-.98-.15-4.47-.85-2.12,2.04.19h.01Z"/>
    <path class="cls-4" d="M703.77,148.18l-2.37.56-2.8-.49-1.51-2.06-.11-3.79.61-1,1.07-1.11,3.26-.23,1.31-1.02,2.97-1.05-.12,1.91-1.09,1.2.44,1.04,2.01.56-.91,1.4-1.11-.4-2.67,2.67,1.01,1.81h0ZM712.85,144.01l1.17,1.86-2.21,3-3.88-2.09-.52-1.54,5.44-1.22h0Z"/>
    <path class="cls-1" d="M644.04,152.32l-2.8-.77-2.29.06.76-1.99-.76-1.99,3.11-.15,3.98,2.29-1.99,2.55h-.01ZM655.54,154.04h.01l.53-2.15-2.48-2.28-.05-.05-4.5-.65-.88-1,1.35-1.66-1.23-1.02-1.99,1.75-.23-3.57-1.87-1.89,1.35-3.83,2.88-3.01,2.96.29,4.47-.31-3.96,4.01,3.78-.51,4.06.02-.96,3.02-3.34,3.32,3.83.24.29.39,3.31,4.37,2.53.6,2.28,4.22,1.05,1.46,4.5.71-.45,2.37-1.89,1.09,1.48,1.91-3.34,1.94-4.95-.04-6.31,1.02-1.73-.73-2.44,1.73-3.43-.42-2.6,1.42-1.97-.74,5.43-3.89,3.32-.8h-.03l-5.79-.62-1.05-1.47,3.88-1.15-2.03-2,.69-2.43,5.51.34h0Z" data-info="United Kingdom - 2 Projects"/>
    <path class="cls-4" d="M613.23,105.67l-.85,2.4,4.19,2.53-4.82,2.83-10.69,2.54-3.2.67-4.87-.55-10.34-1.17,3.64-1.64-8.07-1.81,6.56-.71-.16-1.09-7.78-.86,2.51-2.41,5.62-.55,5.78,2.51,5.63-2.01,4.66,1.05,6.04-1.98,6.15.26h0Z"/>
    <path class="cls-4" d="M838.96,196.81l1.04.13,2.55,2.25,1.63.25.64-.94,2.21-1.49,1.95,1.95,1.88,2.63,1.73.18,1.13,1-3.04.29-.65,2.88-.64,1.3-1.35.87.09,1.84-.92.18-2.31-1.94,1.27-1.83-1.09-1.09-1.39.28-4.36,2.73-.09-2.57-1.65-.61-1.57-1,1.04-1.19-1.97-1.27.75-.93-1.41-.65-.76-.97.91-.6,2.76,1.06,1.99.23.51-.44-1.81-2,.96-.51-.03-.02ZM837.99,208.37l-2.53-.49-1.88-1.71-.59-1.4.77-.1,1.09,1h1.64v.56s1.5,2.14,1.5,2.14h0Z"/>
    <path class="cls-4" d="M815.06,190.98l.45-.44,3.13.63,5.46.6,5.04,1.77.64.69,2.25-.58,3.46.78,1.13,1.52,2.33.86-.96.51,1.81,2-.51.44-1.99-.23-2.76-1.06-.91.6-5.15.58-3.58-1.82-3.95.18.56-1.58-.93-2.53-2.13-1.37-2.05-.43-1.36-1.14.02.02Z"/>
    <path class="cls-4" d="M1114.76,304.85l-1.89-2.82,3.17.14,1.29,1.34-.99,3.2-1.59-1.85h0ZM1121.25,314.94l.93-1.03.4-2.3,2.04-.22-.59,2.5,2.73-3.57-.35,3.53-1.33,1.22-1.16,2.34-1.16,1.1-2.28-2.57.76-.99h0ZM1135.3,320.75l.37,2.46.21,2.08-1.25,3.39-1.36-3.78-1.73,1.88,1.19,2.73-1.05,1.74-4.36-2.15-1.04-2.68,1.12-1.76-2.35-1.76-1.16,1.54-1.75-.14-2.73,2.07-.61-1.09,1.45-3.12,2.33-1.04,2.01-1.4,1.31,1.68,2.83-1.02.6-1.66,2.61-.09-.21-2.87,3,1.76.31,1.86.27,1.37h0ZM1106.13,317.41l-4.92,3.52,1.81-2.6,2.67-2.28,2.23-2.57,1.95-3.68.65,3.02-2.44,2.04-1.95,2.55h0ZM1120.33,284.4l-.61,1.54,1.27,2.65-.97,3.08-2.19,1.23-.57,2.99.83,2.95,1.96.41,1.64-.44,4.63,2.06-.36,2.01,1.21.89-.39,1.71-2.88-1.82-1.37-1.94-.95,1.36-2.36-2.22-3.38.55-1.84-.82.19-1.53,1.16-.95-1.11-.85-.48,1.34-1.83-2.13-.55-1.61-.15-3.55,1.49,1.22.39-5.8,1.2-3.36h2.25l2.28,1.06,1.13-.96.35.94h0ZM1119.23,309.63l-.57-1.77,2.21,1.15h2.36l-.07,1.54-1.72,1.57-2.35,1.12-.13-1.72.27-1.89h0ZM1132.06,306.86l1.04,4.14-2.85-.98.07,1.25.91,2.28-1.76.83-.15-2.61-1.12-.19-.57-2.24,2.17.29-.05-1.4-2.25-2.83,3.55.08,1.03,1.38h-.02Z"/>
    <path class="cls-4" d="M1037.88,327.97l.64-.66,3.03,1.62.29,1.91,2.44-.45,1.21-1.52.85.35,2.19,2.23,1.55,2.48.21,2.5-.39,1.69.36,1.27.27,2.19,1.31,1.02,1.45,3.28-.07,1.25-2.63.25-3.51-2.75-4.39-2.94-.43-1.89-2.15-2.48-.51-3.07-1.33-2.02.4-2.7-.81-1.57h.02ZM1103.82,336.6l-3.21-.63h-4.26l-1.28,4.21-1.43,1.29-1.91,5.16-3.01.79-3.51-1.04-1.77.33-2.16,1.88-2.36-.27-2.39.76-2.53-2.09-.63-2.48,2.72,1.27,2.85-.69.75-3.14,1.59-.7,4.44-.8,2.65-2.93,1.83-2.35,1.68,1.93.77-1.27,1.77.12.21-2.36.17-1.83,2.85-2.58,1.87-2.9h1.49l1.91,1.86.17,1.61,2.44,1.03,3.08,1.11-.27,1.46-2.48.18.67,1.81-2.73,1.26h.02Z"/>
    <path class="cls-4" d="M1094.81,331.74l-.17,1.83-.21,2.36-1.77-.12-.77,1.27-1.68-1.93,1.47-1.39,3.15-2.03h-.02Z"/>
    <path class="cls-4" d="M718.17,179.59l3.05.28,1.87-.84,3.24-.09.71-.63.63.04.72,1.25-2.95.98-.36,1.5-1.29.38v1.03l-1.44-.07-1.25-.61-.68.63-2.59-.13.83-.34-.89-1.57.41-1.83v.02Z"/>
    <path class="cls-4" d="M772.96,96l-.55,2.6,5.67,2.47-3.42,2.79,4.31,4.22-2.49,3.17,3.34,2.76-1.51,2.41,5.48,2.54-1.4,1.89-3.44,2.14-7.92,4.74-6.72.29-6.52,1.35-6.03.78-2.15-2.03-3.59-1.21.83-3.65-1.8-3.34,1.77-2.16,3.36-2.33,8.47-4.01,2.47-.78-.37-1.57-5.16-1.75-1.24-1.44-.11-5.71-5.78-2.52-4.95-1.81,2.23-.98,4.12,1.96,4.83-.18,3.98.9,3.54-1.64,1.83-2.72,5.75-1.25,4.75,1.47-1.56,2.6h-.02Z"/>
    <path class="cls-4" d="M750.6,170.04l-1.03.97-.73,1.49-.79.38-3.96-1.13-1.21.23-.88.87-1.73.46-.4-.24-1.8.58-1.48.11-.29.74-3.11.46-1.37-.41-1.88-.95-.37-1.29.31-.47.52-.82,1.64.06,1.27-.38.09-.34.72-.18.24-.84.85-.16.57-.66h1.09l.21.22,1.52-.51,1.87,1.32,2.2-.8,1.75.38,2.67-.53,3.52,1.42v.02Z"/>
    <path class="cls-4" d="M722.65,162.55l1.76,1.2,2.76.32-.23,1.02,2.01.77.55-.96,2.55.41.35,1.16,2.76.23,1.69,1.83h-1.09l-.57.67-.85.16-.24.84-.72.18-.09.34-1.27.38-1.64-.06-.52.82-1.71-.7-1.75.19-2.87-1.13-1.31.28-2.09,1.52-2.75-1.19-2.09-1.59-1.88-.89-.4-1.56-.65-1.1,2.69-.81,1.37-.92,2.67-.71.93-.71.97.43,1.65-.39v-.03Z"/>
    <path class="cls-4" d="M802,298.48l-.4-1.48,1.6-5.44.36-2.46,1.17-1.14,2.72-.61,1.88-2.11,2.15,4.29,1.03,3.4,2.03,1.81,5.06,3.5,2.05,2.11,2.01,2.14,1.16,1.27,1.81,1.12-1.11.9-1.59-.32-1.27-1.2-1.52-2.17-1.65-1.19-.95-1.28-3.23-1.49-2.55-.04-.89-.78-2.17.87-2.24-1.68-1.16,2.77-4.31-.78h.01Z"/>
    <path class="cls-4" d="M1192.76,206.74l-3.42,3.73.05,3.83-1.39,2.96.64,1.86-1.93,2.61-4.74,1.74-6.51.23-5.28,4.23-2.48-1.42-.16-2.77-6.44.82-4.39,1.75-4.34.07,3.76,2.73-2.48,6.3-2.39,1.56-1.8-1.44.92-3.34-2.35-1.08-1.51-2.54,3.51-1.14,1.93-2.33,3.74-1.92,2.71-2.53,7.38-1.11,3.96.76,3.88-6.59,2.47,1.77,5.44-3.71,2.11-1.44,2.32-4.53-.63-4.16,1.56-2.35,3.94-.68,2.03,5.14-.12,3h.01ZM1202.87,189.03l2.63-1.57.83,4.16-5.5,1.02-3.26,3.68-5.82-2.53-2.03,4.05-4.11.06-.52-3.68,1.84-2.85,3.95-.21,1.08-5.12,1.11-2.89,4.35,3.86,2.84,1.24,2.6.79h.01ZM1157.51,227.93l2.05-2.21,2.11.43,1.52-1.56,2.72.8.47,1.27-2.08,2.24-1.52-1.19-1.91.86-.97,2.17-2.41-1.05.03-1.76h-.01Z"/>
    <path class="cls-4" d="M451.46,426.69l1.09,2.06-.24,5.03,3.91.71,1.52-.73,2.49,1,.69,1.11.35,3.39.44,1.43,1.37.16,1.39-.6,1.33.67v2.04l-.51,2.2-.72,2.14-.6,3.27-3.36,2.84-2.93.6-4.16-.57-3.74-1,3.64-5.63-.53-1.64-3.82-1.45-4.52-2.74-3.03-.56-6.82-6.05,1.47-4.44.09-1.99,1.77-3.26,6.46-1.08,3.44.06,3.46,1.89.05,1.14h.02Z"/>
    <path class="cls-4" d="M859.69,281.52l2.89,6.12,1.21,2.59-2.68.99-.72,1.65-.08,1.26-3.7,1.56-5.92,1.73-3.32,2.62-1.63.21-1.11-.22-2.17,1.54-2.36.71-3.11.19-.93.21-.81.98-.97.27-.57.94-1.83-.08-1.19.5-2.56-.19-.96-2.16.11-2.03-.61-1.09-.72-2.74-1.07-1.52.75-.18-.39-1.69.45-.71-.16-1.61,1.61-1.19-.37-1.56.99-1.82,1.52.96,1-.33,4.28-.09.67.37,3.59.38,1.41-.19.93,1.24,1.73-.62,2.65-3.89,3.46-1.67,10.69-1.42v-.02Z"/>
    <path class="cls-4" d="M796.53,243.15l4.14.59,1.6-1.14.88-1.34,2.83-.51.61-1.24,1.23-.63-3.7-3.71,7.42-1.86.71-.56,4.47,1,5.51,2.6,10.46,7.45,6.88.29,3.31.36.92,1.77,2.61-.1,1.45,3.2,1.83.85.63,1.3,2.53,1.56.21,1.52-.36,1.24.47,1.25,1.07,1.03.49,1.22.55.91,1.12.73,1.03-.26.71,1.42.15.85,1.41,3.76,11.14,1.87.75-.78,1.69,2.62-2.47,7.41-11.11,3.71-10.69,1.42-3.46,1.67-2.65,3.89-1.73.62-.93-1.24-1.41.19-3.59-.38-.67-.37-4.28.09-1,.33-1.52-.96-.99,1.82.37,1.56-1.61,1.19-.49-1.58-1.11-1.12-.29-1.48-1.91-1.33-1.97-3.1-1.05-3.02-2.56-2.55-1.65-.61-2.45-3.53-.43-2.58.16-2.2-2.12-4.11-1.73-1.45-2-.77-1.23-2.13.2-.83-1.03-1.92-1.08-.83-1.44-2.76-2.27-2.99-1.88-2.55-1.85.02.59-2.04.16-1.29.45-1.48-.03.02Z"/>
    <path class="cls-4" d="M788.3,221.72l.25-.02.53-.9,2.67.05,3.38-1.1-2.51,1.57.28.7-.4-.13-.71.28-.56-.08-.19.14-.07-.37-.27-.23-.72-.04-1,.32-.69-.19h.01Z"/>
    <path class="cls-4" d="M788.3,221.72l.69.19,1-.32.72.04.27.23.07.37.19-.14.56.08.71-.28.4.13.11.3-3.8,1.51-1.81-.48-.85-1.49,1.76-.14h-.02Z"/>
    <path class="cls-4" d="M658.96,221.61l1.39,2.38.23,2.25,1.28,3.91.97.78-.68,1.44-4.84.62-1.68,1.37-2.15.32-.16,2.75-4.32,1.47-1.43,1.85-3.03,1-3.7.56-5.99,2.73.03,4.39h-.56l.09,1.99-2.29.12-1.2.84h-1.68l-1.33-.48-3.12.4-1.21,2.89-1.15.28-1.75,4.67-5.15,4-1.23,5.12-1.52,1.66-.44,1.34-8.34.3h-.07l.17-1.72,1.41-1.01,1.21-1.93-.24-1.25,1.28-2.62,2.07-2.36,1.24-.6.99-2.16.08-1.98,1.33-2.29,2.47-1.35,2.36-3.78.07-.05,1.85-1.42,3.46-.41,2.91-2.53,1.87-.99,3.09-3.09-.93-4.61,1.41-3.19.49-1.96,2.39-2.5,3.71-1.69,2.75-1.53,2.48-3.84,1.16-2.27h2.73l2.23,1.59,3.52-.26,3.84.82,1.61.04h.02Z"/>
    <path class="cls-4" d="M803.61,270.4h-43.97v-26.82l-1.11-2.99.95-2.29-.57-1.59,1.35-1.77,4.92-.06,3.58.98,3.67,1.1,1.72.58,2.85-1.18,1.52-1.06,3.27-.31,2.64.47,1,1.84.87-1.21,2.96.88,2.89.21,1.83-.93,2.07,5.41.36.96-1.04,1.49-.8,2.8-1,1.93-.87.65-1.24-1.2-1.67-1.65-2.64-5.31-.39.33,1.53,3.91,2.28,3.73,2.8,5.77,1.36,2.01,1.2,2.09,3.32,4.1-.73.65.12,2.41,4.31,3.32.65.76h0Z"/>
    <path class="cls-4" d="M759.64,270.4v7.4h-4.27l-.04,1.57-14.78-7.09-14.78-7.1-3.74,2.03-2.63,1.38-2.08-2.03-5.86-1.6-1.63-2.32-2.92-1.72-1.73.68-1.32-2.07-.15-1.59-2.19-2.7,1.47-1.55-.32-2.33.48-2.03-.28-1.69.65-3.02-.2-1.72-1.2-3.27,1.81-.86.32-1.57-.4-1.53,2.55-1.43,1.15-1.19,1.8-1.07.21-2.85,4.35,1.28,1.56-.32,3.09.61,4.91,1.66,1.73,3.3,3.34.71,5.22,1.56,3.95,1.84,1.81-.96,1.77-1.71-.87-2.83,1.16-1.81,2.67-1.74,2.56-.5,5,.76,1.27,1.66h1.39l1.17.65,3.68.44.91,1.22-1.35,1.77.57,1.59-.95,2.29,1.11,2.99v26.82h.03Z"/>
    <path class="cls-4" d="M844.09,322.27l-10.47,11.12-4.83.16-3.3,2.62-2.37.07-1.01,1.17h-2.53l-1.49-1.25-3.39,1.55-1.09,1.55-2.47-.29-.83-.43-.87.1-1.16-.04-4.7-3.15h-2.57l-1.27-1.22v-2.08l-1.93-.62-2.19-4.03-1.69-.86-.64-1.48-1.88-1.81-2.28-.26,1.27-2.11,1.96-.09.56-1.14-.05-3.33,1.09-3.88,1.76-1.04.37-1.51,1.59-2.83,2.24-1.84,1.49-3.65.6-3.19,4.31.78,1.16-2.77,2.24,1.68,2.17-.87.89.78,2.55.04,3.23,1.49.95,1.28,1.65,1.19,1.52,2.17,1.27,1.2-1.31,1.64-1.25,1.74.29,1.02.05,1.13,2.07.06.89-.26.83.66-.81,1.31,1.37,2.04,1.36,1.79,1.41,1.32,12.13,4.4,3.11-.03h0Z"/>
    <path class="cls-4" d="M823.94,305.45l1.59.32,1.11-.9.88,1.15-.12,1.54-2.11.89,1.59,1.01-1.36,1.99-.83-.66-.89.26-2.07-.06-.05-1.13-.29-1.02,1.25-1.74,1.31-1.64h-.01Z"/>
    <path class="cls-4" d="M848.38,309.65l-.03.06v5.27s-.01,1.93-.01,1.93l-1.67,2.28-2.59,3.09-3.11.03-12.13-4.4-1.41-1.32-1.36-1.79-1.37-2.04.81-1.31,1.36-1.99,1.21.68.72,1.54,1.67,1.55h1.84l3.5-.93,4.03-.44,3.27-1.15,1.84-.24,1.32-.68,2.11-.13h0Z"/>
    <path class="cls-4" d="M792.63,355.45l-7.55.28-4.06-.04-1.31.45-2.21,1.14-.89-.38.03-2.8.87-1.41.2-2.98.79-1.72,1.41-1.93,1.43-.98,1.19-1.32-1.48-.5.21-4.33,1.53-1.01,2.35.83,2.99-.87h2.6l2.28-1.7,1.76,2.58.43,1.86,1.64,4.25-1.35,2.7-1.83,2.45-1.07,1.5.04,3.93h0Z"/>
    <path class="cls-4" d="M779.72,356.14l1.47,2.09-.21,2.18-1.07.46-1.96-.24-1.13,2.11-2.25-.29.35-2.03.51-.29.13-2.2,1.07-1.03.89.38,2.21-1.14h0Z"/>
    <path class="cls-4" d="M735.78,193.89l-3.28-1.4-1.4-1.55-1.41-.82-1.69-1.39-.81-1.15-1.81-1.74.79-1.54,1.32.85.8-.77,1.73-.08,3.19.61,2.56-.05,1.68.82h1.33l-.92,1.62,1.79,1.42-.55,1.74-.87.17-.69.33-1.2.87-.55,2.04v.02Z"/>
    <path class="cls-4" d="M749.93,195.11l1.85,1.19.27,2.45-.71.13-.61.65-2-.08-1.41.81-2.43.33-1.53-.9-.52-1.59.47-1.26.47.03.17-.76,2.19-.57.83-.14,1.27-.22,1.71-.06h-.02Z"/>
    <path class="cls-4" d="M736.78,181.81l2.84-.97,2.31.16,2.01,1.46.41,1.18,2.25.87.29,1.53,2.16,1.08,1.16-.83.92.46-.87.62.68.65-.91.84.32,1.35,1.8,1.6-1.4,1.16-.63,1.18.4.44-.61.53-1.71.06-1.27.22-.12-.28.44-.45.41-.9-.52.03-.72-.69-.61-.18-.48-.59-.69-.23-.53-.53-.67.21-.51,1.23-.88.27.29-.32-1.41-.77-1.21-.4-.53-.51-.99-.63.87-.17.55-1.74-1.79-1.42.92-1.63h-1.33l1.43-1.38-1.19-1.06-.89-1.44h.01Z"/>
    <path class="cls-4" d="M741.38,194.11l-1,.33-.24-.7-1.6,1.83.24,1.18-.77-.29-1.04-1.2-1.6-.74.41-.63.55-2.04,1.2-.87.69-.33.99.63.53.51,1.21.4,1.41.77-.29.32-.69.83h0Z"/>
    <path class="cls-4" d="M743.3,196.83l-.25-1.34-.88-.38-.79-1,.69-.83.88-.27.51-1.23.67-.21.53.53.69.23.48.59.61.18.72.69.52-.03-.41.9-.44.45.12.28-.83.14-2.19.57-.17.76-.47-.03h0Z"/>
    <path class="cls-4" d="M438.44,312.06l2.13-.48.77.13-.15,2.76-3.09.41-.67-.33,1.08-1.02-.08-1.46h.01Z"/>
    <path class="cls-4" d="M781.25,338.92l-3.26-2.46-.88-1.58-2.07.78-1.71-.24-1,.62-1.65-.45-2.25-3.06-.59-1.17-2.77-1.47-.93-2.23-1.55-1.6-2.49-1.93-.03-1.2-2.03-1.5-2.52-1.44,1.13-.41,1.27-.7.96-3.31,1.01-1.72,2.67-.51.64,1.02,1.91,2.16,1.03.32,1.33-.63,2.67.13.51.77h3.7l.12-.77,1.91-.7.39-1.08,1.4-.77,3.11,2.16,1.92-.38,1.84-2.67,2.03-2.03-.31-2.23-.89-1.09,2.23-.19.25-.83,1.72.26-.45,2.73.45,2.67,1.91,1.46.44,1.27-.07,1.84.52.08.04,2.89-.56,1.14-1.96.09-1.27,2.11,2.28.26,1.88,1.81.64,1.48,1.69.86,2.19,4.03-2.51,2.45-2.28,2.21-2.28,1.71h-2.6l-2.99.86-2.35-.83-1.53,1.01h0Z"/>
  </g>
  <g>
    <path class="cls-3" d="M969.92,300.39c-6.62,0-12,5.38-12,12s10.83,17.25,11.3,17.71c.19.19.45.29.7.29s.51-.1.7-.29c.47-.46,11.3-11.29,11.3-17.71s-5.38-12-12-12Z"/>
    <circle class="cls-2" cx="969.92" cy="312.39" r="5"/>
  </g>
</svg>